<?xml version="1.0" encoding="utf-8"?>
<!-- Generator: Adobe Illustrator 19.0.0, SVG Export Plug-In . SVG Version: 6.00 Build 0)  -->
<svg version="1.1" id="Layer_1" xmlns="http://www.w3.org/2000/svg" xmlns:xlink="http://www.w3.org/1999/xlink" x="0px" y="0px"
	 viewBox="0 0 25 25" style="enable-background:new 0 0 25 25;" xml:space="preserve">
<style type="text/css">
	.st0{fill:#676A6C;}
</style>
<g>
	<circle class="st0" cx="16.7" cy="8" r="1.2"/>
	<path class="st0" d="M6.8,22.3H3.4c-0.4,0-0.8-0.3-0.8-0.8v-3.4c0-0.2,0.1-0.4,0.2-0.5L9.5,11c-0.2-0.3-0.4-0.7-0.5-1
		C8.5,8.8,8.7,7.5,9.6,6.6l3-3c0.9-0.9,2.1-1.1,3.3-0.7c1,0.4,2.5,1.1,3.8,2.4C21,6.5,21.7,8,22.1,9c0.4,1.1,0.2,2.4-0.7,3.3l-3.1,3
		c-0.9,0.9-2.2,1.1-3.4,0.7c-0.6-0.2-1.1-0.5-1.6-0.8c-0.4-0.2-0.5-0.7-0.3-1.1c0.2-0.4,0.7-0.5,1.1-0.3c0.4,0.3,0.9,0.5,1.4,0.7
		c0.6,0.2,1.2,0.1,1.7-0.3l3.1-3c0.4-0.4,0.6-1.1,0.3-1.6c-0.4-0.9-1-2.2-2.1-3.3c-1.1-1.1-2.3-1.7-3.2-2c-0.6-0.2-1.2-0.1-1.6,0.3
		l-3,3c-0.4,0.4-0.6,1.1-0.3,1.7c0.2,0.5,0.5,1,0.7,1.4c0.2,0.3,0.1,0.7-0.1,0.9l-6.8,6.8v2.3H6v-1.4c0-0.4,0.3-0.8,0.8-0.8l1.4,0
		v-1.4c0-0.4,0.3-0.8,0.8-0.8h2.2c0.4,0,0.8,0.3,0.8,0.8S11.5,18,11.1,18H9.7v1.4c0,0.4-0.3,0.8-0.8,0.8l-1.4,0v1.4
		C7.6,22,7.2,22.3,6.8,22.3z"/>
</g>
</svg>
