<svg xmlns="http://www.w3.org/2000/svg" style="display: none;">
    <symbol id="log" viewBox="0 0 492 492">
        <title>log</title>
        <path style="fill:#0EE0B8;"
              d="M402,0H90C76.4,0,66,10.4,66,24v320l154.4,148H402c13.6,0,24-10.4,24-24V24C426,10.4,415.6,0,402,0z"/>
        <path style="fill:#00ADDB;"
              d="M402,0H90C76.4,0,66,10.4,66,24v320l154.4,148H402c13.6,0,24-10.4,24-24V24C426,10.4,415.6,0,402,0z"/>
        <path style="fill:#009CCC;" d="M426,383.2V24c0-13.6-10.4-24-24-24H90C76.4,0,66,10.4,66,24"/>
        <path style="fill:#0491BC;" d="M426,383.2V24c0-13.6-10.4-24-24-24H205.2"/>
        <path style="fill:#009CCC;"
              d="M200.4,348.8v120c0,1.6,0,3.2,0.8,4.8l18.4,17.6c1.6,0,2.4,0.8,4,0.8h125.6L200.4,348.8L200.4,348.8z "/>
        <path style="fill:#0491BC;"
              d="M200.4,348.8v120c0,1.6,0,3.2,0.8,4.8l18.4,17.6c1.6,0,2.4,0.8,4,0.8h64l-72-120L200.4,348.8z"/>
        <path style="fill:#FFFFFF;" d="M220.4,491.2L220.4,491.2v-124c0-13.6-10.4-24-24-24H66L220.4,491.2z"/>
        <polyline style="fill:#D2F3FF;" points="66,344 220.4,491.2 220.4,491.2 220.4,368 "/>
        <path style="fill:#40DBFF;"
              d="M77.2,344L77.2,344V24c0-13.6,10.4-24,24-24H90.8c-13.6,0-24,10.4-24,24v320l0,0H77.2z"/>
        <path id="SVGCleanerId_0" style="fill:#FFFFFF;"
              d="M317.2,193.6h-8.8c-1.6-4.8-3.2-9.6-5.6-14.4l5.6-5.6c7.2-7.2,7.2-18.4,0-24.8 c-7.2-7.2-18.4-7.2-24.8,0l-5.6,5.6c-4.8-2.4-9.6-4.8-14.4-5.6V140c0-9.6-8-17.6-17.6-17.6s-17.6,8-17.6,17.6v8.8 c-4.8,1.6-9.6,3.2-14.4,5.6l-5.6-5.6c-7.2-7.2-18.4-7.2-24.8,0c-7.2,7.2-7.2,18.4,0,24.8l5.6,5.6c-2.4,4.8-4.8,9.6-5.6,14.4h-8.8 c-9.6,0-17.6,8-17.6,17.6s8,17.6,17.6,17.6h8.8c1.6,4.8,3.2,9.6,5.6,14.4l-5.6,5.6c-7.2,7.2-7.2,18.4,0,24.8c3.2,3.2,8,4.8,12.8,4.8 s8.8-1.6,12.8-4.8l5.6-5.6c4.8,2.4,9.6,4.8,14.4,5.6v8.8c0,9.6,8,17.6,17.6,17.6c9.6,0,17.6-8,17.6-17.6v-8.8 c4.8-1.6,9.6-3.2,14.4-5.6l5.6,5.6c3.2,3.2,8,4.8,12.8,4.8s8.8-1.6,12.8-4.8c7.2-7.2,7.2-18.4,0-24.8l-5.6-5.6 c2.4-4.8,4.8-9.6,5.6-14.4h8.8c9.6,0,17.6-8,17.6-17.6S326.8,193.6,317.2,193.6z M276.4,211.2c0,16.8-13.6,30.4-30.4,30.4 s-30.4-13.6-30.4-30.4s13.6-29.6,30.4-29.6S276.4,194.4,276.4,211.2z"/>
        <path style="fill:#0491BC;"
              d="M322,208.8h-8.8c-1.6-4.8-3.2-9.6-5.6-14.4l5.6-5.6c7.2-7.2,7.2-18.4,0-24.8 c-7.2-7.2-18.4-7.2-24.8,0l-5.6,5.6c-4.8-2.4-9.6-4.8-14.4-5.6v-8.8c0-9.6-8-17.6-17.6-17.6s-17.6,8-17.6,17.6v8.8 c-4.8,1.6-9.6,3.2-14.4,5.6l-5.6-5.6c-7.2-7.2-18.4-7.2-24.8,0c-7.2,7.2-7.2,18.4,0,24.8l5.6,5.6c-2.4,4.8-4.8,9.6-5.6,14.4h-8.8 c-9.6,0-17.6,8-17.6,17.6s8,17.6,17.6,17.6h8.8c1.6,4.8,3.2,9.6,5.6,14.4l-5.6,5.6c-7.2,7.2-7.2,18.4,0,24.8c3.2,3.2,8,4.8,12.8,4.8 s8.8-1.6,12.8-4.8l5.6-5.6c4.8,2.4,9.6,4.8,14.4,5.6v8.8c0,9.6,8,17.6,17.6,17.6c9.6,0,17.6-8,17.6-17.6v-8.8 c4.8-1.6,9.6-3.2,14.4-5.6l5.6,5.6c3.2,3.2,8,4.8,12.8,4.8s8.8-1.6,12.8-4.8c7.2-7.2,7.2-18.4,0-24.8l-5.6-5.6 c2.4-4.8,4.8-9.6,5.6-14.4h8.8c9.6,0,17.6-8,17.6-17.6C340.4,216.8,332.4,208.8,322,208.8z M281.2,226.4c0,16.8-13.6,30.4-30.4,30.4 s-30.4-13.6-30.4-30.4S234,196,250.8,196S281.2,210.4,281.2,226.4z"/>
        <g>
            <path id="SVGCleanerId_0_1_" style="fill:#FFFFFF;"
                  d="M317.2,193.6h-8.8c-1.6-4.8-3.2-9.6-5.6-14.4l5.6-5.6 c7.2-7.2,7.2-18.4,0-24.8c-7.2-7.2-18.4-7.2-24.8,0l-5.6,5.6c-4.8-2.4-9.6-4.8-14.4-5.6V140c0-9.6-8-17.6-17.6-17.6 s-17.6,8-17.6,17.6v8.8c-4.8,1.6-9.6,3.2-14.4,5.6l-5.6-5.6c-7.2-7.2-18.4-7.2-24.8,0c-7.2,7.2-7.2,18.4,0,24.8l5.6,5.6 c-2.4,4.8-4.8,9.6-5.6,14.4h-8.8c-9.6,0-17.6,8-17.6,17.6s8,17.6,17.6,17.6h8.8c1.6,4.8,3.2,9.6,5.6,14.4l-5.6,5.6 c-7.2,7.2-7.2,18.4,0,24.8c3.2,3.2,8,4.8,12.8,4.8s8.8-1.6,12.8-4.8l5.6-5.6c4.8,2.4,9.6,4.8,14.4,5.6v8.8c0,9.6,8,17.6,17.6,17.6 c9.6,0,17.6-8,17.6-17.6v-8.8c4.8-1.6,9.6-3.2,14.4-5.6l5.6,5.6c3.2,3.2,8,4.8,12.8,4.8s8.8-1.6,12.8-4.8c7.2-7.2,7.2-18.4,0-24.8 l-5.6-5.6c2.4-4.8,4.8-9.6,5.6-14.4h8.8c9.6,0,17.6-8,17.6-17.6S326.8,193.6,317.2,193.6z M276.4,211.2c0,16.8-13.6,30.4-30.4,30.4 s-30.4-13.6-30.4-30.4s13.6-29.6,30.4-29.6S276.4,194.4,276.4,211.2z"/>
        </g>
    </symbol>
    <symbol id="doc" viewBox="0 0 512 512">
        <title>doc</title>
        <rect x="177.137" y="138.313" style="fill:#FF4181;" width="296.038" height="373.687"/>
        <rect x="131.033" y="92.209" style="fill:#FF755C;" width="296.038" height="373.687"/>
        <rect x="84.929" y="46.104" style="fill:#FF9356;" width="296.038" height="373.687"/>
        <polygon style="fill:#FFCE47;" points="334.863,373.687 38.825,373.687 38.825,0 245.081,0 334.863,89.782 "/>
        <polygon style="fill:#FFEBB4;" points="245.081,0 245.081,89.782 334.863,89.782 "/>
    </symbol>
    <symbol id="audit" viewBox="0 0 512 512">
        <title>audit</title>
        <path style="fill:#83C9FF;"
              d="M492.23,396.009l-15.939,47.436l-15.969,47.526c-1.82,5.27-5.02,9.979-9.229,13.609 c-5.72,4.91-12.869,7.419-20.118,7.419c-5.66,0-11.379-1.53-16.539-4.64l-77.054-45.506c-7.139-4.22-9.509-13.409-5.29-20.548 l14.959-41.947l13.499-37.847c0.64-8.259,7.869-14.429,16.119-13.789l91.293,7.139l0.86,0.17c3.76,0.74,7.189,2.06,10.209,3.94 C491.621,366.771,497.04,382,492.23,396.009z"/>
        <path style="fill:#00A5FF;"
              d="M492.23,396.009l-15.939,47.436l-129.24-44.087l13.499-37.847c0.64-8.259,7.869-14.429,16.119-13.789 l91.293,7.139l0.86,0.17c3.76,0.74,7.189,2.06,10.209,3.94C491.621,366.771,497.04,382,492.23,396.009z"/>
        <path style="fill:#83C9FF;"
              d="M265.388,170.907c0,0.3-0.02,0.59-0.04,0.89c-0.02,0.19-0.02,0.39-0.05,0.58 c-0.02,0.26-0.07,0.51-0.11,0.77c-0.04,0.24-0.08,0.48-0.12,0.71c-0.05,0.21-0.11,0.42-0.16,0.63c-0.08,0.29-0.15,0.57-0.24,0.85 c-0.02,0.06-0.03,0.12-0.05,0.18l-31.068,92.653c-2.1,6.27-7.949,10.229-14.219,10.229c-1.34,0-2.71-0.18-4.06-0.56 c-0.24-0.07-0.47-0.14-0.71-0.22c-7.849-2.64-12.089-11.139-9.449-18.989l28.438-84.803l-55.796-68.355 c-5.24-6.419-4.28-15.869,2.14-21.098c0.3-0.25,0.61-0.48,0.93-0.7c6.359-4.44,15.179-3.29,20.168,2.83l61.025,74.764 c0.04,0.05,0.08,0.11,0.12,0.16c0.17,0.23,0.34,0.45,0.5,0.69c0.13,0.18,0.27,0.37,0.39,0.56c0.12,0.19,0.23,0.39,0.35,0.59 c0.13,0.23,0.27,0.47,0.39,0.71c0.09,0.16,0.15,0.32,0.23,0.49c0.13,0.28,0.26,0.56,0.37,0.85c0.06,0.15,0.11,0.31,0.16,0.46 c0.11,0.3,0.22,0.6,0.3,0.9c0.05,0.19,0.09,0.38,0.14,0.57c0.06,0.27,0.13,0.54,0.18,0.82c0.05,0.25,0.08,0.51,0.11,0.76 c0.03,0.22,0.06,0.43,0.08,0.65c0.03,0.29,0.03,0.59,0.04,0.89C265.378,170.547,265.388,170.727,265.388,170.907z"/>
        <path style="fill:#00A5FF;"
              d="M265.388,170.907c0,0.3-0.02,0.59-0.04,0.89c-0.02,0.19-0.02,0.39-0.05,0.58 c-0.02,0.26-0.07,0.51-0.11,0.77c-0.04,0.24-0.08,0.48-0.12,0.71c-0.05,0.21-0.11,0.42-0.16,0.63c-0.08,0.29-0.15,0.57-0.24,0.85 c-0.02,0.06-0.03,0.12-0.05,0.18l-31.068,92.653c-2.1,6.27-7.949,10.229-14.219,10.229c-1.34,0-2.71-0.18-4.06-0.56l34.887-106.962 l-69.335-87.203c6.359-4.44,15.179-3.29,20.168,2.83l61.025,74.764c0.04,0.05,0.08,0.11,0.12,0.16c0.17,0.23,0.34,0.45,0.5,0.69 c0.13,0.18,0.27,0.37,0.39,0.56c0.12,0.19,0.23,0.39,0.35,0.59c0.13,0.23,0.27,0.47,0.39,0.71c0.09,0.16,0.15,0.32,0.23,0.49 c0.13,0.28,0.26,0.56,0.37,0.85c0.06,0.15,0.11,0.31,0.16,0.46c0.11,0.3,0.22,0.6,0.3,0.9c0.05,0.19,0.09,0.38,0.14,0.57 c0.06,0.27,0.13,0.54,0.18,0.82c0.05,0.25,0.08,0.51,0.11,0.76c0.03,0.22,0.06,0.43,0.08,0.65c0.03,0.29,0.03,0.59,0.04,0.89 C265.378,170.547,265.388,170.727,265.388,170.907z"/>
        <path style="fill:#7A7780;"
              d="M295.356,19.109v32.637c0,32.517-26.458,58.975-58.975,58.975h-98.382 c-32.517,0-58.975-26.458-58.975-58.975V19.109C79.023,8.569,87.602,0,98.141,0h178.096C286.777,0,295.356,8.569,295.356,19.109z"/>
        <path style="fill:#57555C;"
              d="M295.356,19.109v32.637c0,32.517-26.458,58.975-58.975,58.975h-49.186V0h89.043 C286.777,0,295.356,8.569,295.356,19.109z"/>
        <path style="fill:#0088FF;"
              d="M390.189,360.872l-33.117,95.793c-7.449,21.548-27.798,35.167-49.486,35.167 c-5.52,0-11.129-0.88-16.639-2.74l-5.45-1.84l-112.341-37.987L57.885,410.288l-4.31-1.46c-13.279-4.49-23.998-13.899-30.178-26.488 c-6.18-12.599-7.049-26.828-2.47-40.087l33.107-95.793c9.359-27.048,39.027-41.597,66.135-32.427l118.261,39.987l119.111,40.277 c13.279,4.49,23.998,13.899,30.178,26.488C393.888,333.384,394.768,347.613,390.189,360.872z"/>
        <path style="fill:#006DF3;"
              d="M390.189,360.872l-33.117,95.793c-7.449,21.548-27.798,35.167-49.486,35.167 c-5.52,0-11.129-0.88-16.639-2.74l-5.45-1.84l-112.341-37.987l65.275-195.245l119.111,40.277 c13.279,4.49,23.998,13.899,30.178,26.488C393.888,333.384,394.768,347.613,390.189,360.872z"/>
        <path style="fill:#83C9FF;"
              d="M312.515,408.748l-27.018,78.504l-112.341-37.987L57.884,410.288l28.358-78.724 c7.009-20.098,29.088-30.898,49.266-24.078l76.404,25.838l76.264,25.788c9.899,3.35,17.899,10.359,22.498,19.748 C315.285,388.25,315.935,398.859,312.515,408.748z"/>
        <path style="fill:#00A5FF;"
              d="M312.515,408.748l-27.018,78.504l-112.341-37.987l38.757-115.941l76.264,25.788 c9.899,3.35,17.899,10.359,22.498,19.748C315.285,388.25,315.935,398.859,312.515,408.748z"/>
        <path style="fill:#BBDCFF;"
              d="M202.194,0v49.076c0,8.289-6.719,14.999-14.999,14.999c-8.289,0-14.999-6.709-14.999-14.999V0 H202.194z"/>
    </symbol>
    <symbol id="configuration" viewBox="0 0 512.001 512.001">
        <title>configuration</title>
        <path style="fill:#EDEDED;"
              d="M413.763,463.966c-43.954,16.271-92.95-6.25-109.221-50.204 c-16.271-43.954,6.251-92.95,50.204-109.221c43.954-16.271,92.95,6.251,109.221,50.204 C480.238,398.699,457.716,447.695,413.763,463.966z"/>
        <path style="fill:#A0A0A0;"
              d="M503.728,411.656l-21.084-9.692c1.652-9.091,2.063-18.47,1.102-27.884l21.723-8.042 c5.179-1.917,7.824-7.67,5.906-12.85l-10.415-28.134c-1.917-5.179-7.67-7.824-12.85-5.906l-21.723,8.042 c-5.4-7.77-11.819-14.621-18.993-20.445l9.691-21.084c2.307-5.018,0.109-10.956-4.91-13.263l-27.258-12.529 c-5.018-2.307-10.956-0.108-13.263,4.91l-9.691,21.084c-9.091-1.652-18.47-2.063-27.884-1.102l-8.042-21.723 c-1.917-5.179-7.67-7.824-12.85-5.906l-28.134,10.415c-5.179,1.917-7.824,7.67-5.906,12.85l8.042,21.723 c-7.77,5.4-14.621,11.819-20.445,18.993l-14.492-6.661l-6.593-3.03c-5.018-2.307-10.956-0.108-13.263,4.91l-12.529,27.258 c-2.307,5.018-0.109,10.956,4.91,13.263l21.084,9.691c-1.652,9.091-2.063,18.47-1.102,27.884l-21.723,8.042 c-5.179,1.917-7.824,7.67-5.906,12.85l10.415,28.134c1.917,5.179,7.67,7.824,12.85,5.906l21.723-8.042 c5.4,7.77,11.819,14.621,18.993,20.445l-9.691,21.084c-2.307,5.018-0.109,10.956,4.91,13.263l27.258,12.529 c5.018,2.307,10.956,0.109,13.263-4.91l9.692-21.084c9.091,1.652,18.47,2.063,27.884,1.102l8.042,21.723 c1.917,5.179,7.67,7.824,12.85,5.906l28.134-10.415c5.179-1.917,7.824-7.67,5.906-12.85l-8.042-21.723 c7.77-5.4,14.621-11.819,20.445-18.993l21.084,9.692c5.018,2.307,10.956,0.109,13.263-4.91l12.529-27.258 C510.945,419.9,508.747,413.962,503.728,411.656z M408.555,449.9c-36.198,13.4-76.548-5.148-89.948-41.345 s5.148-76.548,41.345-89.948c36.198-13.4,76.548,5.148,89.948,41.345C463.3,396.149,444.753,436.5,408.555,449.9z"/>
        <g>
            <path style="fill:#757575;"
                  d="M463.967,354.745c-16.271-43.954-65.267-66.475-109.221-50.204s-66.475,65.267-50.204,109.221 s65.267,66.475,109.221,50.204C457.716,447.695,480.238,398.698,463.967,354.745z M408.555,449.899 c-36.198,13.4-76.548-5.147-89.948-41.345s5.147-76.548,41.345-89.948s76.548,5.148,89.948,41.345 C463.3,396.149,444.753,436.5,408.555,449.899z"/>
            <path style="fill:#757575;"
                  d="M403.222,369.331c0.844-2.271,1.329-4.715,1.329-7.276c0-11.561-9.405-20.965-20.966-20.965h-17.953 c-4.143,0-7.5,3.358-7.5,7.5v26.931v40.396c0,4.142,3.357,7.5,7.5,7.5h29.175c15.272,0,27.697-12.425,27.697-27.698 C422.504,383.378,414.392,372.901,403.222,369.331z M373.132,356.089h10.453c3.29,0,5.966,2.676,5.966,5.965 s-2.676,5.965-5.966,5.965h-10.453V356.089z M394.807,408.415h-21.675V383.02h10.453h11.222c7.001,0,12.697,5.696,12.697,12.698 S401.808,408.415,394.807,408.415z M510.117,261.065c-1.481,1.675-3.546,2.53-5.619,2.53c-1.767,0-3.54-0.621-4.968-1.883 c-38.022-33.648-87.957-51.657-138.224-50.124l14.483,7.292c3.699,1.862,5.188,6.372,3.326,10.071 c-1.318,2.618-3.961,4.129-6.705,4.129c-1.134,0-2.285-0.258-3.367-0.803l-30.315-15.263c-3.699-1.862-5.188-6.372-3.326-10.071 l15.263-30.316c1.864-3.699,6.372-5.189,10.072-3.326c3.699,1.862,5.188,6.372,3.326,10.071l-6.723,13.354 c55.231-2.613,110.376,16.801,152.131,53.752C512.573,253.224,512.862,257.964,510.117,261.065z"/>
        </g>
        <path style="fill:#B1EAD4;"
              d="M207.192,253.865c-52.324,26.588-116.524,5.65-143.111-46.675 c-26.588-52.323-5.65-116.523,46.674-143.11c52.324-26.588,116.524-5.65,143.111,46.675 C280.454,163.078,259.516,227.278,207.192,253.865z"/>
        <path style="fill:#7CC3AC;"
              d="M240.664,251.592c8.762-7.73,16.251-16.58,22.373-26.208l27.242,8.885 c6.484,2.115,13.454-1.427,15.569-7.911l11.487-35.219c2.115-6.484-1.427-13.454-7.911-15.569l-27.242-8.885 c0.732-11.387-0.099-22.949-2.619-34.359l25.501-12.958c6.08-3.089,8.504-10.523,5.415-16.603l-16.782-33.026 c-3.089-6.08-10.523-8.504-16.603-5.415l-25.501,12.958c-7.73-8.762-16.58-16.251-26.208-22.373l8.885-27.242 c2.115-6.484-1.427-13.454-7.911-15.569l-35.22-11.486c-6.484-2.115-13.454,1.427-15.569,7.911l-8.885,27.242 c-11.387-0.732-22.949,0.099-34.359,2.619l-12.958-25.501c-3.089-6.08-10.523-8.504-16.603-5.415L69.74,24.25 c-6.08,3.089-8.504,10.523-5.415,16.603l12.958,25.501c-8.762,7.73-16.251,16.58-22.373,26.208l-18.724-6.107l-8.518-2.778 c-6.484-2.115-13.454,1.427-15.569,7.911L0.613,126.807c-2.115,6.484,1.427,13.454,7.911,15.569l27.242,8.885 c-0.732,11.387,0.099,22.949,2.619,34.359l-25.501,12.958c-6.08,3.089-8.504,10.523-5.415,16.603l16.782,33.026 c3.089,6.08,10.523,8.504,16.603,5.415l25.501-12.958c7.73,8.762,16.58,16.251,26.208,22.373l-8.885,27.242 c-2.115,6.484,1.427,13.454,7.911,15.569l35.219,11.487c6.484,2.115,13.454-1.427,15.569-7.911l8.885-27.242 c11.387,0.732,22.949-0.1,34.359-2.619l12.958,25.501c3.089,6.08,10.523,8.504,16.603,5.415l33.026-16.782 c6.08-3.089,8.504-10.523,5.415-16.603L240.664,251.592z M198.131,236.033c-42.492,21.591-94.627,4.588-116.218-37.904 s-4.588-94.627,37.904-116.218s94.627-4.588,116.218,37.904S240.622,214.442,198.131,236.033z"/>
        <path style="fill:#61AE9F;"
              d="M253.866,110.754C227.279,58.43,163.08,37.492,110.755,64.08s-73.262,90.787-46.674,143.111 s90.787,73.262,143.111,46.675C259.516,227.278,280.454,163.078,253.866,110.754z M198.131,236.033 c-42.491,21.592-94.627,4.588-116.218-37.903c-21.591-42.492-4.588-94.627,37.904-116.218 c42.491-21.591,94.626-4.588,116.218,37.904C257.626,162.307,240.622,214.442,198.131,236.033z"/>
        <path style="fill:#4A7273;"
              d="M235.659,350.192l-8.115,32.957c-0.842,3.419-3.905,5.708-7.276,5.708 c-0.594,0-1.196-0.071-1.799-0.22c-4.022-0.99-6.479-5.054-5.489-9.076l3.575-14.521c-18.633,5.201-37.856,7.781-57.072,7.781 c-35.711,0-71.396-8.875-103.217-26.238c-3.637-1.984-4.976-6.54-2.992-10.176c1.983-3.636,6.54-4.975,10.176-2.992 c44.57,24.318,97.271,30.73,145.922,18.026l-15.743-3.877c-4.022-0.99-6.479-5.054-5.489-9.076c0.99-4.021,5.051-6.478,9.075-5.489 l32.956,8.115C234.192,342.107,236.649,346.17,235.659,350.192z M123.858,191.6l9.283-27.849c0.003-0.011,0.007-0.021,0.011-0.032 l12.564-37.691c1.904-5.715,7.232-9.556,13.258-9.556c6.023,0,11.352,3.84,13.257,9.554l12.562,37.686 c0.004,0.014,0.01,0.028,0.014,0.042l9.282,27.846c1.31,3.93-0.813,8.177-4.743,9.487c-0.787,0.262-1.587,0.387-2.373,0.387 c-3.141,0-6.066-1.987-7.114-5.13l-7.624-22.872h-26.522l-7.624,22.872c-1.311,3.929-5.559,6.051-9.487,4.744 C124.672,199.777,122.549,195.53,123.858,191.6z M150.712,158.472h16.522l-8.261-24.783L150.712,158.472z"/>
    </symbol>
    <symbol id="health" viewBox="0 0 504.123 504.123">
        <title>health</title>
        <path style="fill:#E4E7E7;"
              d="M78.769,0h346.585c43.323,0,78.769,35.446,78.769,78.769v346.585 c0,43.323-35.446,78.769-78.769,78.769H78.769C35.446,504.123,0,468.677,0,425.354V78.769C0,35.446,35.446,0,78.769,0z"/>
        <path style="fill:#2B414D;"
              d="M78.769,31.508h346.585c25.994,0,47.262,21.268,47.262,47.262v259.938 c0,25.994-21.268,47.262-47.262,47.262H78.769c-25.994,0-47.262-21.268-47.262-47.262V78.769 C31.508,52.775,52.775,31.508,78.769,31.508z"/>
        <path style="fill:#324D5B;"
              d="M86.646,55.138h330.831c17.329,0,31.508,14.178,31.508,31.508v244.185 c0,17.329-14.178,31.508-31.508,31.508H86.646c-17.329,0-31.508-14.178-31.508-31.508V86.646 C55.138,69.317,69.317,55.138,86.646,55.138z"/>
        <path style="fill:#E2574C;"
              d="M114.215,417.477c15.36,0,27.569,12.209,27.569,27.569c0,15.36-12.209,27.569-27.569,27.569 s-27.569-12.209-27.569-27.569C86.646,429.686,98.855,417.477,114.215,417.477z"/>
        <path style="fill:#F3B5B0;"
              d="M114.215,433.231c6.695,0,11.815,5.12,11.815,11.815s-5.12,11.815-11.815,11.815 s-11.815-5.12-11.815-11.815C102.4,438.745,107.52,433.231,114.215,433.231z"/>
        <path style="fill:#CCD0D2;"
              d="M200.862,425.354c-11.028,0-19.692,8.665-19.692,19.692c0,11.028,8.665,19.692,19.692,19.692 c11.028,0,19.692-8.665,19.692-19.692C220.554,434.018,211.889,425.354,200.862,425.354z M263.877,425.354 c-11.028,0-19.692,8.665-19.692,19.692c0,11.028,8.665,19.692,19.692,19.692s19.692-8.665,19.692-19.692 C283.569,434.018,274.905,425.354,263.877,425.354z M326.892,425.354c-11.028,0-19.692,8.665-19.692,19.692 c0,11.028,8.665,19.692,19.692,19.692s19.692-8.665,19.692-19.692C346.585,434.018,337.92,425.354,326.892,425.354z M389.908,425.354c-11.028,0-19.692,8.665-19.692,19.692c0,11.028,8.665,19.692,19.692,19.692s19.692-8.665,19.692-19.692 C409.6,434.018,400.935,425.354,389.908,425.354z"/>
        <path style="fill:#26A6D1;"
              d="M448.985,192.985h-47.262c-3.545,0-6.695,1.969-7.877,5.514l-16.148,47.262l-31.902-102.4 c-1.182-3.151-3.938-5.514-7.483-5.514c-3.545-0.394-6.695,1.969-7.877,5.12l-29.932,76.8l-12.603-22.449 c-1.182-2.757-4.332-4.332-7.089-4.332h-55.138c-3.545,0-6.695,2.363-7.877,5.514l-16.148,47.262l-32.295-102.4 c-1.182-3.151-3.938-5.514-7.483-5.514s-6.695,1.969-7.877,5.12l-29.932,76.8l-12.603-22.843c-1.182-2.757-4.332-3.545-7.089-3.545 H55.138v15.754h44.111l18.511,33.871c1.575,2.757,4.332,4.332,7.483,4.332c3.151,0,5.908-1.969,7.089-5.12l28.357-72.074 l32.295,103.975c1.182,3.151,4.332,5.514,7.483,5.514s6.695-1.969,7.877-5.514l22.449-65.772h44.898l18.511,34.265 c1.575,2.757,4.332,4.332,7.483,4.332s5.908-1.969,7.089-5.12l28.357-72.074l32.295,103.975c1.182,3.151,3.938,5.514,7.483,5.514 s6.695-1.969,7.877-5.514l22.449-65.378h41.748v-15.361H448.985z"/>
    </symbol>
    <symbol id="metric" viewBox="0 0 409.62 409.62">
        <title>metric</title>
        <g>
            <rect x="160.861" y="179.651" transform="matrix(-0.4988 0.8667 -0.8667 -0.4988 612.4076 20.0485)"
                  style="fill:#F6C358;" width="279.091" height="14.904"/>
            <rect x="97.358" y="43.579" transform="matrix(-0.8955 0.4451 -0.4451 -0.8955 280.1638 300.4646)"
                  style="fill:#F6C358;" width="14.894" height="279.092"/>
        </g>
        <path style="fill:#DC8744;"
              d="M45.711,292.063c0-60.871,67.962-133.977,151.797-133.977s151.797,73.106,151.797,133.977"/>
        <path style="fill:#FFFFFF;"
              d="M78.613,292.063c0-47.678,53.231-104.938,118.895-104.938s118.895,57.26,118.895,104.938"/>
        <polygon style="fill:#64798A;" points="203.455,279.853 182.665,279.853 187.945,194.715 198.175,194.715 "/>
        <ellipse style="fill:#27A2DB;" cx="193.06" cy="292.413" rx="18.811" ry="20.787"/>
        <path style="fill:#FCD462;"
              d="M384.451,391.061H10.565C4.73,391.061,0,386.331,0,380.496v-77.869 c0-5.835,4.73-10.565,10.565-10.565h373.886c5.835,0,10.565,4.73,10.565,10.565v77.869 C395.015,386.331,390.285,391.061,384.451,391.061z"/>
        <path style="fill:#F6C358;"
              d="M0,340.084v34.635c0,9.025,7.316,16.342,16.342,16.342h362.332c9.025,0,16.342-7.316,16.342-16.342 v-34.635H0z"/>
        <g>
            <circle style="fill:#FCD462;" cx="45.711" cy="58.158" r="39.598"/>
            <circle style="fill:#FCD462;" cx="370.022" cy="66.181" r="39.598"/>
            <polygon style="fill:#FCD462;"
                     points="203.835,116.873 145.268,46.597 98.759,110.182 86.737,101.382 144.497,22.408 204.737,94.691 275.305,22.786 328.585,101.615 316.25,109.95 273.166,46.219 "/>
        </g>
    </symbol>
    <symbol id="user" viewBox="0 0 512 512">
        <title>user</title>
        <path style="fill:#95D6A6;"
              d="M428.854,204.583c-6.667-3.176-13.611-5.855-20.787-7.997c-6.736-2.014-13.679-3.549-20.787-4.569 c-6.793-0.974-13.727-1.492-20.787-1.492c-4.491,0-8.937,0.205-13.326,0.606c-6.189,0.564-12.263,1.53-18.205,2.849 c-2.117,0.47-4.217,0.987-6.298,1.549c-3.489,0.941-6.927,2.009-10.307,3.198c-5.891,2.073-11.609,4.516-17.128,7.3 c-1.088,0.549-2.166,1.111-3.239,1.686c-6.226,3.34-12.182,7.119-17.828,11.298c-2.102,1.556-4.161,3.168-6.175,4.832 c-1.66,1.372-3.298,2.767-4.895,4.21c-2.065,1.865-4.076,3.787-6.029,5.766c-4.886,4.947-9.423,10.241-13.567,15.841 c-1.103,1.491-2.18,3.003-3.229,4.537c-2.097,3.067-4.08,6.215-5.942,9.443c-0.931,1.614-1.832,3.248-2.701,4.9 c-0.888,1.692-1.754,3.398-2.579,5.127c-1.695,3.56-3.241,7.203-4.644,10.916c-0.468,1.238-0.92,2.483-1.357,3.736 c-0.352,1.013-0.696,2.03-1.03,3.053c-0.334,1.021-0.657,2.05-0.967,3.082c-1.006,3.369-1.892,6.79-2.655,10.256 c-0.764,3.466-1.402,6.979-1.914,10.53c-0.244,1.698-0.459,3.405-0.644,5.122c-0.556,5.148-0.847,10.374-0.847,15.665 c0,12.751,1.655,25.12,4.752,36.91c1.032,3.93,2.226,7.796,3.57,11.592c1.278,3.602,2.69,7.139,4.235,10.607 c1.545,3.467,3.221,6.862,5.025,10.18c1.993,3.665,4.141,7.236,6.433,10.704c2.292,3.467,4.728,6.83,7.297,10.083 c26.671,33.741,67.946,55.431,114.193,55.431C446.727,481.534,512,416.26,512,336.028C512,278.102,477.97,227.978,428.854,204.583z"/>
        <path style="fill:#9CDD05;"
              d="M89.101,308.136c12.261-15.887,27.445-29.402,44.745-39.734c7.191-4.294,14.743-8.043,22.603-11.178 c7.719-3.079,15.735-5.567,23.989-7.417c-19.756-18.216-45.649-28.453-72.869-28.453C48.253,221.355,0,269.61,0,328.923 c0,11.48,9.305,20.787,20.787,20.787h45.179c2.686-7.188,5.87-14.131,9.522-20.787C79.489,321.63,84.047,314.684,89.101,308.136z"/>
        <g>
            <path style="fill:#EFC27B;"
                  d="M128.354,117.425c0-11.207,2.155-21.913,6.031-31.759c2.601-6.6,5.981-12.806,10.036-18.507 c-10.331-7.595-23.073-12.096-36.853-12.096c-34.387,0-62.36,27.976-62.36,62.361s27.973,62.358,62.36,62.358 c13.776,0,26.52-4.5,36.853-12.095c-4.055-5.701-7.437-11.907-10.036-18.507C130.509,139.335,128.354,128.63,128.354,117.425z"/>
            <path style="fill:#EFC27B;"
                  d="M144.421,67.159c-4.055,5.701-7.435,11.907-10.036,18.507c-3.876,9.846-6.031,20.552-6.031,31.759 c0,11.204,2.155,21.91,6.031,31.754c2.598,6.602,5.981,12.807,10.036,18.507c15.771,22.182,41.66,36.694,70.891,36.694 c47.948,0,86.957-39.008,86.957-86.956c0-47.949-39.009-86.959-86.957-86.959C186.08,30.466,160.195,44.978,144.421,67.159z"/>
        </g>
        <path style="fill:#A4E276;"
              d="M229.311,384.531c-5.381-15.178-8.323-31.501-8.323-48.502c0-7.055,0.517-13.995,1.491-20.787 c1.023-7.103,2.558-14.049,4.569-20.787c0.619-2.066,1.294-4.107,1.997-6.135c1.746-5.011,3.74-9.904,6-14.652 c0.826-1.729,1.692-3.437,2.579-5.127c3.478-6.612,7.457-12.915,11.871-18.88c-11.183-2.446-22.627-3.708-34.184-3.708 c-11.977,0-23.645,1.337-34.874,3.854c-8.252,1.849-16.269,4.337-23.989,7.417c-7.86,3.136-15.411,6.883-22.603,11.178 c-17.3,10.332-32.484,23.848-44.745,39.734c-5.053,6.546-9.61,13.492-13.614,20.787c-3.652,6.656-6.837,13.599-9.522,20.787 c-6.472,17.321-10.018,36.058-10.018,55.608c0,11.48,9.305,20.787,20.787,20.787h175.565c-5.14-6.505-9.743-13.454-13.73-20.787 C234.962,398.684,231.865,391.736,229.311,384.531z"/>
        <path style="fill:#368B4C;"
              d="M408.067,315.242H387.28v-20.787c0-11.48-9.308-20.787-20.787-20.787 c-11.478,0-20.787,9.307-20.787,20.787v20.787h-20.787c-11.478,0-20.787,9.307-20.787,20.787c0,11.481,9.308,20.787,20.787,20.787 h20.787v20.787c0,11.481,9.308,20.787,20.787,20.787c11.478,0,20.787-9.305,20.787-20.787v-20.787h20.787 c11.478,0,20.787-9.305,20.787-20.787C428.854,324.549,419.545,315.242,408.067,315.242z"/>
        <path style="fill:#64C37D;"
              d="M345.707,377.602v-20.787h-20.787c-11.478,0-20.787-9.305-20.787-20.787 c0-11.48,9.308-20.787,20.787-20.787h20.787v-20.787c0-11.48,9.308-20.787,20.787-20.787v-83.146 c-47.912,0-90.473,23.296-116.998,59.139c-4.415,5.964-8.394,12.27-11.871,18.88c-0.888,1.692-1.754,3.398-2.579,5.127 c-2.26,4.748-4.254,9.639-6,14.652c-0.704,2.027-1.377,4.069-1.997,6.135c-2.011,6.738-3.546,13.683-4.569,20.787 c-0.974,6.792-1.491,13.732-1.491,20.787c0,17.001,2.942,33.324,8.323,48.502c2.555,7.203,5.651,14.153,9.26,20.787 c3.987,7.332,8.59,14.282,13.73,20.787c26.671,33.741,67.946,55.431,114.193,55.431v-83.146 C355.016,398.389,345.707,389.085,345.707,377.602z"/>
        <path style="fill:#ECB45C;"
              d="M144.421,67.159c-4.055,5.701-7.435,11.907-10.036,18.507c-3.876,9.846-6.031,20.552-6.031,31.758 c0,11.204,2.155,21.91,6.031,31.755c2.598,6.602,5.981,12.807,10.036,18.507c15.771,22.182,41.66,36.694,70.891,36.694V30.465 C186.08,30.466,160.195,44.978,144.421,67.159z"/>
        <path style="fill:#64C37D;"
              d="M156.45,257.224c-7.86,3.136-15.411,6.883-22.603,11.178c-17.3,10.332-32.484,23.848-44.745,39.734 c-5.053,6.546-9.612,13.492-13.614,20.787c-3.652,6.656-6.837,13.599-9.522,20.787c-6.472,17.321-10.018,36.058-10.018,55.608 c0,11.48,9.305,20.787,20.787,20.787h138.577v-180.15c-11.977,0-23.645,1.337-34.874,3.854 C172.185,251.658,164.168,254.147,156.45,257.224z"/>
        <path style="fill:#ECB45C;"
              d="M107.568,55.062c-34.387,0-62.36,27.976-62.36,62.361s27.973,62.358,62.36,62.358 c0.058,0,0.115-0.003,0.173-0.004V55.066C107.683,55.066,107.626,55.062,107.568,55.062z"/>
    </symbol>
    <symbol id="permission" viewBox="0 0 512 512">
        <title>permission</title>
        <path style="fill:#163457;"
              d="M311.652,89.043H200.348c-9.22,0-16.696-7.475-16.696-16.696V16.696 c0-9.22,7.475-16.696,16.696-16.696h111.304c9.22,0,16.696,7.475,16.696,16.696v55.652 C328.348,81.568,320.873,89.043,311.652,89.043z"/>
        <path style="fill:#0F2A47;"
              d="M311.652,0H256v89.043h55.652c9.22,0,16.696-7.475,16.696-16.696V16.696 C328.348,7.475,320.873,0,311.652,0z"/>
        <path style="fill:#1C3D66;"
              d="M356.174,512H155.826c-9.22,0-16.696-7.475-16.696-16.696V72.348c0-9.22,7.475-16.696,16.696-16.696 h200.348c9.22,0,16.696,7.475,16.696,16.696v422.956C372.87,504.525,365.394,512,356.174,512z"/>
        <path style="fill:#163457;"
              d="M356.174,55.652H256V512h100.174c9.22,0,16.696-7.475,16.696-16.696V72.348 C372.87,63.127,365.394,55.652,356.174,55.652z"/>
        <path style="fill:#FFE365;"
              d="M256,339.478c-30.687,0-55.652-24.966-55.652-55.652s24.966-55.652,55.652-55.652 s55.652,24.966,55.652,55.652S286.687,339.478,256,339.478z"/>
        <path style="fill:#FF7976;"
              d="M256,203.13c-30.687,0-55.652-24.966-55.652-55.652S225.313,91.826,256,91.826 s55.652,24.966,55.652,55.652S286.687,203.13,256,203.13z"/>
        <path style="fill:#B7E183;"
              d="M256,475.826c-30.687,0-55.652-24.966-55.652-55.652s24.966-55.652,55.652-55.652 s55.652,24.966,55.652,55.652S286.687,475.826,256,475.826z"/>
        <path style="fill:#FFC733;"
              d="M256,228.174v111.304c30.687,0,55.652-24.966,55.652-55.652S286.687,228.174,256,228.174z"/>
        <path style="fill:#FF5752;"
              d="M256,91.826V203.13c30.687,0,55.652-24.966,55.652-55.652S286.687,91.826,256,91.826z"/>
        <path style="fill:#71DE56;"
              d="M256,364.522v111.304c30.687,0,55.652-24.966,55.652-55.652S286.687,364.522,256,364.522z"/>
    </symbol>
</svg>
