<?xml version="1.0" encoding="utf-8"?>
<!-- Generator: Adobe Illustrator 19.0.0, SVG Export Plug-In . SVG Version: 6.00 Build 0)  -->
<svg version="1.1" id="Layer_1" xmlns="http://www.w3.org/2000/svg" xmlns:xlink="http://www.w3.org/1999/xlink" x="0px" y="0px"
	 viewBox="0 0 83 61" style="enable-background:new 0 0 83 61;" xml:space="preserve">
<style type="text/css">
	.st0{fill:#439DD3;}
	.st1{fill:#458BAF;}
	.st2{fill:#FFFFFF;}
</style>
<path id="XMLID_63_" class="st0" d="M79.1,0C81.3,0,83,1.7,83,3.9v49.4v3.9h-2.6l-2-3.9H0L0,0L79.1,0z"/>
<path id="XMLID_61_" class="st1" d="M78.4,53.3c2.5,0,4.6,1.7,4.6,3.9S80.9,61,78.4,61V53.3z"/>
<g>
	<path class="st2" d="M49.9,34.9v-7.6H36.1V21c2.5-0.3,4.4-2.4,4.4-5c0-2.8-2.3-5-5-5c-2.8,0-5,2.3-5,5c0,2.6,1.9,4.7,4.4,5v6.3
		H20.9v7.6h-4.4V45h10.1V34.9h-4.4v-6.3h12.6v6.3h-4.4V45h10.1V34.9h-4.4v-6.3h12.6v6.3h-4.4V45h10.1V34.9H49.9z M31.6,16
		c0-2.1,1.7-3.8,3.8-3.8c2.1,0,3.8,1.7,3.8,3.8c0,2.1-1.7,3.8-3.8,3.8C33.3,19.8,31.6,18.1,31.6,16L31.6,16z M25.4,43.7h-7.6v-7.6
		h7.6V43.7z M39.2,43.7h-7.6v-7.6h7.6V43.7z M53.1,43.7h-7.6v-7.6h7.6V43.7z M53.1,43.7"/>
</g>
</svg>
