<?xml version="1.0" encoding="utf-8"?>
<!-- Generator: Adobe Illustrator 19.0.0, SVG Export Plug-In . SVG Version: 6.00 Build 0)  -->
<svg version="1.1" id="Layer_1" xmlns="http://www.w3.org/2000/svg" xmlns:xlink="http://www.w3.org/1999/xlink" x="0px" y="0px"
	 viewBox="0 0 83 61" style="enable-background:new 0 0 83 61;" xml:space="preserve">
<style type="text/css">
	.st0{fill:#439DD3;}
	.st1{fill:#458BAF;}
	.st2{fill:#FFFFFF;}
</style>
<path id="XMLID_63_" class="st0" d="M79.1,0C81.3,0,83,1.7,83,3.9v49.4v3.9h-2.6l-2-3.9H0L0,0L79.1,0z"/>
<path id="XMLID_61_" class="st1" d="M78.4,53.3c2.5,0,4.6,1.7,4.6,3.9S80.9,61,78.4,61V53.3z"/>
<path class="st2" d="M53.4,15.2C53.4,15.2,53.4,15.1,53.4,15.2c0-0.1,0-0.1,0-0.2c0,0,0,0,0,0c0-0.1,0-0.1-0.1-0.2c0,0,0,0,0,0
	c0,0,0,0,0,0c0,0,0,0,0,0c0,0,0,0,0,0c0-0.1-0.1-0.1-0.1-0.1c0,0,0,0,0,0c0,0-0.1-0.1-0.1-0.1c0,0,0,0-0.1,0c0,0-0.1,0-0.1,0
	c0,0,0,0-0.1,0c0,0,0,0,0,0l-36.2,7.5c-0.3,0.1-0.5,0.3-0.5,0.5c0,0.3,0.1,0.5,0.3,0.6l10.4,5.5l1.8,10.1c0,0,0,0,0,0
	c0,0,0,0.1,0,0.1c0,0,0,0,0,0.1c0,0.1,0,0.1,0.1,0.2c0,0,0,0,0,0c0,0,0,0,0,0c0,0,0,0,0,0c0,0,0.1,0.1,0.1,0.1c0,0,0,0,0,0
	c0,0,0,0,0,0c0,0,0.1,0,0.1,0.1c0,0,0,0,0.1,0c0.1,0,0.1,0,0.2,0h0c0,0,0,0,0,0c0,0,0,0,0,0c0.2,0,0.3-0.1,0.4-0.2l6.9-4.6l7.2,4.7
	c0.1,0.1,0.2,0.1,0.3,0.1c0.1,0,0.1,0,0.2,0c0.2-0.1,0.3-0.2,0.4-0.4l8.7-23.7C53.4,15.3,53.4,15.2,53.4,15.2
	C53.4,15.2,53.4,15.2,53.4,15.2C53.4,15.2,53.4,15.2,53.4,15.2L53.4,15.2z M46.2,19.2l-15,11c0,0,0,0-0.1,0.1c0,0,0,0,0,0
	c0,0,0,0,0,0c0,0,0,0,0,0c0,0,0,0.1-0.1,0.1c0,0,0,0,0,0c0,0,0,0,0,0l-1.7,5.6l-1.4-7.5L46.2,19.2z M30.2,37.3l1.7-5.6l2.6,1.7
	l0.8,0.5l-2.6,1.7L30.2,37.3z M48.4,16.6L27.2,27.5l-8.8-4.7L48.4,16.6z M43.7,37.8l-9.6-6.2l-1.5-0.9l18.8-13.8L43.7,37.8z
	 M43.7,37.8"/>
</svg>
