<?xml version="1.0" encoding="utf-8"?>
<!-- Generator: Adobe Illustrator 19.0.0, SVG Export Plug-In . SVG Version: 6.00 Build 0)  -->
<svg version="1.1" id="Layer_1" xmlns="http://www.w3.org/2000/svg" xmlns:xlink="http://www.w3.org/1999/xlink" x="0px" y="0px"
	 viewBox="0 0 25 25" style="enable-background:new 0 0 25 25;" xml:space="preserve">
<style type="text/css">
	.st0{fill:#696969;}
</style>
<g>
	<path class="st0" d="M17.4,11l2.3,2.3l-5.8,5.8l-2.3-2.3L17.4,11z M21.4,10.5l-1-1C20,9,19.4,9,19,9.4l-1,1l2.3,2.3l1.1-1.1
		C21.7,11.3,21.7,10.8,21.4,10.5L21.4,10.5z M10.4,20.1c0,0.2,0.1,0.4,0.3,0.3l2.6-0.6l-2.3-2.3L10.4,20.1z M10.4,20.1"/>
	<g>
		<path class="st0" d="M10.1,14.1l-0.7,0.7l-4.7,4.5V5.6H16v4.7l1.4-1.4V5.4c0-0.2-0.1-0.5-0.2-0.7c-0.1-0.2-0.3-0.4-0.6-0.5
			c-0.2-0.1-0.3-0.1-0.5-0.1H4.6c-0.2,0-0.3,0-0.5,0.1C3.9,4.4,3.7,4.5,3.6,4.7C3.4,4.9,3.3,5.2,3.3,5.4v14.2c0,0.2,0.1,0.5,0.2,0.7
			c0.1,0.2,0.3,0.4,0.6,0.5c0.2,0.1,0.3,0.1,0.5,0.1c0.3,0,0.6-0.1,0.9-0.4l4-3.9L10.1,14.1z"/>
		<path class="st0" d="M16,19.2L16,19.2l-1,1l0.3,0.3c0.3,0.2,0.6,0.4,0.9,0.4c0.2,0,0.3,0,0.5-0.1c0.2-0.1,0.4-0.2,0.6-0.5
			c0.1-0.2,0.2-0.4,0.2-0.7v-1.9L16,19.1V19.2z"/>
	</g>
</g>
</svg>
