<svg xmlns="http://www.w3.org/2000/svg" style="display: none;"><symbol id="heatmap" viewBox="0 0 512 512"><title>heatmap</title><rect y="76.8" style="fill:#F7E3C6;" width="256" height="358.4"/><g> <rect x="256" y="76.8" style="fill:#EFC27B;" width="256" height="358.4"/> <rect x="256" y="345.6" style="fill:#EFC27B;" width="204.8" height="89.6"/> </g><g> <rect x="153.6" y="256" style="fill:#F7E3C6;" width="204.8" height="89.6"/> <rect x="153.6" y="76.8" style="fill:#F7E3C6;" width="204.8" height="89.6"/> </g><g> <rect x="256" y="76.8" style="fill:#F4D8AA;" width="102.4" height="89.6"/> <rect x="256" y="256" style="fill:#F4D8AA;" width="102.4" height="89.6"/> </g><rect y="76.8" style="fill:#EFC27B;" width="153.6" height="89.6"/><rect x="358.4" y="76.8" style="fill:#ECB45C;" width="153.6" height="89.6"/><rect y="256" style="fill:#EFC27B;" width="153.6" height="89.6"/><rect x="358.4" y="256" style="fill:#ECB45C;" width="153.6" height="89.6"/><g> <rect x="460.8" y="345.6" style="fill:#E9A440;" width="51.2" height="89.6"/> <rect x="460.8" y="166.4" style="fill:#E9A440;" width="51.2" height="89.6"/> </g><rect x="51.2" y="345.6" style="fill:#F4D8AA;" width="204.8" height="89.6"/><rect x="256" y="166.4" style="fill:#EFC27B;" width="204.8" height="89.6"/><rect x="51.2" y="166.4" style="fill:#F4D8AA;" width="204.8" height="89.6"/></symbol><symbol id="boxplot" viewBox="0 0 512 512"><title>boxplot</title><path style="fill:#9E8CEC;" d="M491.243,235.243H20.757C9.292,235.243,0,244.538,0,256c0,11.465,9.292,20.757,20.757,20.757h470.487 c11.465,0,20.757-9.292,20.757-20.757C512,244.538,502.708,235.243,491.243,235.243z"/><path style="fill:#6A56CF;" d="M491.243,235.243H256v41.514h235.243c11.465,0,20.757-9.292,20.757-20.757 C512,244.538,502.708,235.243,491.243,235.243z"/><path style="fill:#DD9520;" d="M214.486,27.676c-11.462,0-20.757,9.295-20.757,20.757v415.135c0,11.465,9.295,20.757,20.757,20.757 c11.465,0,20.757-9.292,20.757-20.757V48.432C235.243,36.971,225.951,27.676,214.486,27.676z"/><path style="fill:#E9D535;" d="M131.459,110.703c-11.462,0-20.757,9.295-20.757,20.757v249.081c0,11.465,9.295,20.757,20.757,20.757 c11.465,0,20.757-9.292,20.757-20.757V131.459C152.216,119.998,142.924,110.703,131.459,110.703z"/><path style="fill:#F4C514;" d="M48.432,152.216c-11.465,0-20.757,9.295-20.757,20.757v166.054c0,11.465,9.292,20.757,20.757,20.757 c11.462,0,20.757-9.292,20.757-20.757V172.973C69.189,161.511,59.894,152.216,48.432,152.216z"/><path style="fill:#2D4175;" d="M463.568,111.857c-11.462,0-20.757,9.295-20.757,20.757v249.081c0,11.465,9.295,20.757,20.757,20.757 c11.465,0,20.757-9.292,20.757-20.757V132.614C484.324,121.152,475.032,111.857,463.568,111.857z"/><path style="fill:#5B699C;" d="M380.541,76.108c-11.462,0-20.757,9.295-20.757,20.757v318.27c0,11.465,9.295,20.757,20.757,20.757 c11.465,0,20.757-9.292,20.757-20.757V96.865C401.297,85.403,392.005,76.108,380.541,76.108z"/><path style="fill:#AF6D00;" d="M297.514,138.378c-11.462,0-20.757,9.295-20.757,20.757v193.73c0,11.465,9.295,20.757,20.757,20.757 c11.465,0,20.757-9.292,20.757-20.757v-193.73C318.27,147.673,308.978,138.378,297.514,138.378z"/></symbol><symbol id="chorddiagram" viewBox="0 0 512 512"><title>chorddiagram</title><circle style="fill:#FF405F;" cx="256" cy="256" r="256"/><path style="fill:#FB788A;" d="M256,0C114.615,0,0,114.615,0,256s114.615,256,256,256V0z"/><path style="fill:#FBDB80;" d="M197.939,505.384c-4.326-18.656-6.615-38.092-6.615-58.062c0-141.385,114.615-256,256-256 c19.971,0,39.406,2.289,58.061,6.615L197.939,505.384z"/><path style="fill:#FBBA00;" d="M197.938,505.385C216.594,509.711,236.029,512,256,512c141.385,0,256-114.615,256-256 c0-19.971-2.289-39.407-6.616-58.062L197.938,505.385z"/></symbol><symbol id="wordcloud" viewBox="0 0 502 502"><title>wordcloud</title><g> <g> <g> <path style="fill:#D1DCEB;" d="M192.608,91.749H41.85c-17.59,0-31.85-14.26-31.85-31.85s14.26-31.85,31.85-31.85h150.758 c17.59,0,31.85,14.26,31.85,31.85S210.198,91.749,192.608,91.749z"/> <path d="M192.608,101.749H41.85C18.774,101.749,0,82.975,0,59.898c0-23.076,18.774-41.85,41.85-41.85h150.758 c23.076,0,41.85,18.774,41.85,41.85C234.458,82.975,215.684,101.749,192.608,101.749z M41.85,38.048 C29.802,38.048,20,47.85,20,59.898s9.802,21.851,21.85,21.851h150.758c12.048,0,21.85-9.802,21.85-21.851 s-9.802-21.85-21.85-21.85C192.608,38.048,41.85,38.048,41.85,38.048z"/> </g> </g> <g> <g> <path style="fill:#D1DCEB;" d="M192.608,219.15H41.85C24.26,219.15,10,204.89,10,187.3s14.26-31.85,31.85-31.85h150.758 c17.59,0,31.85,14.26,31.85,31.85S210.198,219.15,192.608,219.15z"/> <path d="M192.608,229.15H41.85C18.774,229.15,0,210.376,0,187.299c0-23.076,18.774-41.85,41.85-41.85h150.758 c23.076,0,41.85,18.774,41.85,41.85C234.458,210.376,215.684,229.15,192.608,229.15z M41.85,165.449 c-12.048,0-21.85,9.802-21.85,21.85s9.802,21.851,21.85,21.851h150.758c12.048,0,21.85-9.802,21.85-21.851 s-9.802-21.85-21.85-21.85H41.85z"/> </g> </g> <g> <g> <path style="fill:#D1DCEB;" d="M192.608,346.551H41.85c-17.59,0-31.85-14.26-31.85-31.85s14.26-31.85,31.85-31.85h150.758 c17.59,0,31.85,14.26,31.85,31.85S210.198,346.551,192.608,346.551z"/> <path d="M192.608,356.551H41.85c-23.076,0-41.85-18.774-41.85-41.85c0-23.077,18.774-41.851,41.85-41.851h150.758 c23.076,0,41.85,18.774,41.85,41.851C234.458,337.777,215.684,356.551,192.608,356.551z M41.85,292.85 c-12.048,0-21.85,9.802-21.85,21.851s9.802,21.85,21.85,21.85h150.758c12.048,0,21.85-9.802,21.85-21.85 s-9.802-21.851-21.85-21.851H41.85z"/> </g> </g> <g> <g> <path style="fill:#D1DCEB;" d="M192.608,473.952H41.85c-17.59,0-31.85-14.26-31.85-31.85s14.26-31.85,31.85-31.85h150.758 c17.59,0,31.85,14.26,31.85,31.85C224.458,459.692,210.198,473.952,192.608,473.952z"/> <path d="M192.608,483.952H41.85c-23.076,0-41.85-18.774-41.85-41.85c0-23.077,18.774-41.851,41.85-41.851h150.758 c23.076,0,41.85,18.774,41.85,41.851C234.458,465.178,215.684,483.952,192.608,483.952z M41.85,420.251 c-12.048,0-21.85,9.802-21.85,21.851s9.802,21.85,21.85,21.85h150.758c12.048,0,21.85-9.802,21.85-21.85 s-9.802-21.851-21.85-21.851H41.85z"/> </g> </g> <g> <path d="M161.819,67.775h-59.454c-5.523,0-10-4.477-10-10c0-5.523,4.477-10,10-10h59.454c5.523,0,10,4.477,10,10 C171.819,63.298,167.342,67.775,161.819,67.775z"/> </g> <g> <path d="M59.898,67.775h-19.11c-5.523,0-10-4.477-10-10c0-5.523,4.477-10,10-10h19.11c5.523,0,10,4.477,10,10 C69.898,63.298,65.421,67.775,59.898,67.775z"/> </g> </g><g> <g> <g> <path style="fill:#D1DCEB;" d="M460.15,91.749H309.392c-17.59,0-31.85-14.26-31.85-31.85s14.26-31.85,31.85-31.85H460.15 c17.59,0,31.85,14.26,31.85,31.85S477.74,91.749,460.15,91.749z"/> <path d="M460.15,101.749H309.392c-23.076,0-41.85-18.774-41.85-41.851c0-23.076,18.774-41.85,41.85-41.85H460.15 c23.076,0,41.85,18.774,41.85,41.85C502,82.975,483.226,101.749,460.15,101.749z M309.392,38.048 c-12.048,0-21.85,9.802-21.85,21.85s9.802,21.851,21.85,21.851H460.15c12.048,0,21.85-9.802,21.85-21.851 s-9.802-21.85-21.85-21.85C460.15,38.048,309.392,38.048,309.392,38.048z"/> </g> </g> <g> <g> <path style="fill:#D1DCEB;" d="M460.15,219.15H309.392c-17.59,0-31.85-14.26-31.85-31.85s14.26-31.85,31.85-31.85H460.15 c17.59,0,31.85,14.26,31.85,31.85S477.74,219.15,460.15,219.15z"/> <path d="M460.15,229.15H309.392c-23.076,0-41.85-18.774-41.85-41.851c0-23.076,18.774-41.85,41.85-41.85H460.15 c23.076,0,41.85,18.774,41.85,41.85C502,210.376,483.226,229.15,460.15,229.15z M309.392,165.449 c-12.048,0-21.85,9.802-21.85,21.85s9.802,21.851,21.85,21.851H460.15c12.048,0,21.85-9.802,21.85-21.851 s-9.802-21.85-21.85-21.85H309.392z"/> </g> </g> <g> <g> <path style="fill:#D1DCEB;" d="M460.15,346.551H309.392c-17.59,0-31.85-14.26-31.85-31.85s14.26-31.85,31.85-31.85H460.15 c17.59,0,31.85,14.26,31.85,31.85S477.74,346.551,460.15,346.551z"/> <path d="M460.15,356.551H309.392c-23.076,0-41.85-18.774-41.85-41.85c0-23.077,18.774-41.851,41.85-41.851H460.15 c23.076,0,41.85,18.774,41.85,41.851C502,337.777,483.226,356.551,460.15,356.551z M309.392,292.85 c-12.048,0-21.85,9.802-21.85,21.851s9.802,21.85,21.85,21.85H460.15c12.048,0,21.85-9.802,21.85-21.85 s-9.802-21.851-21.85-21.851H309.392z"/> </g> </g> <g> <g> <path style="fill:#D1DCEB;" d="M460.15,473.952H309.392c-17.59,0-31.85-14.26-31.85-31.85s14.26-31.85,31.85-31.85H460.15 c17.59,0,31.85,14.26,31.85,31.85S477.74,473.952,460.15,473.952z"/> <path d="M460.15,483.952H309.392c-23.076,0-41.85-18.774-41.85-41.85c0-23.077,18.774-41.851,41.85-41.851H460.15 c23.076,0,41.85,18.774,41.85,41.851C502,465.178,483.226,483.952,460.15,483.952z M309.392,420.251 c-12.048,0-21.85,9.802-21.85,21.851s9.802,21.85,21.85,21.85H460.15c12.048,0,21.85-9.802,21.85-21.85 s-9.802-21.851-21.85-21.851H309.392z"/> </g> </g> </g></symbol><symbol id="textobject" viewBox="0 0 512 512"><title>textobject</title><circle style="fill:#FE585D;" cx="51.952" cy="101.644" r="51.952"/><circle style="fill:#AAC1CE;" cx="51.952" cy="255.956" r="51.952"/><circle style="fill:#25B6D2;" cx="51.952" cy="410.356" r="51.952"/><g> <rect x="160" y="85.636" style="fill:#8BA0AE;" width="352" height="32"/> <rect x="160" y="239.396" style="fill:#8BA0AE;" width="352" height="32"/> <rect x="160" y="393.156" style="fill:#8BA0AE;" width="352" height="32"/> </g></symbol><symbol id="bulletchart" viewBox="0 0 512 512"><title>bulletchart</title><path style="fill:#F3F3F3;" d="M301.333,251.733V65.067c0-35.2-28.8-65.067-65.067-65.067c-35.2,0-65.067,28.8-65.067,65.067V252.8 c-43.733,23.467-73.6,69.333-73.6,121.6C98.667,450.133,160.533,512,237.333,512c75.733,0,137.6-61.867,137.6-137.6 C374.933,321.067,345.067,275.2,301.333,251.733z"/><path style="fill:#F3705A;" d="M328,374.4c0,50.133-41.6,91.733-91.733,91.733s-91.733-41.6-91.733-91.733 c0-41.6,28.8-77.867,67.2-88.533v-98.133h50.133v98.133C300.267,296.533,328,331.733,328,374.4z"/><ellipse transform="matrix(0.7071 -0.7071 0.7071 0.7071 -157.2939 292.9228)" style="fill:#FFFFFF;" cx="274.942" cy="336.332" rx="14.933" ry="30.933"/><g> <path style="fill:#F3F3F3;" d="M403.733,64h-57.6c-5.333,0-10.667-4.267-10.667-10.667l0,0c0-5.333,4.267-10.667,10.667-10.667 h57.6c5.333,0,10.667,4.267,10.667,10.667l0,0C414.4,59.733,409.067,64,403.733,64z"/> <path style="fill:#F3F3F3;" d="M403.733,119.467h-57.6c-5.333,0-10.667-4.267-10.667-10.667l0,0 c0-5.333,4.267-10.667,10.667-10.667h57.6c5.333,0,10.667,4.267,10.667,10.667l0,0C414.4,115.2,409.067,119.467,403.733,119.467z"/> <path style="fill:#F3F3F3;" d="M403.733,174.933h-57.6c-5.333,0-10.667-4.267-10.667-10.667l0,0 c0-5.333,4.267-10.667,10.667-10.667h57.6c5.333,0,10.667,4.267,10.667,10.667l0,0C414.4,169.6,409.067,174.933,403.733,174.933z"/> <path style="fill:#F3F3F3;" d="M403.733,229.333h-57.6c-5.333,0-10.667-4.267-10.667-10.667l0,0 c0-5.333,4.267-10.667,10.667-10.667h57.6c5.333,0,10.667,4.267,10.667,10.667l0,0C414.4,225.067,409.067,229.333,403.733,229.333z "/> </g></symbol><symbol id="treemap" viewBox="0 0 512 512"><title>treemap</title><rect x="347.774" y="24.151" style="fill:#D8D8D8;" width="144.906" height="222.189"/><rect x="19.321" y="24.151" style="fill:#EAEAEA;" width="144.906" height="222.189"/><rect x="19.321" y="265.66" style="fill:#D8D8D8;" width="144.906" height="222.189"/><rect x="347.774" y="265.66" style="fill:#EAEAEA;" width="144.906" height="222.189"/><polygon style="fill:#D8D8D8;" points="328.453,256 328.453,24.151 183.547,24.151 183.547,256 183.547,487.849 328.453,487.849 "/><path style="fill:#314E55;" d="M502.34,4.83H338.113H173.887H9.66C4.325,4.83,0,9.156,0,14.491V256v241.509 c0,5.335,4.325,9.66,9.66,9.66h164.226h164.226H502.34c5.335,0,9.66-4.325,9.66-9.66V256V14.491C512,9.156,507.675,4.83,502.34,4.83 z M492.679,246.34H347.774V24.151h144.906V246.34z M19.321,24.151h144.906V246.34H19.321V24.151z M19.321,265.66h144.906v222.189 H19.321V265.66z M183.547,256V24.151h144.906V256v231.849H183.547V256z M492.679,487.849H347.774V265.66h144.906V487.849z"/></symbol></svg>