<?xml version="1.0" encoding="utf-8"?>
<svg version="1.1" 
    xmlns="http://www.w3.org/2000/svg" 
    xmlns:xlink="http://www.w3.org/1999/xlink" style="display:none">
    <symbol id="cancel" viewBox="0 0 590 590">
        <style type="text/css">
                .st0 {
                    fill: #CDCFD1;
                }

                .st1 {
                    fill: #4183D7;
                }
        </style>
        <path class="st1" d="M544.18 544.18c-17.51 17.51-46.16 17.51-63.66 0l-434.7-434.7c-17.51-17.51-17.51-46.16 0-63.66 17.51-17.51 46.16-17.51 63.66 0l434.69 434.69c17.52 17.51 17.52 46.16.01 63.67z" />
        <path class="st1" d="M45.82 544.18c-17.74-17.74-17.74-46.78 0-64.53L479.65 45.82c17.74-17.74 46.78-17.74 64.53 0 17.74 17.74 17.74 46.78 0 64.53L110.35 544.18c-17.75 17.74-46.78 17.74-64.53 0z" />
    </symbol>
    <symbol id="bookmark-small" viewBox="0 0 590 590">
        <path fill="#379DD5" class="st1" d="M504.98 16.92c-4.4-6.32-10.33-10.94-17.77-13.88-4.73-2.02-9.7-3.04-14.89-3.04H117.68c-5.19 0-10.15 1.02-14.89 3.04-7.44 2.93-13.37 7.56-17.77 13.88-4.4 6.32-6.6 13.31-6.6 20.98v514.2c0 7.67 2.2 14.66 6.6 20.99 4.4 6.32 10.32 10.94 17.77 13.87 4.73 2.03 9.7 3.04 14.89 3.04 10.61 0 19.96-3.72 28.09-11.16L295 435.35l149.24 143.49c7.9 7.21 17.26 10.82 28.08 10.82 5.64 0 10.61-.9 14.89-2.7 7.44-2.93 13.36-7.56 17.77-13.88 4.4-6.32 6.59-13.3 6.59-20.98V37.9c.01-7.67-2.2-14.66-6.59-20.98z" />
    </symbol>
    <symbol id="dashboard-header" viewBox="0 0 512 430">
        <path class="st1" d="M435.1 88.4c-6.8-6.8-17.5-7.8-25.4-2.4-29.9 20.4-180 123-196.2 139.1-23.4 23.4-23.4 61.5 0 84.9 11.7 11.7 27.1 17.5 42.4 17.5 15.4 0 30.7-5.8 42.4-17.5 16.1-16.1 118.7-166.2 139.1-196.2 5.5-8 4.5-18.6-2.3-25.4zm-165 193.2c-7.8 7.8-20.5 7.8-28.3 0-7.8-7.8-7.8-20.5 0-28.3 6.3-6.2 48.9-36.6 101.3-73-36.4 52.5-66.8 95.1-73 101.3z" />
        <path class="st1" d="M92.2 360.5l-24.7 12c-18-32.2-27.5-68.2-27.5-105 0-27 5-52.8 14.1-76.7l28.3 13.6c2.8 1.3 5.7 2 8.6 2 7.5 0 14.6-4.2 18-11.4 4.8-10 .6-21.9-9.4-26.7l-27.9-13.4C106.4 98.3 166.5 58.8 236 52.4v30.1c0 11 9 20 20 20s20-9 20-20V52.4c23.8 2.2 46.9 8.2 68.8 18.1 10.1 4.5 21.9.1 26.5-10 4.5-10.1.1-21.9-10-26.5-33.2-15-68.6-22.6-105.2-22.6-68.4 0-132.7 26.6-181 75-48.4 48.4-75 112.6-75 181 0 50.5 15 99.7 43.4 142.1 3.8 5.7 10.1 8.9 16.6 8.9 3 0 5.9-.7 8.8-2l41-20c9.9-4.8 14.1-16.8 9.2-26.7-5-9.9-16.9-14-26.9-9.2zM489.4 162.3c-4.5-10.1-16.4-14.5-26.5-10-10.1 4.5-14.5 16.4-10 26.5 12.6 28 19 57.8 19 88.8 0 36.9-9.5 72.9-27.6 105.2l-25.8-12.3c-10-4.7-21.9-.5-26.7 9.5-4.7 10-.5 21.9 9.5 26.7l42 20c2.8 1.3 5.7 1.9 8.6 1.9 6.5 0 12.8-3.2 16.6-8.9C497 367.2 512 318 512 267.5c0-36.7-7.6-72.1-22.6-105.2z" />
    </symbol>
    <symbol id="eye" viewBox="0 0 512 406">
        <path class="st1" d="M508.2 193C503.6 187.9 393.7 68 256 68S8.4 187.9 3.8 193c-5.1 5.7-5.1 14.3 0 20 4.6 5.1 114.5 125 252.2 125s247.6-119.9 252.2-125c5.1-5.7 5.1-14.3 0-20zM256 308c-57.9 0-105-47.1-105-105S198.1 98 256 98s105 47.1 105 105-47.1 105-105 105z" />
        <path class="st1" d="M271 173c0-15.1 7.5-28.4 18.9-36.5-10.2-5.2-21.6-8.5-33.9-8.5-41.4 0-75 33.6-75 75s33.6 75 75 75c37 0 67.7-27 73.7-62.4-30.2 9.8-58.7-13.1-58.7-42.6z" />
    </symbol>
    <symbol id="edit-dashboard" viewBox="0 0 512 512">
        <path class="st1" d="M497.9 14.1c18.8 18.8 18.7 49.1 0 67.9l-22.6 22.6-67.9-67.9L430 14.1c18.8-18.8 49.2-18.8 67.9 0zM158.5 285.6l-22.6 90.5 90.5-22.6 226.3-226.3-67.9-67.9z" fill="#439dd3" />
        <path class="ast1" fill="#676a6c" d="M384 241.1V448H64V128h206.9l63.9-64H0v448h448V177.1z" />
    </symbol>
    <symbol id="add-image" viewBox="0 0 100 100">
        <path class="st1" fill="#439dd3" d="M100 97.5H0V59.2h9.9v28.4h80.2V23.4H54.7v-9.9H100z" />
        <path class="st1" fill="#439dd3" d="M18.4 4.4h9.9v45.4h-9.9z" />
        <path class="st1" fill="#439dd3" d="M.3 22.1h46V32H.3z" />
    </symbol>

</svg>