<?xml version="1.0" encoding="utf-8"?>
<!-- Generator: Adobe Illustrator 19.0.0, SVG Export Plug-In . SVG Version: 6.00 Build 0)  -->
<svg version="1.1" id="Layer_1" xmlns="http://www.w3.org/2000/svg" xmlns:xlink="http://www.w3.org/1999/xlink" x="0px" y="0px"
	 viewBox="0 0 102 65.3" style="enable-background:new 0 0 102 65.3;" xml:space="preserve">
<style type="text/css">
	.st0{fill:#EFC434;}
	.st1{fill:#C59F34;}
	.st2{fill:#FFFFFF;}
</style>
<path class="st0" d="M3.9,0C1.7,0,0,1.7,0,3.9v53.6v3.9h2.6l2-3.9H102V0H3.9z"/>
<path class="st1" d="M4.6,57.5c-2.5,0-4.6,1.7-4.6,3.9s2.1,3.9,4.6,3.9V57.5z"/>
<g id="XMLID_55_">
	<path id="XMLID_56_" class="st2" d="M68,39.1l-6.8-3.4c-0.6-0.3-1-1-1-1.7v-2.4c0.2-0.2,0.3-0.4,0.5-0.7c0.9-1.2,1.6-2.6,2.1-4.1
		c1-0.5,1.7-1.5,1.7-2.6v-2.9c0-0.7-0.3-1.3-0.7-1.9v-3.8c0-0.4,0.2-2.7-1.5-4.6c-1.5-1.7-3.8-2.5-7.1-2.5c-3.2,0-5.6,0.8-7,2.5
		c-1.7,1.9-1.5,4.3-1.5,4.6v3.8c-0.5,0.5-0.7,1.2-0.7,1.9v2.9c0,0.9,0.4,1.7,1.1,2.2c0.7,2.6,2,4.5,2.5,5.1v2.4c0,0.7-0.4,1.3-1,1.7
		L42.1,39c-2.1,1.1-3.3,3.3-3.3,5.6V47c0,3.4,10.7,4.3,16.4,4.3c5.7,0,16.4-0.9,16.4-4.3v-2.2C71.5,42.4,70.1,40.2,68,39.1L68,39.1z
		 M70.1,47c0,1-5.3,2.8-14.9,2.8c-9.7,0-14.9-1.9-14.9-2.8v-2.3c0-1.8,1-3.5,2.6-4.4l6.3-3.5c1.1-0.6,1.7-1.7,1.7-2.9v-2.9l-0.2-0.2
		c0,0-1.8-2.1-2.4-5l-0.1-0.3L48,25.4c-0.4-0.3-0.7-0.7-0.7-1.2v-2.9c0-0.4,0.2-0.8,0.5-1l0.2-0.2v-4.4l0-0.1c0,0-0.2-2,1.1-3.6
		c1.2-1.3,3.2-2,6-2c2.8,0,4.8,0.7,6,2c1.4,1.6,1.2,3.6,1.2,3.6l0,4.5l0.2,0.2c0.3,0.3,0.5,0.6,0.5,1v2.9c0,0.6-0.4,1.2-1,1.4
		l-0.4,0.1L61.5,26c-0.5,1.5-1.2,2.8-2,4.1c-0.2,0.3-0.4,0.6-0.6,0.8l-0.2,0.2V34c0,1.3,0.7,2.4,1.8,3l6.8,3.4
		c1.7,0.9,2.8,2.6,2.8,4.5V47z M70.1,47"/>
</g>
</svg>
