<?xml version="1.0" encoding="utf-8"?>
<!-- Generator: Adobe Illustrator 19.0.0, SVG Export Plug-In . SVG Version: 6.00 Build 0)  -->
<svg version="1.1" id="Layer_1" xmlns="http://www.w3.org/2000/svg" xmlns:xlink="http://www.w3.org/1999/xlink" x="0px" y="0px"
	 viewBox="0 0 102 65.3" style="enable-background:new 0 0 102 65.3;" xml:space="preserve">
<style type="text/css">
	.st0{fill:#535F7E;}
	.st1{fill:#454F5E;}
	.st2{fill:#FFFFFF;}
</style>
<path class="st0" d="M3.9,0C1.7,0,0,1.7,0,3.9v53.6v3.9h2.6l2-3.9H102V0H3.9z"/>
<path class="st1" d="M4.6,57.5c-2.5,0-4.6,1.7-4.6,3.9s2.1,3.9,4.6,3.9V57.5z"/>
<g id="XMLID_60_">
	<path id="XMLID_61_" class="st2" d="M73,16.8c-0.8-2.9-6.6-5.8-16.8-5.8c-10.2,0-16,2.9-16.8,5.8c-0.1,0.1-0.1,0.2-0.1,0.3v25.1
		c0,0.1,0,0.2,0.1,0.3c0.8,3.3,8,5.8,16.8,5.8c8.9,0,16-2.5,16.8-5.8c0.1-0.1,0.1-0.2,0.1-0.3V17.2C73.1,17,73,16.9,73,16.8L73,16.8
		z M71.6,34.1c0,0.1,0,0.2-0.1,0.2c0,0.1-0.1,0.1-0.1,0.2c0,0.1-0.1,0.2-0.2,0.3c0,0.1-0.1,0.1-0.1,0.2c-0.1,0.1-0.2,0.2-0.2,0.3
		c-0.1,0.1-0.1,0.1-0.2,0.2c-0.1,0.1-0.2,0.2-0.4,0.3c-0.1,0-0.1,0.1-0.2,0.1c-0.2,0.1-0.3,0.2-0.5,0.3c0,0-0.1,0.1-0.1,0.1
		c-0.2,0.1-0.4,0.2-0.6,0.3c0,0-0.1,0-0.1,0c-0.3,0.1-0.5,0.2-0.8,0.4c0,0,0,0,0,0c-1.5,0.6-3.5,1.1-5.8,1.5c0,0,0,0,0,0
		c-0.4,0.1-0.9,0.1-1.4,0.2c-0.1,0-0.2,0-0.2,0c-0.4,0-0.8,0.1-1.3,0.1c-0.2,0-0.4,0-0.6,0c-0.3,0-0.6,0-1,0c-0.5,0-1.1,0-1.6,0
		c-0.6,0-1.1,0-1.6,0c-0.3,0-0.6,0-1-0.1c-0.2,0-0.4,0-0.6,0c-0.4,0-0.8-0.1-1.2-0.1c-0.1,0-0.2,0-0.2,0c-0.5,0-0.9-0.1-1.4-0.2
		c0,0,0,0,0,0c-2.3-0.3-4.3-0.9-5.8-1.5c0,0,0,0,0,0c-0.3-0.1-0.5-0.2-0.8-0.4c0,0-0.1,0-0.1,0c-0.2-0.1-0.4-0.2-0.6-0.3
		c0,0-0.1-0.1-0.1-0.1c-0.2-0.1-0.3-0.2-0.5-0.3c-0.1,0-0.1-0.1-0.2-0.1c-0.1-0.1-0.2-0.2-0.4-0.3c-0.1-0.1-0.1-0.1-0.2-0.2
		c-0.1-0.1-0.2-0.2-0.2-0.3c-0.1-0.1-0.1-0.1-0.1-0.2c-0.1-0.1-0.1-0.2-0.2-0.2c0-0.1-0.1-0.1-0.1-0.2c0-0.1-0.1-0.2-0.1-0.2
		c0-0.1-0.1-0.2-0.1-0.3c0-0.1,0-0.2,0-0.2c0-0.1,0-0.2,0-0.3v-5c0,0,0,0,0.1,0.1c0.1,0.1,0.3,0.3,0.5,0.4c2.5,1.9,7.7,3.4,15,3.4
		c7.4,0,12.4-1.5,15-3.4c0.2-0.1,0.4-0.3,0.6-0.5v5c0,0.1,0,0.2,0,0.3c0,0.1,0,0.2,0,0.2C71.7,33.9,71.7,34,71.6,34.1L71.6,34.1z
		 M71.7,20.1v5c0,0.1,0,0.2,0,0.3c0,0.1,0,0.2,0,0.2c0,0.1,0,0.2-0.1,0.3c0,0.1,0,0.2-0.1,0.2c0,0.1-0.1,0.1-0.1,0.2
		c0,0.1-0.1,0.2-0.2,0.2c0,0.1-0.1,0.1-0.1,0.2c-0.1,0.1-0.2,0.2-0.2,0.3c-0.1,0.1-0.1,0.1-0.2,0.2c-0.1,0.1-0.2,0.2-0.4,0.3
		c-0.1,0-0.1,0.1-0.2,0.1c-0.2,0.1-0.3,0.2-0.5,0.3c0,0-0.1,0.1-0.1,0.1c-0.2,0.1-0.4,0.2-0.6,0.3c0,0-0.1,0-0.1,0
		c-0.3,0.1-0.5,0.2-0.8,0.4c0,0,0,0,0,0c-1.5,0.6-3.5,1.1-5.8,1.5c0,0,0,0,0,0c-0.4,0.1-0.9,0.1-1.4,0.2c-0.1,0-0.2,0-0.2,0
		c-0.4,0-0.8,0.1-1.3,0.1c-0.2,0-0.4,0-0.6,0c-0.3,0-0.6,0-1,0.1c-0.5,0-1.1,0-1.6,0c-0.6,0-1.1,0-1.6,0c-0.3,0-0.6,0-1,0
		c-0.2,0-0.4,0-0.6,0c-0.4,0-0.8-0.1-1.2-0.1c-0.1,0-0.2,0-0.2,0c-0.5-0.1-0.9-0.1-1.4-0.2c0,0,0,0,0,0c-2.3-0.3-4.3-0.9-5.8-1.5
		c0,0,0,0,0,0c-0.3-0.1-0.5-0.2-0.8-0.4c0,0-0.1,0-0.1,0c-0.2-0.1-0.4-0.2-0.6-0.3c0,0-0.1-0.1-0.1-0.1c-0.2-0.1-0.3-0.2-0.5-0.3
		c-0.1,0-0.1-0.1-0.2-0.1c-0.1-0.1-0.2-0.2-0.4-0.3c-0.1-0.1-0.1-0.1-0.2-0.2c-0.1-0.1-0.2-0.2-0.2-0.3c-0.1-0.1-0.1-0.1-0.1-0.2
		c-0.1-0.1-0.1-0.2-0.2-0.3c0-0.1-0.1-0.1-0.1-0.2c0-0.1-0.1-0.2-0.1-0.2c0-0.1-0.1-0.2-0.1-0.3c0-0.1,0-0.2,0-0.2
		c0-0.1,0-0.2,0-0.3v-5c0.1,0.1,0.2,0.1,0.3,0.2c0,0,0.1,0.1,0.1,0.1c0.2,0.2,0.4,0.3,0.7,0.5c0,0,0.1,0.1,0.2,0.1
		c0.2,0.1,0.4,0.2,0.6,0.4c0.1,0,0.2,0.1,0.2,0.1c0.2,0.1,0.5,0.2,0.8,0.4c0,0,0.1,0,0.1,0.1c0.3,0.1,0.7,0.3,1,0.4
		c0.1,0,0.2,0.1,0.3,0.1c0.3,0.1,0.6,0.2,0.9,0.3c0.1,0,0.2,0.1,0.3,0.1c0.4,0.1,0.8,0.2,1.2,0.3c0.1,0,0.1,0,0.2,0
		c0.4,0.1,0.8,0.2,1.2,0.2c0.1,0,0.3,0,0.4,0.1c0.4,0.1,0.8,0.1,1.2,0.2c0.1,0,0.2,0,0.3,0c0.5,0.1,1,0.1,1.6,0.2c0.1,0,0.3,0,0.4,0
		c0.4,0,0.9,0.1,1.3,0.1c0.2,0,0.3,0,0.5,0c0.6,0,1.2,0,1.8,0c0.6,0,1.2,0,1.8,0c0.2,0,0.3,0,0.5,0c0.4,0,0.9,0,1.3-0.1
		c0.1,0,0.3,0,0.4,0c0.5,0,1.1-0.1,1.6-0.2c0.1,0,0.2,0,0.3,0c0.4-0.1,0.8-0.1,1.2-0.2c0.1,0,0.3,0,0.4-0.1c0.4-0.1,0.8-0.1,1.2-0.2
		c0.1,0,0.1,0,0.2,0c0.4-0.1,0.8-0.2,1.2-0.3c0.1,0,0.2-0.1,0.3-0.1c0.3-0.1,0.6-0.2,0.9-0.3c0.1,0,0.2-0.1,0.3-0.1
		c0.4-0.1,0.7-0.3,1-0.4c0,0,0.1,0,0.1-0.1c0.3-0.1,0.5-0.2,0.8-0.4c0.1,0,0.2-0.1,0.2-0.1c0.2-0.1,0.4-0.2,0.6-0.4
		c0.1,0,0.1-0.1,0.2-0.1c0.2-0.2,0.5-0.3,0.7-0.5c0,0,0.1-0.1,0.1-0.1C71.5,20.2,71.6,20.1,71.7,20.1L71.7,20.1z M56.1,12.4
		c9.2,0,15.6,2.7,15.6,5.1c0,2.4-6.4,5.1-15.6,5.1c-9.2,0-15.6-2.7-15.6-5.1C40.6,15.1,46.9,12.4,56.1,12.4L56.1,12.4z M71.7,42
		C71.7,42,71.7,42.1,71.7,42C71.3,44.4,65,47,56.1,47c-8.8,0-15.2-2.5-15.6-4.8c0,0,0-0.1,0-0.1v-5.7c0,0,0,0,0.1,0
		c0.1,0.1,0.3,0.3,0.5,0.4c2.5,1.9,7.7,3.4,15,3.4c7.4,0,12.4-1.5,15-3.4c0.2-0.1,0.4-0.3,0.6-0.5V42z M71.7,42"/>
</g>
</svg>
