<?xml version="1.0" encoding="utf-8"?>
<!-- Generator: Adobe Illustrator 19.0.0, SVG Export Plug-In . SVG Version: 6.00 Build 0)  -->
<svg version="1.1" id="Layer_1" xmlns="http://www.w3.org/2000/svg" xmlns:xlink="http://www.w3.org/1999/xlink" x="0px" y="0px"
	 viewBox="0 0 102 65.3" style="enable-background:new 0 0 102 65.3;" xml:space="preserve">
<style type="text/css">
	.st0{fill:#EE775E;}
	.st1{fill:#C16455;}
	.st2{fill:#FFFFFF;}
</style>
<path class="st0" d="M3.9,0C1.7,0,0,1.7,0,3.9v53.6v3.9h2.6l2-3.9H102V0H3.9z"/>
<path class="st1" d="M4.6,57.5c-2.5,0-4.6,1.7-4.6,3.9s2.1,3.9,4.6,3.9V57.5z"/>
<g id="XMLID_62_">
	<path id="XMLID_66_" class="st2" d="M72.2,41.9c-3.3-3.3-5-7.2-5-11.7v-6.4c0-4.9-3.3-8.2-6.1-9.5c-0.8-0.4-1.6-0.7-2.5-0.9v-0.4
		c0-2-1.6-3.6-3.6-3.6c-2,0-3.6,1.6-3.6,3.6v0.5c-0.8,0.2-1.5,0.5-2.2,0.8c-3.1,1.4-6.3,4.9-6.3,9.4v6.4c0,4.6-1.6,8.5-4.8,11.7
		c-0.2,0.2-0.3,0.5-0.2,0.7c0.1,0.3,0.3,0.4,0.6,0.5l6.8,1.2c1.3,0.2,2.4,0.4,3.5,0.5c1.3,2.4,3.7,4,6.4,4s5.1-1.6,6.4-4
		c1.1-0.1,2.3-0.3,3.5-0.5l6.8-1.2c0.3,0,0.5-0.2,0.6-0.5C72.5,42.4,72.4,42.1,72.2,41.9L72.2,41.9z M52.9,13.1c0-1.2,1-2.1,2.1-2.1
		c1.2,0,2.1,1,2.1,2.1v0.1c-1.4-0.2-2.9-0.2-4.3,0V13.1z M55.1,47.4c-1.8,0-3.5-0.9-4.6-2.4c1.6,0.2,3.1,0.2,4.6,0.2
		c1.5,0,3-0.1,4.6-0.2C58.6,46.5,56.9,47.4,55.1,47.4L55.1,47.4z M64.8,42.9c-1.4,0.2-2.6,0.4-3.8,0.6h0c-0.5,0.1-1,0.1-1.5,0.2
		c0,0,0,0,0,0c-0.5,0-0.9,0.1-1.3,0.1c-0.1,0-0.2,0-0.3,0c-0.4,0-0.8,0-1.1,0.1c-0.1,0-0.2,0-0.2,0c-0.9,0-1.8,0-2.7,0
		c-0.1,0-0.2,0-0.2,0c-0.4,0-0.7,0-1.1-0.1c-0.1,0-0.2,0-0.3,0c-0.4,0-0.9-0.1-1.3-0.1c0,0,0,0,0,0c-0.5,0-1-0.1-1.5-0.2h0
		c-1.2-0.2-2.5-0.3-3.8-0.6L40,42c2.9-3.3,4.3-7.2,4.3-11.7v-6.4c0-3.9,2.8-6.9,5.5-8.2c0.8-0.4,1.6-0.7,2.5-0.8c0,0,0,0,0,0
		c1.8-0.4,3.6-0.4,5.4,0c0,0,0,0,0,0c0.9,0.2,1.9,0.5,2.7,0.9c2.6,1.2,5.3,4.2,5.3,8.2v6.4c0,4.3,1.6,8.3,4.5,11.7L64.8,42.9z
		 M64.8,42.9"/>
	<path id="XMLID_63_" class="st2" d="M59.6,17.6c-2.8-1.3-6.2-1.3-8.9,0c-1.6,0.7-4.2,2.8-4.3,6.2c0,0.4,0.3,0.7,0.7,0.7h0
		c0.4,0,0.7-0.3,0.7-0.7c0-2.6,2.2-4.3,3.4-4.9c2.4-1.1,5.3-1.1,7.7,0c0.4,0.2,0.8,0,0.9-0.4C60.1,18.2,60,17.8,59.6,17.6L59.6,17.6
		z M59.6,17.6"/>
</g>
</svg>
