<?xml version="1.0" encoding="utf-8"?>
<!-- Generator: Adobe Illustrator 19.0.0, SVG Export Plug-In . SVG Version: 6.00 Build 0)  -->
<svg version="1.1" id="Layer_1" xmlns="http://www.w3.org/2000/svg" xmlns:xlink="http://www.w3.org/1999/xlink" x="0px" y="0px"
	 viewBox="0 0 102 65.3" style="enable-background:new 0 0 102 65.3;" xml:space="preserve">
<style type="text/css">
	.st0{fill:#439DD3;}
	.st1{fill:#458BAF;}
	.st2{fill:#FFFFFF;}
</style>
<path class="st0" d="M3.9,0C1.7,0,0,1.7,0,3.9v53.6v3.9h2.6l2-3.9H102V0H3.9z"/>
<path class="st1" d="M4.6,57.5c-2.5,0-4.6,1.7-4.6,3.9s2.1,3.9,4.6,3.9V57.5z"/>
<g transform="translate(1 1)">
	<path class="st2" d="M39.5,33.5h-6c-0.4,0-0.7-0.3-0.7-0.7s0.3-0.7,0.7-0.7h6c0.4,0,0.7,0.3,0.7,0.7S39.9,33.5,39.5,33.5z"/>
	<path class="st2" d="M76.7,33.5h-6c-0.4,0-0.7-0.3-0.7-0.7s0.3-0.7,0.7-0.7h6c0.4,0,0.7,0.3,0.7,0.7S77.2,33.5,76.7,33.5z"/>
	<path class="st2" d="M55.1,17.9c-0.4,0-0.7-0.3-0.7-0.7v-6c0-0.4,0.3-0.7,0.7-0.7s0.7,0.3,0.7,0.7v6C55.9,17.6,55.6,17.9,55.1,17.9
		z"/>
	<path class="st2" d="M55.1,36.5c-0.3,0-0.6,0-0.9-0.1c-1.3-0.3-2.5-1.4-2.8-2.8c-0.4-1.7,0.4-3.4,2-4.2c0.4-0.2,0.9-0.4,1.3-0.6
		c1.3-0.6,2.6-1.3,3.9-2l3.6-2.2c0.3-0.1,0.7-0.1,0.9,0.1s0.3,0.6,0.1,0.9l-2.2,3.6c-0.7,1.3-1.3,2.6-2,3.9
		c-0.2,0.4-0.4,0.9-0.6,1.3C57.8,35.7,56.5,36.5,55.1,36.5z M60.4,27.5l-1,0.6c-1.3,0.7-2.7,1.4-4,2.1c-0.4,0.2-0.9,0.4-1.3,0.6l0,0
		c-1,0.4-1.4,1.5-1.2,2.5c0.1,0.8,0.8,1.5,1.6,1.6c1,0.2,2.1-0.2,2.5-1.2c0.2-0.4,0.4-0.8,0.6-1.3c0.6-1.3,1.3-2.7,2.1-4L60.4,27.5z
		 M53.8,30.1L53.8,30.1L53.8,30.1z"/>
	<path class="st2" d="M41.9,20.3c-0.2,0-0.4-0.1-0.5-0.2L39.3,18c-0.3-0.3-0.3-0.7,0-1c0.3-0.3,0.7-0.3,1,0l2.1,2.1
		c0.3,0.3,0.3,0.7,0,1C42.3,20.3,42.2,20.3,41.9,20.3z"/>
	<path class="st2" d="M68.3,20.3c-0.2,0-0.4-0.1-0.5-0.2c-0.3-0.3-0.3-0.7,0-1l2.1-2.1c0.3-0.3,0.7-0.3,1,0s0.3,0.7,0,1l-2.1,2.1
		C68.7,20.3,68.5,20.3,68.3,20.3z"/>
	<path class="st2" d="M38,26.3c-0.1,0-0.2,0-0.3-0.1L34.9,25c-0.4-0.1-0.5-0.6-0.4-1c0.1-0.4,0.6-0.5,1-0.4l2.8,1.2
		c0.4,0.1,0.5,0.6,0.4,1C38.5,26.2,38.3,26.3,38,26.3z"/>
	<path class="st2" d="M75,42c-0.1,0-0.2,0-0.3-0.1L72,40.7c-0.4-0.1-0.5-0.6-0.4-1c0.1-0.4,0.6-0.5,1-0.4l2.8,1.2
		c0.4,0.1,0.5,0.6,0.4,1C75.6,41.7,75.3,42,75,42z"/>
	<path class="st2" d="M62.4,16.4c-0.1,0-0.2,0-0.3-0.1c-0.4-0.1-0.5-0.6-0.4-1l1.2-2.8c0.1-0.4,0.6-0.5,1-0.4c0.4,0.1,0.5,0.6,0.4,1
		L63,15.9C62.9,16.2,62.7,16.4,62.4,16.4z"/>
	<path class="st2" d="M48.1,16.2c-0.3,0-0.6-0.1-0.7-0.4L46.3,13c-0.1-0.4,0-0.8,0.4-1c0.4-0.1,0.8,0,1,0.4l1.1,2.8
		c0.1,0.4,0,0.8-0.4,1C48.3,16.2,48.2,16.2,48.1,16.2z"/>
	<path class="st2" d="M72.4,26.5c-0.3,0-0.6-0.1-0.7-0.4c-0.1-0.4,0-0.8,0.4-1l2.8-1.1c0.4-0.1,0.8,0,1,0.4c0.1,0.4,0,0.8-0.4,1
		l-2.8,1.1C72.6,26.5,72.5,26.5,72.4,26.5z"/>
	<path class="st2" d="M35.1,41.7c-0.3,0-0.6-0.1-0.7-0.4c-0.1-0.4,0-0.8,0.4-1l2.8-1.1c0.4-0.1,0.8,0,1,0.4c0.1,0.4,0,0.8-0.4,1
		l-2.8,1.1C35.3,41.7,35.2,41.7,35.1,41.7z"/>
	<path class="st2" d="M72,46.9H38.2c-0.2,0-0.4-0.1-0.6-0.3c-3.2-4-4.8-8.8-4.8-13.9c0-12.3,10.1-22.4,22.4-22.4
		s22.4,10.1,22.4,22.4c0,5.1-1.6,9.9-4.8,13.9C72.5,46.9,72.3,46.9,72,46.9z M38.6,45.5h33.2c2.8-3.7,4.2-8,4.2-12.7
		c0-11.5-9.4-20.9-20.9-20.9s-20.9,9.4-20.9,20.9C34.3,37.4,35.7,41.8,38.6,45.5z"/>
</g>
</svg>
