<?xml version="1.0" encoding="utf-8"?>
<!-- Generator: Adobe Illustrator 19.0.0, SVG Export Plug-In . SVG Version: 6.00 Build 0)  -->
<svg version="1.1" id="Layer_1" xmlns="http://www.w3.org/2000/svg" xmlns:xlink="http://www.w3.org/1999/xlink" x="0px" y="0px"
	 viewBox="0 0 102 65.3" style="enable-background:new 0 0 102 65.3;" xml:space="preserve">
<style type="text/css">
	.st0{fill:#23C59B;}
	.st1{fill:#249978;}
	.st2{fill:#FFFFFF;}
</style>
<path class="st0" d="M3.9,0C1.7,0,0,1.7,0,3.9v53.6v3.9h2.6l2-3.9H102V0H3.9z"/>
<path class="st1" d="M4.6,57.5c-2.5,0-4.6,1.7-4.6,3.9s2.1,3.9,4.6,3.9V57.5z"/>
<g id="XMLID_53_">
	<path id="XMLID_76_" class="st2" d="M73.6,23.8c-10.3-10.3-26.9-10.3-37.2,0l-6.8,6.8l7,7c5.1,5.1,11.9,7.7,18.6,7.7
		c6.7,0,13.5-2.6,18.6-7.7l6.8-6.8L73.6,23.8z M72.6,36.4C63,46,47.4,46,37.8,36.4L32,30.6l5.6-5.6c9.6-9.6,25.2-9.6,34.8,0l5.8,5.8
		L72.6,36.4z M72.6,36.4"/>
	<path id="XMLID_73_" class="st2" d="M54.2,23.8c-3.3,0-6,2.7-6,6c0,0.5,0.4,0.9,0.9,0.9c0.5,0,0.9-0.4,0.9-0.9
		c0-2.4,1.9-4.3,4.3-4.3c0.5,0,0.9-0.4,0.9-0.9C55.1,24.1,54.7,23.8,54.2,23.8L54.2,23.8z M54.2,23.8"/>
	<path id="XMLID_59_" class="st2" d="M55.1,19.4c-6.2,0-11.2,5-11.2,11.2c0,6.2,5,11.2,11.2,11.2c6.2,0,11.2-5,11.2-11.2
		C66.3,24.5,61.3,19.4,55.1,19.4L55.1,19.4z M55.1,40.2c-5.2,0-9.5-4.3-9.5-9.5c0-5.2,4.3-9.5,9.5-9.5c5.2,0,9.5,4.3,9.5,9.5
		C64.6,35.9,60.3,40.2,55.1,40.2L55.1,40.2z M55.1,40.2"/>
</g>
</svg>
