<?xml version="1.0" encoding="UTF-8" ?>
<!DOCTYPE svg PUBLIC "-//W3C//DTD SVG 1.1//EN" "http://www.w3.org/Graphics/SVG/1.1/DTD/svg11.dtd">
<svg width="654pt" height="640pt" viewBox="0 0 654 640" version="1.1" xmlns="http://www.w3.org/2000/svg">
<g id="#9f2b72ff">
<path fill="#9f2b72" opacity="1.00" d=" M 239.41 41.19 C 266.76 31.79 296.03 27.90 325.00 29.08 C 400.56 25.62 476.31 56.13 530.55 108.44 C 589.58 164.13 624.14 245.66 620.01 327.00 C 620.73 347.09 618.80 371.80 613.98 388.51 C 609.53 329.71 590.75 271.21 555.38 223.58 C 538.33 197.83 514.96 177.27 491.86 157.24 C 477.42 149.36 465.08 136.83 449.02 132.42 C 410.39 108.62 364.88 95.39 319.48 97.24 C 263.00 98.53 207.44 122.51 167.36 162.29 C 130.72 198.18 107.17 247.20 102.10 298.24 C 101.39 196.56 155.60 98.07 239.41 41.19 Z" />
</g>
<g id="#3ec767ff">
<path fill="#3ec767" opacity="1.00" d=" M 34.03 330.01 C 25.54 201.82 115.89 75.22 239.41 41.19 C 155.60 98.07 101.39 196.56 102.10 298.24 C 94.36 368.34 123.38 441.21 176.51 487.47 C 228.81 534.36 303.41 553.38 372.05 540.35 C 376.37 539.63 371.58 542.20 370.11 542.91 C 275.55 574.26 166.61 556.05 87.40 495.54 C 52.61 448.00 33.12 389.00 34.03 330.01 Z" />
</g>
<g id="#ffffffff">
<path fill="#ffffff" opacity="1.00" d=" M 319.48 97.24 C 364.88 95.39 410.39 108.62 449.02 132.42 C 513.30 173.74 554.67 249.14 551.95 325.80 C 550.70 383.52 526.06 440.38 484.51 480.51 C 453.95 510.94 414.00 531.11 372.05 540.35 C 303.41 553.38 228.81 534.36 176.51 487.47 C 123.38 441.21 94.36 368.34 102.10 298.24 C 107.17 247.20 130.72 198.18 167.36 162.29 C 207.44 122.51 263.00 98.53 319.48 97.24 M 181.83 179.83 C 181.54 206.94 181.54 234.07 181.82 261.18 C 209.27 261.46 236.73 261.45 264.17 261.18 C 264.46 234.07 264.46 206.93 264.18 179.82 C 236.73 179.55 209.27 179.54 181.83 179.83 M 285.83 179.82 C 285.53 206.93 285.54 234.06 285.83 261.18 C 313.27 261.46 340.73 261.46 368.17 261.18 C 368.46 234.06 368.46 206.93 368.18 179.82 C 340.73 179.54 313.27 179.54 285.83 179.82 M 389.83 179.82 C 389.53 206.94 389.54 234.07 389.83 261.18 C 417.27 261.46 444.73 261.45 472.17 261.18 C 472.47 234.07 472.45 206.94 472.18 179.82 C 444.73 179.54 417.27 179.54 389.83 179.82 M 181.83 281.83 C 181.54 308.94 181.55 336.06 181.83 363.17 C 209.27 363.46 236.73 363.44 264.17 363.17 C 264.45 336.06 264.46 308.94 264.17 281.82 C 236.73 281.55 209.27 281.54 181.83 281.83 M 285.83 281.83 C 285.53 308.94 285.55 336.06 285.82 363.17 C 313.27 363.46 340.73 363.45 368.17 363.18 C 368.46 336.07 368.46 308.94 368.17 281.83 C 340.73 281.54 313.27 281.54 285.83 281.83 M 181.82 384.83 C 181.56 411.94 181.55 439.07 181.82 466.18 C 209.27 466.44 236.73 466.45 264.18 466.17 C 264.45 439.06 264.44 411.94 264.18 384.83 C 236.73 384.55 209.27 384.55 181.82 384.83 Z" />
</g>
<g id="#3877b1ff">
<path fill="#3877b1" opacity="1.00" d=" M 449.02 132.42 C 465.08 136.83 477.42 149.36 491.86 157.24 C 514.96 177.27 538.33 197.83 555.38 223.58 C 590.75 271.21 609.53 329.71 613.98 388.51 C 591.15 504.22 490.12 598.62 373.44 614.73 C 328.83 618.97 282.75 619.24 239.57 605.59 C 178.69 587.14 123.51 548.09 87.40 495.54 C 166.61 556.05 275.55 574.26 370.11 542.91 C 371.58 542.20 376.37 539.63 372.05 540.35 C 414.00 531.11 453.95 510.94 484.51 480.51 C 526.06 440.38 550.70 383.52 551.95 325.80 C 554.67 249.14 513.30 173.74 449.02 132.42 Z" />
</g>
<g id="#db2772ff">
<path fill="#db2772" opacity="1.00" d=" M 181.83 179.83 C 209.27 179.54 236.73 179.55 264.18 179.82 C 264.46 206.93 264.46 234.07 264.17 261.18 C 236.73 261.45 209.27 261.46 181.82 261.18 C 181.54 234.07 181.54 206.94 181.83 179.83 Z" />
</g>
<g id="#b22873ff">
<path fill="#b22873" opacity="1.00" d=" M 285.83 179.82 C 313.27 179.54 340.73 179.54 368.18 179.82 C 368.46 206.93 368.46 234.06 368.17 261.18 C 340.73 261.46 313.27 261.46 285.83 261.18 C 285.54 234.06 285.53 206.93 285.83 179.82 Z" />
</g>
<g id="#7c2d72ff">
<path fill="#7c2d72" opacity="1.00" d=" M 389.83 179.82 C 417.27 179.54 444.73 179.54 472.18 179.82 C 472.45 206.94 472.47 234.07 472.17 261.18 C 444.73 261.45 417.27 261.46 389.83 261.18 C 389.54 234.07 389.53 206.94 389.83 179.82 Z" />
</g>
<g id="#3fef64ff">
<path fill="#3fef64" opacity="1.00" d=" M 181.83 281.83 C 209.27 281.54 236.73 281.55 264.17 281.82 C 264.46 308.94 264.45 336.06 264.17 363.17 C 236.73 363.44 209.27 363.46 181.83 363.17 C 181.55 336.06 181.54 308.94 181.83 281.83 Z" />
</g>
<g id="#3b9e67ff">
<path fill="#3b9e67" opacity="1.00" d=" M 285.83 281.83 C 313.27 281.54 340.73 281.54 368.17 281.83 C 368.46 308.94 368.46 336.07 368.17 363.18 C 340.73 363.45 313.27 363.46 285.82 363.17 C 285.55 336.06 285.53 308.94 285.83 281.83 Z" />
</g>
<g id="#399ad1ff">
<path fill="#399ad1" opacity="1.00" d=" M 181.82 384.83 C 209.27 384.55 236.73 384.55 264.18 384.83 C 264.44 411.94 264.45 439.06 264.18 466.17 C 236.73 466.45 209.27 466.44 181.82 466.18 C 181.55 439.07 181.56 411.94 181.82 384.83 Z" />
</g>
</svg>
