<?xml version="1.0" encoding="utf-8"?>
<!-- Generator: Adobe Illustrator 19.0.0, SVG Export Plug-In . SVG Version: 6.00 Build 0)  -->
<svg version="1.1" id="Layer_1" xmlns="http://www.w3.org/2000/svg" xmlns:xlink="http://www.w3.org/1999/xlink" x="0px" y="0px"
	 viewBox="0 0 85.8 85.8" style="enable-background:new 0 0 85.8 85.8;" xml:space="preserve">
<style type="text/css">
	.st0{fill:#379DD5;}
</style>
<g id="XMLID_1_">
	<circle id="XMLID_166_" class="st0" cx="16.4" cy="16.4" r="7.5"/>
	<path id="XMLID_9_" class="st0" d="M77.1,34.8c-10.6-10.6-27.1-11.6-38.8-3c-1.2-0.1-3.6-0.3-5-1.7c-1.6-1.6-1.6-4.2-1.8-5.3
		C35,18.5,34,10.3,28.6,4.9C25.4,1.6,21.1,0,16.8,0S8.2,1.6,4.9,4.9c-6.5,6.5-6.5,17.2,0,23.7c3.3,3.3,7.6,4.9,11.9,4.9
		c2.7,0,5.4-0.7,7.9-2c0.7,0.2,3.9,0.1,5.7,1.8c1.3,1.3,1.5,3.4,1.7,4.7c-8.8,11.7-7.8,28.4,2.8,39c11.7,11.7,30.6,11.7,42.2,0
		C88.7,65.4,88.7,46.5,77.1,34.8z M6.7,26.9c-5.6-5.6-5.6-14.6,0-20.2C9.4,4,13,2.5,16.8,2.5S24.2,4,26.9,6.7
		c5.6,5.6,5.6,14.6,0,20.2c-2.7,2.7-6.3,4.2-10.1,4.2S9.4,29.6,6.7,26.9z M28.6,28.6L28.6,28.6l6.2,6.2h0L28.6,28.6z M69.2,69.1
		c-0.9,0.9-1.9,1.8-2.9,2.5V37.7c0-2.3-2.2-4.2-4.5-4.2c-2.3,0-4.5,1.9-4.5,4.2V74c0,0.4,0.3,0.9,0.4,1.3c-1,0.2-1.9,0.4-3,0.5
		c0.3-0.5,0.5-1.1,0.5-1.8V47.3c0-2.3-1.7-4.2-4-4.2c-2.3,0-4,1.9-4,4.2V74c0,0.4-0.1,0.8,0,1.1c-0.9-0.2-2-0.5-2.9-0.8
		c0-0.1-0.1-0.2-0.1-0.3v-17c0-2.3-1.7-4.2-4-4.2s-4,1.9-4,4.2v11.8c-7.8-7.8-8.6-19.6-2.9-28.4l0,0l0.2-0.3c0.9-1.3,1.8-2.5,3-3.6
		c1.1-1.1,2.3-2,3.5-2.9l0.4-0.2l0,0c8.9-5.8,21-4.7,28.8,3.1C78.2,45.5,78.2,60.1,69.2,69.1z"/>
</g>
</svg>
