<?xml version="1.0" encoding="utf-8"?>
<!-- Generator: Adobe Illustrator 19.0.0, SVG Export Plug-In . SVG Version: 6.00 Build 0)  -->
<svg version="1.1" id="Layer_1" xmlns="http://www.w3.org/2000/svg" xmlns:xlink="http://www.w3.org/1999/xlink" x="0px" y="0px"
	 viewBox="0 0 269.2 85.8" style="enable-background:new 0 0 269.2 85.8;" xml:space="preserve">
<style type="text/css">
	.st0{fill:#676A6C;}
	.st1{fill:#379DD5;}
</style>
<g id="XMLID_188_">
	<path id="XMLID_3_" class="st0" d="M106.4,52.8v27.1h-2.7V52.8h-3v-2.7h3V42c0.1-2.2,1-4.2,2.6-5.8c1.7-1.5,3.6-2.3,5.7-2.3
		c1.1,0,2.3,0.2,3.6,0.6l-0.8,2.4c-0.8-0.4-1.7-0.5-2.5-0.5c-1.4,0-2.8,0.6-4.1,1.7c-1.1,1.1-1.7,2.5-1.8,4v7.9h6.1v2.7H106.4z"/>
	<path id="XMLID_6_" class="st0" d="M120.2,31.4v48.5h-2.7V31.4H120.2z"/>
	<path id="XMLID_10_" class="st0" d="M161.4,79.9h-2.7v-6.1c-0.5,0.7-1.1,1.4-1.7,2c-3.3,3.3-7.2,4.9-11.8,4.9
		c-4.6,0-8.5-1.6-11.8-4.9c-3.3-3.3-4.9-7.2-4.9-11.8c0-4.6,1.6-8.5,4.9-11.8c3.3-3.3,7.2-4.9,11.8-4.9c4.6,0,8.5,1.6,11.8,4.9
		c0.6,0.6,1.2,1.3,1.7,2v-4.2h2.7V79.9z M158.7,66.8v-5.4c-0.5-2.7-1.8-5-3.8-7c-2.7-2.7-5.9-4-9.7-4s-7,1.3-9.7,4
		c-2.7,2.7-4,5.9-4,9.7s1.3,7,4,9.7c2.7,2.7,5.9,4,9.7,4s7-1.3,9.7-4C156.9,71.8,158.2,69.4,158.7,66.8z"/>
	<path id="XMLID_15_" class="st0" d="M174.4,40.3c0.5,0.5,0.8,1.2,0.8,1.9c0,0.8-0.3,1.4-0.8,1.9c-0.5,0.5-1.2,0.8-1.9,0.8
		c-0.7,0-1.4-0.3-1.9-0.8c-0.5-0.5-0.8-1.2-0.8-1.9c0-0.7,0.3-1.4,0.8-1.9s1.2-0.8,1.9-0.8C173.2,39.5,173.9,39.8,174.4,40.3z
		 M173.9,50.1v29.8h-2.7V50.1H173.9z"/>
	<path id="XMLID_18_" class="st0" d="M183.6,50.1h2.7v5.4c0.6-0.8,1.2-1.6,2-2.3c2.4-2.4,4.9-3.7,7.4-3.8v3c-1.7,0.1-3.5,1-5.3,2.9
		c-2.6,2.6-3.9,5.7-4,9.3v15.4h-2.7V50.1z"/>
	<path id="XMLID_20_" class="st0" d="M223.2,31.4h2.7v22.9c0.5-0.7,1.1-1.4,1.7-2c3.3-3.3,7.2-4.9,11.8-4.9c4.6,0,8.5,1.6,11.8,4.9
		c3.2,3.3,4.9,7.2,4.9,11.8c0,4.6-1.6,8.5-4.9,11.8c-3.2,3.3-7.2,4.9-11.8,4.9c-4.6,0-8.5-1.6-11.8-4.9c-0.6-0.6-1.2-1.3-1.7-2v6
		h-2.7V31.4z M226,61.2v5.7c0.5,2.6,1.8,4.9,3.8,6.9c2.7,2.7,5.9,4,9.7,4s7-1.3,9.7-4c2.7-2.7,4-5.9,4-9.7s-1.3-7-4-9.7
		c-2.7-2.7-5.9-4-9.7-4s-7,1.3-9.7,4C227.7,56.3,226.5,58.6,226,61.2z"/>
	<path id="XMLID_23_" class="st0" d="M268.4,40.3c0.5,0.5,0.8,1.2,0.8,1.9c0,0.8-0.3,1.4-0.8,1.9c-0.5,0.5-1.2,0.8-1.9,0.8
		c-0.7,0-1.4-0.3-1.9-0.8c-0.5-0.5-0.8-1.2-0.8-1.9c0-0.7,0.3-1.4,0.8-1.9s1.2-0.8,1.9-0.8C267.2,39.5,267.8,39.8,268.4,40.3z
		 M267.8,50.1v29.8h-2.7V50.1H267.8z"/>
</g>
<g id="XMLID_1_">
	<circle id="XMLID_166_" class="st1" cx="16.4" cy="16.4" r="7.5"/>
	<path id="XMLID_9_" class="st1" d="M77.1,34.8c-10.6-10.6-27.1-11.6-38.8-3c-1.2-0.1-3.6-0.3-5-1.7c-1.6-1.6-1.6-4.2-1.8-5.3
		C35,18.5,34,10.3,28.6,4.9C25.4,1.6,21.1,0,16.8,0S8.2,1.6,4.9,4.9c-6.5,6.5-6.5,17.2,0,23.7c3.3,3.3,7.6,4.9,11.9,4.9
		c2.7,0,5.4-0.7,7.9-2c0.7,0.2,3.9,0.1,5.7,1.8c1.3,1.3,1.5,3.4,1.7,4.7c-8.8,11.7-7.8,28.4,2.8,39c11.7,11.7,30.6,11.7,42.2,0
		C88.7,65.4,88.7,46.5,77.1,34.8z M6.7,26.9c-5.6-5.6-5.6-14.6,0-20.2C9.4,4,13,2.5,16.8,2.5S24.2,4,26.9,6.7
		c5.6,5.6,5.6,14.6,0,20.2c-2.7,2.7-6.3,4.2-10.1,4.2S9.4,29.6,6.7,26.9z M28.6,28.6L28.6,28.6l6.2,6.2h0L28.6,28.6z M69.2,69.1
		c-0.9,0.9-1.9,1.8-2.9,2.5V37.7c0-2.3-2.2-4.2-4.5-4.2c-2.3,0-4.5,1.9-4.5,4.2V74c0,0.4,0.3,0.9,0.4,1.3c-1,0.2-1.9,0.4-3,0.5
		c0.3-0.5,0.5-1.1,0.5-1.8V47.3c0-2.3-1.7-4.2-4-4.2c-2.3,0-4,1.9-4,4.2V74c0,0.4-0.1,0.8,0,1.1c-0.9-0.2-2-0.5-2.9-0.8
		c0-0.1-0.1-0.2-0.1-0.3v-17c0-2.3-1.7-4.2-4-4.2s-4,1.9-4,4.2v11.8c-7.8-7.8-8.6-19.6-2.9-28.4l0,0l0.2-0.3c0.9-1.3,1.8-2.5,3-3.6
		c1.1-1.1,2.3-2,3.5-2.9l0.4-0.2l0,0c8.9-5.8,21-4.7,28.8,3.1C78.2,45.5,78.2,60.1,69.2,69.1z"/>
</g>
</svg>
