<?xml version="1.0" encoding="utf-8"?>
<svg version="1.1" 
    xmlns="http://www.w3.org/2000/svg" 
    xmlns:xlink="http://www.w3.org/1999/xlink" style="display:none">

    <symbol id="new-dashboard" viewBox="0 0 100 100">
        <path class="ast0" d="M82.4 87.4H12.7C5.7 87.4 0 81.7 0 74.7V47.4c0-7 5.7-12.7 12.7-12.7h12.5c1 0 1.8.8 1.8 1.8s-.8 1.8-1.8 1.8H12.7c-5 0-9.1 4.1-9.1 9.1v27.2c0 5 4.1 9.1 9.1 9.1h69.7c5 0 9.1-4.1 9.1-9.1V47.4c0-3.4-1.9-6.5-5-8.1-.9-.5-1.3-1.5-.8-2.4s1.5-1.3 2.4-.8c4.3 2.2 7 6.5 7 11.3v27.2c0 7.1-5.7 12.8-12.7 12.8z" fill="#676a6c" />
        <path class="ast1" d="M26.3 78.7h-9.1V64.3c0-2.5 2-4.5 4.5-4.5s4.5 2 4.5 4.5v14.4h.1z" fill="#439dd3" />
        <path class="ast2" d="M43.5 78.7h-9.1V48.9c0-2.5 2-4.5 4.5-4.5s4.5 2 4.5 4.5l.1 29.8z" fill="#cdcfd1" />
        <path class="ast1" d="M60.7 78.7h-9.1V35.3c0-2.5 2-4.5 4.5-4.5s4.5 2 4.5 4.5v43.4h.1z" fill="#439dd3" />
        <path class="ast2" d="M77.9 78.7h-9.1v-57c0-2.5 2-4.5 4.5-4.5s4.5 2 4.5 4.5l.1 57z" fill="#cdcfd1" />
        <path class="ast0" fill="#676a6c" d="M45.7 84.6h3.6v10h-3.6z" />
        <path class="ast0" d="M57 96.4H38c-1 0-1.8-.8-1.8-1.8s.8-1.8 1.8-1.8h19c1 0 1.8.8 1.8 1.8.1 1-.8 1.8-1.8 1.8z" fill="#676a6c" />
        <path class="ast2" fill="#cdcfd1" d="M23.1 51.7l-1.8-2 17.2-15.4 17.3-13.7L72.5 7.5l1.7 2.1-16.8 13.2-17.2 13.6z" />
        <circle class="ast1" cx="73.3" cy="8.1" r="4.5" fill="#439dd3" />
        <circle class="ast1" cx="56.1" cy="21.7" r="4.5" fill="#439dd3" />
        <circle class="ast1" cx="38.9" cy="35.3" r="4.5" fill="#439dd3" />
        <circle class="ast1" cx="21.7" cy="50.7" r="4.5" fill="#439dd3" />
        <circle class="ast1" cx="84.4" cy="78.7" r="15.6" fill="#439dd3" />
        <path class="ast3" d="M84.4 87.7c-1 0-1.9-.8-1.9-1.9v-14c0-1 .8-1.9 1.9-1.9 1 0 1.9.8 1.9 1.9v14c0 1-.9 1.9-1.9 1.9z" fill="#fff" />
        <path class="ast3" d="M75.5 78.7c0-1 .8-1.9 1.9-1.9h14c1 0 1.9.8 1.9 1.9 0 1-.8 1.9-1.9 1.9h-14c-1 0-1.9-.8-1.9-1.9z" fill="#fff" />
    </symbol>

    <symbol id="new-dashboard-view" viewBox="0 0 100 100">
        <path class="ast0" d="M82.4 82.4H12.7C5.7 82.4 0 76.7 0 69.7V42.4c0-7 5.7-12.7 12.7-12.7h12.5c1 0 1.8.8 1.8 1.8s-.8 1.8-1.8 1.8H12.7c-5 0-9.1 4.1-9.1 9.1v27.2c0 5 4.1 9.1 9.1 9.1h69.7c5 0 9.1-4.1 9.1-9.1V42.4c0-3.4-1.9-6.5-5-8.1-.9-.5-1.3-1.5-.8-2.4s1.5-1.3 2.4-.8c4.3 2.2 7 6.5 7 11.3v27.2c0 7.1-5.7 12.8-12.7 12.8z" fill="#676a6c" />
        <path class="ast1" d="M26.3 73.7h-9.1V59.3c0-2.5 2-4.5 4.5-4.5s4.5 2 4.5 4.5v14.4h.1z" fill="#439dd3" />
        <path class="ast2" d="M43.5 73.7h-9.1V43.9c0-2.5 2-4.5 4.5-4.5s4.5 2 4.5 4.5l.1 29.8z" fill="#cdcfd1" />
        <path class="ast1" d="M60.7 73.7h-9.1V30.3c0-2.5 2-4.5 4.5-4.5s4.5 2 4.5 4.5v43.4h.1z" fill="#439dd3" />
        <path class="ast2" d="M77.9 73.7h-9.1v-57c0-2.5 2-4.5 4.5-4.5s4.5 2 4.5 4.5l.1 57z" fill="#cdcfd1" />
        <path class="ast0" fill="#676a6c" d="M45.7 79.6h3.6v10h-3.6z" />
        <path class="ast0" d="M57 91.4H38c-1 0-1.8-.8-1.8-1.8s.8-1.8 1.8-1.8h19c1 0 1.8.8 1.8 1.8.1 1-.8 1.8-1.8 1.8z" fill="#676a6c" />
        <path class="ast2" fill="#cdcfd1" d="M23.1 46.7l-1.8-2 17.2-15.4 17.3-13.7L72.5 2.5l1.7 2.1-16.8 13.2-17.2 13.6z" />
        <circle class="ast1" cx="73.3" cy="3.1" r="4.5" fill="#439dd3" />
        <circle class="ast1" cx="56.1" cy="16.7" r="4.5" fill="#439dd3" />
        <circle class="ast1" cx="38.9" cy="30.3" r="4.5" fill="#439dd3" />
        <circle class="ast1" cx="21.7" cy="45.7" r="4.5" fill="#439dd3" />
        <circle class="ast1" cx="84.4" cy="73.7" r="15.6" fill="#439dd3" />
        <path class="ast3" d="M84.4 82.7c-1 0-1.9-.8-1.9-1.9v-14c0-1 .8-1.9 1.9-1.9 1 0 1.9.8 1.9 1.9v14c0 1-.9 1.9-1.9 1.9z" fill="#fff" />
        <path class="ast3" d="M75.5 73.7c0-1 .8-1.9 1.9-1.9h14c1 0 1.9.8 1.9 1.9 0 1-.8 1.9-1.9 1.9h-14c-1 0-1.9-.8-1.9-1.9z" fill="#fff" />
        <g>
            <path class="ast1" d="M48.8 76.5S39.8 63 24.5 63 .3 76.5.3 76.5 9.3 90 24.5 90s24.3-13.5 24.3-13.5z" fill="#439dd3" />
            <path class="ast3" d="M24.5 87.9c-6.3 0-11.5-5.1-11.5-11.5S18.2 65 24.5 65 36 70.2 36 76.5s-5.2 11.4-11.5 11.4zm0-20.9c-5.3 0-9.5 4.3-9.5 9.5 0 5.3 4.3 9.5 9.5 9.5s9.5-4.3 9.5-9.5c0-5.3-4.2-9.5-9.5-9.5z" fill="#fff" />
            <path class="ast3" d="M17.8 77.4c-.5 0-1-.4-1-1 0-4.3 3.5-7.7 7.7-7.7.5 0 1 .4 1 1s-.4 1-1 1c-3.2 0-5.8 2.6-5.8 5.8 0 .5-.4.9-.9.9z" fill="#fff" />
        </g>
    </symbol>

    <symbol id="new-data-insights" viewBox="0 0 100 100">
        <path class="ast0" d="M50 73.3c-14.6 0-26.5-11.9-26.5-26.5S35.4 20.4 50 20.4s26.5 11.9 26.5 26.5c0 7.3-2.9 14.2-8.3 19.2-.7.7-1.9.7-2.6-.1-.7-.7-.7-1.9.1-2.6 4.6-4.4 7.1-10.2 7.1-16.5 0-12.6-10.2-22.8-22.8-22.8S27.2 34.3 27.2 46.9 37.4 69.7 50 69.7c1.6 0 3.2-.2 4.7-.5 1-.2 2 .4 2.2 1.4s-.4 2-1.4 2.2c-1.8.3-3.7.5-5.5.5z" fill="#676a6c" />
        <path class="ast0" d="M33.6 48.7c-1 0-1.8-.8-1.8-1.8 0-10.1 8.2-18.3 18.3-18.3 1 0 1.8.8 1.8 1.8s-.9 1.9-1.9 1.9c-8 0-14.6 6.5-14.6 14.6 0 1-.8 1.8-1.8 1.8zM63.6 89.2H36.4V68.8c0-1 .8-1.8 1.8-1.8s1.8.8 1.8 1.8v16.7h19.8V68.8c0-1 .8-1.8 1.8-1.8s1.8.8 1.8 1.8v20.4h.2z" fill="#676a6c" />
        <path class="ast0" d="M50 99.8c-7.9 0-13.6-5.2-13.6-12.4h3.7c0 5.1 4.1 8.7 9.9 8.7s9.9-3.6 9.9-8.7h3.7c0 7.2-5.7 12.4-13.6 12.4zM38.3 77.6h23.5v3.7H38.3z" fill="#676a6c" />
        <path class="ast1" d="M50 17.7c-1 0-1.8-.8-1.8-1.8V2.1c0-1 .8-1.8 1.8-1.8s1.8.8 1.8 1.8v13.8c0 1-.8 1.8-1.8 1.8zM28 26.8c-.5 0-.9-.2-1.3-.5l-9.8-9.8c-.7-.7-.7-1.9 0-2.6.7-.7 1.9-.7 2.6 0l9.8 9.8c.7.7.7 1.9 0 2.6-.4.3-.9.5-1.3.5zM18.8 48.9H5c-1 0-1.8-.8-1.8-1.8S4 45.2 5 45.2h13.8c1 0 1.8.8 1.8 1.8s-.8 1.9-1.8 1.9zM18.2 80.7c-.5 0-.9-.2-1.3-.5-.7-.7-.7-1.9 0-2.6l9.8-9.8c.7-.7 1.9-.7 2.6 0s.7 1.9 0 2.6l-9.8 9.8c-.4.3-.8.5-1.3.5zM95 48.9H81.2c-1 0-1.8-.8-1.8-1.8s.8-1.8 1.8-1.8H95c1 0 1.8.8 1.8 1.8s-.8 1.8-1.8 1.8zM72 26.8c-.5 0-.9-.2-1.3-.5-.7-.7-.7-1.9 0-2.6l9.8-9.8c.7-.7 1.9-.7 2.6 0s.7 1.9 0 2.6l-9.8 9.8c-.3.3-.8.5-1.3.5z" fill="#439dd3" />
        <g>
            <circle class="ast1" cx="72.4" cy="77" r="15.6" fill="#439dd3" />
            <path class="ast2" d="M72.4 85.9c-1 0-1.9-.8-1.9-1.9V70c0-1 .8-1.9 1.9-1.9 1 0 1.9.8 1.9 1.9v14c0 1-.9 1.9-1.9 1.9z" fill="#fff" />
            <path class="ast2" d="M63.5 77c0-1 .8-1.9 1.9-1.9h14c1 0 1.9.8 1.9 1.9 0 1-.8 1.9-1.9 1.9h-14c-1.1 0-1.9-.9-1.9-1.9z" fill="#fff" />
        </g>
    </symbol>

    <symbol id="new-data-source" viewBox="0 0 100 100">
        <path class="ast0" d="M47.8 8.9c-15.9 0-32.7 4.6-32.7 13.2v51.5c0 8.6 16.8 13.2 32.7 13.2s32.7-4.6 32.7-13.2V22.2c0-8.6-16.8-13.3-32.7-13.3zm0 3.4c17.3 0 29.3 5.2 29.3 9.9S65.1 32 47.8 32c-7.2 0-14.2-1-19.7-2.7-.9-.3-1.8.2-2.1 1.1-.3.9.2 1.8 1.1 2.1 5.8 1.8 13.1 2.9 20.7 2.9 11.6 0 23.7-2.5 29.3-7.2v11.1c0 4.7-12.1 9.9-29.3 9.9-7.2 0-14.2-1-19.7-2.7-.9-.3-1.8.2-2.1 1.1-.3.9.2 1.8 1.1 2.1 5.8 1.8 13.1 2.9 20.7 2.9 11.6 0 23.7-2.5 29.3-7.2v11.1c0 4.7-12.1 9.9-29.3 9.9s-29.3-5.2-29.3-9.9V22.2c0-4.7 12-9.9 29.3-9.9zm0 71.2c-17.3 0-29.3-5.2-29.3-9.9v-11c5.7 4.7 17.8 7.1 29.3 7.1 11.6 0 23.7-2.5 29.3-7.2v11.1c.1 4.7-12 9.9-29.3 9.9z" fill="#676a6c" />
        <circle class="ast1" cx="11.4" cy="79" r="10.9" fill="#439dd3" />
        <circle class="ast1" cx="40.3" cy="76.9" r="13" fill="#439dd3" />
        <circle class="ast1" cx="24.8" cy="67.1" r="12.1" fill="#439dd3" />
        <path class="ast1" fill="#439dd3" d="M10.2 89.9h30.1l-8-21-20.2 2.9" />
        <g>
            <circle class="ast1" cx="83.9" cy="75.5" r="15.6" fill="#439dd3" />
            <path class="ast2" d="M83.9 84.4c-1 0-1.9-.8-1.9-1.9v-14c0-1 .8-1.9 1.9-1.9 1 0 1.9.8 1.9 1.9v14c0 1-.9 1.9-1.9 1.9z" fill="#fff" />
            <path class="ast2" d="M75 75.5c0-1 .8-1.9 1.9-1.9h14c1 0 1.9.8 1.9 1.9 0 1-.8 1.9-1.9 1.9h-14c-1.1 0-1.9-.9-1.9-1.9z" fill="#fff" />
        </g>
    </symbol>

    <symbol id="new-email-report" viewBox="0 0 100 100">
        <path class="ast1" d="M23.6 62.4l-8-8.4v-4.4c0-2.2 1.8-4 4-4s4 1.8 4 4v12.8z" fill="#439dd3" />
        <path class="ast1" d="M38.8 73.5l-8-3.8V41.2c0-2.2 1.8-4 4-4s4 1.8 4 4v32.3z" fill="#cdcfd1" />
        <path class="ast1" d="M54 69.7l-8 4.9V29.2c0-2.2 1.8-4 4-4s4 1.8 4 4v40.5z" fill="#439dd3" />
        <path class="ast1" d="M69.2 55.9l-8 6.5V22c0-2.2 1.8-4 4-4s4 1.8 4 4v33.9z" fill="#cdcfd1" />
        <path class="ast2" d="M74.5 93.1H12.8C6.5 93.1 1.4 88 1.4 81.7V50.8c0-4 2.1-7.7 5.6-9.8.8-.5 1.9-.2 2.4.6s.2 1.9-.6 2.4C6.4 45.4 5 48 5 50.7v30.9c0 4.3 3.5 7.8 7.8 7.8h61.7c4.3 0 7.8-3.5 7.8-7.8V50.8c0-4.3-3.5-7.8-7.8-7.8-1 0-1.8-.8-1.8-1.8s.8-1.8 1.8-1.8c6.3 0 11.4 5.1 11.4 11.4v30.9c0 6.3-5.1 11.4-11.4 11.4z" fill="#676a6c" />
        <path class="ast2" d="M43.6 76.8c-9.6 0-31.8-24-34.3-26.7-.7-.7-.6-1.9.1-2.5.7-.7 1.9-.6 2.5.1 9 9.9 25.6 25.6 31.7 25.6s22.6-15.7 31.7-25.6c.7-.7 1.8-.8 2.5-.1s.8 1.8.1 2.5c-2.5 2.7-24.7 26.7-34.3 26.7z" fill="#676a6c" />
        <path class="ast1" fill="#cdcfd1" d="M20.2 37.4L19 35.3l15.1-8.5 15.4-12.2 15.2-7.2 1.1 2.2-15.1 7.1-15.3 12.2z" />
        <circle class="ast1" cx="65.2" cy="8.5" r="4" fill="#439dd3" />
        <circle class="ast1" cx="50" cy="15.7" r="4" fill="#439dd3" />
        <circle class="ast1" cx="34.8" cy="27.8" r="4" fill="#439dd3" />
        <circle class="ast1" cx="19.6" cy="36.4" r="4" fill="#439dd3" />
        <circle class="ast1" cx="83" cy="79.9" r="15.6" fill="#439dd3" />
        <path class="ast3" d="M83 88.9c-1 0-1.9-.8-1.9-1.9V73c0-1 .8-1.9 1.9-1.9 1 0 1.9.8 1.9 1.9v14c0 1-.8 1.9-1.9 1.9z" fill="#fff" />
        <path class="ast3" d="M74.1 79.9c0-1 .8-1.9 1.9-1.9h14c1 0 1.9.8 1.9 1.9 0 1-.8 1.9-1.9 1.9H76c-1 0-1.9-.8-1.9-1.9z" fill="#fff" />
    </symbol>
    <symbol id="new-thresolda-lert" viewBox="0 0 100 100">
        <path class="ast1" d="M92.8 13.1h-82c-1.7 0-3-1.3-3-3s1.3-3 3-3h82c1.7 0 3 1.3 3 3s-1.3 3-3 3zM92.8 75.2h-41c-1.7 0-3-1.3-3-3s1.3-3 3-3h41c1.7 0 3 1.3 3 3s-1.3 3-3 3z" fill="#cdcfd1" />
        <circle class="ast1" cx="70.9" cy="10.1" r="9.5" fill="#439dd3" />
        <path class="ast1" d="M92.8 44.1h-82c-1.7 0-3-1.3-3-3s1.3-3 3-3h82c1.7 0 3 1.3 3 3s-1.3 3-3 3z" fill="#cdcfd1" />
        <path class="ast2" d="M32.7 60.9c0-2.3-1.9-4.2-4.2-4.2s-4.2 1.9-4.2 4.2 1.9.8 4.2.8 4.2 1.5 4.2-.8z" fill="#676a6c" />
        <path class="ast2" d="M28.5 99.4c-11 0-19.9-8.9-19.9-19.9s8.9-19.9 19.9-19.9 19.9 8.9 19.9 19.9-8.9 19.9-19.9 19.9zm0-36.3c-9 0-16.4 7.4-16.4 16.4s7.4 16.4 16.4 16.4 16.4-7.4 16.4-16.4-7.3-16.4-16.4-16.4z" fill="#676a6c" />
        <path class="ast1" d="M5.7 80c-.8 0-1.5-.7-1.5-1.5 0-8.7 4.8-16.7 12.6-20.7.7-.4 1.6-.1 2 .6.4.7.1 1.6-.6 2-6.8 3.6-11 10.5-11 18.1 0 .9-.7 1.5-1.5 1.5zM51.4 80c-.8 0-1.5-.7-1.5-1.5 0-7.6-4.2-14.5-11-18.1-.7-.4-1-1.3-.6-2s1.3-1 2-.6c7.8 4 12.6 12 12.6 20.7 0 .9-.7 1.5-1.5 1.5z" fill="#439dd3" />
        <path class="ast2" d="M22 87.8c-.4 0-.9-.2-1.2-.5-.7-.7-.7-1.8 0-2.5l6-6V66.4c0-1 .8-1.8 1.8-1.8s1.8.8 1.8 1.8v13.8l-7 7c-.5.4-.9.6-1.4.6z" fill="#676a6c" />
        <g>
            <circle class="ast1" cx="32.7" cy="41.1" r="9.5" fill="#439dd3" />
        </g>
        <g>
            <circle class="ast1" cx="83" cy="79.9" r="15.6" fill="#439dd3" />
            <path class="ast3" d="M83 88.9c-1 0-1.9-.8-1.9-1.9V73c0-1 .8-1.9 1.9-1.9 1 0 1.9.8 1.9 1.9v14c0 1-.8 1.9-1.9 1.9z" fill="#fff" />
            <path class="ast3" d="M74.1 79.9c0-1 .8-1.9 1.9-1.9h14c1 0 1.9.8 1.9 1.9 0 1-.8 1.9-1.9 1.9H76c-1 0-1.9-.8-1.9-1.9z" fill="#fff" />
        </g>
    </symbol>
    <symbol id="monitoring-dashboard" viewBox="0 0 100 100">
        <path class="ast0" d="M81.4 83.4H12.6C5.6 83.4 0 77.8 0 70.9v-27C0 37 5.6 31.3 12.6 31.3H25c1 0 1.8.8 1.8 1.8s-.8 1.8-1.8 1.8H12.6c-4.9 0-9 4.1-9 9v26.9c0 4.9 4.1 9 9 9h68.9c4.9 0 9-4.1 9-9V43.9c0-3.4-1.9-6.4-4.9-8-.9-.5-1.3-1.5-.8-2.4s1.5-1.3 2.4-.8c4.3 2.2 6.9 6.4 6.9 11.2v26.9c-.1 7-5.7 12.6-12.7 12.6z" fill="#676a6c" />
        <path class="ast1" d="M26 74.8h-9V60.6c0-2.5 2-4.4 4.4-4.4 2.5 0 4.4 2 4.4 4.4l.2 14.2z" fill="#439dd3" />
        <path class="ast2" d="M43 74.8h-9V45.4c0-2.5 2-4.4 4.4-4.4 2.5 0 4.4 2 4.4 4.4l.2 29.4z" fill="#cdcfd1" />
        <path class="ast1" d="M60 74.8h-9V31.9c0-2.5 2-4.4 4.4-4.4 2.5 0 4.4 2 4.4 4.4l.2 42.9z" fill="#439dd3" />
        <path class="ast2" d="M77 74.8h-9V18.5c0-2.5 2-4.4 4.4-4.4 2.5 0 4.4 2 4.4 4.4L77 66v8.8z" fill="#cdcfd1" />
        <path class="ast0" fill="#676a6c" d="M45.2 80.7h3.6v9.9h-3.6z" />
        <path class="ast0" d="M56.3 92.3H37.6c-1 0-1.8-.8-1.8-1.8s.8-1.8 1.8-1.8h18.8c1 0 1.8.8 1.8 1.8s-.9 1.8-1.9 1.8z" fill="#676a6c" />
        <path class="ast2" fill="#cdcfd1" d="M22.8 48.1l-1.7-1.9 17-15.3 17.1-13.5L71.7 4.5l1.6 2-16.6 13.1-17 13.4z" />
        <circle class="ast1" cx="72.5" cy="5" r="4.4" fill="#439dd3" />
        <circle class="ast1" cx="55.5" cy="18.5" r="4.4" fill="#439dd3" />
        <circle class="ast1" cx="38.5" cy="31.9" r="4.4" fill="#439dd3" />
        <circle class="ast1" cx="21.4" cy="47.2" r="4.4" fill="#439dd3" />
        <g>
            <path class="ast3" d="M99.4 75.5c-.1-.6-.8-1.1-1.4-1.1-2 0-3.7-1.2-4.5-3s-.3-4 1.2-5.3c.5-.4.5-1.1.1-1.6-1-1.3-2.2-2.4-3.4-3.5-.5-.4-1.2-.3-1.6.1-1.3 1.4-3.6 2-5.4 1.2-1.9-.8-3-2.7-2.9-4.7 0-.6-.4-1.2-1.1-1.3-1.6-.2-3.2-.2-4.9 0-.6.1-1.1.6-1.1 1.2.1 2-1.1 3.9-3 4.6-1.8.7-4.1.2-5.3-1.2-.4-.5-1.1-.5-1.6-.1-1.3 1-2.5 2.2-3.5 3.5-.4.5-.3 1.2.1 1.6 1.5 1.4 2 3.5 1.2 5.4-.7 1.8-2.6 2.9-4.7 2.9-.7 0-1.2.4-1.2 1.1-.2 1.6-.2 3.3 0 4.9.1.6.8 1.1 1.4 1.1 1.9 0 3.7 1.1 4.4 3 .8 1.8.3 4-1.2 5.3-.5.4-.5 1.1-.1 1.6 1 1.3 2.2 2.4 3.4 3.5.5.4 1.2.3 1.6-.1 1.3-1.4 3.6-2 5.4-1.2 1.9.8 3 2.7 2.9 4.7 0 .6.4 1.2 1.1 1.3.8.1 1.7.1 2.5.1s1.6 0 2.4-.1c.6-.1 1.1-.6 1.1-1.2-.1-2 1.1-3.9 3-4.6 1.8-.7 4.1-.2 5.4 1.2.4.5 1.1.5 1.6.1 1.3-1 2.5-2.2 3.5-3.5.4-.5.3-1.2-.1-1.6-1.5-1.4-2-3.5-1.2-5.4.7-1.8 2.5-2.9 4.4-2.9h.3c.6.1 1.2-.4 1.3-1.1.1-1.6.1-3.2-.1-4.9zM78 85.2c-4 0-7.2-3.2-7.2-7.2s3.2-7.2 7.2-7.2 7.2 3.2 7.2 7.2-3.2 7.2-7.2 7.2z" clip-rule="evenodd" fill="#439dd3" fill-rule="evenodd" />
        </g>
        <circle class="ast4" cx="78" cy="78" r="7" fill="#fff" />
    </symbol>
    <symbol id="permission-management" viewBox="0 0 100 100" id=".9343606004455673" 
        xmlns="http://www.w3.org/2000/svg">
        <path class="ast0" d="M27.1 71.9c-.3 0-.7-.1-1-.3-.8-.5-1-1.6-.5-2.5 5.3-7.8 14.1-12.5 23.5-12.5 2.8 0 5.5.4 8.2 1.2.9.3 1.5 1.3 1.2 2.2s-1.3 1.5-2.2 1.2c-2.3-.7-4.8-1-7.2-1-8.2 0-15.9 4.1-20.5 10.9-.4.5-.9.8-1.5.8z" fill="#676a6c" />
        <path class="ast0" d="M49.1 58.9c-9.6 0-17.4-7.8-17.4-17.4s7.8-17.4 17.4-17.4 17.4 7.8 17.4 17.4-7.8 17.4-17.4 17.4zm0-31.2c-7.6 0-13.8 6.2-13.8 13.8s6.2 13.8 13.8 13.8 13.8-6.2 13.8-13.8-6.2-13.8-13.8-13.8zM49.1 90.3c-22.8 0-41.4-18.6-41.4-41.4v-1.8c0-1 .8-1.8 1.8-1.8s1.8.8 1.8 1.8v1.8c0 20.9 17 37.8 37.8 37.8 1 0 1.8.8 1.8 1.8s-.8 1.8-1.8 1.8z" fill="#676a6c" />
        <path class="ast0" d="M88.8 50.7c-1 0-1.8-.8-1.8-1.8C87 28 70 11.1 49.1 11.1c-4.1 0-8 .6-11.8 1.9-.9.3-1.9-.2-2.2-1.1-.3-.9.2-1.9 1.1-2.2 4.2-1.4 8.5-2.1 13-2.1 22.9 0 41.5 18.6 41.5 41.4-.1.9-.9 1.7-1.9 1.7z" fill="#676a6c" />
        <path class="ast1" d="M99 75.2c-.1-.6-.8-1.1-1.4-1.1-2 0-3.7-1.2-4.5-3s-.3-4 1.2-5.3c.5-.4.5-1.1.1-1.6-1-1.3-2.2-2.4-3.4-3.5-.5-.4-1.2-.3-1.6.1-1.3 1.4-3.6 2-5.4 1.2-1.9-.8-3-2.7-2.9-4.7 0-.6-.4-1.2-1.1-1.3-1.6-.2-3.2-.2-4.9 0-.6.1-1.1.6-1.1 1.2.1 2-1.1 3.9-3 4.6-1.8.7-4.1.2-5.3-1.2-.4-.5-1.1-.5-1.6-.1-1.3 1-2.5 2.2-3.5 3.5-.4.5-.3 1.2.1 1.6 1.5 1.4 2 3.5 1.2 5.4-.7 1.8-2.6 2.9-4.7 2.9-.7 0-1.2.4-1.2 1.1-.2 1.6-.2 3.3 0 4.9.1.6.8 1.1 1.4 1.1 1.9 0 3.7 1.1 4.4 3 .8 1.8.3 4-1.2 5.3-.5.4-.5 1.1-.1 1.6 1 1.3 2.2 2.4 3.4 3.5.5.4 1.2.3 1.6-.1 1.3-1.4 3.6-2 5.4-1.2 1.9.8 3 2.7 2.9 4.7 0 .6.4 1.2 1.1 1.3.8.1 1.7.1 2.5.1s1.6 0 2.4-.1c.6-.1 1.1-.6 1.1-1.2-.1-2 1.1-3.9 3-4.6 1.8-.7 4.1-.2 5.4 1.2.4.5 1.1.5 1.6.1 1.3-1 2.5-2.2 3.5-3.5.4-.5.3-1.2-.1-1.6-1.5-1.4-2-3.5-1.2-5.4.7-1.8 2.5-2.9 4.4-2.9h.3c.6.1 1.2-.4 1.3-1.1.1-1.6.1-3.2-.1-4.9zm-21.5 9.7c-4 0-7.2-3.2-7.2-7.2s3.2-7.2 7.2-7.2 7.2 3.2 7.2 7.2-3.2 7.2-7.2 7.2z" clip-rule="evenodd" fill="#439dd3" fill-rule="evenodd" />
        <path class="ast2" d="M27.6 14.5h-2.3v-3.1C25.3 5.5 20.5.7 14.6.7S3.9 5.5 3.9 11.4v3.1H1.7c-.4 0-.8.3-.8.8v19.1c0 1.7 1.4 3.1 3.1 3.1h21.4c1.7 0 3.1-1.4 3.1-3.1V15.3c-.1-.5-.4-.8-.9-.8zM16.4 26.1l.5 4.3c0 .2 0 .4-.2.6-.1.2-.4.3-.6.3H13c-.2 0-.4-.1-.6-.3-.1-.2-.2-.4-.2-.6l.5-4.3c-.8-.6-1.3-1.5-1.3-2.5 0-1.7 1.4-3.1 3.1-3.1s3.1 1.4 3.1 3.1c.1 1.1-.4 2-1.2 2.5zm4.4-11.6H8.5v-3.1c0-3.4 2.7-6.1 6.1-6.1s6.1 2.7 6.1 6.1l.1 3.1z" fill="#439dd3" />
    </symbol>

    <symbol id="system-alert" viewBox="0 0 100 100">
        <path class="ast0" d="M56.8 78.8l-2.7-2.7 23.8-23.8c7.7-7.7 7.7-20.1 0-27.8l-5.2-5.2c-3.7-3.7-8.6-5.7-13.9-5.7s-10.2 2-13.9 5.7L21.1 43.1l-2.7-2.7 23.8-23.8c4.4-4.4 10.3-6.8 16.6-6.8s12.2 2.4 16.6 6.8l5.2 5.2c9.1 9.1 9.1 24 0 33.1L56.8 78.8z" fill="#676a6c" />
        <path class="ast1" d="M28.7 24.4c-.5 0-1-.2-1.3-.6-.7-.7-.7-1.9 0-2.7l11-11c8.9-8.9 22.6-11.2 34-5.7.9.5 1.3 1.6.9 2.5-.5.9-1.6 1.3-2.5.9C60.7 3 48.8 5 41 12.8l-11 11c-.4.4-.8.6-1.3.6zM74.4 70.1c-.5 0-1-.2-1.3-.6-.7-.7-.7-1.9 0-2.7l11-11c7.8-7.8 9.8-19.7 4.9-29.7-.5-.9-.1-2.1.9-2.5.9-.5 2.1-.1 2.5.9 5.5 11.4 3.3 25.1-5.7 34l-11 11c-.3.4-.8.6-1.3.6z" fill="#439dd3" />
        <path class="ast2" d="M33.5 40c-.4 0-.8-.1-1.1-.4-.6-.6-.6-1.5 0-2.1L46 23.9c6.8-6.8 18-6.8 24.8 0l2.5 2.5c.6.6.6 1.5 0 2.1s-1.5.6-2.1 0L68.7 26c-5.7-5.7-14.9-5.7-20.6 0L34.6 39.5c-.3.3-.7.5-1.1.5z" fill="#cdcfd1" />
        <path class="ast0" d="M53.6 93.3c-3 0-7-1.3-11.6-3.9-.9-.5-1.2-1.7-.7-2.6s1.7-1.2 2.6-.7c7 3.9 10.9 3.9 12.1 2.7 1.1-1.1 1.2-4.6-2.1-10.9-3.2-6.1-8.6-13.2-15.2-19.8-14.9-14.8-28-20-30.8-17.2-2.4 2.4 1.4 13.8 14.7 28 .7.8.7 2-.1 2.7-.8.7-2 .7-2.7-.1C8.7 59.6-.6 44.1 5.3 38.2c6.1-6.1 23.1 4.3 36 17.3 6.9 6.9 12.5 14.2 15.9 20.7 3.7 7.2 4.2 12.5 1.4 15.3-1.3 1.2-2.9 1.8-5 1.8z" fill="#676a6c" />
        <circle class="ast0" cx="36" cy="75" r="10.1" fill="#676a6c" />
        <path class="ast0" d="M81.7 21.9c1.9-1.9 1.9-5 0-6.9s-5-1.9-6.9 0 .9 2.3 2.8 4.2c1.9 1.9 2.2 4.7 4.1 2.7z" fill="#676a6c" />
        <path class="ast3" d="M96.4 74.5c-.1-.6-.8-1.1-1.4-1.1-2 0-3.7-1.2-4.5-3s-.3-4 1.2-5.3c.5-.4.5-1.1.1-1.6-1-1.3-2.2-2.4-3.4-3.5-.5-.4-1.2-.3-1.6.1-1.3 1.4-3.6 2-5.4 1.2-1.9-.8-3-2.7-2.9-4.7 0-.6-.4-1.2-1.1-1.3-1.6-.2-3.2-.2-4.9 0-.6.1-1.1.6-1.1 1.2.1 2-1.1 3.9-3 4.6-1.8.7-4.1.2-5.3-1.2-.4-.5-1.1-.5-1.6-.1-1.3 1-2.5 2.2-3.5 3.5-.4.5-.3 1.2.1 1.6 1.5 1.4 2 3.5 1.2 5.4-.7 1.8-2.6 2.9-4.7 2.9-.7 0-1.2.4-1.2 1.1-.2 1.6-.2 3.3 0 4.9.1.6.8 1.1 1.4 1.1 1.9 0 3.7 1.1 4.4 3 .8 1.8.3 4-1.2 5.3-.5.4-.5 1.1-.1 1.6 1 1.3 2.2 2.4 3.4 3.5.5.4 1.2.3 1.6-.1 1.3-1.4 3.6-2 5.4-1.2 1.9.8 3 2.7 2.9 4.7 0 .6.4 1.2 1.1 1.3.8.1 1.7.1 2.5.1s1.6 0 2.4-.1c.6-.1 1.1-.6 1.1-1.2-.1-2 1.1-3.9 3-4.6 1.8-.7 4.1-.2 5.4 1.2.4.5 1.1.5 1.6.1 1.3-1 2.5-2.2 3.5-3.5.4-.5.3-1.2-.1-1.6-1.5-1.4-2-3.5-1.2-5.4.7-1.8 2.5-2.9 4.4-2.9h.3c.6.1 1.2-.4 1.3-1.1.1-1.6.1-3.2-.1-4.9zM75 84.2c-4 0-7.2-3.2-7.2-7.2s3.2-7.2 7.2-7.2 7.2 3.2 7.2 7.2-3.2 7.2-7.2 7.2z" clip-rule="evenodd" fill="#439dd3" fill-rule="evenodd" />
    </symbol>
    <symbol id="user-management" viewBox="0 0 100 100">
        <path class="ast0" d="M22.8 67.6c-.3 0-.7-.1-1-.3-.8-.5-1-1.6-.5-2.5 5.3-7.8 14-12.5 23.5-12.5 2.8 0 5.6.4 8.2 1.2.9.3 1.5 1.3 1.2 2.2-.2 1-1.2 1.5-2.2 1.3-2.3-.7-4.8-1.1-7.2-1.1-8.2 0-15.9 4.1-20.5 10.9-.3.5-.9.8-1.5.8z" fill="#676a6c" />
        <path class="ast0" d="M44.8 54.6c-9.6 0-17.3-7.8-17.3-17.3S35.3 20 44.8 20s17.3 7.8 17.3 17.3-7.7 17.3-17.3 17.3zm0-31.2c-7.6 0-13.8 6.2-13.8 13.8S37.2 51 44.8 51s13.8-6.2 13.8-13.8-6.2-13.8-13.8-13.8z" fill="#676a6c" />
        <path class="ast0" d="M44.8 86.1C22 86.1 3.4 67.5 3.4 44.6 3.4 21.8 22 3.2 44.8 3.2s41.4 18.6 41.4 41.4c0 1-.8 1.8-1.8 1.8s-1.8-.8-1.8-1.8c0-20.9-17-37.9-37.9-37.9S6.8 23.7 6.8 44.6s17 37.9 37.9 37.9c1 0 1.8.8 1.8 1.8s-.7 1.8-1.7 1.8z" fill="#676a6c" />
        <path class="ast1" d="M94.7 71c-.1-.6-.8-1.1-1.4-1.1-2 0-3.7-1.2-4.5-3s-.3-4 1.2-5.3c.5-.4.5-1.1.1-1.6-1-1.3-2.2-2.4-3.4-3.5-.5-.4-1.2-.3-1.6.1-1.3 1.4-3.6 2-5.4 1.2-1.9-.8-3-2.7-2.9-4.7 0-.6-.4-1.2-1.1-1.3-1.6-.2-3.2-.2-4.9 0-.6.1-1.1.6-1.1 1.2.1 2-1.1 3.9-3 4.6-1.8.7-4.1.2-5.3-1.2-.4-.5-1.1-.5-1.6-.1-1.3 1-2.5 2.2-3.5 3.5-.4.5-.3 1.2.1 1.6 1.5 1.4 2 3.5 1.2 5.4-.7 1.8-2.6 2.9-4.7 2.9-.7 0-1.2.4-1.2 1.1-.2 1.6-.2 3.3 0 4.9.1.6.8 1.1 1.4 1.1 1.9 0 3.7 1.1 4.4 3 .8 1.8.3 4-1.2 5.3-.5.4-.5 1.1-.1 1.6 1 1.3 2.2 2.4 3.4 3.5.5.4 1.2.3 1.6-.1 1.3-1.4 3.6-2 5.4-1.2 1.9.8 3 2.7 2.9 4.7 0 .6.4 1.2 1.1 1.3.8.1 1.7.1 2.5.1s1.6 0 2.4-.1c.6-.1 1.1-.6 1.1-1.2-.1-2 1.1-3.9 3-4.6 1.8-.7 4.1-.2 5.4 1.2.4.5 1.1.5 1.6.1 1.3-1 2.5-2.2 3.5-3.5.4-.5.3-1.2-.1-1.6-1.5-1.4-2-3.5-1.2-5.4.7-1.8 2.5-2.9 4.4-2.9h.3c.6.1 1.2-.4 1.3-1.1.1-1.6.1-3.3-.1-4.9zm-21.4 9.6c-4 0-7.2-3.2-7.2-7.2s3.2-7.2 7.2-7.2 7.2 3.2 7.2 7.2-3.3 7.2-7.2 7.2z" clip-rule="evenodd" fill="#3b9dd4" fill-rule="evenodd" />
    </symbol>

    <symbol id="recent-accessed-bookmark" viewBox="0 0 100 100">
        <circle class="ast0" cx="80.7" cy="51.9" r="4.1" fill="#439dd3" />
        <path class="ast1" d="M47.9 99.5H36.7c-1.4 0-2.6-1.1-2.6-2.6V85.7c0-.7.3-1.3.7-1.8l22.1-22.1c-.6-1.1-1.2-2.3-1.7-3.5-1.7-3.8-.8-8.4 2.1-11.4l10-10c2.9-2.8 7.1-3.8 10.9-2.3 3.4 1.3 8.4 3.7 12.6 7.9s6.7 9.2 8 12.7c1.5 3.8.6 8.1-2.3 11L86.4 76.3c-3 2.9-7.4 3.8-11.2 2.2-1.8-.8-3.6-1.7-5.3-2.7-1.2-.7-1.6-2.3-.8-3.5.7-1.2 2.3-1.6 3.5-.8 1.5.9 3 1.7 4.6 2.3 1.9.8 4.2.4 5.6-1.1L93 62.5c1.4-1.4 1.9-3.6 1.1-5.5-1.2-3-3.3-7.4-6.9-10.9-3.5-3.5-7.8-5.6-10.8-6.7-1.9-.7-4-.3-5.5 1.2l-10 10c-1.5 1.5-1.9 3.7-1.1 5.6.7 1.6 1.5 3.2 2.4 4.6.6 1 .5 2.3-.4 3.1L39.2 86.7v7.6h6.1v-4.6c0-1.4 1.1-2.6 2.6-2.6h4.6v-4.6c0-1.4 1.1-2.6 2.6-2.6h7.2c1.4 0 2.6 1.1 2.6 2.6 0 1.4-1.1 2.6-2.6 2.6h-4.6v4.6c0 1.4-1.1 2.6-2.6 2.6h-4.6v4.6c0 1.4-1.2 2.6-2.6 2.6z" fill="#439dd3" />
        <path class="ast1" d="M42.5 63.9l4.8-4.6-9.1-8.7-4.6-4.4-4.6 4.4L7 71.7V7.2h53.2v24.7l6.6-6.6v-19c0-1.2-.3-2.3-1-3.2-.7-1-1.6-1.7-2.7-2.1-.7-.3-1.5-.5-2.3-.5H6.4c-.8 0-1.6.2-2.3.5-1.1.4-2 1.1-2.7 2.1s-1 2-1 3.2v66.9c0 1.2.3 2.3 1 3.2.7 1 1.6 1.7 2.7 2.1.7.3 1.5.5 2.3.5 1.6 0 3.1-.6 4.3-1.7l22.9-22 8.9 8.6z" fill="#676a6c" />
    </symbol>
    <symbol id="recent-accessed-dashboard" viewBox="0 0 100 100">
        <circle class="ast0" cx="80.3" cy="51.9" r="4" fill="#439dd3" />
        <path class="ast1" d="M48 98.8H36.9c-1.4 0-2.5-1.1-2.5-2.5V85.2c0-.7.3-1.3.7-1.8l21.8-21.8c-.6-1.1-1.2-2.3-1.7-3.4-1.7-3.8-.8-8.3 2.1-11.2l9.9-9.9c2.8-2.8 7-3.7 10.8-2.3 3.4 1.3 8.3 3.7 12.4 7.8s6.6 9.1 7.9 12.5c1.5 3.7.6 8-2.3 10.8l-10 10c-2.9 2.9-7.3 3.7-11.1 2.2-1.8-.8-3.6-1.7-5.2-2.7-1.2-.7-1.6-2.3-.8-3.5.7-1.2 2.3-1.6 3.5-.8 1.4.9 3 1.7 4.5 2.3 1.9.8 4.1.4 5.6-1.1l10-10c1.4-1.4 1.9-3.5 1.1-5.4-1.2-3-3.3-7.3-6.8-10.8s-7.7-5.5-10.6-6.6c-1.9-.7-4-.3-5.4 1.1l-9.9 9.9c-1.5 1.5-1.9 3.7-1.1 5.6.7 1.6 1.5 3.1 2.4 4.6.6 1 .4 2.3-.4 3.1L39.4 86.2v7.5h6.1v-4.5c0-1.4 1.1-2.5 2.5-2.5h4.5v-4.5c0-1.4 1.1-2.5 2.5-2.5h7.1c1.4 0 2.5 1.1 2.5 2.5s-1.1 2.5-2.5 2.5h-4.5v4.5c0 1.4-1.1 2.5-2.5 2.5h-4.5v4.5c-.1 1.5-1.2 2.6-2.6 2.6z" fill="#439dd3" />
        <path class="ast1" d="M54.9 27.7l-6.6 6.6c-1.6-1-3.4-1.5-5.4-1.5-5.7 0-10.4 4.6-10.4 10.4s4.6 10.4 10.4 10.4c5.7 0 10.4-4.6 10.4-10.4 0-2-.6-3.8-1.5-5.4l6.6-6.6c1-1 1-2.5 0-3.5-1-.9-2.6-.9-3.5 0zm-12 20.9c-3 0-5.4-2.4-5.4-5.4s2.4-5.4 5.4-5.4 5.4 2.4 5.4 5.4c.1 2.9-2.4 5.4-5.4 5.4z" fill="#676a6c" />
        <path class="ast1" d="M43 64.4H12.6c-3.9-5.6-6.2-12-6.6-18.8h2.7c1.4 0 2.5-1.1 2.5-2.5s-1.1-2.5-2.5-2.5H6c.6-8.4 3.9-16 9.1-21.9l1.9 1.9c.5.5 1.1.7 1.7.7s1.3-.2 1.7-.7c1-1 1-2.5 0-3.5l-1.9-1.9c5.9-5.2 13.6-8.5 21.9-9.1v2.7c0 1.4 1.1 2.5 2.5 2.5s2.5-1.1 2.5-2.5V6.2c8.4.6 16 3.9 21.9 9.1l-1.9 1.9c-1 1-1 2.5 0 3.5.5.5 1.1.7 1.7.7s1.3-.2 1.7-.7l1.9-1.9c2.2 2.6 4.1 5.4 5.6 8.5 2 .7 4.2 1.5 6.2 2.2-2-6-5.4-11.4-10-16C64.7 5.6 54.2 1.2 42.9 1.2S21.2 5.6 13.3 13.5C5.4 21.4 1 31.9 1 43.1 1 52.3 3.9 61 9.4 68.3c.5.6 1.2 1 2 1h25.2l6.4-4.9z" fill="#676a6c" />
    </symbol>
    <symbol id="recent-accessed-database" viewBox="0 0 100 100">
        <path class="ast0" d="M36.5 30.6c-8.2 0-16.1-1.1-22.4-3.1-1.5-.5-2.3-2-1.8-3.5s2-2.3 3.5-1.8C21.5 24 28.9 25 36.5 25c18.5 0 30.3-5.7 30.3-9.6S55.1 5.9 36.5 5.9C18 5.9 6.2 11.6 6.2 15.5c0 1.5-1.2 2.8-2.8 2.8S.7 17 .7 15.5C.7 5.6 18.7.4 36.5.4s35.8 5.2 35.8 15.1c.1 9.9-17.9 15.1-35.8 15.1zM36.5 67.2c-8.3 0-16.2-1.1-22.5-3.1-1.5-.5-2.2-2-1.8-3.5.5-1.5 2-2.2 3.5-1.8 5.7 1.9 13.1 2.9 20.8 2.9 1.9 0 3.7-.1 5.5-.2 1.5-.1 2.8 1.1 2.9 2.6.1 1.5-1.1 2.8-2.6 2.9-1.8.1-3.8.2-5.8.2zM36.5 48.9c-8.5 0-16.7-1.2-23-3.3-1.4-.5-2.2-2.1-1.7-3.5s2.1-2.2 3.5-1.7c5.8 2 13.4 3 21.3 3 4.7 0 9.2-.4 13.4-1.1 1.5-.3 2.9.7 3.2 2.3.3 1.5-.7 2.9-2.3 3.2-4.5.7-9.3 1.1-14.4 1.1z" fill="#676a6c" />
        <path class="ast0" d="M24.3 84.6h-.4C9.4 82.4.7 77.1.7 70.4V15.5c0-1.5 1.2-2.8 2.8-2.8s2.8 1.2 2.8 2.8v54.9c0 2.9 6.9 7 18.5 8.7 1.5.2 2.6 1.6 2.3 3.1-.3 1.4-1.4 2.4-2.8 2.4zM69.6 30.6c-1.5 0-2.8-1.2-2.8-2.8V15.5c0-1.5 1.2-2.8 2.8-2.8 1.5 0 2.8 1.2 2.8 2.8v12.3c0 1.6-1.3 2.8-2.8 2.8z" fill="#676a6c" />
        <circle class="ast1" cx="80.5" cy="52.5" r="4.1" fill="#439dd3" />
        <path class="ast1" d="M48.1 99.6H37c-1.4 0-2.5-1.1-2.5-2.5V85.9c0-.7.3-1.3.7-1.8L57 62.3c-.6-1.1-1.2-2.3-1.7-3.4-1.7-3.8-.8-8.3 2.1-11.2l9.9-9.9c2.8-2.8 7.1-3.7 10.8-2.3 3.4 1.3 8.3 3.7 12.4 7.8s6.6 9.1 8 12.5c1.5 3.7.6 8-2.3 10.9l-10.1 10c-2.9 2.9-7.3 3.8-11.1 2.2-1.8-.8-3.6-1.7-5.3-2.7-1.2-.7-1.6-2.3-.8-3.5.7-1.2 2.3-1.6 3.5-.8 1.4.9 3 1.7 4.6 2.3 1.9.8 4.1.4 5.6-1.1l10.1-10c1.4-1.4 1.9-3.5 1.1-5.4-1.2-3-3.3-7.3-6.8-10.8s-7.7-5.5-10.7-6.7c-1.9-.7-4-.3-5.4 1.1L61 51.2c-1.5 1.5-1.9 3.7-1.1 5.6.7 1.6 1.5 3.1 2.4 4.6.6 1 .5 2.3-.4 3.1L39.5 87v7.6h6.1V90c0-1.4 1.1-2.5 2.5-2.5h4.6v-4.6c0-1.4 1.1-2.5 2.5-2.5h7.1c1.4 0 2.5 1.1 2.5 2.5s-1.1 2.5-2.5 2.5h-4.6V90c0 1.4-1.1 2.5-2.5 2.5h-4.6v4.6c0 1.4-1.1 2.5-2.5 2.5z" fill="#439dd3" />
    </symbol>
    <symbol id="recent-accessed-view" viewBox="0 0 100 100">
        <path class="ast0" d="M46.6 54C18.7 54 2.5 30.1 1.8 29.1l-1-1.5 1-1.5c.7-1 16.9-24.9 44.8-24.9s44.1 23.9 44.8 24.9c.8 1.3.5 3-.8 3.8s-3 .5-3.8-.8c-.2-.2-15.4-22.5-40.2-22.5-21.1 0-35.1 15.9-39.1 21 3.9 5 18 21 39.1 21 1.5 0 2.7 1.2 2.7 2.7S48.1 54 46.6 54z" fill="#676a6c" />
        <path class="ast0" d="M46.6 48.7c-11.6 0-21.1-9.5-21.1-21.1S35 6.5 46.6 6.5 67.7 16 67.7 27.6s-9.5 21.1-21.1 21.1zm0-36.7C38 12 31 19 31 27.6s7 15.6 15.6 15.6 15.6-7 15.6-15.6S55.2 12 46.6 12z" fill="#676a6c" />
        <path class="ast0" d="M34.7 30.3c-1.5 0-2.7-1.2-2.7-2.7 0-8 6.5-14.6 14.6-14.6 1.5 0 2.7 1.2 2.7 2.7s-1.2 2.7-2.7 2.7c-5 0-9.1 4.1-9.1 9.1 0 1.6-1.2 2.8-2.8 2.8z" fill="#676a6c" />
        <g>
            <circle class="ast1" cx="80.6" cy="52.1" r="4" fill="#439dd3" />
            <path class="ast1" d="M48.4 98.9H37.3c-1.4 0-2.5-1.1-2.5-2.5V85.3c0-.7.3-1.3.7-1.8l21.7-21.7c-.6-1.1-1.2-2.2-1.7-3.4-1.7-3.8-.8-8.2 2.1-11.2l9.9-9.8c2.8-2.8 7-3.7 10.7-2.3 3.4 1.3 8.3 3.7 12.4 7.8s6.6 9 7.9 12.4c1.5 3.7.6 8-2.3 10.8l-10 10c-2.9 2.9-7.2 3.7-11 2.2-1.8-.8-3.6-1.7-5.2-2.7-1.2-.7-1.6-2.3-.8-3.5.7-1.2 2.3-1.6 3.5-.8 1.4.9 3 1.7 4.5 2.3 1.9.8 4.1.4 5.5-1.1l10-10c1.4-1.4 1.9-3.5 1.1-5.4-1.2-3-3.3-7.2-6.8-10.7s-7.7-5.5-10.6-6.6c-1.9-.7-4-.3-5.4 1.1l-9.9 9.8c-1.5 1.5-1.9 3.7-1.1 5.5.7 1.6 1.5 3.1 2.4 4.6.6 1 .4 2.3-.4 3.1L39.8 86.3v7.5h6v-4.5c0-1.4 1.1-2.5 2.5-2.5h4.5v-4.5c0-1.4 1.1-2.5 2.5-2.5h7c1.4 0 2.5 1.1 2.5 2.5s-1.1 2.5-2.5 2.5h-4.5v4.5c0 1.4-1.1 2.5-2.5 2.5h-4.5v4.5c.1 1.4-1 2.6-2.4 2.6z" fill="#439dd3" />
        </g>
    </symbol>

    <symbol id="recent-created-bookmark" viewBox="0 0 100 100">
        <path class="ast0" d="M47.9 67.5l4.9-4.7L41 51.4l-4.7-4.5-4.7 4.5L9.2 72.9V7.1h54.3v44.5l6.7-6.7V6.2c0-1.2-.3-2.3-1-3.3S67.6 1.2 66.4.8c-.7-.3-1.5-.5-2.3-.5H8.6C7.8.3 7 .5 6.3.8c-1.1.4-2 1.1-2.8 2.1s-1 2-1 3.3v68.3c0 1.2.3 2.3 1 3.3s1.6 1.7 2.8 2.1c.7.3 1.5.5 2.3.5 1.6 0 3.2-.6 4.4-1.7l23.4-22.4 11.5 11.2z" fill="#676a6c" />
        <path class="ast1" d="M75 50.2l12.2 12.2-30.8 30.7L44.2 81 75 50.2zm21.3-2.9l-5.4-5.4c-2.1-2.1-5.5-2.1-7.6 0l-5.2 5.2 12.2 12.2 6.1-6.1c1.6-1.7 1.6-4.3-.1-5.9zM37.9 98.1c-.2 1 .7 1.9 1.7 1.6l13.5-3.3-12.2-12.1-3 13.8z" fill="#439dd3" />
    </symbol>

    <symbol id="recent-created-dashboard" viewBox="0 0 100 100">
        <path class="ast0" d="M58.7 30.2l-6.9 6.9c-1.7-1-3.6-1.6-5.7-1.6-6 0-10.9 4.8-10.9 10.9S40 57.3 46.1 57.3c6 0 10.9-4.8 10.9-10.9 0-2.1-.6-4-1.6-5.7l6.9-6.9c1-1 1-2.6 0-3.7-.9-.8-2.6-.8-3.6.1zM46.2 52.1c-3.1 0-5.7-2.5-5.7-5.7 0-3.1 2.5-5.7 5.7-5.7 3.1 0 5.7 2.5 5.7 5.7 0 3.1-2.6 5.7-5.7 5.7z" fill="#676a6c" />
        <path class="ast0" d="M46.3 68.7H14.4C10.3 62.8 7.9 56.1 7.5 49h2.8c1.5 0 2.6-1.2 2.6-2.6s-1.2-2.6-2.6-2.6H7.5c.6-8.8 4.1-16.8 9.5-23l2 2c.5.5 1.2.7 1.8.7.6 0 1.4-.2 1.8-.7 1-1 1-2.6 0-3.7l-2-2c6.2-5.5 14.3-8.9 23-9.5v2.8c0 1.5 1.2 2.6 2.6 2.6s2.6-1.2 2.6-2.6V7.7c8.8.6 16.8 4.1 23 9.5l-2 2c-1 1-1 2.6 0 3.7.5.5 1.2.7 1.8.7s1.4-.2 1.8-.7l2-2c2.3 2.7 4.3 5.7 5.9 8.9 2.1.7 4.4 1.6 6.5 2.3-2.1-6.3-5.7-12-10.5-16.8C69 7.1 58 2.4 46.2 2.4S23.4 7 15.2 15.3c-8.3 8.3-12.9 19.3-12.9 31 0 9.6 3 18.8 8.8 26.4.5.6 1.3 1 2.1 1h26.4l6.7-5z" fill="#676a6c" />
        <path class="ast1" d="M74.1 45.6l12.7 12.7-32.2 32.3-12.8-12.7 32.3-32.3zm22.4-3l-5.7-5.7c-2.2-2.2-5.8-2.2-8 0l-5.4 5.4L90.1 55l6.3-6.3c1.8-1.7 1.8-4.4.1-6.1zM35.2 95.8c-.2 1 .7 2 1.8 1.7l14.2-3.4-12.8-12.8-3.2 14.5z" fill="#439dd3" />
    </symbol>

    <symbol id="recent-created-database" viewBox="0 0 100 100">
        <path class="ast0" d="M37.1 31.8c-8.2 0-16.1-1.1-22.4-3.1-1.5-.5-2.3-2-1.8-3.5s2-2.3 3.5-1.8c5.7 1.8 13.1 2.8 20.7 2.8 18.5 0 30.3-5.7 30.3-9.6S55.7 7.1 37.1 7.1c-18.5 0-30.3 5.7-30.3 9.6 0 1.5-1.2 2.8-2.8 2.8s-2.7-1.3-2.7-2.8c0-9.9 18-15.1 35.8-15.1s35.8 5.2 35.8 15.1C73 26.6 55 31.8 37.1 31.8zM37.1 68.4c-8.3 0-16.2-1.1-22.5-3.1-1.5-.5-2.2-2-1.8-3.5.5-1.5 2-2.2 3.5-1.8 5.7 1.9 13.1 2.9 20.8 2.9 1.9 0 3.7-.1 5.5-.2 1.5-.1 2.8 1.1 2.9 2.6.1 1.5-1.1 2.8-2.6 2.9-1.8.1-3.8.2-5.8.2zM37.1 50.1c-8.5-.2-16.7-1.2-23-3.3-1.4-.5-2.2-2.1-1.7-3.5s2.1-2.2 3.5-1.7c5.8 2 13.4 2.9 21.3 3 6.1.1 12.9-.8 17.1-1.5 1.5-.3 2.9.7 3.2 2.3.3 1.5-.7 2.9-2.3 3.2-4.5.7-11.7 1.7-18.1 1.5z" fill="#676a6c" />
        <path class="ast0" d="M27.9 86.6h-.4C13 84.4 1.3 78.3 1.3 71.6V16.7c0-1.5 1.2-2.8 2.8-2.8s2.8 1.2 2.8 2.8v54.9c0 2.9 9.9 7.8 21.5 9.5 1.5.2 2.6 1.6 2.3 3.1-.3 1.4-1.4 2.4-2.8 2.4zM70.2 42.9c-1.5 0-2.8-1.2-2.8-2.8V16.7c0-1.5 1.2-2.8 2.8-2.8 1.5 0 2.8 1.2 2.8 2.8v23.4c0 1.6-1.3 2.8-2.8 2.8z" fill="#676a6c" />
        <path class="ast1" d="M75 46.4l12.7 12.7-32.2 32.3-12.7-12.7L75 46.4zm22.4-3l-5.7-5.7c-2.2-2.2-5.8-2.2-8 0l-5.4 5.4L91 55.8l6.3-6.3c1.8-1.7 1.8-4.4.1-6.1zM36.1 96.6c-.2 1 .7 2 1.8 1.7l14.2-3.4-12.8-12.8-3.2 14.5z" fill="#439dd3" />
    </symbol>
    <symbol id="recent-created-view" viewBox="0 0 100 100">
        <path class="ast0" d="M49.7 55.4c-28.6 0-45.2-24.5-45.9-25.5l-1-1.5 1-1.5c.7-1 17.3-25.5 45.9-25.5s45.2 24.5 45.9 25.5c.8 1.3.5 3.1-.8 3.9s-3.1.5-3.9-.8c-.2-.2-15.8-23-41.2-23-21.6 0-35.9 16.3-40 21.5 4 5.1 18.4 21.5 40 21.5 1.5 0 2.8 1.2 2.8 2.8 0 1.3-1.2 2.6-2.8 2.6z" fill="#676a6c" />
        <path class="ast0" d="M49.7 49.9c-11.9 0-21.6-9.7-21.6-21.6S37.8 6.7 49.7 6.7s21.6 9.7 21.6 21.6-9.7 21.6-21.6 21.6zm0-37.5c-8.8 0-16 7.2-16 16s7.2 16 16 16 16-7.2 16-16-7.2-16-16-16z" fill="#676a6c" />
        <path class="ast0" d="M37.5 31.1c-1.5 0-2.8-1.2-2.8-2.8 0-8.2 6.7-14.9 14.9-14.9 1.5 0 2.8 1.2 2.8 2.8S51.2 19 49.6 19c-5.1 0-9.3 4.2-9.3 9.3.1 1.6-1.1 2.8-2.8 2.8z" fill="#676a6c" />
        <path class="ast1" d="M72.4 44.3l13.3 13.3-33.8 33.8-13.3-13.3 33.8-33.8zm23.4-3.2l-6-6c-2.3-2.3-6-2.3-8.3 0l-5.7 5.7 13.3 13.3 6.6-6.6c1.9-1.7 1.9-4.6.1-6.4zM31.6 96.8c-.2 1.1.7 2.1 1.8 1.8L48.3 95 35 81.7l-3.4 15.1z" fill="#439dd3" />
    </symbol>

    <symbol id="info-dashboard" viewBox="0 0 100 100">
        <path class="ast0" d="M86.5 88.8h-73C6.2 88.8.2 82.8.2 75.5V47c0-7.3 6-13.3 13.3-13.3h13.1c1 0 1.9.8 1.9 1.9s-.8 1.9-1.9 1.9H13.5C8.3 37.5 4 41.8 4 47v28.5c0 5.2 4.3 9.5 9.5 9.5h73c5.2 0 9.5-4.3 9.5-9.5V47c0-3.6-2-6.8-5.2-8.5-.9-.5-1.3-1.6-.8-2.5.5-.9 1.6-1.3 2.5-.8 4.5 2.3 7.3 6.8 7.3 11.9v28.5c0 7.2-6 13.2-13.3 13.2z" fill="#fff" />
        <path class="ast0" d="M27.7 79.8h-9.5V64.4c0-2.5 2-4.5 4.5-4.5h.4c2.5 0 4.5 2 4.5 4.5v15.4zM45.7 79.8h-9.5V48.3c0-2.5 2-4.5 4.5-4.5h.4c2.5 0 4.5 2 4.5 4.5v31.5zM63.7 79.8h-9.5V34.1c0-2.5 2-4.5 4.5-4.5h.4c2.5 0 4.5 2 4.5 4.5v45.7zM81.7 79.8h-9.5V22.4c0-2.5 2-4.5 4.5-4.5h.4c2.5 0 4.5 2 4.5 4.5v57.4zM48.1 85.9h3.8v10.4h-3.8z" fill="#fff" />
        <path class="ast0" d="M60 98.2H40.1c-1 0-1.9-.8-1.9-1.9s.8-1.9 1.9-1.9H60c1 0 1.9.8 1.9 1.9s-.9 1.9-1.9 1.9zM24.4 51.4l-1.9-2.1 18-16.1 18.1-14.3 18-13.5 1.7 2.2-18 13.6-17.9 14.2z" fill="#fff" />
        <circle class="ast0" cx="77" cy="6.5" r="4.7" fill="#fff" />
        <circle class="ast0" cx="59" cy="20.1" r="4.7" fill="#fff" />
        <circle class="ast0" cx="41" cy="34.3" r="4.7" fill="#fff" />
        <circle class="ast0" cx="23" cy="50.4" r="4.7" fill="#fff" />
    </symbol>

</svg>