<?xml version="1.0" encoding="utf-8"?>
<!-- Generator: Adobe Illustrator 19.0.0, SVG Export Plug-In . SVG Version: 6.00 Build 0)  -->
<svg version="1.1" id="Layer_1" xmlns="http://www.w3.org/2000/svg" xmlns:xlink="http://www.w3.org/1999/xlink" x="0px" y="0px"
	 viewBox="0 0 50 50" style="enable-background:new 0 0 50 50;" xml:space="preserve">
<style type="text/css">
	.st0{fill:#439DD3;}
	.st1{fill:#676A6C;}
</style>
<g>
	<g>
		<path class="st0" d="M34.7,18.8"/>
		<path class="st0" d="M34.7,25"/>
		<path class="st0" d="M34.7,31.2"/>
		<path class="st0" d="M34.7,37.4"/>
		<path class="st0" d="M31.9,1.8H6.8v46.5h36.4V13.1L31.9,1.8z M32.4,4.4l8.2,8.2h-8.2V4.4z M8.3,46.7V3.3h22.5v10.8h10.8v32.5H8.3z
			 M8.3,46.7"/>
	</g>
	<g transform="translate(1 1)">
		<path class="st1" d="M15.1,32.9h-3.4c-0.3,0-0.4-0.2-0.4-0.4c0-0.3,0.2-0.4,0.4-0.4h3.4c0.3,0,0.4,0.2,0.4,0.4
			C15.5,32.8,15.4,32.9,15.1,32.9z"/>
		<path class="st1" d="M36.3,32.9h-3.4c-0.3,0-0.4-0.2-0.4-0.4c0-0.3,0.2-0.4,0.4-0.4h3.4c0.3,0,0.4,0.2,0.4,0.4
			C36.7,32.8,36.5,32.9,36.3,32.9z"/>
		<path class="st1" d="M24,24.1c-0.3,0-0.4-0.2-0.4-0.4v-3.4c0-0.3,0.2-0.4,0.4-0.4s0.4,0.2,0.4,0.4v3.4
			C24.4,23.9,24.3,24.1,24,24.1z"/>
		<path class="st1" d="M24,34.6c-0.2,0-0.3,0-0.5,0c-0.8-0.2-1.4-0.8-1.6-1.6c-0.2-1,0.3-1.9,1.1-2.4c0.3-0.1,0.5-0.3,0.7-0.3
			c0.7-0.3,1.5-0.7,2.2-1.1l2-1.2c0.2-0.1,0.4-0.1,0.5,0.1c0.1,0.2,0.2,0.3,0.1,0.5l-1.2,2c-0.4,0.7-0.8,1.5-1.1,2.2
			c-0.1,0.3-0.3,0.5-0.3,0.7C25.5,34.2,24.8,34.6,24,34.6z M27,29.5l-0.6,0.3c-0.7,0.4-1.5,0.8-2.3,1.2c-0.3,0.1-0.5,0.2-0.7,0.3
			l0,0c-0.6,0.3-0.8,0.8-0.7,1.4c0.1,0.5,0.5,0.8,0.9,0.9c0.6,0.1,1.2-0.1,1.4-0.7c0.1-0.3,0.3-0.5,0.3-0.7c0.3-0.8,0.7-1.5,1.2-2.3
			L27,29.5z M23.2,31L23.2,31L23.2,31z"/>
		<path class="st1" d="M16.5,25.5c-0.1,0-0.2,0-0.3-0.1L15,24.1c-0.2-0.2-0.2-0.4,0-0.6c0.2-0.2,0.4-0.2,0.6,0l1.2,1.2
			c0.2,0.2,0.2,0.4,0,0.6C16.7,25.4,16.6,25.5,16.5,25.5z"/>
		<path class="st1" d="M31.5,25.5c-0.1,0-0.2,0-0.3-0.1c-0.2-0.2-0.2-0.4,0-0.6l1.2-1.2c0.2-0.2,0.4-0.2,0.6,0
			c0.2,0.2,0.2,0.4,0,0.6l-1.2,1.2C31.7,25.4,31.6,25.5,31.5,25.5z"/>
		<path class="st1" d="M14.3,28.8c0,0-0.1,0-0.2,0l-1.6-0.7c-0.2-0.1-0.3-0.3-0.2-0.6s0.3-0.3,0.6-0.2l1.6,0.7
			c0.2,0.1,0.3,0.3,0.2,0.6C14.6,28.8,14.4,28.8,14.3,28.8z"/>
		<path class="st1" d="M35.3,37.7c0,0-0.1,0-0.2,0L33.6,37c-0.2-0.1-0.3-0.3-0.2-0.6c0.1-0.2,0.3-0.3,0.6-0.2l1.6,0.7
			c0.2,0.1,0.3,0.3,0.2,0.6C35.6,37.6,35.5,37.7,35.3,37.7z"/>
		<path class="st1" d="M28.1,23.2c0,0-0.1,0-0.2,0c-0.2-0.1-0.3-0.3-0.2-0.6l0.7-1.6c0.1-0.2,0.3-0.3,0.6-0.2
			c0.2,0.1,0.3,0.3,0.2,0.6L28.5,23C28.4,23.1,28.3,23.2,28.1,23.2z"/>
		<path class="st1" d="M20,23.1c-0.2,0-0.3-0.1-0.4-0.3L19,21.3c-0.1-0.2,0-0.5,0.2-0.6c0.2-0.1,0.5,0,0.6,0.2l0.6,1.6
			c0.1,0.2,0,0.5-0.2,0.6C20.1,23.1,20.1,23.1,20,23.1z"/>
		<path class="st1" d="M33.8,29c-0.2,0-0.3-0.1-0.4-0.3c-0.1-0.2,0-0.5,0.2-0.6l1.6-0.6c0.2-0.1,0.5,0,0.6,0.2
			c0.1,0.2,0,0.5-0.2,0.6L34,28.9C33.9,28.9,33.9,29,33.8,29z"/>
		<path class="st1" d="M12.6,37.6c-0.2,0-0.3-0.1-0.4-0.3c-0.1-0.2,0-0.5,0.2-0.6l1.6-0.6c0.2-0.1,0.5,0,0.6,0.2
			c0.1,0.2,0,0.5-0.2,0.6l-1.6,0.6C12.7,37.6,12.7,37.6,12.6,37.6z"/>
		<path class="st1" d="M33.6,40.6H14.4c-0.1,0-0.3,0-0.3-0.2c-1.8-2.2-2.8-5-2.8-7.9c0-7,5.7-12.7,12.7-12.7s12.7,5.7,12.7,12.7
			c0,2.9-0.9,5.6-2.8,7.9C33.9,40.5,33.7,40.6,33.6,40.6z M14.6,39.7h18.8c1.6-2.1,2.4-4.6,2.4-7.2c0-6.5-5.3-11.9-11.9-11.9
			S12.1,26,12.1,32.5C12.1,35.2,13,37.6,14.6,39.7z"/>
	</g>
</g>
</svg>
