<?xml version="1.0" encoding="utf-8"?>
<!-- Generator: Adobe Illustrator 19.0.0, SVG Export Plug-In . SVG Version: 6.00 Build 0)  -->
<svg version="1.1" id="Layer_1" xmlns="http://www.w3.org/2000/svg" xmlns:xlink="http://www.w3.org/1999/xlink" x="0px" y="0px"
	 viewBox="0 0 50 50" style="enable-background:new 0 0 50 50;" xml:space="preserve">
<style type="text/css">
	.st0{fill:#676A6C;}
</style>
<path class="st0" d="M44,11.7H6c-0.9,0-1.7,0.8-1.7,1.7v23.2c0,0.9,0.8,1.7,1.7,1.7H44c0.9,0,1.7-0.8,1.7-1.7V13.4
	C45.7,12.5,44.9,11.7,44,11.7z M44.3,34.5l-13.9-11l13.9-8.6V34.5z M6,13H44c0.2,0,0.3,0.1,0.3,0.3L25,25.4L5.7,13.3
	C5.7,13.2,5.9,13,6,13z M5.7,14.8l13.9,8.7l-13.9,11V14.8z M44,36.9H6c-0.2,0-0.4-0.2-0.4-0.4v-0.4l15.1-11.9l3.9,2.4
	c0.2,0.1,0.5,0.1,0.7,0l3.9-2.4l15.1,11.9v0.4C44.3,36.8,44.2,36.9,44,36.9z"/>
</svg>
