<?xml version="1.0" encoding="utf-8"?>
<!-- Generator: Adobe Illustrator 19.0.0, SVG Export Plug-In . SVG Version: 6.00 Build 0)  -->
<svg version="1.1" id="Layer_1" xmlns="http://www.w3.org/2000/svg" xmlns:xlink="http://www.w3.org/1999/xlink" x="0px" y="0px"
	 viewBox="0 0 50 50" style="enable-background:new 0 0 50 50;" xml:space="preserve">
<style type="text/css">
	.st0{fill:#676A6C;}
</style>
<g>
	<path class="st0" d="M42.3,37.9c-3.4-3.4-5.1-7.3-5.1-11.8v-6.5c0-5-3.3-8.3-6.2-9.6c-0.8-0.4-1.7-0.7-2.5-0.9V8.7
		c0-2-1.6-3.6-3.6-3.6c-2,0-3.6,1.6-3.6,3.6v0.5C20.5,9.3,19.7,9.6,19,10c-3.2,1.5-6.4,5-6.4,9.6v6.5c0,4.6-1.6,8.6-4.9,11.8
		c-0.2,0.2-0.3,0.5-0.2,0.7c0.1,0.3,0.3,0.5,0.6,0.5l6.9,1.2c1.3,0.2,2.5,0.4,3.6,0.6c1.3,2.5,3.8,4.1,6.5,4.1s5.2-1.6,6.5-4.1
		c1.1-0.1,2.3-0.3,3.6-0.6l6.9-1.2c0.3,0,0.5-0.2,0.6-0.5C42.6,38.4,42.5,38.1,42.3,37.9L42.3,37.9z M22.7,8.7c0-1.2,1-2.2,2.2-2.2
		c1.2,0,2.2,1,2.2,2.2v0.1c-1.5-0.2-2.9-0.2-4.4,0V8.7z M25,43.5c-1.8,0-3.6-0.9-4.7-2.4c1.6,0.2,3.1,0.3,4.7,0.3
		c1.5,0,3-0.1,4.7-0.3C28.6,42.6,26.8,43.5,25,43.5L25,43.5z M34.8,38.9c-1.4,0.2-2.7,0.4-3.9,0.6h0c-0.5,0.1-1,0.1-1.6,0.2
		c0,0,0,0,0,0c-0.5,0-0.9,0.1-1.4,0.1c-0.1,0-0.2,0-0.3,0c-0.4,0-0.8,0-1.2,0.1c-0.1,0-0.2,0-0.2,0c-0.9,0-1.8,0-2.7,0
		c-0.1,0-0.2,0-0.2,0c-0.4,0-0.8,0-1.1-0.1c-0.1,0-0.2,0-0.3,0c-0.4,0-0.9-0.1-1.3-0.1c0,0,0,0,0,0c-0.5,0-1-0.1-1.5-0.2h0
		c-1.2-0.2-2.5-0.3-3.9-0.6l-5.6-1c2.9-3.3,4.4-7.3,4.4-11.9v-6.5c0-3.9,2.8-7,5.6-8.3c0.8-0.4,1.7-0.7,2.5-0.9c0,0,0,0,0,0
		c1.8-0.4,3.7-0.4,5.5,0c0,0,0,0,0,0c0.9,0.2,1.9,0.5,2.8,0.9c2.7,1.2,5.4,4.3,5.3,8.3v6.5c0,4.4,1.6,8.5,4.6,11.9L34.8,38.9z
		 M34.8,38.9"/>
	<path class="st0" d="M29.5,13.3c-2.8-1.3-6.3-1.3-9.1,0c-1.6,0.7-4.3,2.9-4.3,6.3c0,0.4,0.3,0.7,0.7,0.7h0c0.4,0,0.7-0.3,0.7-0.7
		c0-2.7,2.2-4.4,3.5-5c2.4-1.1,5.4-1.1,7.8,0c0.4,0.2,0.8,0,1-0.4C30.1,13.9,29.9,13.4,29.5,13.3L29.5,13.3z M29.5,13.3"/>
</g>
</svg>
