<?xml version="1.0" encoding="iso-8859-1"?>
<!-- Generator: Adobe Illustrator 20.1.0, SVG Export Plug-In . SVG Version: 6.00 Build 0)  -->
<!DOCTYPE svg PUBLIC "-//W3C//DTD SVG 1.1//EN" "http://www.w3.org/Graphics/SVG/1.1/DTD/svg11.dtd">
<svg version="1.1" xmlns="http://www.w3.org/2000/svg" xmlns:xlink="http://www.w3.org/1999/xlink" x="0px" y="0px"
	 viewBox="0 0 220 75" height="75" width="200" style="enable-background:new 0 0 220 75;" xml:space="preserve">
<g id="okta">
	<g>
		<g>
			<g>
				<path style="fill:#007DC1;" d="M63.396,26.393c-8.681,0-15.718,7.037-15.718,15.718s7.037,15.718,15.718,15.718
					s15.718-7.037,15.718-15.718S72.076,26.393,63.396,26.393z M63.396,49.97c-4.34,0-7.859-3.519-7.859-7.859
					s3.519-7.859,7.859-7.859c4.34,0,7.859,3.519,7.859,7.859S67.736,49.97,63.396,49.97z"/>
			</g>
			<path style="fill:#007DC1;" d="M90.995,47.38c0-1.242,1.51-1.858,2.378-0.97c3.921,4.01,10.431,10.866,10.471,10.904
				c0.099,0.096,0.182,0.25,0.563,0.363c0.166,0.049,0.418,0.066,0.673,0.066l7.09-0.003c1.274,0,1.667-1.475,1.062-2.217
				l-11.746-12.041l-0.611-0.64c-1.336-1.595-1.193-2.215,0.334-3.832l9.334-10.367c0.605-0.743,0.219-2.196-1.091-2.196h-6.422
				c-0.255,0-0.446,0.001-0.612,0.05c-0.381,0.113-0.525,0.264-0.623,0.36c-0.039,0.038-5.192,5.591-8.362,9.006
				c-0.867,0.934-2.429,0.321-2.429-0.954L91,17.085c0-0.91-0.747-1.249-1.348-1.249h-5.256c-0.911,0-1.358,0.606-1.358,1.14V56.53
				c0,0.91,0.761,1.159,1.362,1.159h5.252c0.814,0,1.344-0.585,1.344-1.192v-0.403V47.38z"/>
			<path style="fill:#007DC1;" d="M133.878,56.328l-0.562-5.262c-0.077-0.72-0.742-1.217-1.457-1.105
				c-0.396,0.062-0.803,0.095-1.216,0.095c-4.198,0-7.606-3.292-7.826-7.436c-0.007-0.14,0.01-0.281,0.01-0.423v-6.415
				c0-0.839,0.619-1.518,1.458-1.518l7.033,0.005c0.513,0,1.235-0.425,1.235-1.358v-4.98c0-0.954-0.621-1.483-1.174-1.483h-7.084
				c-0.819,0-1.483-0.601-1.485-1.42l-0.014-7.952c0-0.488-0.361-1.239-1.358-1.239h-5.231c-0.661,0-1.288,0.401-1.288,1.208
				c0,0-0.004,25.447,0,25.588c0.225,8.485,7.184,15.288,15.723,15.288c0.711,0,1.411-0.052,2.096-0.144
				C133.448,57.681,133.954,57.039,133.878,56.328z"/>
		</g>
		<g>
			<path style="fill:#007DC1;" d="M171.726,49.734c-4.451,0-5.116-1.581-5.126-7.57c0-0.019-0.003-0.038-0.003-0.058l-0.01-14.328
				c0-0.488-0.363-1.331-1.361-1.331h-5.241c-0.661,0-1.364,0.524-1.364,1.331l0.002,0.667c-2.287-1.299-4.93-2.051-7.748-2.051
				c-8.681,0-15.718,7.034-15.718,15.715c0,8.681,7.037,15.716,15.718,15.716c3.898,0,7.461-1.423,10.208-3.772
				c1.48,2.25,3.855,3.744,7.562,3.772c0.634,0.005,3.993,0.112,3.993-1.457v-5.59C172.637,50.258,172.247,49.734,171.726,49.734z
				 M150.88,49.967c-4.34,0-7.859-3.519-7.859-7.859c0-4.34,3.519-7.859,7.859-7.859c4.34,0,7.859,3.519,7.859,7.859
				C158.739,46.449,155.22,49.967,150.88,49.967z"/>
		</g>
	</g>
</g>
<g id="Layer_1">
</g>
</svg>
