<?xml version="1.0" encoding="utf-8"?>
<!-- Generator: Adobe Illustrator 19.0.0, SVG Export Plug-In . SVG Version: 6.00 Build 0)  -->
<svg version="1.1" id="Layer_1" xmlns="http://www.w3.org/2000/svg" xmlns:xlink="http://www.w3.org/1999/xlink" x="0px" y="0px"
	 viewBox="0 0 50 50" style="enable-background:new 0 0 50 50;" xml:space="preserve">
<style type="text/css">
	.st0{fill:#676A6C;}
</style>
<g>
	<path class="st0" d="M29.5,43.8H16.3c-0.2,0-0.4-0.2-0.4-0.4v-3.1v-8.3v-3.6v-8.3v-3.6V8.3V6.5c0-0.2,0.2-0.4,0.4-0.4h1.3
		c0.3,0,0.6-0.3,0.6-0.6S17.9,5,17.6,5h-1.3c-0.8,0-1.5,0.7-1.5,1.5v1.2h-3.3c-0.3,0-0.6,0.3-0.6,0.6v4.8c0,2.2,1.7,4,3.9,4.1v2.5
		h-3.3c-0.3,0-0.6,0.3-0.6,0.6V25c0,2.2,1.7,4,3.9,4.1v2.5h-3.3c-0.3,0-0.6,0.3-0.6,0.6v4.8c0,2.2,1.7,4,3.9,4.1v2.5
		c0,0.8,0.7,1.5,1.5,1.5h13.2c0.3,0,0.6-0.3,0.6-0.6S29.8,43.8,29.5,43.8z M12,13.1V8.9h2.7V16C13.2,15.9,12,14.6,12,13.1z M12,25
		v-4.2h2.7v7.1C13.2,27.8,12,26.5,12,25z M12,36.9v-4.2h2.7v7.1C13.2,39.7,12,38.4,12,36.9z"/>
	<path class="st0" d="M39.2,13.1V8.3c0-0.3-0.3-0.6-0.6-0.6h-3.3V6.5c0-0.8-0.7-1.5-1.5-1.5H19.9c-0.3,0-0.6,0.3-0.6,0.6
		s0.3,0.6,0.6,0.6h13.8c0.2,0,0.4,0.2,0.4,0.4v1.8v8.3v3.6v8.3v3.6v8.3v3.1c0,0.2-0.2,0.4-0.4,0.4h-1.9c-0.3,0-0.6,0.3-0.6,0.6
		s0.3,0.6,0.6,0.6h1.9c0.8,0,1.5-0.7,1.5-1.5V41c2.2-0.1,3.9-1.9,3.9-4.1v-4.8c0-0.3-0.3-0.6-0.6-0.6h-3.3v-2.5
		c2.2-0.1,3.9-1.9,3.9-4.1v-4.8c0-0.3-0.3-0.6-0.6-0.6h-3.3v-2.5C37.4,17.1,39.2,15.3,39.2,13.1z M38,8.9v4.2c0,1.5-1.2,2.8-2.7,2.9
		V8.9H38z M38,32.7v4.2c0,1.5-1.2,2.8-2.7,2.9v-7.1L38,32.7L38,32.7z M38,20.8V25c0,1.5-1.2,2.8-2.7,2.9v-7.1L38,20.8L38,20.8z"/>
	<path class="st0" d="M19.5,26.2h0.2c0.3,2.6,2.5,4.7,5.2,4.7c0.8,0,1.5-0.2,2.2-0.5c0.3-0.1,0.4-0.5,0.3-0.8
		c-0.1-0.3-0.5-0.4-0.8-0.3c-0.5,0.3-1.1,0.4-1.7,0.4c-2.1,0-3.8-1.5-4.1-3.5h0.2c0.5,0,0.9-0.4,1-0.9c0.2-1.5,1.4-2.6,2.9-2.6
		s2.8,1.1,2.9,2.6c0.1,0.5,0.5,0.9,1,0.9h0.2c-0.1,0.7-0.4,1.4-0.9,2C28,28.4,28,28.8,28.3,29c0.1,0.1,0.2,0.1,0.4,0.1
		c0.2,0,0.3-0.1,0.5-0.2c0.6-0.8,1-1.7,1.1-2.7h0.2c0.3,0,0.5-0.1,0.7-0.3s0.3-0.5,0.3-0.7c-0.3-3.3-3.1-6-6.4-6s-6.2,2.6-6.4,6
		c0,0.3,0.1,0.5,0.3,0.7C19,26,19.3,26.2,19.5,26.2z M25,20.3c2.7,0,4.9,2,5.2,4.7h-1.2c-0.3-2-2-3.5-4.1-3.5S21.2,23,20.9,25h-1.2
		C20.1,22.4,22.3,20.3,25,20.3z"/>
	<path class="st0" d="M19.5,13.7h0.2c0.3,2.6,2.5,4.7,5.2,4.7s4.9-2.1,5.2-4.7h0.2c0.3,0,0.5-0.1,0.7-0.3c0.2-0.2,0.3-0.5,0.3-0.7
		c-0.3-3.3-3.1-6-6.4-6s-6.2,2.6-6.4,6c0,0.3,0.1,0.5,0.3,0.7C19,13.6,19.3,13.7,19.5,13.7z M25,17.2c-2.1,0-3.8-1.5-4.1-3.5h0.2
		c0.5,0,0.9-0.4,1-0.9c0.2-1.5,1.4-2.6,2.9-2.6c1.5,0,2.8,1.1,2.9,2.6c0.1,0.5,0.5,0.9,1,0.9h0.2C28.8,15.7,27.1,17.2,25,17.2z
		 M25,7.9c2.7,0,4.9,2,5.2,4.7h-0.5c0,0,0,0,0,0s0,0,0,0h-0.6C28.8,10.5,27,9,25,9c-2,0-3.8,1.5-4.1,3.5h-0.6c0,0,0,0,0,0s0,0,0,0
		h-0.5C20.1,9.9,22.3,7.9,25,7.9z"/>
	<path class="st0" d="M31.4,37.6c-0.3-3.3-3.1-6-6.4-6s-6.2,2.6-6.4,6c0,0.3,0.1,0.5,0.3,0.7c0.2,0.2,0.4,0.3,0.7,0.3h0.2
		c0.3,2.6,2.5,4.7,5.2,4.7s4.9-2.1,5.2-4.7h0.2c0.3,0,0.5-0.1,0.7-0.3C31.4,38.1,31.4,37.8,31.4,37.6z M25,32.8c2.7,0,4.9,2,5.2,4.7
		h-1.2c-0.3-2-2-3.5-4.1-3.5c-2,0-3.8,1.5-4.1,3.5h-1.2C20.1,34.8,22.3,32.8,25,32.8z M25,42.1c-2.1,0-3.8-1.5-4.1-3.5h0.2
		c0.5,0,0.9-0.4,1-0.9c0.2-1.5,1.4-2.6,2.9-2.6c1.5,0,2.8,1.1,2.9,2.6c0.1,0.5,0.5,0.9,1,0.9h0.2C28.8,40.6,27.1,42.1,25,42.1z"/>
</g>
</svg>
