<?xml version="1.0" encoding="utf-8"?>
<!-- Generator: Adobe Illustrator 19.0.0, SVG Export Plug-In . SVG Version: 6.00 Build 0)  -->
<svg version="1.1" id="Layer_1" xmlns="http://www.w3.org/2000/svg" xmlns:xlink="http://www.w3.org/1999/xlink" x="0px" y="0px"
	 viewBox="0 0 46 46" style="enable-background:new 0 0 46 46;" xml:space="preserve">
<style type="text/css">
	.st0{fill:#676A6C;}
</style>
<g>
	<path class="st0" d="M39.9,2H6.1c-1.1,0-2,0.9-2,2v38c0,1.1,0.9,2,2,2h33.8c1.1,0,2-0.9,2-2V4C41.9,2.9,41,2,39.9,2z M6.1,3.4h33.8
		c0.3,0,0.6,0.3,0.6,0.6v18.3h-35V4C5.5,3.7,5.8,3.4,6.1,3.4z M39.9,42.6H6.1c-0.3,0-0.6-0.3-0.6-0.6V23.7h35V42
		C40.5,42.3,40.2,42.6,39.9,42.6z"/>
	<path class="st0" d="M19.2,14.6h7.7c1.4,0,2.5-1.1,2.5-2.5v-1c0-0.4-0.3-0.7-0.7-0.7c-0.4,0-0.7,0.3-0.7,0.7v1
		c0,0.6-0.5,1.1-1.1,1.1h-7.7c-0.6,0-1.1-0.5-1.1-1.1v-1c0-0.4-0.3-0.7-0.7-0.7c-0.4,0-0.7,0.3-0.7,0.7v1
		C16.7,13.5,17.8,14.6,19.2,14.6z"/>
	<path class="st0" d="M28.6,30.7c-0.4,0-0.7,0.3-0.7,0.7v1c0,0.6-0.5,1.1-1.1,1.1h-7.7c-0.6,0-1.1-0.5-1.1-1.1v-1
		c0-0.4-0.3-0.7-0.7-0.7c-0.4,0-0.7,0.3-0.7,0.7v1c0,1.4,1.1,2.5,2.5,2.5h7.7c1.4,0,2.5-1.1,2.5-2.5v-1C29.3,31,29,30.7,28.6,30.7z"
		/>
</g>
</svg>
