<?xml version="1.0" encoding="utf-8"?>
<svg version="1.1" 
    xmlns="http://www.w3.org/2000/svg" 
    xmlns:xlink="http://www.w3.org/1999/xlink" style="display:none">
    <symbol viewBox="0 0 100 100" id="boxplot">
        <style type="text/css">
                .st0 {
                    fill: #CDCFD1;
                }

                .st1 {
                    fill: #4183D7;
                }
        </style>
        <g id="XMLID_124_">
            <path id="XMLID_14_" class="st0" d="M98.1,100H0V1.9C0,0.9,0.9,0,1.9,0s1.9,0.9,1.9,1.9v94.2h94.2c1.1,0,1.9,0.9,1.9,1.9   C100,99.1,99.1,100,98.1,100z" />
        </g>
        <g id="XMLID_43_">
            <rect id="XMLID_13_" x="20.2" y="31.6" class="st0" width="3.8" height="20.2" />
        </g>
        <g id="XMLID_41_">
            <rect id="XMLID_12_" x="20.2" y="75.3" class="st0" width="3.8" height="10.3" />
        </g>
        <g id="XMLID_39_">
            <rect id="XMLID_40_" x="15.8" y="50" class="st1" width="12.7" height="25.3" />
        </g>
        <g id="XMLID_37_">
            <rect id="XMLID_11_" x="14.2" y="29.6" class="st0" width="15.9" height="3.8" />
        </g>
        <g id="XMLID_35_">
            <rect id="XMLID_10_" x="14.2" y="83.7" class="st0" width="15.9" height="3.8" />
        </g>
        <g id="XMLID_33_">
            <rect id="XMLID_9_" x="48.8" y="11.1" class="st0" width="3.8" height="14.4" />
        </g>
        <g id="XMLID_31_">
            <rect id="XMLID_8_" x="48.8" y="55.8" class="st0" width="3.8" height="24" />
        </g>
        <g id="XMLID_29_">
            <rect id="XMLID_30_" x="44.4" y="25.5" class="st1" width="12.7" height="30.3" />
        </g>
        <g id="XMLID_27_">
            <rect id="XMLID_7_" x="42.8" y="9.1" class="st0" width="15.9" height="3.8" />
        </g>
        <g id="XMLID_25_">
            <rect id="XMLID_6_" x="42.8" y="77.9" class="st0" width="15.9" height="3.8" />
        </g>
        <g id="XMLID_23_">
            <rect id="XMLID_5_" x="77.4" y="7.2" class="st0" width="3.8" height="22.1" />
        </g>
        <g id="XMLID_21_">
            <rect id="XMLID_4_" x="77.4" y="61.2" class="st0" width="3.8" height="14.1" />
        </g>
        <g id="XMLID_19_">
            <rect id="XMLID_20_" x="73" y="29.3" class="st1" width="12.7" height="31.9" />
        </g>
        <g id="XMLID_17_">
            <rect id="XMLID_3_" x="71.4" y="5.3" class="st0" width="15.9" height="3.8" />
        </g>
        <g id="XMLID_15_">
            <rect id="XMLID_2_" x="71.4" y="73.4" class="st0" width="15.9" height="3.8" />
        </g>
    </symbol>
    <symbol viewBox="0 0 100 100" id="bulletchart">
        <style type="text/css">
                .st0 {
                    fill: #CDCFD1;
                }

                .st1 {
                    fill: #4183D7;
                }
        </style>
        <g id="XMLID_140_">
            <path id="XMLID_7_" class="st0" d="M98.2,100H0.4V2.2c0-1,0.8-1.8,1.8-1.8s1.8,0.8,1.8,1.8v94.1h94.1c1,0,1.8,0.8,1.8,1.8   C100,99.2,99.2,100,98.2,100z" />
        </g>
        <g id="XMLID_14_">
            <path id="XMLID_139_" class="st0" d="M66.2,87.3H13V74.8h53.2c3.4,0,6.2,2.8,6.2,6.2v0C72.4,84.4,69.6,87.3,66.2,87.3z" />
            <path id="XMLID_134_" class="st1" d="M44.2,87.3H13V74.8h31.2c3.4,0,6.2,2.8,6.2,6.2v0C50.4,84.4,47.6,87.3,44.2,87.3z" />
        </g>
        <g id="XMLID_11_">
            <path id="XMLID_130_" class="st0" d="M91.5,58.9H13V46.4h78.5c3.4,0,6.2,2.8,6.2,6.2v0C97.7,56.1,94.9,58.9,91.5,58.9z" />
            <path id="XMLID_129_" class="st1" d="M64.5,58.9H13V46.4h51.5c3.4,0,6.2,2.8,6.2,6.2v0C70.8,56.1,68,58.9,64.5,58.9z" />
        </g>
        <g id="XMLID_8_">
            <path id="XMLID_128_" class="st0" d="M47.4,30.5H13V18h34.4c3.4,0,6.2,2.8,6.2,6.2v0C53.6,27.7,50.8,30.5,47.4,30.5z" />
            <path id="XMLID_121_" class="st1" d="M31.9,30.5H13V18h18.9c3.4,0,6.2,2.8,6.2,6.2v0C38.1,27.7,35.3,30.5,31.9,30.5z" />
        </g>
        <g id="XMLID_3_">
            <path id="XMLID_6_" class="st1" d="M27.2,36.6c-1.1,0-1.9-0.9-1.9-1.9v-21c0-1.1,0.9-1.9,1.9-1.9s1.9,0.9,1.9,1.9v21   C29.1,35.8,28.2,36.6,27.2,36.6z" />
        </g>
        <g id="XMLID_2_">
            <path id="XMLID_9_" class="st1" d="M46,65c-1.1,0-1.9-0.9-1.9-1.9v-21c0-1.1,0.9-1.9,1.9-1.9c1.1,0,1.9,0.9,1.9,1.9v21   C47.9,64.2,47,65,46,65z" />
        </g>
        <g id="XMLID_1_">
            <path id="XMLID_5_" class="st1" d="M37.2,93.4c-1.1,0-1.9-0.9-1.9-1.9v-21c0-1.1,0.9-1.9,1.9-1.9c1.1,0,1.9,0.9,1.9,1.9v21   C39.1,92.5,38.2,93.4,37.2,93.4z" />
        </g>
    </symbol>
    <symbol viewBox="0 0 100 100" id="combo">
        <style type="text/css">
                .st0 {
                    fill: #4183D7;
                }

                .st1 {
                    fill: #CDCFD1;
                }
        </style>
        <g id="XMLID_90_">
            <polygon id="XMLID_4_" class="st0" points="18.6,51.1 15.6,48.7 35.4,24.6 54.8,34.3 72.7,3.9 76,5.9 56.3,39.3 36.4,29.4  " />
        </g>
        <g id="XMLID_88_">
            <path id="XMLID_3_" class="st1" d="M98.1,100H0V2.2c0-1.1,0.9-1.9,2-1.9s2,0.9,2,1.9V97h94.1c1.1,0,1.9,0.4,1.9,1.5   S99.1,100,98.1,100z" />
        </g>
        <path id="XMLID_87_" class="st0" d="M80.8,25v64.5H68.2V25c0-3.5,2.8-6.3,6.3-6.3h0C78,18.7,80.8,21.6,80.8,25z" />
        <path id="XMLID_86_" class="st1" d="M61.6,56.3v33.2H49V56.3c0-3.5,2.8-6.3,6.3-6.3h0C58.8,50,61.6,52.9,61.6,56.3z" />
        <path id="XMLID_85_" class="st0" d="M42.5,46.7v42.8H29.9V46.7c0-3.5,2.8-6.3,6.3-6.3h0C39.7,40.4,42.5,43.3,42.5,46.7z" />
        <path id="XMLID_84_" class="st1" d="M23.4,70v19.5H10.8V70c0-3.5,2.8-6.3,6.3-6.3h0C20.6,63.6,23.4,66.5,23.4,70z" />
        <circle id="XMLID_78_" class="st0" cx="17.1" cy="49.9" r="4.2" />
        <circle id="XMLID_92_" class="st0" cx="35.9" cy="27" r="4.2" />
        <circle id="XMLID_93_" class="st0" cx="55.5" cy="36.8" r="4.2" />
        <circle id="XMLID_94_" class="st0" cx="74.4" cy="4.9" r="4.2" />
    </symbol>
    <symbol viewBox="0 0 100 100" id="doughnut">
        <style type="text/css">
                .st0 {
                    fill: #CDCFD1;
                }

                .st1 {
                    fill: #4183D7;
                }

                .st2 {
                    fill: #E5E5E5;
                }
        </style>
        <g id="XMLID_1_">
            <path id="XMLID_5_" class="st0" d="M16,49.7C16,32.2,29.8,17.8,46.4,16v-16C21.4,1.9,0,23.4,0,49.7c0,16.2,7.7,31.1,20.8,40.4   l8.4-13.5C20.8,70.2,16,60.4,16,49.7z" />
            <path id="XMLID_2_" class="st1" d="M53.4,0v16c15.3,1.3,29.1,14.4,30.5,30.2H100C98.5,22.1,78.4,1.3,53.4,0z" />
            <path id="XMLID_4_" class="st2" d="M84,53.1C82.7,69.6,68,84,50,84c-5.4,0-10.8-1.5-15.5-4l-8.6,13.4c7.4,4,15.6,6.6,24.1,6.6   c26.7,0,48.6-22.1,50-46.9H84z" />
        </g>
    </symbol>
    <symbol viewBox="0 0 100 100" id="gauge">
        <style type="text/css">
                .st0 {
                    fill: #CDCFD1;
                }

                .st1 {
                    fill: #4183D7;
                }
        </style>
        <g id="XMLID_5_">
            <g id="XMLID_41_">
                <path id="XMLID_4_" class="st0" d="M87,91.8l-7.1-6.5c6.8-7.4,10.5-17.1,10.5-27.2c0-22.3-18.1-40.4-40.4-40.4S9.6,35.9,9.6,58.2    c0,10,3.7,19.6,10.3,27l-7.1,6.4C4.5,82.4,0,70.5,0,58.2c0-27.6,22.4-50,50-50s50,22.4,50,50C100,70.7,95.4,82.6,87,91.8z" />
            </g>
            <g id="XMLID_40_">
                <path id="XMLID_3_" class="st1" d="M12.8,91.6C4.5,82.4,0,70.5,0,58.2c0-27.6,22.4-50,50-50c11.9,0,23.5,4.3,32.5,12l-6.2,7.3    C69,21.2,59.6,17.8,50,17.8c-22.3,0-40.4,18.1-40.4,40.4c0,10,3.7,19.6,10.3,27L12.8,91.6z" />
            </g>
            <g id="XMLID_122_">
                <circle id="XMLID_1_" class="st0" cx="50.3" cy="58.1" r="9.4" />
            </g>
            <g id="XMLID_125_">
                <path id="XMLID_2_" class="st0" d="M50.3,61c-0.7,0-1.3-0.2-1.9-0.7c-1.2-1-1.3-2.9-0.3-4.1l18.7-21.7c1-1.2,2.9-1.3,4.1-0.3    c1.2,1,1.3,2.9,0.3,4.1L52.5,60C51.9,60.7,51.1,61,50.3,61z" />
            </g>
        </g>
    </symbol>
    <symbol viewBox="0 0 100 100" id="heatmap">
        <style type="text/css">
                .st0 {
                    fill: #CDCFD1;
                }

                .st1 {
                    fill: #4183D7;
                }

                .st2 {
                    fill: #E5E5E5;
                }
        </style>
        <g id="XMLID_75_">
            <rect id="XMLID_1_" x="0" class="st0" width="19" height="19" />
        </g>
        <g id="XMLID_73_">
            <rect id="XMLID_10_" x="21" class="st1" width="18" height="19" />
        </g>
        <g id="XMLID_71_">
            <rect id="XMLID_11_" x="41" class="st1" width="18" height="19" />
        </g>
        <g id="XMLID_69_">
            <rect id="XMLID_12_" x="61" class="st1" width="18" height="19" />
        </g>
        <g id="XMLID_67_">
            <rect id="XMLID_13_" x="81" class="st1" width="19" height="19" />
        </g>
        <g id="XMLID_65_">
            <rect id="XMLID_14_" x="0" y="21.1" class="st0" width="18.9" height="17.9" />
        </g>
        <g id="XMLID_63_">
            <rect id="XMLID_15_" x="21" y="21" class="st0" width="18" height="18" />
        </g>
        <g id="XMLID_61_">
            <rect id="XMLID_16_" x="41" y="21" class="st1" width="18" height="18" />
        </g>
        <g id="XMLID_59_">
            <rect id="XMLID_17_" x="61" y="21" class="st1" width="18" height="18" />
        </g>
        <g id="XMLID_57_">
            <rect id="XMLID_18_" x="81" y="21" class="st1" width="19" height="18" />
        </g>
        <g id="XMLID_55_">
            <rect id="XMLID_23_" x="0" y="41.1" class="st2" width="18.9" height="17.9" />
        </g>
        <g id="XMLID_53_">
            <rect id="XMLID_22_" x="21" y="41" class="st0" width="18" height="18" />
        </g>
        <g id="XMLID_51_">
            <rect id="XMLID_21_" x="41" y="41" class="st0" width="18" height="18" />
        </g>
        <g id="XMLID_49_">
            <rect id="XMLID_20_" x="61" y="41" class="st0" width="18" height="18" />
        </g>
        <g id="XMLID_47_">
            <rect id="XMLID_19_" x="81" y="41" class="st1" width="19" height="18" />
        </g>
        <g id="XMLID_45_">
            <rect id="XMLID_24_" x="0" y="61" class="st2" width="19" height="18" />
        </g>
        <g id="XMLID_43_">
            <rect id="XMLID_25_" x="21" y="61" class="st2" width="18" height="18" />
        </g>
        <g id="XMLID_41_">
            <rect id="XMLID_26_" x="41" y="61" class="st0" width="18" height="18" />
        </g>
        <g id="XMLID_39_">
            <rect id="XMLID_27_" x="61" y="61" class="st0" width="18" height="18" />
        </g>
        <g id="XMLID_37_">
            <rect id="XMLID_28_" x="81" y="61" class="st0" width="19" height="18" />
        </g>
        <g id="XMLID_35_">
            <rect id="XMLID_33_" x="0" y="81" class="st2" width="19" height="19" />
        </g>
        <g id="XMLID_9_">
            <rect id="XMLID_32_" x="21" y="81" class="st2" width="18" height="19" />
        </g>
        <g id="XMLID_7_">
            <rect id="XMLID_31_" x="41" y="81" class="st2" width="18" height="19" />
        </g>
        <g id="XMLID_5_">
            <rect id="XMLID_30_" x="61" y="81" class="st2" width="18" height="19" />
        </g>
        <g id="XMLID_3_">
            <rect id="XMLID_29_" x="81" y="81" class="st0" width="19" height="19" />
        </g>
    </symbol>
    <symbol viewBox="0 0 100 100" id="horis-bar">
        <style type="text/css">
                .st0 {
                    fill: #CDCFD1;
                }

                .st1 {
                    fill: #4183D7;
                }
        </style>
        <g id="XMLID_2_">
            <g id="XMLID_49_">
                <path id="XMLID_3_" class="st0" d="M98,100H0V2c0-1.1,0.9-2,2-2s2,0.9,2,2v94h94c1.1,0,2,0.9,2,2S99.1,100,98,100z" />
            </g>
            <path id="XMLID_54_" class="st1" d="M53.9,81.5H17.2V69.5h36.7c3.3,0,5.9,2.9,5.9,6.2v-0.1C59.8,78.9,57.2,81.5,53.9,81.5z" />
            <path id="XMLID_70_" class="st0" d="M72.1,61.6H17.2V51h54.9c3.3,0,5.9,2.3,5.9,5.6v-0.5C78,59.4,75.4,61.6,72.1,61.6z" />
            <path id="XMLID_71_" class="st1" d="M91.1,43H17.2V31.1h73.9c3.3,0,5.9,2.4,5.9,5.7V37C97,40.2,94.3,43,91.1,43z" />
            <path id="XMLID_72_" class="st0" d="M44.4,23.2H17.2V11.3h27.1c3.3,0,5.9,2.5,5.9,5.8v0.1C50.3,20.4,47.6,23.2,44.4,23.2z" />
        </g>
    </symbol>
    <symbol viewBox="0 0 100 100" id="horis-stack-bar">
        <style type="text/css">
                .st0 {
                    fill: #CDCFD1;
                }

                .st1 {
                    fill: #4183D7;
                }
        </style>
        <g id="XMLID_74_">
            <path id="XMLID_2_" class="st0" d="M98.1,100H0V1.9C0,0.9,0.9,0,1.9,0s1.9,0.9,1.9,1.9v94.2h94.2c1.1,0,1.9,0.9,1.9,1.9   C100,99.1,99.1,100,98.1,100z" />
        </g>
        <path id="XMLID_73_" class="st0" d="M59.5,87.7H12.1V75.1h47.4c3.5,0,6.3,2.8,6.3,6.3v0C65.8,84.9,63,87.7,59.5,87.7z" />
        <path id="XMLID_48_" class="st1" d="M39.6,87.7H12.1V75.1h27.5c3.5,0,6.3,2.8,6.3,6.3v0C45.9,84.9,43.1,87.7,39.6,87.7z" />
        <path id="XMLID_55_" class="st0" d="M71.1,68.6h-59V56h59c3.5,0,6.3,2.8,6.3,6.3v0C77.4,65.7,74.6,68.6,71.1,68.6z" />
        <path id="XMLID_75_" class="st1" d="M45,68.6H12.1V56H45c3.5,0,6.3,2.8,6.3,6.3v0C51.3,65.7,48.5,68.6,45,68.6z" />
        <path id="XMLID_53_" class="st0" d="M91.3,49.5H12.1V36.9h79.2c3.5,0,6.3,2.8,6.3,6.3v0C97.6,46.7,94.8,49.5,91.3,49.5z" />
        <path id="XMLID_77_" class="st1" d="M64.1,49.5h-52V36.9h52c3.5,0,6.3,2.8,6.3,6.3v0C70.4,46.7,67.6,49.5,64.1,49.5z" />
        <path id="XMLID_52_" class="st0" d="M41.5,30.4H12.1V17.8l29.4,0c3.5,0,6.3,2.8,6.3,6.3v0C47.8,27.6,45,30.4,41.5,30.4z" />
        <path id="XMLID_76_" class="st1" d="M27.9,30.4H12.1V17.8h15.8c3.5,0,6.3,2.8,6.3,6.3v0C34.2,27.6,31.4,30.4,27.9,30.4z" />
    </symbol>
    <symbol viewBox="0 0 100 100" id="info">
        <style type="text/css">
                .st0 {
                    fill: #CDCFD1;
                }

                .st1 {
                    fill: #4183D7;
                }
        </style>
        <g id="XMLID_2_">
            <g id="XMLID_47_">
                <path id="XMLID_7_" class="st0" d="M100,100H0.1V0.1H100V100z M4.2,95.8h91.6V4.2H4.2V95.8z" />
            </g>
            <g id="XMLID_46_">
                <rect id="XMLID_24_" x="12.9" y="12.7" class="st1" width="44.4" height="26" />
            </g>
            <g id="XMLID_97_">
                <rect id="XMLID_22_" x="66.2" y="12.5" class="st0" width="20.6" height="7.2" />
            </g>
            <g id="XMLID_45_">
                <rect id="XMLID_20_" x="66.2" y="28" class="st0" width="20.6" height="7.2" />
            </g>
            <g id="XMLID_44_">
                <path id="XMLID_4_" class="st0" d="M32.6,87.2c-11.1,0-20.1-9-20.1-20.1s9-20.1,20.1-20.1c11.1,0,20.1,9,20.1,20.1    S43.7,87.2,32.6,87.2z M32.6,51.1c-8.8,0-16,7.2-16,16c0,8.8,7.2,16,16,16c8.8,0,16-7.2,16-16C48.6,58.2,41.4,51.1,32.6,51.1z" />
            </g>
            <g id="XMLID_42_">
                <path id="XMLID_3_" class="st1" d="M32.6,87.2c-11.1,0-20.1-9-20.1-20.1s9-20.1,20.1-20.1c3.3,0,6.6,0.8,9.5,2.4    c1,0.5,1.4,1.8,0.8,2.8c-0.5,1-1.8,1.4-2.8,0.8c-2.3-1.2-4.9-1.9-7.6-1.9c-8.8,0-16,7.2-16,16c0,8.8,7.2,16,16,16    c1.1,0,2.1,0.9,2.1,2.1S33.8,87.2,32.6,87.2z" />
            </g>
            <g id="XMLID_123_">
                <rect id="XMLID_12_" x="66.2" y="45.9" class="st0" width="20.6" height="41" />
            </g>
        </g>
    </symbol>
    <symbol viewBox="0 0 100 100" id="kpi">
        <style type="text/css">
                .st0 {
                    fill: #4183D7;
                }

                .st1 {
                    fill: #BCC5CE;
                }
        </style>
        <g id="XMLID_105_">
            <path id="XMLID_163_" class="st0" d="M12.6,85.2H3.8c-2.1,0-3.8-1.7-3.8-3.8c0-2.1,1.7-3.8,3.8-3.8h8.8c2.1,0,3.8,1.7,3.8,3.8   C16.5,83.5,14.7,85.2,12.6,85.2z" />
        </g>
        <g id="XMLID_149_">
            <path id="XMLID_161_" class="st0" d="M12.6,66.6H3.8c-2.1,0-3.8-1.7-3.8-3.8s1.7-3.8,3.8-3.8h8.8c2.1,0,3.8,1.7,3.8,3.8   S14.7,66.6,12.6,66.6z" />
        </g>
        <path id="XMLID_99_" class="st1" d="M48.8,82l0.2-0.9l0.6-0.6l3-2.9H27.1c-2.1,0-3.8,1.7-3.8,3.8c0,2.1,1.7,3.8,3.8,3.8H48L48.8,82z  " />
        <path id="XMLID_174_" class="st1" d="M71.5,58.9H27.1c-2.1,0-3.8,1.7-3.8,3.8s1.7,3.8,3.8,3.8h36.8L71.5,58.9z" />
        <g id="XMLID_95_">
            <path id="XMLID_153_" class="st0" d="M52.1,82.8L47.5,100l17.2-4.6l30-30L82.1,52.7L52.1,82.8z M51.5,95.9l3.2-11.8l8.6,8.6   L51.5,95.9z" />
            <path id="XMLID_160_" class="st0" d="M99,56.4l-8-8c-1.3-1.3-3.3-1.3-4.6,0l-2,2L97,63l2-2C100.3,59.8,100.3,57.7,99,56.4z" />
        </g>
        <g id="XMLID_8_">
            <path id="XMLID_9_" class="st1" d="M13.9,41.1H8.4V5.7L0,5.8v-4l13.9-1.5V41.1z" />
        </g>
        <g id="XMLID_5_">
            <path id="XMLID_6_" class="st1" d="M52.1,41.4H25.6v-3.8L39,22.8c2.4-2.7,4-4.8,4.9-6.4c0.9-1.6,1.3-3.2,1.3-4.8   c0-2-0.6-3.8-1.8-5.1c-1.2-1.4-2.8-2.1-4.7-2.1c-2.8,0-4.9,0.7-6.2,2.2c-1.3,1.4-2,3.5-2,6.1h-5.3l-0.1-0.2C25,8.9,26.1,6,28.6,3.6   C31,1.2,34.3,0,38.6,0c3.7,0,6.6,1.1,8.8,3.2c2.2,2.1,3.3,4.9,3.3,8.2c0,2.2-0.7,4.5-2,6.7c-1.3,2.2-3.2,4.6-5.5,7.2L32.4,36.9   l0.1,0.1h19.6V41.4z" />
        </g>
        <g id="XMLID_2_">
            <path id="XMLID_3_" class="st1" d="M65.4,18.7h4.8c2.4,0,4.2-0.6,5.2-1.8c1-1.2,1.5-2.9,1.5-5.1c0-2.3-0.6-4.1-1.7-5.3   c-1.2-1.2-2.9-1.8-5.1-1.8c-2.1,0-3.9,0.6-5.2,1.9c-1.3,1.3-1.9,2.9-1.9,5h-5.3l-0.1-0.2c-0.1-3.1,1-5.7,3.4-7.9   c2.3-2.2,5.4-3.2,9.1-3.2c3.8,0,6.8,1,9,3c2.2,2,3.4,4.9,3.4,8.6c0,1.7-0.5,3.4-1.5,5c-1,1.7-2.5,2.9-4.6,3.8   c2.4,0.8,4.2,2.1,5.2,3.8c1,1.7,1.5,3.6,1.5,5.8c0,3.7-1.2,6.6-3.7,8.8c-2.4,2.1-5.6,3.2-9.3,3.2c-3.7,0-6.8-1-9.2-3   c-2.4-2-3.6-4.7-3.5-8.2l0.1-0.2h5.3c0,2.1,0.7,3.8,2,5.1c1.3,1.3,3.1,1.9,5.4,1.9c2.3,0,4.2-0.6,5.5-1.9c1.3-1.3,2-3.1,2-5.6   c0-2.5-0.6-4.4-1.8-5.6c-1.2-1.2-3-1.8-5.6-1.8h-4.8V18.7z" />
        </g>
    </symbol>
    <symbol viewBox="0 0 100 100" id="line">
        <style type="text/css">
                .st0 {
                    fill: #CDCFD1;
                }

                .st1 {
                    fill: #4183D7;
                }

                .st2 {
                    fill: #E5E5E5;
                }
        </style>
        <g id="XMLID_131_">
            <path id="XMLID_9_" class="st0" d="M98.1,100H0.4V2.3c0-1.1,0.9-1.9,1.9-1.9s1.9,0.9,1.9,1.9v93.8h93.8c1.1,0,1.9,0.9,1.9,1.9   C100,99.1,99.1,100,98.1,100z" />
        </g>
        <polygon id="XMLID_14_" class="st1" points="30.6,60.9 30.7,60.8 55.8,49.2 75,53.9 98,27.3 98,7.6 74.4,34.4 57.8,21 38.3,49.7   28.2,46.4 13,68.9 13,79.3 " />
        <polygon id="XMLID_4_" class="st2" points="76.9,79.6 65,72.7 35.2,76.5 15.1,89 98,89 98,59.4 " />
        <polygon id="XMLID_3_" class="st0" points="34.5,74.2 65.5,70.8 76.8,77.3 98,57.1 98,30.2 75.7,56.1 55.8,51.2 31.6,62.5 13,82.1   13,86.9 " />
    </symbol>
    <symbol viewBox="0 0 100 100" id="map">
        <style type="text/css">
                .st0 {
                    fill: #CDCFD1;
                }

                .st1 {
                    fill: #4183D7;
                }
        </style>
        <g id="XMLID_2_">
            <polygon id="XMLID_61_" class="st0" points="100,99.8 0.2,99.8 19.8,42 80.4,42  " />
            <path id="XMLID_169_" class="st1" d="M50.1,0C38.4,0,28.9,9.5,28.9,21.2c0,11.7,21.2,39.4,21.2,39.4s21.2-27.7,21.2-39.4   C71.3,9.5,61.8,0,50.1,0z M50.1,33.1c-6.5,0-11.9-5.3-11.9-11.9c0-6.5,5.3-11.9,11.9-11.9c6.5,0,11.9,5.3,11.9,11.9   C62,27.8,56.7,33.1,50.1,33.1z" />
            <g id="XMLID_158_">
                <g id="XMLID_8_">
                    <path id="XMLID_18_" class="st1" d="M22.8,84.4c-0.3,0-0.6-0.1-0.8-0.4c-0.3-0.4-0.2-1.1,0.2-1.4l4.1-3c0.4-0.3,1.1-0.2,1.4,0.2     c0.3,0.4,0.2,1.1-0.2,1.4l-4.1,3C23.2,84.3,23,84.4,22.8,84.4z" />
                </g>
                <g id="XMLID_7_">
                    <path id="XMLID_15_" class="st1" d="M34.6,75.8c-0.3,0-0.6-0.1-0.8-0.4C33.5,75,33.6,74.4,34,74l7.7-5.6c0.4-0.3,1.1-0.2,1.4,0.2     c0.3,0.4,0.2,1.1-0.2,1.4l-7.7,5.6C35,75.8,34.8,75.8,34.6,75.8z M49.9,64.7c-0.3,0-0.6-0.1-0.8-0.4c-0.3-0.4-0.2-1.1,0.2-1.4     l7.7-5.6c0.4-0.3,1.1-0.2,1.4,0.2c0.3,0.4,0.2,1.1-0.2,1.4l-7.7,5.6C50.3,64.7,50.1,64.7,49.9,64.7z" />
                </g>
                <g id="XMLID_6_">
                    <path id="XMLID_14_" class="st1" d="M65.2,53.6c-0.3,0-0.6-0.1-0.8-0.4c-0.3-0.4-0.2-1.1,0.2-1.4l4.1-3c0.4-0.3,1.1-0.2,1.4,0.2     c0.3,0.4,0.2,1.1-0.2,1.4l-4.1,3C65.7,53.5,65.5,53.6,65.2,53.6z" />
                </g>
            </g>
            <g id="XMLID_159_">
                <g id="XMLID_5_">
                    <path id="XMLID_13_" class="st1" d="M77.6,84.6c-0.2,0-0.4-0.1-0.6-0.2l-4.1-3c-0.4-0.3-0.5-0.9-0.2-1.4c0.3-0.4,0.9-0.5,1.4-0.2     l4.1,3c0.4,0.3,0.5,0.9,0.2,1.4C78.2,84.5,77.9,84.6,77.6,84.6z" />
                </g>
                <g id="XMLID_4_">
                    <path id="XMLID_10_" class="st1" d="M65.8,76c-0.2,0-0.4-0.1-0.6-0.2l-7.7-5.6c-0.4-0.3-0.5-0.9-0.2-1.4c0.3-0.4,0.9-0.5,1.4-0.2     l7.7,5.6c0.4,0.3,0.5,0.9,0.2,1.4C66.4,75.9,66.1,76,65.8,76z M50.4,64.8c-0.2,0-0.4-0.1-0.6-0.2L42.1,59     c-0.4-0.3-0.5-0.9-0.2-1.4c0.3-0.4,0.9-0.5,1.4-0.2L51,63c0.4,0.3,0.5,0.9,0.2,1.4C51,64.7,50.7,64.8,50.4,64.8z" />
                </g>
                <g id="XMLID_3_">
                    <path id="XMLID_9_" class="st1" d="M35,53.6c-0.2,0-0.4-0.1-0.6-0.2l-4.1-3c-0.4-0.3-0.5-0.9-0.2-1.4c0.3-0.4,0.9-0.5,1.4-0.2     l4.1,3c0.4,0.3,0.5,0.9,0.2,1.4C35.6,53.5,35.3,53.6,35,53.6z" />
                </g>
            </g>
        </g>
    </symbol>
    <symbol viewBox="0 0 100 100" id="pie">
        <style type="text/css">
                .st0 {
                    fill: none;
                    stroke: #FAFAFA;
                    stroke-width: 2.007;
                    stroke-miterlimit: 10;
                }

                .st1 {
                    fill: #4183D7;
                }

                .st2 {
                    fill: #BCC5CE;
                }
        </style>
        <g id="XMLID_1_">
            <path id="XMLID_4_" class="st0" d="M50.2,50" />
            <path id="XMLID_6_" class="st1" d="M46.3,46.8V0C22.2,1.5,1.5,20.8,0,46.8H46.3z" />
            <path id="XMLID_9_" class="st2" d="M52.3,0v52.8H0c1.6,26,23.4,47.2,50.2,47.2c27.8,0,49.8-22.4,49.8-50C100,23.3,80.5,1.6,52.3,0z   " />
        </g>
    </symbol>
    <symbol viewBox="0 0 100 100" id="pivot-table">
        <style type="text/css">
                .st0 {
                    fill: #CDCFD1;
                }

                .st1 {
                    fill: #4183D7;
                }
        </style>
        <path id="XMLID_22_" class="st0" d="M19.9,91.7h75.9c2.3,0,4.2,1.9,4.2,4.2v0c0,2.3-1.9,4.2-4.2,4.2H19.9c-2.3,0-4.2-1.9-4.2-4.2v0  C15.7,93.5,17.6,91.7,19.9,91.7z" />
        <path id="XMLID_16_" class="st1" d="M0,4.2L0,4.2C0,1.9,1.9,0,4.2,0h0c2.3,0,4.2,1.9,4.2,4.2v0c0,2.3-1.9,4.2-4.2,4.2h0  C1.9,8.3,0,6.5,0,4.2z" />
        <path id="XMLID_6_" class="st1" d="M83.5,22.2l3.8,0c0.8,0,1.3-0.9,0.8-1.6L80.2,9.3c-0.4-0.6-1.2-0.6-1.6,0l-7.9,11.3  c-0.5,0.7,0,1.6,0.8,1.6l3.8,0c0.6,0,1,0.5,1,1C75.4,52,52,75.4,22.6,76.3c-0.6,0-1-0.4-1-1v-3.7c0-0.8-0.9-1.3-1.6-0.8L8.7,78.6  c-0.6,0.4-0.6,1.2,0,1.6L20,88.2c0.7,0.5,1.6,0,1.6-0.8l0-3.9c0-0.5,0.4-1,1-1c33.1-0.8,59.1-26.7,59.9-59.3  C82.5,22.6,82.9,22.2,83.5,22.2z" />
        <g id="XMLID_1_">
            <path id="XMLID_3_" class="st1" d="M8,79.7v-0.4C8,79.4,8,79.5,8,79.7z" />
            <path id="XMLID_10_" class="st1" d="M6.6,83.1c-1.2-0.8-1.8-2.2-1.8-3.7s0.6-2.8,1.8-3.7L8,74.7V19.9c0-2.3-1.7-4.2-4-4.2h0.1   c-2.3,0-4.1,1.9-4.1,4.2v75.9c0,2.3,1.9,4.2,4.2,4.2H4c2.3,0,4-1.9,4-4.2V84.2L6.6,83.1z" />
        </g>
        <path id="XMLID_13_" class="st0" d="M95.8,76H55.2c-6.7,5-14.1,7-21.9,9h62.6c2.3,0,4.2-2.2,4.2-4.5S98.1,76,95.8,76z" />
        <path id="XMLID_17_" class="st0" d="M95.8,61H72.3c-1.6,2-3.3,4.4-5.2,6.2c-0.8,0.8-1.7,1.8-2.6,2.8h31.4c2.3,0,4.2-2.2,4.2-4.5  C100,63.2,98.1,61,95.8,61z" />
        <path id="XMLID_24_" class="st0" d="M17.3,68.5l0.9-0.6c0.8-0.5,1.6-0.6,2.5-0.6c1.8,0,3.3,0.7,4,2.7h14.5c5.4-2,10.3-5,14.7-9H19.9  c-2.3,0-3.9,2-3.9,4.3v0.1C16,66.6,16.4,67.8,17.3,68.5z" />
        <path id="XMLID_15_" class="st0" d="M19.9,54h40.9c2.2-2,4.1-5,5.7-8H19.9c-2.3,0-4.2,1.7-4.2,4S17.6,54,19.9,54z" />
        <path id="XMLID_26_" class="st0" d="M95.8,46H81.1c-1.2,3-2.6,6-4.1,8h18.8c2.3,0,4.2-1.7,4.2-4S98.1,46,95.8,46z" />
        <path id="XMLID_27_" class="st0" d="M95.8,31H85.3c-0.4,3-1,6-1.8,8h12.3c2.3,0,4.2-1.7,4.2-4C100,32.7,98.1,31,95.8,31z" />
        <path id="XMLID_28_" class="st0" d="M19.9,39h49.8c1-2,1.8-5,2.3-8H19.9c-2.3,0-4.2,1.7-4.2,4C15.7,37.3,17.6,39,19.9,39z" />
        <path id="XMLID_29_" class="st0" d="M95.8,16h-7l2,2.8c1,1.4,1.1,3,0.3,4.5c-0.1,0.3-0.3,0.7-0.5,0.7h5.2c2.3,0,4.2-1.7,4.2-4  S98.1,16,95.8,16z" />
        <path id="XMLID_31_" class="st0" d="M19.9,24H68c-0.2,0-0.4-0.5-0.5-0.8c-0.8-1.5-0.7-3.1,0.3-4.5l2-2.8H19.9c-2.3,0-4.2,1.7-4.2,4  S17.6,24,19.9,24z" />
        <path id="XMLID_33_" class="st1" d="M95.8,0H19.9c-2.3,0-4.2,1.7-4.2,4s1.9,4,4.2,4H75l0.7-0.8c0.8-1.2,2.2-1.8,3.7-1.8  c1.5,0,2.8,0.6,3.7,1.8L83.7,8h12.1c2.3,0,4.2-1.7,4.2-4S98.1,0,95.8,0z" />
    </symbol>
    <symbol viewBox="0 0 100 100" id="sankey">
        <style type="text/css">
                .st0 {
                    fill: #CDCFD1;
                }

                .st1 {
                    fill: #4183D7;
                }
        </style>
        <g id="XMLID_2_">
            <g id="XMLID_117_">
                <path id="XMLID_14_" class="st0" d="M2.8,42.6c-1.6,0-2.8-1.2-2.8-2.8v-37C0,1.2,1.3,0,2.8,0s2.8,1.2,2.8,2.8v37    C5.7,41.3,4.4,42.6,2.8,42.6z" />
            </g>
            <g id="XMLID_115_">
                <path id="XMLID_13_" class="st0" d="M2.8,100C1.3,100,0,98.8,0,97.2v-37c0-1.5,1.3-2.8,2.8-2.8s2.8,1.2,2.8,2.8v37    C5.7,98.8,4.4,100,2.8,100z" />
            </g>
            <g id="XMLID_119_">
                <path id="XMLID_12_" class="st0" d="M97.2,42.6c-1.6,0-2.8-1.2-2.8-2.8v-37c0-1.5,1.3-2.8,2.8-2.8s2.8,1.2,2.8,2.8v37    C100,41.3,98.7,42.6,97.2,42.6z" />
            </g>
            <g id="XMLID_118_">
                <path id="XMLID_11_" class="st0" d="M97.2,100c-1.6,0-2.8-1.2-2.8-2.8v-37c0-1.5,1.3-2.8,2.8-2.8s2.8,1.2,2.8,2.8v37    C100,98.8,98.7,100,97.2,100z" />
            </g>
            <g id="XMLID_6_">
                <path id="XMLID_10_" class="st1" d="M86.1,70.3c-13.8,0-22.8-12.8-32.4-26.4C43,28.7,32,13.1,13.3,13.1v-1.9    c19.7,0,31,16.1,42,31.6c9.3,13.2,18,25.6,30.9,25.6V70.3z" />
            </g>
            <g id="XMLID_5_">
                <path id="XMLID_9_" class="st1" d="M86.1,87.1c-20.5,0-31.4-16-41.9-31.6c-8.9-13.2-17.4-25.7-30.9-25.7V28    c14.5,0,23.3,12.9,32.5,26.5C56,69.6,66.6,85.3,86.1,85.3V87.1z" />
            </g>
            <g id="XMLID_4_">
                <path id="XMLID_8_" class="st1" d="M13.3,70.3v-1.9c12.8,0,21.6-12.4,30.9-25.6c11-15.6,22.3-31.6,42-31.6v1.9    c-18.7,0-29.7,15.7-40.4,30.8C36.1,57.5,27.1,70.3,13.3,70.3z" />
            </g>
            <g id="XMLID_3_">
                <path id="XMLID_7_" class="st1" d="M13.3,87.1v-1.9c19.5,0,30.1-15.6,40.3-30.7C62.9,40.9,71.6,28,86.1,28v1.9    c-13.5,0-22,12.5-30.9,25.7C44.7,71.1,33.8,87.1,13.3,87.1z" />
            </g>
        </g>
    </symbol>
    <symbol viewBox="0 0 100 100" id="scatter">
        <style type="text/css">
                .st0 {
                    fill: #CDCFD1;
                }

                .st1 {
                    fill: #BCC5CE;
                }

                .st2 {
                    fill: #4183D7;
                }
        </style>
        <g id="XMLID_114_">
            <path id="XMLID_2_" class="st0" d="M98.1,100H0V1.9C0,0.9,0.9,0,1.9,0s1.9,0.9,1.9,1.9v94.2h94.2c1.1,0,1.9,0.9,1.9,1.9   C100,99.1,99.1,100,98.1,100z" />
        </g>
        <g id="XMLID_113_">
            <circle id="XMLID_16_" class="st1" cx="16.8" cy="80.7" r="4.2" />
        </g>
        <g id="XMLID_112_">
            <circle id="XMLID_14_" class="st2" cx="51.9" cy="37.9" r="5.8" />
        </g>
        <g id="XMLID_111_">
            <circle id="XMLID_12_" class="st2" cx="84.5" cy="13.2" r="6.4" />
        </g>
        <g id="XMLID_110_">
            <circle id="XMLID_10_" class="st2" cx="18.8" cy="63.5" r="5.7" />
        </g>
        <g id="XMLID_109_">
            <circle id="XMLID_8_" class="st2" cx="46.1" cy="68.6" r="6.9" />
        </g>
        <g id="XMLID_108_">
            <circle id="XMLID_6_" class="st1" cx="79.1" cy="60.9" r="8.7" />
        </g>
        <g id="XMLID_64_">
            <circle id="XMLID_4_" class="st1" cx="32.1" cy="39.9" r="4.2" />
        </g>
    </symbol>
    <symbol viewBox="0 0 100 100" id="table">
        <style type="text/css">
                .st0 {
                    fill: #4183D7;
                }

                .st1 {
                    fill: #CDCFD1;
                }
        </style>
        <g id="XMLID_2_">
            <path id="XMLID_17_" class="st0" d="M95.5,9.9h-91C2,9.9,0,7.8,0,5.4l0-0.8c0-2.5,2-4.5,4.5-4.5l91,0c2.5,0,4.5,2,4.5,4.5v0.8   C100,7.8,98,9.9,95.5,9.9z" />
            <path id="XMLID_51_" class="st1" d="M25.5,18.5l-20.9,0c-2,0-3.8,1.4-4.4,3.6c-0.8,3.2,1.3,6.5,4,6.5h21.3c2.4,0,4.3-2.3,4.3-5.1v0   C29.8,20.8,27.9,18.5,25.5,18.5z" />
            <path id="XMLID_34_" class="st1" d="M25.5,36.3l-20.9,0c-2,0-3.8,1.4-4.4,3.6c-0.8,3.2,1.3,6.5,4,6.5h21.3c2.4,0,4.3-2.3,4.3-5.1v0   C29.8,38.6,27.9,36.3,25.5,36.3z" />
            <path id="XMLID_35_" class="st1" d="M25.5,54.1l-20.9,0c-2,0-3.8,1.4-4.4,3.6c-0.8,3.2,1.3,6.5,4,6.5h21.3c2.4,0,4.3-2.3,4.3-5.1v0   C29.8,56.4,27.9,54.1,25.5,54.1z" />
            <path id="XMLID_37_" class="st1" d="M25.5,71.9l-20.9,0c-2,0-3.8,1.4-4.4,3.6c-0.8,3.2,1.3,6.5,4,6.5h21.3c2.4,0,4.3-2.3,4.3-5.1v0   C29.8,74.2,27.9,71.9,25.5,71.9z" />
            <path id="XMLID_43_" class="st1" d="M25.5,89.7l-20.9,0c-2,0-3.8,1.4-4.4,3.6c-0.8,3.2,1.3,6.5,4,6.5h21.3c2.4,0,4.3-2.3,4.3-5.1v0   C29.8,92,27.9,89.7,25.5,89.7z" />
            <path id="XMLID_30_" class="st1" d="M95.4,18.5l-20.6,0c-2.4,0-4.3,2.3-4.3,5.1v0c0,2.8,1.9,5.1,4.3,5.1h21c2.7,0,4.8-3.3,4-6.5   C99.2,20,97.4,18.5,95.4,18.5z" />
            <path id="XMLID_57_" class="st1" d="M95.4,36.3l-20.6,0c-2.4,0-4.3,2.3-4.3,5.1v0c0,2.8,1.9,5.1,4.3,5.1h21c2.7,0,4.8-3.3,4-6.5   C99.2,37.8,97.4,36.3,95.4,36.3z" />
            <path id="XMLID_62_" class="st1" d="M95.4,54.1l-20.6,0c-2.4,0-4.3,2.3-4.3,5.1v0c0,2.8,1.9,5.1,4.3,5.1h21c2.7,0,4.8-3.3,4-6.5   C99.2,55.6,97.4,54.1,95.4,54.1z" />
            <path id="XMLID_65_" class="st1" d="M95.4,71.8l-20.6,0c-2.4,0-4.3,2.3-4.3,5.1v0c0,2.8,1.9,5.1,4.3,5.1h21c2.7,0,4.8-3.3,4-6.5   C99.2,73.2,97.4,71.8,95.4,71.8z" />
            <g id="XMLID_4_">
                <path id="XMLID_19_" class="st1" d="M59.3,18.5H41.1c-2.4,0-4.3,2.3-4.3,5.1v0c0,2.8,1.9,5.1,4.3,5.1h18.2c2.4,0,4.3-2.3,4.3-5.1    v0C63.6,20.8,61.7,18.5,59.3,18.5z" />
                <path id="XMLID_58_" class="st1" d="M59.3,36.3H41.1c-2.4,0-4.3,2.3-4.3,5.1v0c0,2.8,1.9,5.1,4.3,5.1h18.2c2.4,0,4.3-2.3,4.3-5.1    v0C63.6,38.6,61.7,36.3,59.3,36.3z" />
                <path id="XMLID_63_" class="st1" d="M59.3,54.1H41.1c-2.4,0-4.3,2.3-4.3,5.1v0c0,2.8,1.9,5.1,4.3,5.1h18.2c2.4,0,4.3-2.3,4.3-5.1    v0C63.6,56.4,61.7,54.1,59.3,54.1z" />
                <path id="XMLID_66_" class="st1" d="M59.3,71.8H41.1c-2.4,0-4.3,2.3-4.3,5.1v0c0,2.8,1.9,5.1,4.3,5.1h18.2c2.4,0,4.3-2.3,4.3-5.1    v0C63.6,74.1,61.7,71.8,59.3,71.8z" />
                <path id="XMLID_69_" class="st1" d="M59.3,89.7H41.1c-2.4,0-4.3,2.3-4.3,5.1v0c0,2.8,1.9,5.1,4.3,5.1h18.2c2.4,0,4.3-2.3,4.3-5.1    v0C63.6,92,61.7,89.7,59.3,89.7z" />
            </g>
            <path id="XMLID_68_" class="st1" d="M95.4,89.7l-20.6,0c-2.4,0-4.3,2.3-4.3,5.1v0c0,2.8,1.9,5.1,4.3,5.1h21c2.7,0,4.8-3.3,4-6.5   C99.2,91.2,97.4,89.7,95.4,89.7z" />
        </g>
    </symbol>
    <symbol viewBox="0 0 100 100" id="textobject">
        <style type="text/css">
                .st0 {
                    fill: #CDCFD1;
                }

                .st1 {
                    fill: #4183D7;
                }
        </style>
        <g id="XMLID_1_">
            <g id="XMLID_13_">
                <path id="XMLID_4_" class="st0" d="M16.4,81.3v-19C7.2,61.1,0,53.2,0,43.7V18.7C0,8.4,8.3,0,18.6,0h46.1    c10.2,0,18.6,8.4,18.6,18.7v25.1c0,0.5,0,0.8,0,1.1c0.1,1,0.1,1.7-0.5,3.3c-0.4,1.2-1.7,1.8-2.8,1.4c-1.2-0.4-1.8-1.7-1.4-2.8    c0.3-0.8,0.3-0.9,0.2-1.6c0-0.4,0-0.8,0-1.3V18.7c0-7.8-6.3-14.2-14.1-14.2H18.6c-7.8,0-14.1,6.4-14.1,14.2v25.1    c0,7.8,6.3,14.2,14.1,14.2h2.2v12l11.2-12h9.7c1.2,0,2.2,1,2.2,2.2c0,1.2-1,2.2-2.2,2.2h-7.8L16.4,81.3z" />
            </g>
            <g id="XMLID_9_">
                <path id="XMLID_10_" class="st1" d="M99.1,94.4L84.3,79c3.8-4.5,5.9-10.3,5.9-16.2c0-13.9-11.3-25.2-25.1-25.2S40,48.9,40,62.8    S51.3,88,65.1,88c5.2,0,10.1-1.6,14.4-4.6L94.4,99c0.6,0.6,1.5,1,2.4,1c0.8,0,1.7-0.3,2.3-0.9C100.3,97.8,100.3,95.7,99.1,94.4z     M65.1,44.2c10.2,0,18.5,8.4,18.5,18.6s-8.3,18.6-18.5,18.6s-18.5-8.4-18.5-18.6S54.9,44.2,65.1,44.2z" />
            </g>
            <g id="XMLID_7_">
                <path id="XMLID_3_" class="st1" d="M65.1,21.3H18.2c-1.1,0-2-0.9-2-2s0.9-2,2-2h46.9c1.1,0,2,0.9,2,2S66.2,21.3,65.1,21.3z" />
            </g>
            <g id="XMLID_5_">
                <path id="XMLID_2_" class="st1" d="M65.1,31.5H18.2c-1.1,0-2-0.9-2-2s0.9-2,2-2h46.9c1.1,0,2,0.9,2,2S66.2,31.5,65.1,31.5z" />
            </g>
        </g>
    </symbol>
    <symbol viewBox="0 0 100 100" id="treemap">
        <style type="text/css">
                .st0 {
                    fill: #4183D7;
                }

                .st1 {
                    fill: #BCC5CE;
                }
        </style>
        <g id="XMLID_2_">
            <rect id="XMLID_11_" y="0.5" class="st0" width="32" height="56.9" />
            <rect id="XMLID_10_" x="39.8" y="0.5" class="st1" width="12" height="56.9" />
            <rect id="XMLID_9_" y="65.1" class="st1" width="25" height="34.9" />
            <rect id="XMLID_8_" x="32.8" y="65.1" class="st0" width="19" height="34.9" />
            <rect id="XMLID_7_" x="82.1" y="82.6" class="st1" width="17.9" height="17.4" />
            <rect id="XMLID_6_" x="82.1" y="47" class="st0" width="17.9" height="27.9" />
            <rect id="XMLID_5_" x="59.5" y="46.9" class="st1" width="14.8" height="53.1" />
            <rect id="XMLID_4_" x="59.5" y="0.5" class="st0" width="40.5" height="14.5" />
            <rect id="XMLID_3_" x="59.5" y="22.7" class="st1" width="40.5" height="16.6" />
        </g>
    </symbol>
    <symbol viewBox="0 0 100 100" id="ver-bar">
        <style type="text/css">
                .st0 {
                    fill: #CDCFD1;
                }

                .st1 {
                    fill: #4183D7;
                }
        </style>
        <g id="XMLID_2_">
            <g id="XMLID_83_">
                <path id="XMLID_3_" class="st0" d="M98.1,99.9h-98v-98C0.1,0.9,1,0,2,0S4,0.9,4,1.9V96h94.1c1.1,0,1.9,0.9,1.9,1.9    C100,99,99.1,99.9,98.1,99.9z" />
            </g>
            <path id="XMLID_82_" class="st1" d="M80.8,69.4v19H69.3v-19c0-3.5,2.4-6.3,5.9-6.3h-0.3C78.3,63.1,80.8,65.9,80.8,69.4z" />
            <path id="XMLID_81_" class="st0" d="M61.6,29.8v58.6H50.1V29.8c0-3.5,2.5-6.3,5.9-6.3h-0.4C59.1,23.5,61.6,26.3,61.6,29.8z" />
            <path id="XMLID_80_" class="st1" d="M42.4,52.7v35.6H30.8V52.7c0-3.5,2.5-6.3,6-6.3h-0.4C39.9,46.4,42.4,49.2,42.4,52.7z" />
            <path id="XMLID_79_" class="st0" d="M23.2,16.7v71.7H11.6V16.7c0-3.5,2.6-6.3,6-6.3h-0.4C20.7,10.4,23.2,13.2,23.2,16.7z" />
        </g>
    </symbol>
    <symbol viewBox="0 0 100 100" id="ver-stack-bar">
        <style type="text/css">
                .st0 {
                    fill: #CDCFD1;
                }

                .st1 {
                    fill: #4183D7;
                }
        </style>
        <path id="XMLID_9_" class="st0" d="M80.9,41.8v47.4H68.3V41.8c0-3.5,2.8-6.3,6.3-6.3h0C78,35.5,80.9,38.4,80.9,41.8z" />
        <path id="XMLID_8_" class="st1" d="M80.9,61.7v27.5H68.3V61.7c0-3.5,2.8-6.3,6.3-6.3h0C78,55.4,80.9,58.2,80.9,61.7z" />
        <path id="XMLID_7_" class="st0" d="M23.6,30.2v59H11v-59c0-3.5,2.8-6.3,6.3-6.3h0C20.8,23.9,23.6,26.7,23.6,30.2z" />
        <path id="XMLID_6_" class="st1" d="M23.6,56.3v32.9H11V56.3c0-3.5,2.8-6.3,6.3-6.3h0C20.8,50,23.6,52.8,23.6,56.3z" />
        <path id="XMLID_5_" class="st0" d="M42.7,10v79.2H30.1V10c0-3.5,2.8-6.3,6.3-6.3h0C39.8,3.7,42.7,6.5,42.7,10z" />
        <path id="XMLID_4_" class="st1" d="M42.7,37.2v52H30.1v-52c0-3.5,2.8-6.3,6.3-6.3h0C39.8,30.9,42.7,33.7,42.7,37.2z" />
        <path id="XMLID_3_" class="st0" d="M62.1,59.8v29.4H49.5V59.8c0-3.5,2.8-6.3,6.3-6.3h0C59.2,53.5,62.1,56.3,62.1,59.8z" />
        <path id="XMLID_1_" class="st1" d="M62.1,73.4v15.8H49.5V73.4c0-3.5,2.8-6.3,6.3-6.3h0C59.2,67.1,62.1,69.9,62.1,73.4z" />
        <g id="XMLID_98_">
            <path id="XMLID_10_" class="st0" d="M98.1,100H0V1.9C0,0.9,0.9,0,1.9,0s1.9,0.9,1.9,1.9v94.2h94.2c1.1,0,1.9,0.9,1.9,1.9   S99.1,100,98.1,100z" />
        </g>
    </symbol>
    <symbol viewBox="0 0 100 100" id="wordcloud">
        <style type="text/css">
                .st0 {
                    fill: #BCC5CE;
                }

                .st1 {
                    fill: #4183D7;
                }
        </style>
        <g id="XMLID_1_">
            <g>
                <path id="XMLID_20_" class="st0" d="M77.1,46c2.4,0,4.3,1.9,4.3,4.3c0,2.4-1.9,4.3-4.3,4.3H8.3c-2.4,0-4.3-1.9-4.3-4.3    S5.9,46,8.3,46H77.1 M77.1,42H8.3C3.7,42,0,45.7,0,50.3v0c0,4.6,3.7,8.3,8.3,8.3h68.8c4.6,0,8.3-3.7,8.3-8.3v0    C85.4,45.7,81.7,42,77.1,42L77.1,42z" />
            </g>
            <g>
                <path id="XMLID_17_" class="st0" d="M44.3,29.8c1.1,0,2,0.9,2,2s-0.9,2-2,2H11.6c-1.1,0-2-0.9-2-2s0.9-2,2-2H44.3 M44.3,25.8H11.6    c-3.3,0-6,2.7-6,6c0,3.3,2.7,6,6,6h32.7c3.3,0,6-2.7,6-6C50.3,28.4,47.6,25.8,44.3,25.8L44.3,25.8z" />
            </g>
            <g>
                <path id="XMLID_14_" class="st0" d="M93.3,67.7c1.5,0,2.7,1.2,2.7,2.7s-1.2,2.7-2.7,2.7H69.4c-1.5,0-2.7-1.2-2.7-2.7    s1.2-2.7,2.7-2.7H93.3 M93.3,63.7H69.4c-3.7,0-6.7,3-6.7,6.7s3,6.7,6.7,6.7h23.9c3.7,0,6.7-3,6.7-6.7S97,63.7,93.3,63.7L93.3,63.7    z" />
            </g>
            <g>
                <path id="XMLID_11_" class="st1" d="M50.7,68.4c0.6,0,1.2,0.5,1.2,1.2s-0.5,1.2-1.2,1.2H8.9c-0.6,0-1.2-0.5-1.2-1.2    s0.5-1.2,1.2-1.2H50.7 M50.7,64.4H8.9c-2.8,0-5.2,2.3-5.2,5.2c0,2.8,2.3,5.2,5.2,5.2h41.8c2.8,0,5.2-2.3,5.2-5.2    C55.8,66.7,53.5,64.4,50.7,64.4L50.7,64.4z" />
            </g>
            <g>
                <path id="XMLID_8_" class="st0" d="M61,83.3c0.9,0,1.7,0.8,1.7,1.7s-0.8,1.7-1.7,1.7H32.2c-0.9,0-1.7-0.8-1.7-1.7s0.8-1.7,1.7-1.7    H61 M61,79.3H32.2c-3.1,0-5.7,2.6-5.7,5.7c0,3.1,2.6,5.7,5.7,5.7H61c3.1,0,5.7-2.6,5.7-5.7C66.7,81.9,64.1,79.3,61,79.3L61,79.3z" />
            </g>
            <g>
                <path id="XMLID_5_" class="st1" d="M89.2,27.7c1.4,0,2.6,1.2,2.6,2.6s-1.2,2.6-2.6,2.6H63.6c-1.4,0-2.6-1.2-2.6-2.6    s1.2-2.6,2.6-2.6H89.2 M89.2,23.7H63.6c-3.6,0-6.6,3-6.6,6.6s3,6.6,6.6,6.6h25.6c3.6,0,6.6-3,6.6-6.6S92.8,23.7,89.2,23.7    L89.2,23.7z" />
            </g>
            <g>
                <path id="XMLID_2_" class="st1" d="M55.9,13.3c0.7,0,1.4,0.6,1.4,1.4S56.6,16,55.9,16H23.7c-0.7,0-1.4-0.6-1.4-1.4    s0.6-1.4,1.4-1.4H55.9 M55.9,9.3H23.7c-3,0-5.4,2.4-5.4,5.4s2.4,5.4,5.4,5.4h32.2c3,0,5.4-2.4,5.4-5.4S58.8,9.3,55.9,9.3L55.9,9.3    z" />
            </g>
        </g>
    </symbol>
    <symbol id="checked-enabled" viewBox="0 0 148 148">
        <style type="text/css">
                .checked-enabled-st0 {
                    fill: #439DD3;
                }

                .checked-enabled-st1 {
                    fill: #FFFFFF;
                }
        </style>
        <circle class="checked-enabled-st0" cx="74" cy="74" r="74" />
        <path class="checked-enabled-st1" d="M33.2 76.2c-.6-.6-1-1.6-1-2.3 0-.6.3-1.6 1-2.2l4.5-4.5c1.3-1.3 3.2-1.3 4.5 0l.3.3 17.7 19c.6.6 1.6.6 2.2 0l43.1-44.7h.3c1.3-1.3 3.2-1.3 4.5 0l4.5 4.5c1.3 1.3 1.3 3.2 0 4.5l-51.4 53.4c-.6.6-1.3 1-2.3 1-1 0-1.6-.3-2.2-1l-25.1-27-.6-1zm0 0" />
    </symbol>
    <symbol id="checked-disabled" viewBox="0 0 148 148">
        <style type="text/css">
                .checked-disabled-st0 {
                    fill: #E4E4E4;
                }

                .checked-disabled-st1 {
                    fill: #FFFFFF;
                }
        </style>
        <circle class="checked-disabled-st0" cx="74" cy="74" r="74" />
        <path class="checked-disabled-st1" d="M33.2 76.2c-.6-.6-1-1.6-1-2.3 0-.6.3-1.6 1-2.2l4.5-4.5c1.3-1.3 3.2-1.3 4.5 0l.3.3 17.7 19c.6.6 1.6.6 2.2 0l43.1-44.7h.3c1.3-1.3 3.2-1.3 4.5 0l4.5 4.5c1.3 1.3 1.3 3.2 0 4.5l-51.4 53.4c-.6.6-1.3 1-2.3 1s-1.6-.3-2.2-1l-25.1-27-.6-1z" />
    </symbol>
    <symbol id="step-line-disabled" viewBox="0 0 15.2 336" id=".15030391583217972" 
        xmlns="http://www.w3.org/2000/svg">
        <style type="text/css">
                .step-line-disabled-st0 {
                        {
                        fill: #E4E4E4;
                    }
                }
        </style>
        <path class="step-line-disabled-st0" d="M7.6 336c-4.2 0-7.6-3.4-7.6-7.6V7.6C0 3.4 3.4 0 7.6 0c4.2 0 7.6 3.4 7.6 7.6v320.8c0 4.2-3.4 7.6-7.6 7.6z" fill="#e4e4e4" />
    </symbol>
    <symbol id="step-line-enabled" viewBox="0 0 15.2 336" id=".15030391583217972" 
        xmlns="http://www.w3.org/2000/svg">
        <style type="text/css">
                .step-line-enabled-st0 {
                        {
                        fill: #439DD3;
                    }
                }
        </style>
        <path class="step-line-enabled-st0" d="M7.6 336c-4.2 0-7.6-3.4-7.6-7.6V7.6C0 3.4 3.4 0 7.6 0c4.2 0 7.6 3.4 7.6 7.6v320.8c0 4.2-3.4 7.6-7.6 7.6z" fill="#439DD3" />
    </symbol>
</svg>