<?xml version="1.0" encoding="utf-8"?>
<!-- Generator: Adobe Illustrator 19.0.0, SVG Export Plug-In . SVG Version: 6.00 Build 0)  -->
<svg version="1.1" id="Layer_1" xmlns="http://www.w3.org/2000/svg" xmlns:xlink="http://www.w3.org/1999/xlink" x="0px" y="0px"
	 viewBox="0 0 50 50" style="enable-background:new 0 0 50 50;" xml:space="preserve">
<style type="text/css">
	.st0{fill:#676A6C;}
</style>
<g>
	<path class="st0" d="M43.8,9C42.9,5.8,36.4,2.6,25,2.6C13.6,2.6,7.1,5.8,6.2,9C6.2,9.1,6.1,9.2,6.1,9.4v27.9c0,0.1,0,0.2,0.1,0.3
		c0.9,3.7,8.9,6.5,18.8,6.5c9.9,0,17.9-2.7,18.8-6.4c0.1-0.1,0.1-0.2,0.1-0.4V9.4C43.9,9.2,43.8,9.1,43.8,9L43.8,9z M42.3,28.2
		c0,0.1-0.1,0.2-0.1,0.3c0,0.1-0.1,0.2-0.1,0.2c-0.1,0.1-0.1,0.2-0.2,0.3c-0.1,0.1-0.1,0.1-0.2,0.2c-0.1,0.1-0.2,0.2-0.3,0.3
		c-0.1,0.1-0.1,0.1-0.2,0.2c-0.1,0.1-0.3,0.2-0.4,0.3c-0.1,0-0.1,0.1-0.2,0.1c-0.2,0.1-0.4,0.2-0.5,0.4c-0.1,0-0.1,0.1-0.2,0.1
		c-0.2,0.1-0.5,0.3-0.7,0.4c0,0-0.1,0-0.1,0c-0.3,0.1-0.6,0.3-0.9,0.4c0,0,0,0,0,0c-1.7,0.7-3.9,1.3-6.5,1.6c0,0,0,0,0,0
		c-0.5,0.1-1,0.1-1.5,0.2c-0.1,0-0.2,0-0.3,0c-0.5,0-0.9,0.1-1.4,0.1c-0.2,0-0.4,0-0.7,0c-0.4,0-0.7,0-1.1,0.1c-0.6,0-1.2,0-1.8,0
		c-0.6,0-1.2,0-1.8,0c-0.4,0-0.7,0-1.1-0.1c-0.2,0-0.4,0-0.7,0c-0.5,0-0.9-0.1-1.4-0.1c-0.1,0-0.2,0-0.3,0c-0.5-0.1-1-0.1-1.5-0.2
		c0,0,0,0,0,0c-2.6-0.4-4.7-1-6.5-1.6c0,0,0,0,0,0c-0.3-0.1-0.6-0.3-0.9-0.4c0,0-0.1,0-0.1,0c-0.3-0.1-0.5-0.2-0.7-0.4
		c-0.1,0-0.1-0.1-0.2-0.1c-0.2-0.1-0.4-0.2-0.5-0.4c-0.1,0-0.1-0.1-0.2-0.1c-0.1-0.1-0.3-0.2-0.4-0.3c-0.1-0.1-0.1-0.1-0.2-0.2
		c-0.1-0.1-0.2-0.2-0.3-0.3c-0.1-0.1-0.1-0.1-0.2-0.2c-0.1-0.1-0.1-0.2-0.2-0.3c0-0.1-0.1-0.2-0.1-0.2c0-0.1-0.1-0.2-0.1-0.3
		c0-0.1-0.1-0.2-0.1-0.4c0-0.1,0-0.2,0-0.3c0-0.1,0-0.2,0-0.3v-5.6c0,0,0,0,0.1,0.1C7.9,21.9,8,22,8.2,22.2C11.1,24.3,16.8,26,25,26
		c8.2,0,13.9-1.7,16.7-3.8c0.2-0.2,0.4-0.3,0.6-0.5v5.6c0,0.1,0,0.2,0,0.3c0,0.1,0,0.2,0,0.3C42.4,28,42.3,28.1,42.3,28.2L42.3,28.2
		z M42.4,12.6v5.6c0,0.1,0,0.2,0,0.3c0,0.1,0,0.2,0,0.3c0,0.1,0,0.2-0.1,0.4c0,0.1-0.1,0.2-0.1,0.3c0,0.1-0.1,0.1-0.1,0.2
		c-0.1,0.1-0.1,0.2-0.2,0.3c-0.1,0.1-0.1,0.1-0.2,0.2c-0.1,0.1-0.2,0.2-0.3,0.3c-0.1,0.1-0.1,0.1-0.2,0.2c-0.1,0.1-0.3,0.2-0.4,0.3
		c-0.1,0-0.1,0.1-0.2,0.1c-0.2,0.1-0.4,0.2-0.5,0.4c-0.1,0-0.1,0.1-0.2,0.1c-0.2,0.1-0.5,0.3-0.7,0.4c0,0-0.1,0-0.1,0
		c-0.3,0.1-0.6,0.3-0.9,0.4c0,0,0,0,0,0c-1.7,0.7-3.9,1.3-6.5,1.6c0,0,0,0,0,0c-0.5,0.1-1,0.1-1.5,0.2c-0.1,0-0.2,0-0.3,0
		c-0.5,0-0.9,0.1-1.4,0.1c-0.2,0-0.4,0-0.7,0c-0.4,0-0.7,0-1.1,0.1c-0.6,0-1.2,0-1.8,0c-0.6,0-1.2,0-1.8,0c-0.4,0-0.7,0-1.1-0.1
		c-0.2,0-0.4,0-0.7,0c-0.5,0-0.9-0.1-1.4-0.1c-0.1,0-0.2,0-0.3,0c-0.5-0.1-1-0.1-1.5-0.2c0,0,0,0,0,0c-2.6-0.4-4.7-1-6.5-1.6
		c0,0,0,0,0,0c-0.3-0.1-0.6-0.3-0.9-0.4c0,0-0.1,0-0.1,0c-0.3-0.1-0.5-0.2-0.7-0.4c-0.1,0-0.1-0.1-0.2-0.1c-0.2-0.1-0.4-0.2-0.5-0.4
		c-0.1,0-0.1-0.1-0.2-0.1c-0.1-0.1-0.3-0.2-0.4-0.3c-0.1-0.1-0.1-0.1-0.2-0.2c-0.1-0.1-0.2-0.2-0.3-0.3c-0.1-0.1-0.1-0.1-0.2-0.2
		c-0.1-0.1-0.1-0.2-0.2-0.3c0-0.1-0.1-0.1-0.1-0.2c0-0.1-0.1-0.2-0.1-0.3c0-0.1-0.1-0.2-0.1-0.4c0-0.1,0-0.2,0-0.3
		c0-0.1,0-0.2,0-0.3v-5.6c0.1,0.1,0.2,0.2,0.3,0.2C8,12.9,8,12.9,8.1,13c0.2,0.2,0.5,0.4,0.7,0.5c0.1,0,0.1,0.1,0.2,0.1
		c0.2,0.1,0.5,0.3,0.7,0.4c0.1,0,0.2,0.1,0.3,0.1c0.3,0.1,0.6,0.3,0.9,0.4c0,0,0.1,0,0.1,0.1c0.4,0.2,0.7,0.3,1.1,0.4
		c0.1,0,0.2,0.1,0.3,0.1c0.3,0.1,0.6,0.2,1,0.3c0.1,0,0.2,0.1,0.4,0.1c0.4,0.1,0.9,0.2,1.4,0.3c0.1,0,0.1,0,0.2,0
		c0.4,0.1,0.9,0.2,1.3,0.3c0.2,0,0.3,0.1,0.5,0.1c0.4,0.1,0.9,0.1,1.3,0.2c0.1,0,0.2,0,0.3,0c0.6,0.1,1.1,0.1,1.7,0.2
		c0.1,0,0.3,0,0.4,0c0.5,0,1,0.1,1.5,0.1c0.2,0,0.4,0,0.5,0c0.7,0,1.3,0,2,0c0.7,0,1.3,0,2,0c0.2,0,0.4,0,0.5,0c0.5,0,1-0.1,1.5-0.1
		c0.2,0,0.3,0,0.4,0c0.6-0.1,1.2-0.1,1.7-0.2c0.1,0,0.2,0,0.3,0c0.5-0.1,0.9-0.1,1.3-0.2c0.2,0,0.3-0.1,0.5-0.1
		c0.5-0.1,0.9-0.2,1.3-0.3c0.1,0,0.1,0,0.2,0c0.5-0.1,0.9-0.2,1.4-0.3c0.1,0,0.2-0.1,0.4-0.1c0.3-0.1,0.7-0.2,1-0.3
		c0.1,0,0.2-0.1,0.3-0.1c0.4-0.1,0.8-0.3,1.1-0.4c0.1,0,0.1,0,0.1-0.1c0.3-0.1,0.6-0.3,0.9-0.4c0.1-0.1,0.2-0.1,0.3-0.1
		c0.2-0.1,0.5-0.3,0.7-0.4c0.1,0,0.1-0.1,0.2-0.1c0.3-0.2,0.5-0.3,0.7-0.5c0.1,0,0.1-0.1,0.2-0.1C42.2,12.8,42.3,12.7,42.4,12.6
		L42.4,12.6z M25,4.1c10.2,0,17.4,3,17.4,5.7c0,2.7-7.1,5.7-17.4,5.7c-10.2,0-17.4-3-17.4-5.7C7.6,7.1,14.8,4.1,25,4.1L25,4.1z
		 M42.4,37.1c0,0,0,0.1,0,0.1c-0.4,2.6-7.5,5.4-17.3,5.4c-9.8,0-16.9-2.8-17.3-5.4c0,0,0-0.1,0-0.1v-6.4c0,0,0,0,0.1,0.1
		c0.2,0.1,0.3,0.3,0.5,0.4C11.1,33.4,16.8,35,25,35c8.2,0,13.9-1.7,16.7-3.8c0.2-0.2,0.4-0.3,0.6-0.5V37.1z M42.4,37.1"/>
</g>
</svg>
