<?xml version="1.0" encoding="utf-8"?>
<!-- Generator: Adobe Illustrator 19.0.0, SVG Export Plug-In . SVG Version: 6.00 Build 0)  -->
<svg version="1.1" id="Layer_1" xmlns="http://www.w3.org/2000/svg" xmlns:xlink="http://www.w3.org/1999/xlink" x="0px" y="0px"
	 viewBox="0 0 50 50" style="enable-background:new 0 0 50 50;" xml:space="preserve">
<style type="text/css">
	.st0{fill:#676A6C;}
</style>
<g>
	<path class="st0" d="M25.3,12.2c-2.9-1.3-6.5-1.3-9.4,0c-1.6,0.8-4.4,3-4.5,6.5c0,0.4,0.3,0.8,0.7,0.8h0c0.4,0,0.8-0.3,0.8-0.7
		c0-2.8,2.3-4.5,3.6-5.1c2.5-1.1,5.6-1.1,8.1,0c0.4,0.2,0.8,0,1-0.4C25.9,12.9,25.7,12.4,25.3,12.2L25.3,12.2z M25.3,12.2"/>
	<g>
		<path class="st0" d="M47.3,33.4c0-0.2-0.1-0.3-0.3-0.4c-0.1-0.1-0.3-0.1-0.5-0.1c-0.4,0.1-0.8,0.1-1.1-0.1c-1-0.4-1.4-1.5-1.1-2.4
			c0.1-0.4,0.4-0.7,0.7-0.9c0.1-0.1,0.2-0.2,0.3-0.4c0-0.2,0-0.3-0.1-0.5c-0.7-0.9-1.5-1.7-2.4-2.3c-0.1-0.1-0.3-0.1-0.5-0.1
			c-0.2,0-0.3,0.1-0.4,0.3c-0.2,0.3-0.5,0.6-0.8,0.7c-0.2,0.1-0.5,0.2-0.8,0.2c-0.7,0-1.4-0.4-1.7-1.1c-0.2-0.4-0.2-0.8-0.1-1.1
			c0-0.2,0-0.3-0.1-0.5c-0.1-0.1-0.2-0.2-0.4-0.3c-1.1-0.2-2.2-0.1-3.3,0.1c-0.2,0-0.3,0.1-0.4,0.3c-0.1,0.1-0.1,0.3-0.1,0.5
			c0.1,0.4,0.1,0.8-0.1,1.1c-0.3,0.7-1,1.2-1.7,1.2c-0.2,0-0.5,0-0.7-0.1c-0.4-0.1-0.7-0.4-0.9-0.7c-0.1-0.1-0.2-0.2-0.4-0.3
			c-0.2,0-0.3,0-0.5,0.1C29,27.2,28.3,28,27.6,29c-0.1,0.1-0.1,0.3-0.1,0.5c0,0.2,0.1,0.3,0.3,0.4c0.3,0.2,0.6,0.5,0.7,0.8
			c0.2,0.5,0.2,1,0,1.4c-0.2,0.5-0.5,0.8-1,1c-0.4,0.2-0.8,0.2-1.2,0.1c-0.2,0-0.3,0-0.5,0.1c-0.1,0.1-0.2,0.2-0.3,0.4
			c-0.2,1.1-0.1,2.2,0,3.4c0,0.2,0.1,0.3,0.3,0.4c0.1,0.1,0.3,0.1,0.5,0.1c0.4-0.1,0.8-0.1,1.1,0.1c0.5,0.2,0.8,0.5,1,1
			c0.2,0.5,0.2,1,0,1.4c-0.1,0.4-0.4,0.7-0.8,0.9c-0.1,0.1-0.2,0.2-0.3,0.4c0,0.2,0,0.3,0.1,0.5c0.7,0.9,1.5,1.7,2.4,2.3
			c0.1,0.1,0.3,0.1,0.5,0.1c0.2,0,0.3-0.1,0.4-0.3c0.2-0.3,0.5-0.6,0.9-0.8c0.2-0.1,0.5-0.2,0.8-0.2c0.7,0,1.4,0.4,1.7,1.1
			c0.2,0.4,0.2,0.8,0.1,1.2c0,0.2,0,0.3,0.1,0.5c0.1,0.1,0.3,0.2,0.4,0.3c0.5,0.1,1,0.1,1.5,0.1c0.6,0,1.2-0.1,1.9-0.2
			c0.2,0,0.3-0.1,0.4-0.3c0.1-0.1,0.1-0.3,0.1-0.5c-0.1-0.4-0.1-0.8,0.1-1.2c0.3-0.7,1-1.2,1.7-1.2c0.2,0,0.5,0,0.7,0.1
			c0.4,0.1,0.7,0.4,0.9,0.8c0.1,0.1,0.2,0.2,0.4,0.3c0.2,0,0.3,0,0.5-0.1c0.9-0.7,1.7-1.5,2.3-2.4c0.1-0.1,0.1-0.3,0.1-0.5
			c0-0.2-0.1-0.3-0.3-0.4c-0.3-0.2-0.6-0.5-0.8-0.9c-0.4-0.9,0-2.1,0.9-2.5c0.4-0.2,0.8-0.2,1.2-0.1c0.2,0,0.3,0,0.5-0.1
			c0.1-0.1,0.2-0.3,0.3-0.4C47.5,35.7,47.5,34.5,47.3,33.4L47.3,33.4z M46.2,36c-0.4,0-0.9,0.1-1.2,0.3c-1.6,0.7-2.3,2.5-1.6,4.1
			c0.2,0.4,0.4,0.7,0.7,1c-0.4,0.5-0.8,0.9-1.2,1.3c-0.3-0.3-0.7-0.6-1.1-0.7c-0.4-0.1-0.7-0.2-1.1-0.2c-1.3,0-2.4,0.8-2.9,2
			c-0.2,0.4-0.2,0.8-0.2,1.2c-0.6,0.1-1.2,0.1-1.8,0c0-0.4-0.1-0.9-0.3-1.3c-0.5-1.1-1.6-1.8-2.8-1.8c-0.4,0-0.9,0.1-1.3,0.3
			c-0.4,0.2-0.7,0.4-1,0.7c-0.5-0.4-0.9-0.8-1.3-1.3c0.3-0.3,0.6-0.7,0.7-1.1c0.3-0.8,0.3-1.6-0.1-2.4c-0.3-0.8-0.9-1.3-1.7-1.6
			c-0.4-0.1-0.8-0.2-1.2-0.2c-0.1-0.6-0.1-1.2,0-1.8h0c0.4,0,0.9-0.1,1.3-0.3c0.8-0.3,1.3-0.9,1.6-1.7c0.3-0.8,0.3-1.6-0.1-2.4
			c-0.2-0.4-0.4-0.7-0.7-1c0.4-0.5,0.8-0.9,1.3-1.3c0.3,0.3,0.7,0.5,1.1,0.7c0.4,0.1,0.7,0.2,1.1,0.2c1.3,0,2.4-0.8,2.9-2
			c0.1-0.4,0.2-0.8,0.2-1.2c0.6-0.1,1.2-0.1,1.8,0c0,0.4,0.1,0.8,0.3,1.2c0.5,1.1,1.6,1.8,2.8,1.8c0.4,0,0.9-0.1,1.3-0.3
			c0.4-0.2,0.7-0.4,1-0.7c0.5,0.4,0.9,0.8,1.3,1.2c-0.3,0.3-0.5,0.7-0.7,1.1c-0.6,1.6,0.2,3.4,1.8,4c0.4,0.1,0.8,0.2,1.2,0.2
			C46.3,34.8,46.3,35.4,46.2,36L46.2,36z M46.2,36"/>
		<path class="st0" d="M36.5,30.6c-0.7,0-1.3,0.1-1.9,0.4c-2.4,1.1-3.4,3.8-2.4,6.2c0.8,1.7,2.4,2.8,4.3,2.8c0.7,0,1.3-0.1,1.9-0.4
			c2.4-1.1,3.4-3.8,2.4-6.2C40.1,31.7,38.4,30.6,36.5,30.6L36.5,30.6z M37.9,38.5c-0.4,0.2-0.9,0.3-1.4,0.3c-1.4,0-2.6-0.8-3.2-2.1
			c-0.8-1.8,0-3.8,1.8-4.6c0.4-0.2,0.9-0.3,1.4-0.3c1.4,0,2.6,0.8,3.2,2.1C40.5,35.7,39.7,37.7,37.9,38.5L37.9,38.5z M37.9,38.5"/>
	</g>
	<path class="st0" d="M26,39.4c-0.3,0-0.6,0.1-0.8,0.1c0,0,0,0,0,0c-0.5,0-0.9,0.1-1.4,0.1c-0.1,0-0.2,0-0.3,0c-0.4,0-0.8,0-1.2,0.1
		c-0.1,0-0.2,0-0.2,0c-0.9,0-1.9,0-2.8,0c-0.1,0-0.2,0-0.2,0c-0.4,0-0.8,0-1.2-0.1c-0.1,0-0.2,0-0.3,0c-0.5,0-0.9-0.1-1.4-0.1
		c0,0,0,0,0,0c-0.5-0.1-1.1-0.1-1.6-0.2h0c-1.2-0.2-2.6-0.4-4-0.6l-5.7-1c3-3.4,4.5-7.5,4.5-12.3v-6.7c0-4.1,2.9-7.2,5.8-8.5
		c0.8-0.4,1.7-0.7,2.6-0.9c0,0,0,0,0,0c1.8-0.4,3.8-0.4,5.7,0c0,0,0,0,0,0c1,0.2,1.9,0.5,2.9,0.9c2.8,1.3,5.5,4.4,5.5,8.5v3.9h1.5
		v-3.9c0-5.1-3.4-8.6-6.4-9.9c-0.8-0.4-1.7-0.7-2.6-0.9V7.5c0-2.1-1.7-3.8-3.8-3.8c-2.1,0-3.8,1.7-3.8,3.8V8
		c-0.8,0.2-1.6,0.5-2.4,0.9c-3.3,1.5-6.6,5.2-6.6,9.9v6.8c0,4.8-1.7,8.9-5,12.2c-0.2,0.2-0.3,0.5-0.2,0.8c0.1,0.3,0.3,0.5,0.6,0.5
		l7.1,1.2c1.3,0.2,2.5,0.4,3.7,0.6c1.3,2.6,3.9,4.2,6.7,4.2c2,0,3.9-0.9,5.3-2.3V39.4z M18.3,7.5c0-1.2,1-2.2,2.2-2.2
		c1.2,0,2.3,1,2.3,2.2v0.1c-1.5-0.2-3-0.2-4.5,0V7.5z M20.7,43.5c-1.9,0-3.7-0.9-4.8-2.5c1.7,0.2,3.2,0.3,4.8,0.3
		c1.6,0,3.1-0.1,4.8-0.3C24.3,42.6,22.6,43.5,20.7,43.5z"/>
</g>
</svg>
