<?xml version="1.0" encoding="utf-8"?>
<!-- Generator: Adobe Illustrator 19.0.0, SVG Export Plug-In . SVG Version: 6.00 Build 0)  -->
<svg version="1.1" id="Layer_1" xmlns="http://www.w3.org/2000/svg" xmlns:xlink="http://www.w3.org/1999/xlink" x="0px" y="0px"
	 viewBox="0 0 25 25" style="enable-background:new 0 0 25 25;" xml:space="preserve">
<style type="text/css">
	.st0{fill:#696969;}
</style>
<image style="overflow:visible;" width="25" height="25" xlink:href="created-dashboard.png"  transform="matrix(1 0 0 1 16 -74)">
</image>
<g>
	<path class="st0" d="M11.8,7.9c-1.4,0-2.5,1.1-2.5,2.5c0,0.2,0.2,0.4,0.4,0.4c0.2,0,0.4-0.2,0.4-0.4c0-1,0.8-1.8,1.8-1.8
		c0.2,0,0.4-0.2,0.4-0.4S12,7.9,11.8,7.9L11.8,7.9z M11.8,7.9"/>
	<path class="st0" d="M19.2,11l2.3,2.3l-5.8,5.8l-2.3-2.3L19.2,11z M23.3,10.4l-1-1c-0.4-0.4-1-0.4-1.4,0l-1,1l2.3,2.3l1.1-1.1
		C23.6,11.2,23.6,10.7,23.3,10.4L23.3,10.4z M12.2,20c0,0.2,0.1,0.4,0.3,0.3l2.6-0.6l-2.3-2.3L12.2,20z M12.2,20"/>
	<path class="st0" d="M11.9,14.7c-2-0.2-3.6-1.9-3.6-3.9c0-2.2,1.8-4,4-4c2.2,0,4,1.8,4,4c0,0.5-0.1,1-0.3,1.5l1-1
		c0-0.2,0.1-0.3,0.1-0.5c0-2.6-2.1-4.7-4.7-4.7c-2.6,0-4.7,2.1-4.7,4.7c0,2.4,1.8,4.4,4.2,4.6L11.9,14.7z"/>
	<path class="st0" d="M19.9,7.9c-4.3-4.3-11.3-4.3-15.6,0l-2.9,2.9l2.9,2.9c1.9,1.9,4.3,3,6.8,3.2l0.2-0.7c-2.4-0.2-4.7-1.2-6.5-3
		l-2.4-2.4l2.4-2.4c4-4,10.5-4,14.6,0l0.1,0.1l0.2-0.2C19.9,8.2,20,8.1,20.1,8L19.9,7.9z"/>
</g>
</svg>
