<?xml version="1.0" encoding="utf-8"?>
<!-- Generator: Adobe Illustrator 19.0.0, SVG Export Plug-In . SVG Version: 6.00 Build 0)  -->
<svg version="1.1" id="Layer_1" xmlns="http://www.w3.org/2000/svg" xmlns:xlink="http://www.w3.org/1999/xlink" x="0px" y="0px"
	 viewBox="0 0 25 25" style="enable-background:new 0 0 25 25;" xml:space="preserve">
<style type="text/css">
	.st0{fill:#696969;}
</style>
<image style="overflow:visible;" width="25" height="25" xlink:href="created-dashboard.png"  transform="matrix(1 0 0 1 16 -74)">
</image>
<g>
	<path class="st0" d="M17.9,13.2l2.3,2.3l-5.8,5.8L12,19L17.9,13.2z M21.9,12.7l-1-1c-0.4-0.4-1-0.4-1.4,0l-1,1l2.3,2.3l1.1-1.1
		C22.2,13.5,22.2,13,21.9,12.7L21.9,12.7z M10.8,22.3c0,0.2,0.1,0.4,0.3,0.3l2.6-0.6l-2.3-2.3L10.8,22.3z M10.8,22.3"/>
	<path class="st0" d="M10,19.3C6.3,19.1,3.7,18,3.5,17c0,0,0,0,0,0v-2.7c0,0,0,0,0,0c0.1,0.1,0.1,0.1,0.2,0.2
		c1.2,0.9,3.6,1.6,7.1,1.6c0.8,0,1.5,0,2.1-0.1l0.7-0.7c0,0,0,0,0,0c-0.2,0-0.4,0.1-0.6,0.1c0,0-0.1,0-0.1,0c-0.2,0-0.4,0-0.6,0.1
		c-0.1,0-0.2,0-0.3,0c-0.2,0-0.3,0-0.5,0c-0.3,0-0.5,0-0.8,0c-0.3,0-0.5,0-0.8,0c-0.2,0-0.3,0-0.5,0c-0.1,0-0.2,0-0.3,0
		c-0.2,0-0.4,0-0.6-0.1c0,0-0.1,0-0.1,0c-0.2,0-0.4-0.1-0.6-0.1c0,0,0,0,0,0c-1.1-0.2-2-0.4-2.7-0.7c0,0,0,0,0,0
		c-0.1-0.1-0.3-0.1-0.4-0.2c0,0,0,0,0,0c-0.1-0.1-0.2-0.1-0.3-0.2c0,0,0,0-0.1,0c-0.1,0-0.2-0.1-0.2-0.1c0,0-0.1,0-0.1-0.1
		c-0.1,0-0.1-0.1-0.2-0.1c0,0-0.1,0-0.1-0.1c0,0-0.1-0.1-0.1-0.1c0,0,0-0.1-0.1-0.1c0,0-0.1-0.1-0.1-0.1c0,0,0-0.1,0-0.1
		c0,0,0-0.1,0-0.1c0-0.1,0-0.1,0-0.2c0,0,0-0.1,0-0.1c0,0,0-0.1,0-0.1v-2.4c0,0,0,0,0,0c0.1,0.1,0.1,0.1,0.2,0.2
		c1.2,0.9,3.6,1.6,7.1,1.6c3.5,0,5.8-0.7,7.1-1.6c0.1-0.1,0.2-0.1,0.3-0.2v0.3l0.2-0.2c0.1-0.1,0.3-0.2,0.4-0.3v-5
		c0-0.1,0-0.1,0-0.2c-0.4-1.4-3.1-2.7-7.9-2.7S3.3,3.8,2.9,5.1c0,0,0,0.1,0,0.2v11.8c0,0.1,0,0.1,0,0.1c0.3,1.4,3.2,2.5,6.9,2.7
		L10,19.3z M10.8,3.1c4.3,0,7.3,1.3,7.3,2.4c0,1.1-3,2.4-7.3,2.4S3.5,6.6,3.5,5.4C3.5,4.3,6.5,3.1,10.8,3.1z M3.5,9V6.6
		c0,0,0.1,0.1,0.1,0.1c0,0,0,0,0.1,0.1C3.8,6.9,3.9,7,4,7c0,0,0,0,0.1,0c0.1,0.1,0.2,0.1,0.3,0.2c0,0,0.1,0,0.1,0.1
		c0.1,0.1,0.2,0.1,0.4,0.2c0,0,0,0,0.1,0c0.1,0.1,0.3,0.1,0.5,0.2c0,0,0.1,0,0.1,0c0.1,0,0.3,0.1,0.4,0.1c0.1,0,0.1,0,0.2,0
		C6.3,8,6.5,8,6.7,8.1c0,0,0.1,0,0.1,0c0.2,0,0.4,0.1,0.6,0.1c0.1,0,0.1,0,0.2,0c0.2,0,0.4,0.1,0.6,0.1c0,0,0.1,0,0.1,0
		c0.2,0,0.5,0.1,0.7,0.1c0.1,0,0.1,0,0.2,0c0.2,0,0.4,0,0.6,0c0.1,0,0.2,0,0.2,0c0.3,0,0.6,0,0.8,0s0.6,0,0.8,0c0.1,0,0.2,0,0.2,0
		c0.2,0,0.4,0,0.6,0c0.1,0,0.1,0,0.2,0c0.3,0,0.5,0,0.7-0.1c0,0,0.1,0,0.1,0c0.2,0,0.4-0.1,0.6-0.1c0.1,0,0.1,0,0.2,0
		c0.2,0,0.4-0.1,0.6-0.1c0,0,0.1,0,0.1,0c0.2,0,0.4-0.1,0.6-0.1c0.1,0,0.1,0,0.2,0c0.1,0,0.3-0.1,0.4-0.1c0,0,0.1,0,0.1,0
		c0.2-0.1,0.3-0.1,0.5-0.2c0,0,0,0,0.1,0c0.1-0.1,0.3-0.1,0.4-0.2c0,0,0.1,0,0.1-0.1c0.1-0.1,0.2-0.1,0.3-0.2c0,0,0,0,0.1,0
		c0.1-0.1,0.2-0.1,0.3-0.2c0,0,0,0,0.1-0.1c0,0,0.1-0.1,0.1-0.1V9c0,0,0,0.1,0,0.1c0,0,0,0.1,0,0.1c0,0.1,0,0.1,0,0.2
		c0,0,0,0.1,0,0.1c0,0,0,0.1,0,0.1c0,0,0,0.1-0.1,0.1c0,0,0,0.1-0.1,0.1c0,0-0.1,0.1-0.1,0.1c0,0-0.1,0-0.1,0.1
		c-0.1,0-0.1,0.1-0.2,0.1c0,0-0.1,0-0.1,0.1c-0.1,0-0.1,0.1-0.2,0.1c0,0,0,0-0.1,0c-0.1,0.1-0.2,0.1-0.3,0.2c0,0,0,0,0,0
		c-0.1,0.1-0.2,0.1-0.4,0.2c0,0,0,0,0,0c-0.7,0.3-1.6,0.5-2.7,0.7c0,0,0,0,0,0c-0.2,0-0.4,0.1-0.6,0.1c0,0-0.1,0-0.1,0
		c-0.2,0-0.4,0-0.6,0.1c-0.1,0-0.2,0-0.3,0c-0.2,0-0.3,0-0.5,0c-0.3,0-0.5,0-0.8,0c-0.3,0-0.5,0-0.8,0c-0.2,0-0.3,0-0.5,0
		c-0.1,0-0.2,0-0.3,0c-0.2,0-0.4,0-0.6-0.1c0,0-0.1,0-0.1,0c-0.2,0-0.4-0.1-0.6-0.1c0,0,0,0,0,0c-1.1-0.2-2-0.4-2.7-0.7c0,0,0,0,0,0
		c-0.1-0.1-0.3-0.1-0.4-0.2c0,0,0,0,0,0c-0.1-0.1-0.2-0.1-0.3-0.2c0,0,0,0-0.1,0c-0.1,0-0.2-0.1-0.2-0.1c0,0-0.1,0-0.1-0.1
		C4.1,10.1,4,10.1,4,10c0,0-0.1,0-0.1-0.1c0,0-0.1-0.1-0.1-0.1c0,0,0-0.1-0.1-0.1c0,0-0.1-0.1-0.1-0.1c0,0,0-0.1,0-0.1
		c0,0,0-0.1,0-0.1c0-0.1,0-0.1,0-0.2c0,0,0-0.1,0-0.1C3.5,9.1,3.5,9.1,3.5,9z"/>
</g>
</svg>
