<?xml version="1.0" encoding="utf-8"?>
<!-- Generator: Adobe Illustrator 19.0.0, SVG Export Plug-In . SVG Version: 6.00 Build 0)  -->
<svg version="1.1" id="Layer_1" xmlns="http://www.w3.org/2000/svg" xmlns:xlink="http://www.w3.org/1999/xlink" x="0px" y="0px"
	 viewBox="0 0 25 25" style="enable-background:new 0 0 25 25;" xml:space="preserve">
<style type="text/css">
	.st0{fill:#696969;}
</style>
<image style="overflow:visible;" width="25" height="25" xlink:href="created-dashboard.png"  transform="matrix(1 0 0 1 16 -74)">
</image>
<g>
	<path class="st0" d="M15.2,10.1l-1.8,1.8c-0.4-0.3-0.9-0.4-1.5-0.4c-1.5,0-2.8,1.3-2.8,2.8s1.3,2.8,2.8,2.8c1.5,0,2.8-1.3,2.8-2.8
		c0-0.5-0.1-1-0.4-1.5l1.8-1.8c0.3-0.3,0.3-0.7,0-0.9C15.8,9.8,15.4,9.8,15.2,10.1z M11.9,15.7c-0.8,0-1.5-0.7-1.5-1.5
		s0.7-1.5,1.5-1.5s1.5,0.7,1.5,1.5C13.4,15,12.7,15.7,11.9,15.7z"/>
	<path class="st0" d="M20.1,12.7l2.3,2.3l-5.8,5.8l-2.3-2.3L20.1,12.7z M24.2,12.2l-1-1c-0.4-0.4-1-0.4-1.4,0l-1,1l2.3,2.3l1.1-1.1
		C24.5,13,24.5,12.5,24.2,12.2L24.2,12.2z M13.1,21.8c0,0.2,0.1,0.4,0.3,0.3l2.6-0.6l-2.3-2.3L13.1,21.8z M13.1,21.8"/>
	<path class="st0" d="M12,20H3.7c-1.1-1.5-1.7-3.2-1.8-5.1h0.7c0.4,0,0.7-0.3,0.7-0.7c0-0.4-0.3-0.7-0.7-0.7H1.9
		C2.1,11.3,3,9.2,4.4,7.6l0.5,0.5c0.1,0.1,0.3,0.2,0.5,0.2c0.2,0,0.3-0.1,0.5-0.2c0.3-0.3,0.3-0.7,0-0.9L5.3,6.7
		C6.9,5.3,9,4.4,11.3,4.2V5c0,0.4,0.3,0.7,0.7,0.7c0.4,0,0.7-0.3,0.7-0.7V4.2c2.3,0.1,4.3,1.1,5.9,2.5L18,7.2
		c-0.3,0.3-0.3,0.7,0,0.9c0.1,0.1,0.3,0.2,0.5,0.2s0.3-0.1,0.5-0.2l0.5-0.5c0.6,0.7,1.1,1.4,1.5,2.2l1.2-0.6
		c-0.5-1.1-1.3-2.1-2.2-3.1c-2.1-2.1-5-3.3-8-3.3c-3,0-5.9,1.2-8,3.3l0,0h0c-2.1,2.1-3.3,5-3.3,8v0v0c0,2.5,0.8,4.8,2.3,6.8
		c0.1,0.2,0.3,0.3,0.5,0.3h8.3L12,20z"/>
</g>
</svg>
