<?xml version="1.0" encoding="utf-8"?>
<!-- Generator: Adobe Illustrator 19.0.0, SVG Export Plug-In . SVG Version: 6.00 Build 0)  -->
<svg version="1.1" id="Layer_1" xmlns="http://www.w3.org/2000/svg" xmlns:xlink="http://www.w3.org/1999/xlink" x="0px" y="0px"
	 viewBox="0 0 25 25" style="enable-background:new 0 0 25 25;" xml:space="preserve">
<style type="text/css">
	.st0{fill:#676A6C;}
</style>
<g>
	<circle class="st0" cx="19.1" cy="11.5" r="1"/>
	<path class="st0" d="M11.3,22.7H8.6c-0.3,0-0.6-0.3-0.6-0.6v-2.7c0-0.2,0.1-0.3,0.2-0.4l5.2-5.2c-0.1-0.3-0.3-0.5-0.4-0.8
		c-0.4-0.9-0.2-2,0.5-2.7l2.4-2.4c0.7-0.7,1.7-0.9,2.6-0.5c0.8,0.3,2,0.9,3,1.9c1,1,1.6,2.2,1.9,3c0.4,0.9,0.1,1.9-0.5,2.6l-2.4,2.4
		c-0.7,0.7-1.7,0.9-2.7,0.5c-0.4-0.2-0.9-0.4-1.3-0.6c-0.3-0.2-0.4-0.5-0.2-0.8c0.2-0.3,0.5-0.4,0.8-0.2c0.3,0.2,0.7,0.4,1.1,0.6
		c0.5,0.2,1,0.1,1.3-0.3L22,14c0.3-0.3,0.4-0.8,0.3-1.3c-0.3-0.7-0.8-1.7-1.6-2.6c-0.8-0.8-1.9-1.3-2.6-1.6c-0.4-0.2-1-0.1-1.3,0.3
		l-2.4,2.4c-0.4,0.4-0.5,0.9-0.3,1.3c0.2,0.4,0.4,0.8,0.6,1.1c0.1,0.2,0.1,0.5-0.1,0.7l-5.4,5.4v1.8h1.5v-1.1c0-0.3,0.3-0.6,0.6-0.6
		l1.1,0v-1.1c0-0.3,0.3-0.6,0.6-0.6h1.7c0.3,0,0.6,0.3,0.6,0.6c0,0.3-0.3,0.6-0.6,0.6h-1.1v1.1c0,0.3-0.3,0.6-0.6,0.6l-1.1,0v1.1
		C11.9,22.5,11.6,22.7,11.3,22.7z"/>
	<path class="st0" d="M9.7,14.7l0.9-0.9l-1.7-1.6L8,11.3l-0.9,0.9l-4.3,4.2V3.6h10.5v4.1l1.2-1.2c0,0,0.1-0.1,0.1-0.1v-3
		c0-0.2-0.1-0.4-0.2-0.6c-0.1-0.2-0.3-0.3-0.5-0.4c-0.1-0.1-0.3-0.1-0.5-0.1H2.6c-0.2,0-0.3,0-0.5,0.1C2,2.4,1.8,2.6,1.7,2.8
		C1.5,3,1.4,3.2,1.4,3.4v13.2c0,0.2,0.1,0.4,0.2,0.6c0.1,0.2,0.3,0.3,0.5,0.4c0.1,0.1,0.3,0.1,0.5,0.1c0.3,0,0.6-0.1,0.9-0.3L8,13.1
		L9.7,14.7z"/>
</g>
</svg>
