<?xml version="1.0" encoding="utf-8"?>
<!-- Generator: Adobe Illustrator 19.0.0, SVG Export Plug-In . SVG Version: 6.00 Build 0)  -->
<svg version="1.1" id="Layer_1" xmlns="http://www.w3.org/2000/svg" xmlns:xlink="http://www.w3.org/1999/xlink" x="0px" y="0px"
	 viewBox="0 0 25 25" style="enable-background:new 0 0 25 25;" xml:space="preserve">
<style type="text/css">
	.st0{fill:#676A6C;}
</style>
<g>
	<circle class="st0" cx="20.6" cy="12.7" r="0.9"/>
	<path class="st0" d="M13.1,23.7h-2.6c-0.3,0-0.6-0.3-0.6-0.6v-2.6c0-0.2,0.1-0.3,0.2-0.4l5.1-5.1c-0.1-0.3-0.3-0.5-0.4-0.8
		c-0.4-0.9-0.2-1.9,0.5-2.6l2.3-2.3c0.7-0.7,1.6-0.9,2.5-0.5c0.8,0.3,1.9,0.9,2.9,1.8c1,1,1.5,2.1,1.9,2.9c0.3,0.9,0.1,1.9-0.5,2.5
		L22,18.4c-0.7,0.7-1.7,0.9-2.6,0.5c-0.4-0.2-0.8-0.4-1.2-0.6c-0.3-0.2-0.4-0.5-0.2-0.8c0.2-0.3,0.5-0.4,0.8-0.2
		c0.3,0.2,0.7,0.4,1.1,0.5c0.4,0.2,1,0.1,1.3-0.3l2.3-2.3c0.3-0.3,0.4-0.8,0.3-1.3c-0.3-0.7-0.8-1.7-1.6-2.5
		c-0.8-0.8-1.8-1.3-2.5-1.6c-0.4-0.2-0.9-0.1-1.3,0.3l-2.3,2.3c-0.3,0.3-0.4,0.9-0.2,1.3c0.2,0.4,0.4,0.7,0.6,1.1
		c0.1,0.2,0.1,0.5-0.1,0.7l-5.2,5.2v1.8h1.4v-1.1c0-0.3,0.3-0.6,0.6-0.6l1.1,0v-1.1c0-0.3,0.3-0.6,0.6-0.6h1.7
		c0.3,0,0.6,0.3,0.6,0.6c0,0.3-0.3,0.6-0.6,0.6h-1.1v1.1c0,0.3-0.3,0.6-0.6,0.6l-1.1,0v1.1C13.7,23.4,13.4,23.7,13.1,23.7z"/>
	<path class="st0" d="M10.7,14.6c0.7,0,1.4-0.3,1.9-0.8c-0.1-0.9,0.1-1.9,0.6-2.7c-0.1-0.2-0.1-0.3-0.2-0.5L14.6,9
		c0.2-0.2,0.2-0.6,0-0.9c-0.2-0.2-0.6-0.2-0.9,0l-1.7,1.7c-0.4-0.2-0.9-0.4-1.4-0.4c-1.5,0-2.6,1.2-2.6,2.6S9.3,14.6,10.7,14.6z
		 M10.7,10.6c0.8,0,1.4,0.6,1.4,1.4s-0.6,1.4-1.4,1.4c-0.8,0-1.4-0.6-1.4-1.4C9.3,11.2,9.9,10.6,10.7,10.6z"/>
	<polygon class="st0" points="12.8,17.4 11.5,18.7 13.2,18.7 14.4,17.4 	"/>
	<path class="st0" d="M9.9,17.4H3c-1-1.4-1.6-3.1-1.7-4.8H2c0.3,0,0.6-0.3,0.6-0.6c0-0.3-0.3-0.6-0.6-0.6l-0.7,0
		c0.1-2.1,1-4.1,2.3-5.6l0.5,0.5c0.1,0.1,0.3,0.2,0.4,0.2c0.2,0,0.3-0.1,0.4-0.2C5.2,6,5.2,5.6,5,5.4L4.5,4.9
		C6,3.6,7.9,2.7,10.1,2.6v0.7c0,0.3,0.3,0.6,0.6,0.6s0.6-0.3,0.6-0.6V2.6c2.1,0.1,4.1,1,5.6,2.3l-0.5,0.5c-0.2,0.2-0.2,0.6,0,0.9
		c0.1,0.1,0.3,0.2,0.4,0.2c0.2,0,0.3-0.1,0.4-0.2l0.5-0.5c0.3,0.3,0.5,0.6,0.7,0.9c0.2,0,0.5-0.1,0.7-0.1c0.3,0,0.5,0,0.8,0.1
		c-0.5-0.8-1-1.6-1.7-2.3c-2-2-4.7-3.1-7.6-3.1S5.2,2.4,3.1,4.4l0,0l0,0C1.1,6.5,0,9.1,0,12c0,0,0,0,0,0c0,2.3,0.7,4.6,2.1,6.4
		c0.1,0.2,0.3,0.3,0.5,0.3h6L9.9,17.4z"/>
	<path class="st0" d="M19.8,17.7c-0.3-0.1-0.7-0.3-1-0.5c-0.1,0-0.1,0-0.2,0c-0.1,0.1-0.1,0.2-0.1,0.2H18c0,0,0,0,0,0
		c-0.2,0.3-0.1,0.6,0.2,0.8c0.2,0.2,0.5,0.3,0.8,0.4c0.1,0,0.3-0.1,0.3-0.2C19.4,18.2,19.6,18,19.8,17.7z"/>
</g>
</svg>
