<?xml version="1.0" encoding="utf-8"?>
<!-- Generator: Adobe Illustrator 19.0.0, SVG Export Plug-In . SVG Version: 6.00 Build 0)  -->
<svg version="1.1" id="Layer_1" xmlns="http://www.w3.org/2000/svg" xmlns:xlink="http://www.w3.org/1999/xlink" x="0px" y="0px"
	 viewBox="0 0 25 25" style="enable-background:new 0 0 25 25;" xml:space="preserve">
<style type="text/css">
	.st0{fill:#676A6C;}
</style>
<g>
	<circle class="st0" cx="20.6" cy="12.3" r="0.9"/>
	<path class="st0" d="M11.7,5.4c-1.6,0-2.9,1.3-2.9,2.9c0,0.2,0.2,0.4,0.4,0.4c0.2,0,0.4-0.2,0.4-0.4c0-1.1,0.9-2.1,2.1-2.1
		c0.2,0,0.4-0.2,0.4-0.4S12,5.4,11.7,5.4L11.7,5.4z M11.7,5.4"/>
	<path class="st0" d="M13.1,23.2h-2.6c-0.3,0-0.6-0.3-0.6-0.6v-2.6c0-0.2,0.1-0.3,0.2-0.4l5.1-5.1c-0.1-0.3-0.3-0.5-0.4-0.8
		c-0.4-0.9-0.2-1.9,0.5-2.6l2.3-2.3c0.7-0.7,1.6-0.9,2.5-0.5c0.8,0.3,1.9,0.9,2.9,1.8c1,1,1.5,2.1,1.9,2.9c0.3,0.9,0.1,1.9-0.5,2.5
		L22,17.9c-0.7,0.7-1.7,0.9-2.6,0.5c-0.4-0.2-0.8-0.4-1.2-0.6c-0.3-0.2-0.4-0.5-0.2-0.8c0.2-0.3,0.5-0.4,0.8-0.2
		c0.3,0.2,0.7,0.4,1.1,0.5c0.4,0.2,1,0.1,1.3-0.3l2.3-2.3c0.3-0.3,0.4-0.8,0.3-1.3c-0.3-0.7-0.8-1.7-1.6-2.5
		c-0.8-0.8-1.8-1.3-2.5-1.6c-0.4-0.2-0.9-0.1-1.3,0.3L16.1,12c-0.3,0.3-0.4,0.9-0.2,1.3c0.2,0.4,0.4,0.7,0.6,1.1
		c0.1,0.2,0.1,0.5-0.1,0.7l-5.2,5.2v1.8h1.4V21c0-0.3,0.3-0.6,0.6-0.6l1.1,0v-1.1c0-0.3,0.3-0.6,0.6-0.6h1.7c0.3,0,0.6,0.3,0.6,0.6
		s-0.3,0.6-0.6,0.6h-1.1V21c0,0.3-0.3,0.6-0.6,0.6l-1.1,0v1.1C13.7,23,13.4,23.2,13.1,23.2z"/>
	<g>
		<path class="st0" d="M16.5,9.9c-0.3,1.1-1,2-1.9,2.6c0,0.3,0,0.6,0.1,0.9c0.4-0.2,0.8-0.5,1.1-0.8c0-0.2,0.1-0.5,0.3-0.6l0.7-0.7
			c0.4-0.7,0.6-1.5,0.6-2.3L16.5,9.9z"/>
		<path class="st0" d="M12.2,14.1c0.2,0,0.4,0,0.6-0.1c-0.1-0.3-0.1-0.5-0.1-0.8c-0.1,0-0.3,0-0.4,0c-2.5,0-4.5-2-4.5-4.5
			c0-2.5,2-4.5,4.5-4.5c2,0,3.6,1.3,4.2,3c0.2-0.2,0.5-0.4,0.7-0.5c-0.8-2-2.7-3.4-5-3.4c-2.9,0-5.3,2.4-5.3,5.3
			C6.8,11.7,9.2,14.1,12.2,14.1z"/>
	</g>
	<path class="st0" d="M22.1,11l0.8-0.8c-0.2-0.2-0.4-0.4-0.6-0.5l-0.8,0.8C21.7,10.6,21.9,10.8,22.1,11z"/>
	<path class="st0" d="M12,14.9c-2.9,0-5.9-1.2-8.1-3.4L1.2,8.7L3.8,6c4.6-4.6,12-4.6,16.6,0l0.5,0.5c0.7,0.3,1.7,0.7,2.6,1.4L21,5.4
		c-4.9-4.9-12.8-4.9-17.7,0L0,8.7L3.3,12c2.2,2.2,5,3.4,7.9,3.6L12,14.9z"/>
</g>
</svg>
