<?xml version="1.0" encoding="utf-8"?>
<!-- Generator: Adobe Illustrator 19.0.0, SVG Export Plug-In . SVG Version: 6.00 Build 0)  -->
<svg version="1.1" id="Layer_1" xmlns="http://www.w3.org/2000/svg" xmlns:xlink="http://www.w3.org/1999/xlink" x="0px" y="0px"
	 viewBox="0 0 83 61" style="enable-background:new 0 0 83 61;" xml:space="preserve">
<style type="text/css">
	.st0{fill:#439DD3;}
	.st1{fill:#458BAF;}
	.st2{fill:#FFFFFF;}
</style>
<path id="XMLID_63_" class="st0" d="M79.1,0C81.3,0,83,1.7,83,3.9v49.4v3.9h-2.6l-2-3.9H0L0,0L79.1,0z"/>
<path id="XMLID_61_" class="st1" d="M78.4,53.3c2.5,0,4.6,1.7,4.6,3.9S80.9,61,78.4,61V53.3z"/>
<g>
	<g>
		<path class="st2" d="M39.7,21.7h-14c-0.3,0-0.6,0.2-0.6,0.6c0,0.3,0.3,0.6,0.6,0.6h14c0.3,0,0.6-0.2,0.6-0.6
			C40.3,21.9,40,21.7,39.7,21.7L39.7,21.7z M39.7,21.7"/>
	</g>
	<g>
		<path class="st2" d="M25.7,18.3h5.6c0.3,0,0.6-0.3,0.6-0.6c0-0.3-0.3-0.6-0.6-0.6h-5.6c-0.3,0-0.6,0.3-0.6,0.6
			C25.1,18.1,25.4,18.3,25.7,18.3L25.7,18.3z M25.7,18.3"/>
	</g>
	<g>
		<path class="st2" d="M39.7,26.2h-14c-0.3,0-0.6,0.3-0.6,0.6c0,0.3,0.3,0.6,0.6,0.6h14c0.3,0,0.6-0.3,0.6-0.6
			C40.3,26.4,40,26.2,39.7,26.2L39.7,26.2z M39.7,26.2"/>
	</g>
	<g>
		<path class="st2" d="M42.8,45.3c-5,0-9-4.1-9-9s4.1-9,9-9s9,4.1,9,9S47.8,45.3,42.8,45.3z M42.8,28.4c-4.3,0-7.8,3.5-7.8,7.8
			s3.5,7.8,7.8,7.8s7.8-3.5,7.8-7.8S47.1,28.4,42.8,28.4z"/>
	</g>
	<g>
		<path class="st2" d="M42.8,45.3c-5,0-9-4.1-9-9s4.1-9,9-9s9,4.1,9,9S47.8,45.3,42.8,45.3z M42.8,28.4c-4.3,0-7.8,3.5-7.8,7.8
			s3.5,7.8,7.8,7.8s7.8-3.5,7.8-7.8S47.1,28.4,42.8,28.4z"/>
	</g>
	<g>
		<path class="st2" d="M34.3,36.3c0-0.4,0-0.7,0.1-1.1h-8.7c-0.3,0-0.6,0.2-0.6,0.6c0,0.3,0.3,0.6,0.6,0.6L34.3,36.3
			C34.3,36.3,34.3,36.3,34.3,36.3z"/>
	</g>
	<g>
		<path class="st2" d="M36.5,30.7H25.7c-0.3,0-0.6,0.3-0.6,0.6c0,0.3,0.3,0.6,0.6,0.6h10C35.9,31.4,36.2,31,36.5,30.7z"/>
	</g>
	<g>
		<path class="st2" d="M36.5,41.9H20.6V10.5h16.3v7.9h7.9v9.8c0.4,0.1,0.8,0.2,1.1,0.4V17.5l-8.2-8.2H19.5V43h18.3
			C37.3,42.7,36.9,42.3,36.5,41.9z M38,11.3l5.9,5.9H38V11.3z"/>
	</g>
	<g>
		<path class="st2" d="M42.8,36.9c-0.2,0-0.3-0.1-0.4-0.2l-2.9-3.1c-0.2-0.2-0.2-0.6,0-0.8c0.2-0.2,0.6-0.2,0.8,0l1.9,2v-4.4
			c0-0.3,0.3-0.6,0.6-0.6s0.6,0.3,0.6,0.6v5.9c0,0.2-0.1,0.5-0.4,0.6C42.9,36.9,42.9,36.9,42.8,36.9z"/>
	</g>
</g>
</svg>
