<?xml version="1.0" encoding="utf-8"?>
<!-- Generator: Adobe Illustrator 19.0.0, SVG Export Plug-In . SVG Version: 6.00 Build 0)  -->
<svg version="1.1" id="Layer_1" xmlns="http://www.w3.org/2000/svg" xmlns:xlink="http://www.w3.org/1999/xlink" x="0px" y="0px"
	 viewBox="0 0 83 61" style="enable-background:new 0 0 83 61;" xml:space="preserve">
<style type="text/css">
	.st0{fill:#439DD3;}
	.st1{fill:#458BAF;}
	.st2{fill-rule:evenodd;clip-rule:evenodd;fill:#FFFFFF;}
</style>
<path id="XMLID_63_" class="st0" d="M79.1,0C81.3,0,83,1.7,83,3.9v49.4v3.9h-2.6l-2-3.9H0L0,0L79.1,0z"/>
<path id="XMLID_61_" class="st1" d="M78.4,53.3c2.5,0,4.6,1.7,4.6,3.9S80.9,61,78.4,61V53.3z"/>
<g>
	<path class="st2" d="M30.4,20.2c-0.1,0.1-0.2,0.2-0.3,0.3C30.3,20.3,30.4,20.2,30.4,20.2L30.4,20.2z M30.4,20.2"/>
	<path class="st2" d="M35.8,21.1c0.4,0.5,0.6,1.1,0.6,1.7c0,0.5-0.1,0.9-0.4,1.4c-0.2,0.3-0.3,0.5-0.6,0.7l-0.8,0.8
		c-0.8,0.8-1.3,1.5-1.5,2.1c-0.2,0.6-0.3,1.4-0.3,2.4h1.8c0-0.9,0.1-1.5,0.3-2c0.2-0.4,0.6-1,1.3-1.6c0.9-0.9,1.5-1.5,1.8-2
		c0.3-0.5,0.4-1,0.4-1.8c0-1.2-0.4-2.2-1.2-3c-0.8-0.8-1.9-1.2-3.2-1.2c-1.5,0-2.6,0.5-3.4,1.4c-0.8,0.9-1.3,2.1-1.3,3.6H31
		c0-0.9,0.2-1.6,0.4-2c0.4-0.9,1.2-1.3,2.4-1.3C34.7,20.4,35.4,20.7,35.8,21.1L35.8,21.1z M35.8,21.1"/>
	<path class="st2" d="M49.7,26.5c0-8.5-6.9-15.5-15.5-15.5c-8.5,0-15.5,6.9-15.5,15.5c0,8.5,6.9,15.5,15.5,15.5
		C42.7,41.9,49.7,35,49.7,26.5L49.7,26.5z M20.2,26.5c0-7.8,6.3-14.1,14.1-14.1s14.1,6.3,14.1,14.1S42,40.5,34.2,40.5
		S20.2,34.2,20.2,26.5L20.2,26.5z M20.2,26.5"/>
	<rect x="32.6" y="32" class="st2" width="2.1" height="2.1"/>
</g>
</svg>
