<?xml version="1.0" encoding="utf-8"?>
<!-- Generator: Adobe Illustrator 19.0.0, SVG Export Plug-In . SVG Version: 6.00 Build 0)  -->
<svg version="1.1" id="Layer_1" xmlns="http://www.w3.org/2000/svg" xmlns:xlink="http://www.w3.org/1999/xlink" x="0px" y="0px"
	 viewBox="0 0 354 406" style="enable-background:new 0 0 354 406;" xml:space="preserve">
<style type="text/css">
	.st0{fill:#DEE0E0;}
	.st1{fill:#379DD5;}
	.st2{fill:none;stroke:#DEE0E0;stroke-width:2.1522;stroke-miterlimit:10;}
</style>
<image style="display:none;overflow:visible;" width="354" height="406" xlink:href="central-logo.png" >
</image>
<path class="st0" d="M337.3,28.8L337.3,28.8C337.3,28.8,337.4,28.8,337.3,28.8c0.2-0.2,0.3-0.5,0.4-0.7c0-0.1,0.1-0.2,0.1-0.2
	c0.1-0.2,0.1-0.4,0.1-0.6c0-0.1,0-0.2,0-0.2c0,0,0-0.1,0-0.1c0-0.3-0.1-0.5-0.1-0.7c0,0,0,0,0-0.1c-0.1-0.3-0.2-0.5-0.4-0.7
	c0,0,0-0.1-0.1-0.1l-11-13c-0.8-1-2.2-1-3.1,0c-0.9,1-0.9,2.6,0,3.6l5.9,7c-8.7-1.2-17.2,0.7-17.6,0.8c-26.3,4.8-45,29.1-41.6,54.2
	c0.2,1.2,1.1,2.1,2.2,2.1c0.1,0,0.2,0,0.3,0c1.2-0.2,2-1.5,1.8-2.9c-3.1-22.4,14-44.1,38-48.5c0.1,0,8.9-1.9,17.2-0.6l-9.2,5.4
	c-1.1,0.6-1.5,2.2-0.9,3.4c0.5,1.2,1.9,1.7,2.9,1.1l14.5-8.6C337,29.2,337.2,29,337.3,28.8L337.3,28.8z M337.3,28.8"/>
<path class="st0" d="M10.8,363.2L10.8,363.2C10.8,363.2,10.8,363.2,10.8,363.2c-0.2,0.2-0.3,0.5-0.4,0.7c0,0.1-0.1,0.2-0.1,0.2
	c-0.1,0.2-0.1,0.4-0.1,0.6c0,0.1,0,0.2,0,0.2c0,0,0,0.1,0,0.1c0,0.3,0.1,0.5,0.1,0.7c0,0,0,0,0,0.1c0.1,0.3,0.2,0.5,0.4,0.7
	c0,0,0,0.1,0.1,0.1l11,13c0.8,1,2.2,1,3.1,0c0.9-1,0.9-2.6,0-3.6l-5.9-7c8.7,1.2,17.2-0.7,17.6-0.8c26.3-4.8,45-29.1,41.6-54.2
	c-0.2-1.2-1.1-2.1-2.2-2.1c-0.1,0-0.2,0-0.3,0c-1.2,0.2-2,1.5-1.8,2.9c3.1,22.4-14,44.1-38,48.5c-0.1,0-8.9,1.9-17.2,0.6l9.2-5.4
	c1.1-0.6,1.5-2.2,0.9-3.4c-0.5-1.2-1.9-1.7-2.9-1.1l-14.5,8.6C11.1,362.9,11,363,10.8,363.2L10.8,363.2z M10.8,363.2"/>
<path class="st0" d="M336.7,365.7c-0.2-0.2-0.3-0.3-0.5-0.4l-14.5-8.6c-1.1-0.6-2.4-0.2-2.9,1.1c-0.6,1.2-0.1,2.8,0.9,3.4l9.2,5.4
	c-8.3,1.3-17.1-0.6-17.2-0.6c-24-4.4-41-26.1-38-48.5c0.2-1.4-0.6-2.7-1.8-2.9c-0.1,0-0.2,0-0.3,0c-1.1,0-2,0.9-2.2,2.1
	c-3.4,25.1,15.2,49.5,41.6,54.2c0.4,0.1,8.9,1.9,17.6,0.8l-5.9,7c-0.8,1-0.8,2.6,0,3.6c0.9,1,2.2,1,3.1,0l11-13c0,0,0-0.1,0.1-0.1
	c0.2-0.2,0.3-0.4,0.4-0.7c0,0,0,0,0-0.1c0.1-0.2,0.1-0.5,0.1-0.7c0,0,0-0.1,0-0.1c0-0.1,0-0.2,0-0.2c0-0.2-0.1-0.4-0.1-0.6
	c0-0.1,0-0.2-0.1-0.2C337,366.2,336.9,365.9,336.7,365.7C336.7,365.7,336.7,365.7,336.7,365.7L336.7,365.7L336.7,365.7z
	 M336.7,365.7"/>
<path class="st0" d="M10.8,28.8c0.2,0.2,0.3,0.3,0.5,0.4l14.5,8.6c1.1,0.6,2.4,0.2,2.9-1.1c0.6-1.2,0.1-2.8-0.9-3.4l-9.2-5.4
	c8.3-1.3,17.1,0.6,17.2,0.6c24,4.4,41,26.1,38,48.5c-0.2,1.4,0.6,2.7,1.8,2.9c0.1,0,0.2,0,0.3,0c1.1,0,2-0.9,2.2-2.1
	c3.4-25.1-15.2-49.5-41.6-54.2c-0.4-0.1-8.9-1.9-17.6-0.8l5.9-7c0.8-1,0.8-2.6,0-3.6c-0.9-1-2.2-1-3.1,0l-11,13c0,0,0,0.1-0.1,0.1
	c-0.2,0.2-0.3,0.4-0.4,0.7c0,0,0,0,0,0.1c-0.1,0.2-0.1,0.5-0.1,0.7c0,0,0,0.1,0,0.1c0,0.1,0,0.2,0,0.2c0,0.2,0.1,0.4,0.1,0.6
	c0,0.1,0,0.2,0.1,0.2C10.5,28.4,10.6,28.6,10.8,28.8C10.8,28.8,10.8,28.8,10.8,28.8L10.8,28.8L10.8,28.8z M10.8,28.8"/>
<g id="XMLID_3_">
	<circle id="XMLID_6_" class="st1" cx="143.4" cy="137.8" r="11.5"/>
	<path id="XMLID_14_" class="st1" d="M236.1,165.9c-16.2-16.2-41.5-17.7-59.4-4.5c-1.9-0.2-5.5-0.4-7.7-2.6
		c-2.4-2.4-2.4-6.4-2.7-8.1c5.3-9.7,3.9-22.2-4.3-30.5c-5-5-11.6-7.5-18.1-7.5c-6.6,0-13.1,2.5-18.1,7.5c-10,10-10,26.3,0,36.3
		c5,5,11.6,7.5,18.1,7.5c4.2,0,8.3-1,12.1-3c1.1,0.4,6,0.1,8.7,2.8c2,2,2.4,5.2,2.6,7.2c-13.4,17.9-12,43.4,4.3,59.6
		c17.8,17.8,46.8,17.8,64.6,0C254,212.7,254,183.7,236.1,165.9z M143.9,160.2c-5.8,0-11.3-2.3-15.5-6.4c-8.5-8.5-8.5-22.4,0-30.9
		c4.1-4.1,9.6-6.4,15.5-6.4s11.3,2.3,15.5,6.4c8.5,8.5,8.5,22.4,0,30.9C155.2,157.9,149.7,160.2,143.9,160.2z M162,156.4L162,156.4
		l9.5,9.5h0L162,156.4z M224,218.3c-1.4,1.4-2.7,2.7-4.5,3.9v-51.9c0-3.5-3.4-6.4-6.9-6.4c-3.5,0-6.9,2.9-6.9,6.4v45.2v10.3v2.1
		c-0.9,0.2-2.3,0.4-3.2,0.5v-2.6v-10.3V185c0-3.5-2.8-6.4-6.3-6.4c-3.5,0-6.3,2.9-6.3,6.4v30.5v10.3c0,0.5,0,0.9,0,1.4v0.4
		c-1.4-0.3-2.3-0.8-3.6-1.3c0-0.2-0.2-0.3-0.2-0.5v-26.1c0-3.5-2.5-6.4-6-6.4c-3.5,0-6,2.9-6,6.4v18c-12-11.9-13.2-29.9-4.6-43.4
		l0,0l0.2-0.5c1.3-2,2.8-3.8,4.5-5.6c1.7-1.7,3.4-3.1,5.3-4.4l0.6-0.3l0,0c13.7-8.8,32.1-7.3,44.1,4.7
		C237.8,182.2,237.8,204.5,224,218.3z"/>
</g>
<g>
	<path class="st0" d="M120.6,97.3c0.4-2.1,2.1-3.7,4.2-4.2v-2c-3.2,0.5-5.7,3-6.2,6.2H120.6z"/>
	<path class="st0" d="M127.1,91.1v2c2.4,0.5,4.3,2.7,4.3,5.3c0,3-2.4,5.4-5.4,5.4c-2.6,0-4.8-1.8-5.3-4.3h-2
		c0.6,3.6,3.6,6.3,7.3,6.3c4.1,0,7.4-3.3,7.4-7.4C133.4,94.7,130.6,91.7,127.1,91.1z"/>
</g>
<g>
	<path class="st0" d="M164.5,261.1c0.5-2.4,2.4-4.2,4.7-4.7V254c-3.6,0.6-6.5,3.4-7.1,7.1H164.5z"/>
	<path class="st0" d="M171.8,254v2.3c2.8,0.6,4.9,3.1,4.9,6.1c0,3.4-2.8,6.2-6.2,6.2c-3,0-5.5-2.1-6.1-4.9h-2.3
		c0.6,4.1,4.1,7.2,8.4,7.2c4.7,0,8.5-3.8,8.5-8.5C179,258.2,175.9,254.6,171.8,254z"/>
</g>
<rect x="146.9" y="89.9" class="st0" width="7.3" height="2"/>
<rect x="146.9" y="94.2" class="st0" width="10.1" height="2"/>
<rect x="146.9" y="98.5" class="st0" width="16.1" height="2"/>
<g>
	<polygon class="st0" points="190,124.8 174.9,124.8 174.9,110 176.9,110 176.9,122.8 190,122.8 	"/>
</g>
<g>
	<polygon class="st0" points="179.2,121 177.6,119.9 181,115 183.7,117 189.2,110 190.8,111.2 184.1,119.8 181.5,117.9 	"/>
</g>
<path class="st0" d="M102.1,138.8c-3.3,0-6,2.7-6,6s2.7,6,6,6s6-2.7,6-6h-6V138.8z"/>
<path class="st0" d="M103.1,137.8v6h6C109.1,140.4,106.4,137.8,103.1,137.8z"/>
<path class="st0" d="M270.6,227.3c-3.3,0-6,2.7-6,6s2.7,6,6,6s6-2.7,6-6h-6V227.3z"/>
<path class="st0" d="M271.6,226.3v6h6C277.6,229,274.9,226.3,271.6,226.3z"/>
<path class="st0" d="M267.6,160.7c5.7,0,10.3,4.6,10.3,10.3s-4.6,10.3-10.3,10.3s-10.3-4.6-10.3-10.3h10.3V160.7z"/>
<path class="st0" d="M265.9,159v10.3h-10.3C255.6,163.6,260.2,159,265.9,159z"/>
<g>
	<path class="st0" d="M118.1,170.7h-1.6c-0.2,0-0.4,0.2-0.4,0.4v4.7c0,0.2,0.2,0.4,0.4,0.4h1.6c0.2,0,0.4-0.2,0.4-0.4v-4.7
		C118.5,170.9,118.4,170.7,118.1,170.7z M115,173h-1.6c-0.2,0-0.4,0.2-0.4,0.4v2.3c0,0.2,0.2,0.4,0.4,0.4h1.6c0.2,0,0.4-0.2,0.4-0.4
		v-2.3C115.4,173.2,115.2,173,115,173z M128.5,181.9l-4.7-4.7c1.1-1.3,1.8-3.1,1.8-4.9c0-4.3-3.5-7.8-7.8-7.8s-7.8,3.5-7.8,7.8
		s3.5,7.8,7.8,7.8c1.9,0,3.6-0.7,4.9-1.8l4.7,4.7c0.2,0.2,0.4,0.2,0.6,0.2s0.4-0.1,0.6-0.2C128.8,182.7,128.8,182.2,128.5,181.9z
		 M117.7,178.5c-3.5,0-6.3-2.8-6.3-6.3s2.8-6.3,6.3-6.3c3.5,0,6.3,2.8,6.3,6.3S121.2,178.5,117.7,178.5z M121.3,168.3h-1.6
		c-0.2,0-0.4,0.2-0.4,0.4v7c0,0.2,0.2,0.4,0.4,0.4h1.6c0.2,0,0.4-0.2,0.4-0.4v-7C121.7,168.5,121.5,168.3,121.3,168.3z"/>
</g>
<circle class="st0" cx="148.4" cy="173.8" r="4.3"/>
<circle class="st0" cx="206.3" cy="263.7" r="4.3"/>
<circle class="st0" cx="250" cy="233.2" r="2.9"/>
<circle class="st0" cx="202.8" cy="145.2" r="2.9"/>
<circle class="st2" cx="264.9" cy="202.1" r="5.7"/>
<g>
	<g>
		<path class="st0" d="M140.9,209.2c-5.8,0-10.4-4.7-10.4-10.4s4.7-10.4,10.4-10.4s10.4,4.7,10.4,10.4S146.7,209.2,140.9,209.2z
			 M140.9,190.3c-4.7,0-8.4,3.8-8.4,8.4c0,4.7,3.8,8.4,8.4,8.4s8.4-3.8,8.4-8.4C149.4,194.1,145.6,190.3,140.9,190.3z"/>
	</g>
	<g>
		<path class="st0" d="M140.9,203.7c-2.7,0-4.9-2.2-4.9-4.9s2.2-4.9,4.9-4.9s4.9,2.2,4.9,4.9S143.7,203.7,140.9,203.7z M140.9,195.8
			c-1.6,0-2.9,1.3-2.9,2.9s1.3,2.9,2.9,2.9s2.9-1.3,2.9-2.9S142.6,195.8,140.9,195.8z"/>
	</g>
	<g>
		<rect x="139.9" y="189.3" class="st0" width="2" height="5.5"/>
	</g>
	<g>
		<rect x="131.5" y="197.8" class="st0" width="5.5" height="2"/>
	</g>
	<g>
		<rect x="142.9" y="202.5" transform="matrix(0.698 0.7161 -0.7161 0.698 189.72 -42.7975)" class="st0" width="5.5" height="2"/>
	</g>
</g>
<g>
	<path class="st0" d="M119.3,205.9l1.8-1l8.3,14.6l-1.8,1L119.3,205.9z M115.9,208.5l-0.2,0.2c-0.3,0.3-0.7,0.4-1,0.2
		c-0.1-0.1-0.2-0.2-0.2-0.4c0-0.2,0.1-0.4,0.2-0.5l2.4-2.5l1.8,2.4c0.1,0.1,0.1,0.3,0.1,0.4c0,0.2-0.1,0.4-0.3,0.5c0,0,0,0-0.1,0
		c-0.3,0.2-0.7,0.1-0.9-0.1l-0.3-0.4c-0.7,6.5-5.6,15.8-5.8,16.2c-0.1,0.1-0.2,0.3-0.3,0.3c-0.2,0.1-0.4,0.1-0.6,0.1
		c-0.2,0-0.3-0.2-0.4-0.3c-0.1-0.2-0.1-0.4,0-0.5C110.4,224,115.2,214.7,115.9,208.5L115.9,208.5z M119.7,210l6.5,11.4l-1.8,1
		l-6.5-11.4L119.7,210z M118.4,215.2l4.6,8l-1.8,1l-4.6-8L118.4,215.2z M117,220.6l2.6,4.5l-1.8,1l-2.6-4.5L117,220.6z M114.5,224.4
		l1.6,2.7l-1.8,1l-1.6-2.7L114.5,224.4z M131.1,220.9l-18.7,10.6l-0.8-1.4l18.7-10.6L131.1,220.9z M131.1,220.9"/>
</g>
<g>
	<rect x="139.1" y="238.8" class="st0" width="2.8" height="4"/>
</g>
<g>
	<rect x="149.8" y="235.6" class="st0" width="2.8" height="7.1"/>
</g>
<g>
	<rect x="144.4" y="234" class="st0" width="2.8" height="8.8"/>
</g>
<g>
	<rect x="155.1" y="233" class="st0" width="2.8" height="9.8"/>
</g>
<g>
	<polygon class="st0" points="140.3,231.9 139.6,231.2 145.8,224.9 151.2,228.8 156.7,225.1 157.3,226 151.1,230 145.9,226.2 	"/>
</g>
<g>
	<circle class="st0" cx="139.9" cy="231.5" r="1.3"/>
</g>
<g>
	<circle class="st0" cx="145.8" cy="225.5" r="1.3"/>
</g>
<g>
	<circle class="st0" cx="151.2" cy="229.3" r="1.3"/>
</g>
<g>
	<circle class="st0" cx="156.5" cy="225.9" r="1.3"/>
</g>
<path class="st0" d="M119.2,251c-0.1-1,0-1.9,0.2-2.7c0.8-2.8,3.4-4.9,6.5-4.9v-1.8c0-0.1,0.1-0.2,0.2-0.1l3.8,2.8
	c0.1,0,0.1,0.1,0,0.2l-3.8,2.8c-0.1,0.1-0.2,0-0.2-0.1v-1.8c-2,0-3.7,1.3-4.5,3c-0.3,0.7-0.4,1.4-0.4,2.2c0.1,1.1,0.5,2,1.1,2.8
	c0.3,0.4,0.3,1-0.2,1.4c-0.4,0.3-1,0.2-1.3-0.2C119.9,253.5,119.4,252.3,119.2,251L119.2,251z M130.2,247.5c0.6,0.8,1,1.8,1.1,2.8
	c0,0.8-0.1,1.5-0.4,2.2c-0.7,1.8-2.5,3-4.5,3v-1.8c0-0.1-0.1-0.2-0.2-0.1l-3.8,2.8c-0.1,0-0.1,0.1,0,0.2l3.8,2.8
	c0.1,0.1,0.2,0,0.2-0.1v-1.8c3.1,0,5.7-2.1,6.5-4.9c0.2-0.8,0.3-1.8,0.2-2.7c-0.1-1.3-0.7-2.5-1.4-3.5c-0.3-0.4-0.9-0.5-1.3-0.2
	C129.9,246.5,129.8,247.1,130.2,247.5L130.2,247.5z M130.2,247.5"/>
<path class="st0" d="M177.6,146c-0.1-0.7,0-1.4,0.2-2c0.6-2.1,2.5-3.6,4.8-3.7V139c0-0.1,0.1-0.1,0.2-0.1l2.8,2.1c0,0,0,0.1,0,0.1
	l-2.8,2.1c-0.1,0-0.2,0-0.2-0.1v-1.4c-1.5,0-2.8,1-3.3,2.3c-0.2,0.5-0.3,1-0.3,1.6c0,0.8,0.3,1.5,0.8,2.1c0.2,0.3,0.2,0.8-0.1,1
	c-0.3,0.2-0.7,0.2-1-0.1C178.1,147.9,177.7,147,177.6,146L177.6,146z M185.7,143.4c0.5,0.6,0.8,1.3,0.8,2.1c0,0.6-0.1,1.1-0.3,1.6
	c-0.6,1.3-1.8,2.2-3.3,2.3V148c0-0.1-0.1-0.1-0.2-0.1l-2.8,2.1c0,0,0,0.1,0,0.1l2.8,2.1c0.1,0,0.2,0,0.2-0.1v-1.4
	c2.3,0,4.2-1.6,4.8-3.7c0.2-0.6,0.2-1.3,0.2-2c-0.1-1-0.5-1.8-1.1-2.6c-0.2-0.3-0.7-0.4-1-0.1C185.5,142.7,185.5,143.1,185.7,143.4
	L185.7,143.4z M185.7,143.4"/>
<circle class="st0" cx="170.6" cy="262.4" r="4.1"/>
<g>
	<path class="st0" d="M188.3,295.6L188.3,295.6c-1-0.4-1.4-1.6-1-2.5l8.1-18.7c0.4-1,1.6-1.4,2.5-1l0,0c1,0.4,1.4,1.6,1,2.5
		l-8.1,18.7C190.4,295.6,189.2,296,188.3,295.6z"/>
	<path class="st0" d="M182.7,293.2L182.7,293.2c-1-0.4-1.4-1.6-1-2.5l4.9-11.2c0.4-1,1.6-1.4,2.5-1l0,0c1,0.4,1.4,1.6,1,2.5
		l-4.9,11.2C184.8,293.2,183.7,293.6,182.7,293.2z"/>
	<path class="st0" d="M177.2,290.8L177.2,290.8c-1-0.4-1.4-1.6-1-2.5l1.7-3.8c0.4-1,1.6-1.4,2.5-1h0c1,0.4,1.4,1.6,1,2.5l-1.7,3.8
		C179.3,290.7,178.2,291.2,177.2,290.8z"/>
</g>
<path class="st0" d="M153.1,277.3l-1.2-2.1c-0.6-1-0.9-2.1-0.9-3.2v-1.8c0-2.3-1.5-4.2-3.6-4.9V264c0-0.8-0.7-1.5-1.5-1.5
	c-0.8,0-1.5,0.7-1.5,1.5v1.3c-2.1,0.6-3.6,2.6-3.6,4.9v1.8c0,1.1-0.3,2.2-0.9,3.2l-1.2,2.1c-0.1,0.1-0.1,0.3,0,0.4
	c0.1,0.1,0.2,0.2,0.3,0.2h13.8c0.1,0,0.3-0.1,0.3-0.2C153.1,277.5,153.1,277.4,153.1,277.3z"/>
<path class="st0" d="M145.9,280c1,0,1.9-0.6,2.3-1.5h-4.6C144,279.4,144.9,280,145.9,280z"/>
<path d="M215.6,297.1C215.6,296.9,215.6,297.1,215.6,297.1L215.6,297.1z M215.6,297.1"/>
<g>
	<path class="st0" d="M222.9,288.9c2.1,0,3.9-2.1,3.9-4.7c0-2.6-0.6-4.7-3.9-4.7c-3.3,0-3.9,2.1-3.9,4.7
		C219,286.8,220.7,288.9,222.9,288.9L222.9,288.9z M222.9,288.9"/>
	<path class="st0" d="M230.2,295.9c-0.1-4.5-0.7-5.8-5.2-6.6c0,0-0.6,0.8-2.1,0.8c-1.5,0-2.1-0.8-2.1-0.8c-4.5,0.8-5.1,2.1-5.2,6.5
		c0,0.4,0,0.4,0,0.3c0,0.1,0,0.2,0,0.5c0,0,1.1,2.2,7.3,2.2c6.2,0,7.3-2.2,7.3-2.2c0-0.2,0-0.3,0-0.4
		C230.2,296.3,230.2,296.2,230.2,295.9L230.2,295.9z M230.2,295.9"/>
</g>
<path class="st0" d="M261.9,285.7l-3.4-3.5c0.9-1,1.3-2.3,1.3-3.7c0-3.1-2.6-5.7-5.7-5.7c-3.1,0-5.7,2.6-5.7,5.7
	c0,3.1,2.6,5.7,5.7,5.7c1.2,0,2.3-0.4,3.3-1l3.4,3.5c0.1,0.1,0.3,0.2,0.5,0.2c0.2,0,0.4-0.1,0.5-0.2
	C262.2,286.4,262.2,286,261.9,285.7L261.9,285.7z M254.2,274.3c2.3,0,4.2,1.9,4.2,4.2c0,2.3-1.9,4.2-4.2,4.2c-2.3,0-4.2-1.9-4.2-4.2
	C250,276.2,251.9,274.3,254.2,274.3L254.2,274.3z M254.2,274.3"/>
<path class="st0" d="M242.3,268.8h-21.9c-0.3,0-0.5-0.2-0.5-0.5s0.2-0.5,0.5-0.5h21.9c0.3,0,0.5,0.2,0.5,0.5
	S242.6,268.8,242.3,268.8z"/>
<path class="st0" d="M224.2,268.8h-2.9c-0.3,0-0.5-0.2-0.5-0.5v-5.7c0-0.3,0.2-0.5,0.5-0.5h2.9c0.3,0,0.5,0.2,0.5,0.5v5.7
	C224.7,268.6,224.5,268.8,224.2,268.8z M221.8,267.9h1.9v-4.8h-1.9V267.9z"/>
<path class="st0" d="M229.9,268.8h-2.9c-0.3,0-0.5-0.2-0.5-0.5v-10.5c0-0.3,0.2-0.5,0.5-0.5h2.9c0.3,0,0.5,0.2,0.5,0.5v10.5
	C230.4,268.6,230.2,268.8,229.9,268.8z M227.5,267.9h1.9v-9.5h-1.9V267.9z"/>
<path class="st0" d="M235.6,268.8h-2.9c-0.3,0-0.5-0.2-0.5-0.5v-8.6c0-0.3,0.2-0.5,0.5-0.5h2.9c0.3,0,0.5,0.2,0.5,0.5v8.6
	C236.1,268.6,235.9,268.8,235.6,268.8z M233.3,267.9h1.9v-7.6h-1.9V267.9z"/>
<path class="st0" d="M241.4,268.8h-2.9c-0.3,0-0.5-0.2-0.5-0.5V254c0-0.3,0.2-0.5,0.5-0.5h2.9c0.3,0,0.5,0.2,0.5,0.5v14.3
	C241.8,268.6,241.6,268.8,241.4,268.8z M239,267.9h1.9v-13.4H239V267.9z"/>
<path class="st0" d="M222.8,258.3c-1.1,0-1.9-0.9-1.9-1.9c0-1.1,0.9-1.9,1.9-1.9s1.9,0.9,1.9,1.9
	C224.7,257.5,223.8,258.3,222.8,258.3z M222.8,255.5c-0.5,0-1,0.4-1,1c0,0.5,0.4,1,1,1s1-0.4,1-1
	C223.7,255.9,223.3,255.5,222.8,255.5z"/>
<path class="st0" d="M228.5,253.6c-1.1,0-1.9-0.9-1.9-1.9s0.9-1.9,1.9-1.9s1.9,0.9,1.9,1.9S229.5,253.6,228.5,253.6z M228.5,250.7
	c-0.5,0-1,0.4-1,1s0.4,1,1,1c0.5,0,1-0.4,1-1S229,250.7,228.5,250.7z"/>
<path class="st0" d="M234.2,255.5c-1.1,0-1.9-0.9-1.9-1.9c0-1.1,0.9-1.9,1.9-1.9c1.1,0,1.9,0.9,1.9,1.9
	C236.1,254.6,235.3,255.5,234.2,255.5z M234.2,252.6c-0.5,0-1,0.4-1,1c0,0.5,0.4,1,1,1c0.5,0,1-0.4,1-1
	C235.2,253,234.7,252.6,234.2,252.6z"/>
<path class="st0" d="M239.9,249.7c-1.1,0-1.9-0.9-1.9-1.9s0.9-1.9,1.9-1.9c1.1,0,1.9,0.9,1.9,1.9S241,249.7,239.9,249.7z
	 M239.9,246.9c-0.5,0-1,0.4-1,1s0.4,1,1,1c0.5,0,1-0.4,1-1S240.5,246.9,239.9,246.9z"/>
<path class="st0" d="M235.2,253c-0.1,0-0.2,0-0.3-0.1c-0.2-0.2-0.2-0.5,0-0.7l3.7-3.7c0.2-0.2,0.5-0.2,0.7,0c0.2,0.2,0.2,0.5,0,0.7
	l-3.7,3.7C235.5,253,235.3,253,235.2,253z"/>
<path class="st0" d="M232.9,253.4c0,0-0.1,0-0.1,0l-3.1-0.9c-0.3-0.1-0.4-0.3-0.3-0.6c0.1-0.3,0.3-0.4,0.6-0.3l3.1,0.9
	c0.3,0.1,0.4,0.3,0.3,0.6C233.3,253.3,233.1,253.4,232.9,253.4z"/>
<path class="st0" d="M223.8,255.9c-0.1,0-0.3-0.1-0.4-0.2c-0.2-0.2-0.1-0.5,0.1-0.7l3.6-2.9c0.2-0.2,0.5-0.1,0.7,0.1
	c0.2,0.2,0.1,0.5-0.1,0.7l-3.6,2.9C224,255.9,223.9,255.9,223.8,255.9z"/>
<path class="st0" d="M290.3,255.6c0-0.3-0.1-0.6-0.4-0.8l-13.6-8.2c-0.3-0.2-0.6-0.2-0.9,0c-0.3,0.2-0.4,0.5-0.3,0.8l2.1,8.4
	l-3.1,5.2c-0.1,0.2-0.1,0.4-0.1,0.6l1.1,4.4c0,0.2,0.2,0.4,0.4,0.5c0.1,0.1,0.2,0.1,0.3,0.1c0.3,0,0.6-0.1,0.8-0.4l4.7-7.9l8.4-2.1
	C290,256.2,290.2,256,290.3,255.6L290.3,255.6z M290.3,255.6"/>
<g>
	<path class="st0" d="M298.3,227.9l-0.7,6c0,0,0,0,0,0c0,0.2,0.1,0.4,0.2,0.6c0.3,0.3,0.8,0.3,1.1,0.1c0.2-0.1,0.2-0.3,0.3-0.6
		l-0.1-6c0-0.2-0.2-0.4-0.4-0.4C298.5,227.5,298.3,227.7,298.3,227.9z"/>
	<path class="st0" d="M292.1,227c-3.8,3.4-4.1,9.3-0.7,13.1c0.6,0.7,1.4,1.3,2.2,1.8c0.1,0.1,0.3,0.1,0.5,0l12.6-11.3
		c0.1-0.1,0.2-0.3,0.1-0.4c-0.4-0.9-0.9-1.7-1.6-2.4C301.8,223.9,295.9,223.6,292.1,227z M306,230.2l-12.2,10.9
		c-0.6-0.4-1.1-0.8-1.5-1.2l0.8-0.8c0.2-0.1,0.2-0.4,0-0.5s-0.4-0.2-0.5,0l-0.9,0.8c-0.8-1-1.4-2.1-1.7-3.3l1.1-0.2
		c0.1,0,0.1,0,0.2-0.1c0.1-0.1,0.2-0.2,0.1-0.4c0-0.2-0.2-0.3-0.5-0.3l-1.1,0.2c-0.2-1.2-0.1-2.5,0.2-3.6l1.1,0.4
		c0.1,0,0.3,0,0.4-0.1c0,0,0.1-0.1,0.1-0.2c0.1-0.2,0-0.4-0.2-0.5l-1.1-0.4c0.4-1.1,1.1-2.2,2-3.1l0.8,0.9c0.1,0.2,0.4,0.2,0.5,0
		s0.2-0.4,0-0.5l-0.8-0.9c1-0.8,2.1-1.4,3.3-1.7l0.2,1.1c0,0.2,0.2,0.3,0.5,0.3c0.1,0,0.1,0,0.2-0.1c0.1-0.1,0.2-0.2,0.1-0.4
		l-0.2-1.1c1.2-0.2,2.5-0.1,3.6,0.2l-0.4,1.1c-0.1,0.2,0,0.4,0.2,0.5c0.1,0,0.3,0,0.4-0.1c0,0,0.1-0.1,0.1-0.2l0.4-1.1
		c1.1,0.4,2.2,1.1,3.1,2l-0.9,0.8c-0.2,0.1-0.2,0.4,0,0.5s0.4,0.2,0.5,0l0.8-0.8C305.3,229.1,305.7,229.6,306,230.2z"/>
</g>
<g>
	<path class="st0" d="M295.4,191.3c-1.3-1.2-5.1-0.8-10.2,2.3s-7.2,6.4-6.7,8.1c0,0.1,0,0.1,0.1,0.2l7.8,12.6c0,0.1,0.1,0.1,0.1,0.1
		c1.4,1.4,5.8,0.4,10.3-2.3c4.5-2.8,7.3-6.2,6.7-8.1c0-0.1,0-0.1-0.1-0.2l-7.8-12.6C295.6,191.4,295.5,191.3,295.4,191.3
		L295.4,191.3z M300.2,200.4c0,0,0,0.1,0,0.1c0,0,0,0.1,0,0.1c0,0.1,0,0.1,0,0.2c0,0,0,0.1,0,0.1c0,0.1,0,0.1,0,0.2c0,0,0,0.1,0,0.1
		c0,0.1-0.1,0.2-0.1,0.3c0,0,0,0.1,0,0.1c0,0.1-0.1,0.2-0.1,0.3c0,0,0,0.1,0,0.1c-0.1,0.1-0.1,0.2-0.2,0.4c0,0,0,0,0,0
		c-0.1,0.1-0.2,0.3-0.3,0.4c0,0,0,0,0,0c-0.6,0.8-1.4,1.7-2.5,2.5c0,0,0,0,0,0c-0.2,0.2-0.4,0.3-0.6,0.5c0,0-0.1,0.1-0.1,0.1
		c-0.2,0.1-0.4,0.3-0.6,0.4c-0.1,0.1-0.2,0.1-0.3,0.2c-0.2,0.1-0.3,0.2-0.5,0.3c-0.3,0.2-0.5,0.4-0.8,0.5c-0.3,0.2-0.6,0.3-0.8,0.5
		c-0.2,0.1-0.3,0.2-0.5,0.3c-0.1,0.1-0.2,0.1-0.3,0.2c-0.2,0.1-0.4,0.2-0.7,0.3c0,0-0.1,0-0.1,0.1c-0.3,0.1-0.5,0.2-0.7,0.3
		c0,0,0,0,0,0c-1.3,0.5-2.4,0.9-3.4,1.1c0,0,0,0,0,0c-0.2,0-0.3,0.1-0.5,0.1c0,0,0,0-0.1,0c-0.1,0-0.3,0-0.4,0c0,0-0.1,0-0.1,0
		c-0.1,0-0.2,0-0.3,0c0,0-0.1,0-0.1,0c-0.1,0-0.2,0-0.3,0c0,0-0.1,0-0.1,0c-0.1,0-0.1,0-0.2-0.1c0,0-0.1,0-0.1,0
		c-0.1,0-0.1,0-0.2-0.1c0,0-0.1,0-0.1-0.1c0,0-0.1-0.1-0.1-0.1c0,0-0.1-0.1-0.1-0.1c0,0,0-0.1-0.1-0.1c0-0.1-0.1-0.1-0.1-0.1
		l-1.6-2.5c0,0,0,0,0,0c0.1,0,0.2,0,0.4,0c1.9,0.2,4.9-0.7,8.6-3c3.7-2.3,5.8-4.6,6.5-6.4c0.1-0.1,0.1-0.3,0.1-0.4l1.6,2.5
		c0,0.1,0,0.1,0.1,0.2c0,0,0.1,0.1,0.1,0.1C300.1,200.2,300.1,200.3,300.2,200.4L300.2,200.4z M295.8,193.3l1.6,2.5
		c0,0.1,0,0.1,0.1,0.2c0,0,0.1,0.1,0.1,0.1c0,0.1,0.1,0.1,0.1,0.2c0,0,0,0.1,0,0.1c0,0,0,0.1,0,0.1c0,0.1,0,0.1,0,0.2
		c0,0,0,0.1,0,0.1c0,0.1,0,0.1,0,0.2c0,0,0,0.1,0,0.1c0,0.1-0.1,0.2-0.1,0.3c0,0,0,0.1-0.1,0.1c0,0.1-0.1,0.2-0.1,0.3
		c0,0,0,0.1,0,0.1c-0.1,0.1-0.1,0.2-0.2,0.4c0,0,0,0,0,0c-0.1,0.1-0.2,0.3-0.3,0.4c0,0,0,0,0,0c-0.6,0.8-1.4,1.7-2.5,2.5
		c0,0,0,0,0,0c-0.2,0.2-0.4,0.3-0.6,0.5c0,0-0.1,0.1-0.1,0.1c-0.2,0.1-0.4,0.3-0.6,0.4c-0.1,0.1-0.2,0.1-0.3,0.2
		c-0.2,0.1-0.3,0.2-0.5,0.3c-0.3,0.2-0.5,0.4-0.8,0.5s-0.6,0.3-0.8,0.5c-0.2,0.1-0.3,0.2-0.5,0.3c-0.1,0.1-0.2,0.1-0.3,0.2
		c-0.2,0.1-0.4,0.2-0.7,0.3c0,0-0.1,0-0.1,0.1c-0.3,0.1-0.5,0.2-0.7,0.3c0,0,0,0,0,0c-1.3,0.5-2.4,0.9-3.4,1.1c0,0,0,0,0,0
		c-0.2,0-0.3,0.1-0.5,0.1c0,0,0,0-0.1,0c-0.1,0-0.3,0-0.4,0c0,0-0.1,0-0.1,0c-0.1,0-0.2,0-0.3,0c0,0-0.1,0-0.1,0c-0.1,0-0.2,0-0.3,0
		c0,0-0.1,0-0.1,0c-0.1,0-0.1,0-0.2-0.1c0,0-0.1,0-0.1,0c-0.1,0-0.1-0.1-0.2-0.1c0,0-0.1,0-0.1-0.1c0,0-0.1-0.1-0.1-0.1
		c0,0-0.1-0.1-0.1-0.1c0,0,0-0.1-0.1-0.1c0-0.1-0.1-0.1-0.1-0.1l-1.6-2.5c0.1,0,0.1,0,0.2,0c0,0,0.1,0,0.1,0c0.2,0,0.3,0,0.5,0
		c0,0,0.1,0,0.1,0c0.1,0,0.3,0,0.4,0c0.1,0,0.1,0,0.2,0c0.2,0,0.3,0,0.5-0.1c0,0,0.1,0,0.1,0c0.2,0,0.4-0.1,0.6-0.1
		c0.1,0,0.1,0,0.2,0c0.2,0,0.3-0.1,0.5-0.1c0.1,0,0.1,0,0.2-0.1c0.2-0.1,0.5-0.1,0.7-0.2c0,0,0.1,0,0.1,0c0.2-0.1,0.4-0.2,0.7-0.2
		c0.1,0,0.2-0.1,0.2-0.1c0.2-0.1,0.4-0.2,0.6-0.3c0.1,0,0.1,0,0.2-0.1c0.3-0.1,0.5-0.3,0.8-0.4c0.1,0,0.1-0.1,0.2-0.1
		c0.2-0.1,0.5-0.2,0.7-0.4c0.1,0,0.2-0.1,0.3-0.1c0.3-0.2,0.6-0.4,0.9-0.5s0.6-0.4,0.9-0.6c0.1-0.1,0.2-0.1,0.2-0.2
		c0.2-0.2,0.4-0.3,0.6-0.4c0.1,0,0.1-0.1,0.2-0.1c0.3-0.2,0.5-0.4,0.7-0.6c0,0,0.1-0.1,0.1-0.1c0.2-0.2,0.4-0.3,0.5-0.5
		c0.1-0.1,0.1-0.1,0.2-0.2c0.2-0.2,0.4-0.3,0.5-0.5c0,0,0.1-0.1,0.1-0.1c0.2-0.2,0.4-0.4,0.5-0.5c0-0.1,0.1-0.1,0.1-0.1
		c0.1-0.1,0.2-0.3,0.4-0.4c0,0,0.1-0.1,0.1-0.1c0.1-0.2,0.3-0.3,0.4-0.5c0,0,0,0,0-0.1c0.1-0.1,0.2-0.3,0.3-0.4
		c0-0.1,0.1-0.1,0.1-0.1c0.1-0.1,0.1-0.3,0.2-0.4c0,0,0-0.1,0-0.1c0.1-0.2,0.1-0.3,0.2-0.4c0,0,0-0.1,0-0.1
		C295.8,193.5,295.8,193.4,295.8,193.3L295.8,193.3z M285.6,194.3c4.6-2.9,8.7-3.5,9.4-2.3c0.7,1.2-1.6,4.5-6.2,7.4
		c-4.6,2.9-8.7,3.5-9.4,2.3C278.6,200.5,281,197.2,285.6,194.3L285.6,194.3z M302.6,204.3C302.7,204.4,302.7,204.4,302.6,204.3
		c0.6,1.3-1.8,4.6-6.3,7.3c-4.4,2.7-8.4,3.5-9.3,2.4c0,0,0,0,0,0l-1.8-2.9c0,0,0,0,0,0c0.1,0,0.2,0,0.4,0c1.9,0.2,4.9-0.7,8.6-3
		c3.7-2.3,5.8-4.6,6.5-6.4c0.1-0.1,0.1-0.3,0.1-0.4L302.6,204.3z M302.6,204.3"/>
</g>
<g>
	<path class="st0" d="M243.9,148.3l1.7-4.6l-8.4-3.1l1.4-3.8c1.6,0.4,3.2-0.5,3.8-2c0.6-1.7-0.3-3.5-1.9-4.2
		c-1.7-0.6-3.5,0.3-4.2,1.9c-0.6,1.6,0.1,3.3,1.6,4l-1.4,3.8l-8.4-3.1l-1.7,4.6l-2.7-1l-2.2,6.1l6.1,2.2l2.2-6.1l-2.7-1l1.4-3.8
		l7.6,2.8l-1.4,3.8l-2.7-1l-2.2,6.1l6.1,2.2l2.2-6.1l-2.7-1l1.4-3.8l7.6,2.8l-1.4,3.8l-2.7-1l-2.2,6.1l6.1,2.2l2.2-6.1L243.9,148.3z
		 M237,132.8c0.5-1.3,1.9-1.9,3.1-1.4c1.3,0.5,1.9,1.9,1.5,3.1c-0.5,1.3-1.9,1.9-3.1,1.5C237.2,135.5,236.5,134.1,237,132.8
		L237,132.8z M227.1,148.2l-4.6-1.7l1.7-4.6l4.6,1.7L227.1,148.2z M235.4,151.2l-4.6-1.7l1.7-4.6l4.6,1.7L235.4,151.2z M243.8,154.3
		l-4.6-1.7l1.7-4.6l4.6,1.7L243.8,154.3z M243.8,154.3"/>
</g>
<g>
	<path class="st0" d="M101.9,122.4c-5.5,0-9.8-5.8-10-6.1c-0.2-0.2-0.2-0.6,0-0.8c0.2-0.2,4.5-6.1,10-6.1s9.8,5.8,10,6.1
		c0.2,0.2,0.2,0.6,0,0.8C111.7,116.6,107.4,122.4,101.9,122.4z M93.3,115.9c1,1.3,4.5,5.1,8.6,5.1c4.1,0,7.6-3.9,8.6-5.1
		c-1-1.3-4.5-5.1-8.6-5.1C97.8,110.8,94.3,114.7,93.3,115.9z"/>
	<path class="st0" d="M101.9,119.9c-2.2,0-4-1.8-4-4c0-2.2,1.8-4,4-4c2.2,0,4,1.8,4,4C105.9,118.2,104.1,119.9,101.9,119.9z
		 M101.9,113.3c-1.5,0-2.7,1.2-2.7,2.7c0,1.5,1.2,2.7,2.7,2.7c1.5,0,2.7-1.2,2.7-2.7C104.5,114.5,103.4,113.3,101.9,113.3z"/>
</g>
</svg>
