<?xml version="1.0" encoding="utf-8"?>
<!-- Generator: Adobe Illustrator 23.0.3, SVG Export Plug-In . SVG Version: 6.00 Build 0)  -->
<svg version="1.1" id="Layer_1" xmlns="http://www.w3.org/2000/svg" xmlns:xlink="http://www.w3.org/1999/xlink" x="0px" y="0px"
	 viewBox="0 0 100 100" style="enable-background:new 0 0 100 100;" xml:space="preserve">
<style type="text/css">
	.st0{fill:#676A6C;}
	.st1{fill:#439DD3;}
</style>
<g>
	<path class="st0" d="M93.3,51.5c-21.6,0-39.2-17.6-39.2-39.2c0-3.3,0.4-6.5,1.2-9.7l2,0.5c-0.8,3-1.1,6.1-1.1,9.2
		c0,20.5,16.7,37.2,37.2,37.2c1.3,0,2.5-0.1,3.8-0.2l0.2,2C96,51.4,94.6,51.5,93.3,51.5z"/>
</g>
<g>
	<path class="st0" d="M14.3,75.9c-2.1,0-4.2-0.2-6.3-0.5l0.3-2c2,0.3,3.9,0.5,5.9,0.5c20.5,0,37.2-16.7,37.2-37.2
		c0-12.6-6.3-24.2-16.8-31.1l1.1-1.7c11.1,7.3,17.7,19.5,17.7,32.8C53.5,58.3,35.9,75.9,14.3,75.9z"/>
</g>
<g>
	<path class="st0" d="M49,97.8l-2-0.3c3.2-18.8,19.5-32.5,38.6-32.5c3.1,0,6.2,0.4,9.2,1.1l-0.5,2c-2.8-0.7-5.8-1-8.7-1
		C67.4,67,52,79.9,49,97.8z"/>
</g>
<g>
	<path class="st0" d="M58.3,97c-1.9-5.3-2.9-10.9-2.9-16.6c0-23.1,16.4-43.4,38.9-48.3l0.4,2c-21.6,4.7-37.3,24.2-37.3,46.3
		c0,5.5,0.9,10.8,2.7,15.9L58.3,97z"/>
</g>
<g>
	<path class="st0" d="M80.8,60.5c-12.9,0-25.2-5.3-34.5-14.9C36.2,35.3,30.9,21.4,31.3,6.7l2,0.1C33,20.9,38.1,34.2,47.7,44.2
		c9,9.2,20.7,14.3,33,14.3c5.7,0,11.2-1,16.5-2.9l0.7,1.9C92.5,59.5,86.7,60.5,80.8,60.5z"/>
</g>
<g>
	<path class="st0" d="M70.6,92.7c-5.2-21.2-24.2-36-46-36c-7.2,0-14.1,1.6-20.6,4.7l-0.9-1.8c6.7-3.2,13.9-4.9,21.4-4.9
		c22.8,0,42.5,15.4,48,37.5L70.6,92.7z"/>
</g>
<g>
	<path class="st1" d="M88.9,79.4c-0.4,0-0.8-0.1-1.1-0.4c-0.9-0.6-1.1-1.9-0.5-2.8c5.4-7.7,8.3-16.8,8.3-26.2
		c0-9.3-2.8-18.3-8.1-25.9c-0.6-0.9-0.4-2.1,0.5-2.8c0.9-0.6,2.1-0.4,2.8,0.5c5.8,8.3,8.8,18.1,8.8,28.2c0,10.3-3.1,20.2-9,28.5
		C90.2,79.1,89.6,79.4,88.9,79.4z"/>
</g>
<g>
	<path class="st1" d="M50,99.6c-10.3,0-20.2-3.1-28.5-9c-0.9-0.6-1.1-1.9-0.5-2.8s1.9-1.1,2.8-0.5c7.7,5.4,16.8,8.3,26.2,8.3
		c9.5,0,18.5-2.9,26.2-8.3c0.9-0.6,2.1-0.4,2.8,0.5c0.6,0.9,0.4,2.1-0.5,2.8C70.2,96.5,60.3,99.6,50,99.6z"/>
</g>
<g>
	<path class="st0" d="M29.2,48.6c-10,0-19.5-3.9-26.6-11l1.4-1.4c6.7,6.7,15.6,10.4,25.1,10.4c19.6,0,35.5-15.9,35.5-35.5
		c0-2-0.2-4-0.5-6l2-0.3c0.4,2.1,0.5,4.2,0.5,6.3C66.8,31.8,49.9,48.6,29.2,48.6z"/>
</g>
<g>
	<path class="st1" d="M11.1,79.4c-0.6,0-1.2-0.3-1.6-0.8c-5.9-8.4-9-18.2-9-28.5c0-10.4,3.2-20.4,9.2-28.8c0.6-0.9,1.9-1.1,2.8-0.5
		c0.9,0.6,1.1,1.9,0.5,2.8C7.3,31.3,4.4,40.4,4.4,50c0,9.5,2.9,18.5,8.3,26.2c0.6,0.9,0.4,2.1-0.5,2.8
		C11.9,79.3,11.5,79.4,11.1,79.4z"/>
</g>
<g>
	<path class="st1" d="M77.4,13.1c-0.4,0-0.8-0.1-1.1-0.4C68.5,7.3,59.5,4.4,50,4.4c-9.5,0-18.5,2.9-26.2,8.3
		c-0.9,0.6-2.1,0.4-2.8-0.5c-0.6-0.9-0.4-2.1,0.5-2.8c8.4-5.9,18.2-9,28.5-9c10.3,0,20.2,3.1,28.5,9c0.9,0.6,1.1,1.9,0.5,2.8
		C78.6,12.8,78,13.1,77.4,13.1z"/>
</g>
</svg>
