<?xml version="1.0" encoding="utf-8"?>
<!-- Generator: Adobe Illustrator 19.0.0, SVG Export Plug-In . SVG Version: 6.00 Build 0)  -->
<svg version="1.1" id="Layer_1" xmlns="http://www.w3.org/2000/svg" xmlns:xlink="http://www.w3.org/1999/xlink" x="0px" y="0px"
	 viewBox="0 0 25 25" style="enable-background:new 0 0 25 25;" xml:space="preserve">
<style type="text/css">
	.st0{fill:#676A6C;}
</style>
<g>
	<circle class="st0" cx="20.2" cy="13.2" r="0.9"/>
	<path class="st0" d="M12.7,24.1h-2.6c-0.3,0-0.6-0.3-0.6-0.6v-2.6c0-0.2,0.1-0.3,0.2-0.4l5.1-5.1c-0.1-0.3-0.3-0.5-0.4-0.8
		c-0.4-0.9-0.2-1.9,0.5-2.6l2.3-2.3c0.7-0.7,1.6-0.9,2.5-0.5c0.8,0.3,1.9,0.9,2.9,1.8c1,1,1.5,2.1,1.9,2.9c0.3,0.9,0.1,1.9-0.5,2.5
		l-2.3,2.3c-0.7,0.7-1.7,0.9-2.6,0.5c-0.4-0.2-0.8-0.4-1.2-0.6c-0.3-0.2-0.4-0.5-0.2-0.8c0.2-0.3,0.5-0.4,0.8-0.2
		c0.3,0.2,0.7,0.4,1.1,0.5c0.4,0.2,1,0.1,1.3-0.3l2.3-2.3c0.3-0.3,0.4-0.8,0.3-1.3c-0.3-0.7-0.8-1.7-1.6-2.5
		c-0.8-0.8-1.8-1.3-2.5-1.6c-0.4-0.2-0.9-0.1-1.3,0.3l-2.3,2.3c-0.3,0.3-0.4,0.9-0.2,1.3c0.2,0.4,0.4,0.7,0.6,1.1
		c0.1,0.2,0.1,0.5-0.1,0.7l-5.2,5.2v1.8h1.4v-1.1c0-0.3,0.3-0.6,0.6-0.6l1.1,0v-1.1c0-0.3,0.3-0.6,0.6-0.6H16c0.3,0,0.6,0.3,0.6,0.6
		s-0.3,0.6-0.6,0.6h-1.1v1.1c0,0.3-0.3,0.6-0.6,0.6l-1.1,0v1.1C13.3,23.9,13,24.1,12.7,24.1z"/>
	<path class="st0" d="M8.3,19.1l0.6-0.6c0,0-0.1,0-0.1,0c-4.3,0-7.5-1.2-7.6-2.4c0,0,0,0,0,0v-2.8c0,0,0,0,0,0
		c0.1,0.1,0.1,0.1,0.2,0.2c1.3,0.9,3.8,1.7,7.4,1.7c1.4,0,2.6-0.1,3.6-0.3c-0.1-0.2-0.1-0.4-0.1-0.7c-0.2,0-0.3,0.1-0.5,0.1
		c0,0,0,0,0,0c-0.2,0-0.4,0.1-0.7,0.1c0,0-0.1,0-0.1,0c-0.2,0-0.4,0-0.6,0.1c-0.1,0-0.2,0-0.3,0c-0.2,0-0.3,0-0.5,0
		c-0.3,0-0.5,0-0.8,0s-0.5,0-0.8,0c-0.2,0-0.3,0-0.5,0c-0.1,0-0.2,0-0.3,0c-0.2,0-0.4,0-0.6-0.1c0,0-0.1,0-0.1,0
		c-0.2,0-0.5-0.1-0.7-0.1c0,0,0,0,0,0c-1.1-0.2-2.1-0.4-2.8-0.7c0,0,0,0,0,0c-0.1-0.1-0.3-0.1-0.4-0.2c0,0,0,0,0,0
		c-0.1-0.1-0.2-0.1-0.3-0.2c0,0,0,0-0.1,0C2,13.1,1.9,13.1,1.8,13c0,0-0.1,0-0.1-0.1c-0.1,0-0.1-0.1-0.2-0.1c0,0-0.1-0.1-0.1-0.1
		c0,0-0.1-0.1-0.1-0.1c0,0-0.1-0.1-0.1-0.1c0,0-0.1-0.1-0.1-0.1c0,0,0-0.1,0-0.1c0,0,0-0.1,0-0.1c0-0.1,0-0.1,0-0.2c0,0,0-0.1,0-0.1
		c0-0.1,0-0.1,0-0.1V9.3c0,0,0,0,0,0c0.1,0.1,0.1,0.1,0.2,0.2c1.3,0.9,3.8,1.7,7.4,1.7c1.9,0,3.4-0.2,4.7-0.5c0,0,0,0,0.1-0.1l1-1
		c-0.7,0.3-1.6,0.5-2.7,0.7c0,0,0,0,0,0c-0.2,0-0.4,0.1-0.7,0.1c0,0-0.1,0-0.1,0c-0.2,0-0.4,0-0.6,0.1c-0.1,0-0.2,0-0.3,0
		c-0.2,0-0.3,0-0.5,0c-0.3,0-0.5,0-0.8,0s-0.5,0-0.8,0c-0.2,0-0.3,0-0.5,0c-0.1,0-0.2,0-0.3,0c-0.2,0-0.4,0-0.6-0.1c0,0-0.1,0-0.1,0
		c-0.2,0-0.5-0.1-0.7-0.1c0,0,0,0,0,0c-1.1-0.2-2.1-0.4-2.8-0.7c0,0,0,0,0,0C2.7,9.5,2.6,9.5,2.5,9.4c0,0,0,0,0,0
		C2.3,9.3,2.2,9.3,2.1,9.2c0,0,0,0-0.1,0C2,9.1,1.9,9.1,1.8,9c0,0-0.1,0-0.1-0.1c-0.1,0-0.1-0.1-0.2-0.1c0,0-0.1-0.1-0.1-0.1
		c0,0-0.1-0.1-0.1-0.1c0,0-0.1-0.1-0.1-0.1c0,0-0.1-0.1-0.1-0.1c0,0,0-0.1,0-0.1c0,0,0-0.1,0-0.1c0-0.1,0-0.1,0-0.2c0,0,0-0.1,0-0.1
		c0-0.1,0-0.1,0-0.1V5.3c0,0,0.1,0.1,0.1,0.1c0,0,0,0,0.1,0.1c0.1,0.1,0.2,0.2,0.3,0.2c0,0,0.1,0,0.1,0C1.8,5.8,1.9,5.9,2,5.9
		c0,0,0.1,0,0.1,0.1C2.2,6,2.4,6.1,2.5,6.2c0,0,0,0,0.1,0c0.2,0.1,0.3,0.1,0.5,0.2c0,0,0.1,0,0.1,0c0.1,0,0.3,0.1,0.4,0.1
		c0.1,0,0.1,0,0.2,0C4,6.7,4.2,6.7,4.4,6.8c0,0,0.1,0,0.1,0c0.2,0,0.4,0.1,0.6,0.1c0.1,0,0.1,0,0.2,0C5.4,7,5.6,7,5.8,7
		C5.9,7,5.9,7,6,7c0.2,0,0.5,0.1,0.8,0.1c0.1,0,0.1,0,0.2,0c0.2,0,0.4,0,0.6,0c0.1,0,0.2,0,0.2,0c0.3,0,0.6,0,0.9,0s0.6,0,0.9,0
		c0.1,0,0.2,0,0.2,0c0.2,0,0.4,0,0.6,0c0.1,0,0.1,0,0.2,0c0.3,0,0.5,0,0.8-0.1c0.1,0,0.1,0,0.2,0C11.8,7,12,7,12.2,6.9
		c0.1,0,0.1,0,0.2,0c0.2,0,0.4-0.1,0.6-0.1c0,0,0.1,0,0.1,0c0.2,0,0.4-0.1,0.6-0.2c0.1,0,0.1,0,0.2,0c0.1,0,0.3-0.1,0.4-0.1
		c0,0,0.1,0,0.1,0c0.2-0.1,0.3-0.1,0.5-0.2c0,0,0,0,0.1,0C15.1,6.1,15.2,6,15.3,6c0,0,0.1,0,0.1-0.1c0.1-0.1,0.2-0.1,0.3-0.2
		c0,0,0.1,0,0.1,0c0.1-0.1,0.2-0.2,0.3-0.2c0,0,0,0,0.1-0.1c0,0,0.1-0.1,0.1-0.1v2.5c0,0,0,0,0,0c0.2-0.1,0.4-0.3,0.7-0.4V3.9
		c0-0.1,0-0.1,0-0.2c-0.4-1.4-3.3-2.8-8.3-2.8S0.8,2.3,0.5,3.7c0,0,0,0.1,0,0.2v12.3c0,0.1,0,0.1,0,0.1C0.8,17.9,4.1,19.1,8.3,19.1
		C8.2,19.1,8.2,19.1,8.3,19.1z M8.7,1.5c4.5,0,7.7,1.3,7.7,2.5c0,1.2-3.1,2.5-7.7,2.5S1.1,5.2,1.1,4C1.1,2.9,4.2,1.5,8.7,1.5z"/>
</g>
</svg>
