<?xml version="1.0" encoding="utf-8"?>
<!-- Generator: Adobe Illustrator 19.0.0, SVG Export Plug-In . SVG Version: 6.00 Build 0)  -->
<svg version="1.1" id="Layer_1" xmlns="http://www.w3.org/2000/svg" xmlns:xlink="http://www.w3.org/1999/xlink" x="0px" y="0px"
	 viewBox="0 0 46 46" style="enable-background:new 0 0 46 46;" xml:space="preserve">
<style type="text/css">
	.st0{fill:#676A6C;}
</style>
<g>
	<path class="st0" d="M24.8,6.9L21.3,2H6.2v2.8H4.1v2.8H2V44h42V6.9H24.8z M3.4,42.6V9h12.9l3.5,4.9h0l3.3,4.6
		c0.1,0.2,0.4,0.3,0.6,0.3v0h18.9v23.8H3.4z M42.6,17.4H24.1l-2.5-3.5h21V17.4z M42.6,12.5h-22l-3.3-4.6l-0.2-0.3H5.5V6.2h12.9
		l3.5,4.9h20.7V12.5z M22.7,9.7l-3.5-4.9H7.6V3.4h12.9L24,8.3h18.6v1.4H22.7z M22.7,9.7"/>
	<path class="st0" d="M20.9,40.5h19.6v-14H20.9V40.5z M22.3,27.9h16.8v11.2H22.3V27.9z M22.3,27.9"/>
	<rect x="25.1" y="30" class="st0" width="7" height="1.4"/>
	<rect x="25.1" y="32.8" class="st0" width="11.2" height="1.4"/>
	<rect x="25.1" y="35.6" class="st0" width="11.2" height="1.4"/>
</g>
</svg>
