<?xml version="1.0" encoding="utf-8"?>
<!-- Generator: Adobe Illustrator 23.0.2, SVG Export Plug-In . SVG Version: 6.00 Build 0)  -->
<svg version="1.1" id="Layer_1" xmlns="http://www.w3.org/2000/svg" xmlns:xlink="http://www.w3.org/1999/xlink" x="0px" y="0px"
	 viewBox="0 0 212.2 68.9" style="enable-background:new 0 0 212.2 68.9;" xml:space="preserve">
<style type="text/css">
	.st0{fill:#379DD5;}
	.st1{fill:#676A6C;}
</style>
<g>
	<path class="st0" d="M44.9,21.1c-5.1,0-9.8,1.6-13.7,4.3l0.1,0c-2.2,0.9-3.8-0.4-4.7-1.3c-0.9-0.9-2.1-2.5-1.2-4.7l0,0
		c2.5-5,1.7-11.3-2.5-15.5c-5.2-5.2-13.7-5.2-18.9,0c-5.2,5.2-5.2,13.7,0,18.9c2.6,2.6,6,3.9,9.4,3.9c2.2,0,4.4-0.5,6.4-1.6
		c2.1-0.7,3.6,0.4,4.5,1.3c0.9,0.9,2.1,2.4,1.3,4.6c-2.8,3.9-4.5,8.8-4.5,14c0,13.2,10.7,23.9,23.9,23.9S68.8,58.2,68.8,45
		C68.8,31.8,58.1,21.1,44.9,21.1z M5.2,21.5C0.7,17,0.7,9.7,5.2,5.2c2.2-2.2,5.2-3.4,8.1-3.4c2.9,0,5.9,1.1,8.1,3.4
		C26,9.7,26,17,21.5,21.5C17,26,9.7,26,5.2,21.5z M53.1,57.3V32.1c0-1.9-1.5-3.4-3.4-3.4c-1.9,0-3.4,1.5-3.4,3.4v28.3
		c-0.6,0.1-1.3,0.2-1.9,0.3V38.9c0-1.9-1.5-3.4-3.4-3.4c-1.9,0-3.4,1.5-3.4,3.4v21.3c-0.7-0.2-1.3-0.4-1.9-0.6l0-13.9
		c0-1.9-1.5-3.4-3.4-3.4c-1.9,0-3.4,1.5-3.4,3.4V55c-3.1-3.3-5-7.7-5-12.6c0-10.2,8.3-18.5,18.5-18.5c10.2,0,18.5,8.3,18.5,18.5
		C60.8,48.5,57.8,54,53.1,57.3z"/>
	<circle class="st0" cx="13.1" cy="13.1" r="6"/>
</g>
<g>
	<path class="st1" d="M100.9,49H85.2v15.2h-4.7V29.8h22.8v3.7H85.2v11.9h15.7V49z"/>
	<path class="st1" d="M112.9,64.2h-4.7V27.4h4.7V64.2z"/>
	<path class="st1" d="M135.8,64.2c-0.2-0.8-0.3-1.5-0.4-2c-0.1-0.6-0.1-1.2-0.2-1.8c-0.9,1.2-2,2.3-3.4,3.1
		c-1.4,0.8-2.9,1.2-4.5,1.2c-2.7,0-4.7-0.7-6.1-2c-1.4-1.4-2.1-3.2-2.1-5.6c0-2.4,1-4.4,3-5.7c2-1.4,4.7-2.1,8.1-2.1h5.1v-2.5
		c0-1.5-0.5-2.7-1.4-3.6c-0.9-0.9-2.2-1.3-3.9-1.3c-1.5,0-2.7,0.4-3.7,1.1c-0.9,0.8-1.4,1.7-1.4,2.8h-4.4l0-0.1
		c-0.1-1.9,0.8-3.6,2.6-5.1c1.9-1.5,4.2-2.3,7.2-2.3c2.9,0,5.2,0.7,7,2.2c1.8,1.5,2.6,3.6,2.6,6.4v12.3c0,0.9,0,1.8,0.1,2.6
		c0.1,0.9,0.3,1.7,0.5,2.5H135.8z M128,60.8c1.7,0,3.2-0.4,4.6-1.3c1.4-0.9,2.2-1.9,2.6-3v-4.1H130c-1.9,0-3.4,0.5-4.5,1.4
		c-1.1,0.9-1.7,2.1-1.7,3.3c0,1.1,0.4,2,1.1,2.7C125.6,60.5,126.6,60.8,128,60.8z"/>
	<path class="st1" d="M151.7,32.1H147v-4.8h4.7V32.1z M151.7,64.2H147V38.7h4.7V64.2z"/>
	<path class="st1" d="M171,42.8l-2.4-0.1c-1.2,0-2.3,0.3-3.1,0.9c-0.8,0.6-1.5,1.4-2,2.5v18.3h-4.7V38.7h4.2l0.4,3.7
		c0.7-1.3,1.6-2.4,2.7-3.1c1.1-0.7,2.3-1.1,3.7-1.1c0.3,0,0.7,0,1,0.1c0.3,0.1,0.6,0.1,0.8,0.2L171,42.8z"/>
	<path class="st1" d="M176.3,64.2V29.8h11.2c3.6,0,6.4,0.8,8.4,2.3c2,1.6,3.1,3.9,3.1,7c0,1.5-0.5,2.9-1.5,4.1
		c-1,1.2-2.3,2.1-3.9,2.7c2.1,0.4,3.7,1.5,4.9,3.1s1.8,3.4,1.8,5.6c0,3.2-1,5.6-3.1,7.2c-2,1.7-4.8,2.5-8.3,2.5H176.3z M181,44.4
		h7.5c1.7,0,3.1-0.5,4.2-1.4c1.1-1,1.6-2.3,1.6-4c0-1.9-0.6-3.3-1.8-4.2c-1.2-0.9-2.9-1.4-5.1-1.4H181V44.4z M181,48.1v12.5h8.1
		c2.1,0,3.8-0.5,4.9-1.6c1.2-1,1.8-2.5,1.8-4.4c0-2-0.5-3.6-1.5-4.7c-1-1.1-2.5-1.7-4.6-1.7H181z"/>
	<path class="st1" d="M212.2,64.2h-4.7V29.8h4.7V64.2z"/>
</g>
</svg>
