<?xml version="1.0" encoding="utf-8"?>
<!-- Generator: Adobe Illustrator 23.0.3, SVG Export Plug-In . SVG Version: 6.00 Build 0)  -->
<svg version="1.1" id="Layer_1" xmlns="http://www.w3.org/2000/svg" xmlns:xlink="http://www.w3.org/1999/xlink" x="0px" y="0px"
	 viewBox="0 0 100 100" style="enable-background:new 0 0 100 100;" xml:space="preserve">
<style type="text/css">
	.st0{fill:#7C8082;}
	.st1{fill:#FFFFFF;}
</style>
<circle class="st0" cx="50" cy="50" r="50"/>
<g>
	<g>
		<circle class="st1" cx="50" cy="50" r="12.6"/>
	</g>
	<g>
		<path class="st1" d="M33.9,68.8c-0.9,0-1.7-0.4-2.3-1.1c-4.1-5-6.4-11.3-6.4-17.8c0-6.5,2.3-12.9,6.5-17.9c1-1.3,2.9-1.4,4.2-0.4
			c1.3,1,1.4,2.9,0.4,4.2c-3.3,3.9-5.1,9-5.1,14.1c0,5.1,1.8,10.1,5,14c1,1.3,0.9,3.1-0.4,4.2C35.2,68.6,34.5,68.8,33.9,68.8z"/>
	</g>
	<g>
		<path class="st1" d="M66,69c-0.7,0-1.3-0.2-1.9-0.7c-1.3-1-1.4-2.9-0.4-4.2c3.3-3.9,5.1-9,5.1-14.1c0-5.2-1.8-10.2-5.1-14.1
			c-1-1.3-0.9-3.1,0.4-4.2s3.1-0.9,4.2,0.4c4.2,5,6.5,11.4,6.5,17.9c0,6.5-2.3,12.9-6.5,17.9C67.7,68.6,66.9,69,66,69z"/>
	</g>
	<g>
		<path class="st1" d="M26.7,77.4c-0.9,0-1.7-0.4-2.3-1.1C18.3,68.9,15,59.6,15,50c0-9.7,3.4-19.1,9.6-26.5c1-1.3,2.9-1.4,4.2-0.4
			c1.3,1,1.4,2.9,0.4,4.2c-5.3,6.3-8.2,14.4-8.2,22.7c0,8.2,2.9,16.2,8.1,22.5c1,1.3,0.9,3.1-0.4,4.2C28,77.1,27.3,77.4,26.7,77.4z"
			/>
	</g>
	<g>
		<path class="st1" d="M73.2,77.5c-0.7,0-1.3-0.2-1.9-0.7c-1.3-1-1.4-2.9-0.4-4.2c5.3-6.3,8.2-14.4,8.2-22.7
			c0-8.3-2.9-16.4-8.2-22.7c-1-1.3-0.9-3.1,0.4-4.2c1.3-1,3.1-0.9,4.2,0.4C81.6,30.9,85,40.3,85,50c0,9.7-3.4,19.1-9.6,26.5
			C74.9,77.2,74,77.5,73.2,77.5z"/>
	</g>
</g>
</svg>
