<?xml version="1.0" encoding="utf-8"?>
<!-- Generator: Adobe Illustrator 19.0.0, SVG Export Plug-In . SVG Version: 6.00 Build 0)  -->
<svg version="1.1" id="Layer_1" xmlns="http://www.w3.org/2000/svg" xmlns:xlink="http://www.w3.org/1999/xlink" x="0px" y="0px"
	 viewBox="0 0 50 50" style="enable-background:new 0 0 50 50;" xml:space="preserve">
<style type="text/css">
	.st0{fill:#439DD3;}
	.st1{fill:#676A6C;}
</style>
<path class="st0" d="M43.9,45.1l-6.2-6.2c1.7-1.9,2.7-4.4,2.7-7.2c0-6-4.9-11-11-11c-6,0-11,4.9-11,11s4.9,11,11,11
	c2.7,0,5.3-1,7.2-2.7l6.2,6.2c0.1,0.1,0.3,0.2,0.5,0.2s0.4-0.1,0.5-0.2C44.2,45.8,44.2,45.3,43.9,45.1L43.9,45.1z M19.9,31.6
	c0-5.2,4.2-9.4,9.4-9.4c5.2,0,9.4,4.2,9.4,9.4S34.6,41,29.4,41C24.2,41,19.9,36.8,19.9,31.6L19.9,31.6z M19.9,31.6"/>
<g>
	<path class="st1" d="M33.4,25.8c0.1-0.1,0.2-0.1,0.2-0.2c-0.3-0.2-0.7-0.4-1.1-0.6c-0.1,0.1-0.2,0.2-0.4,0.2c0,0-0.1,0-0.1,0.1
		c-0.2,0.1-0.4,0.2-0.6,0.3c0,0-0.1,0-0.1,0c-0.2,0.1-0.4,0.2-0.7,0.3c0,0,0,0,0,0c-1.3,0.5-3,1-5,1.3c0,0,0,0,0,0
		c-0.4,0.1-0.8,0.1-1.2,0.2c-0.1,0-0.1,0-0.2,0c-0.3,0-0.7,0.1-1.1,0.1c-0.3,0.4-0.5,0.8-0.7,1.2C27.8,28.4,31.4,27.2,33.4,25.8z"/>
	<path class="st1" d="M35,30.7c0-0.1,0.1-0.2,0.1-0.3v-3.6c-0.3-0.4-0.7-0.8-1.2-1.1v4.5c0,0,0,0.1,0,0.1c-0.3,1.8-4.8,3.8-11.4,4.1
		c0.2,0.4,0.4,0.8,0.6,1.1C29.5,35.2,34.3,33.2,35,30.7z"/>
	<path class="st1" d="M16.7,34.3c-5.6-0.6-9.3-2.3-9.6-4c0,0,0-0.1,0-0.1v-4.9c0,0,0,0,0.1,0c0.1,0.1,0.3,0.2,0.4,0.3
		c1.7,1.3,4.9,2.4,9.3,2.8c0.1-0.4,0.2-0.8,0.3-1.1c-0.2,0-0.3,0-0.5,0c-0.1,0-0.1,0-0.2,0c-0.4,0-0.8-0.1-1.2-0.2c0,0,0,0,0,0
		c-2-0.3-3.7-0.7-5-1.3c0,0,0,0,0,0c-0.2-0.1-0.5-0.2-0.7-0.3c0,0-0.1,0-0.1,0c-0.2-0.1-0.4-0.2-0.5-0.3c0,0-0.1,0-0.1-0.1
		c-0.2-0.1-0.3-0.2-0.4-0.3c-0.1,0-0.1-0.1-0.2-0.1c-0.1-0.1-0.2-0.2-0.3-0.2c-0.1,0-0.1-0.1-0.2-0.1c-0.1-0.1-0.1-0.2-0.2-0.2
		c0-0.1-0.1-0.1-0.1-0.2c-0.1-0.1-0.1-0.1-0.1-0.2c0-0.1-0.1-0.1-0.1-0.2c0-0.1-0.1-0.1-0.1-0.2c0-0.1,0-0.2,0-0.3
		c0-0.1,0-0.1,0-0.2c0-0.1,0-0.2,0-0.3v-4.3c0,0,0,0,0.1,0c0.1,0.1,0.3,0.2,0.4,0.3c2.2,1.7,6.6,3,12.9,3c0.2,0,0.4,0,0.6,0
		c0.5-0.5,1.1-0.9,1.8-1.2c0,0-0.1,0-0.1,0c-0.3,0-0.6,0-0.8,0c-0.5,0-0.9,0-1.4,0c-0.5,0-1,0-1.4,0c-0.3,0-0.6,0-0.8,0
		c-0.2,0-0.3,0-0.5,0c-0.4,0-0.7-0.1-1.1-0.1c-0.1,0-0.1,0-0.2,0c-0.4,0-0.8-0.1-1.2-0.2c0,0,0,0,0,0c-2-0.3-3.7-0.7-5-1.3
		c0,0,0,0,0,0c-0.2-0.1-0.5-0.2-0.7-0.3c0,0-0.1,0-0.1,0c-0.2-0.1-0.4-0.2-0.5-0.3c0,0-0.1,0-0.1-0.1c-0.2-0.1-0.3-0.2-0.4-0.3
		c-0.1,0-0.1-0.1-0.2-0.1c-0.1-0.1-0.2-0.2-0.3-0.2c-0.1,0-0.1-0.1-0.2-0.1c-0.1-0.1-0.1-0.2-0.2-0.2c0-0.1-0.1-0.1-0.1-0.2
		c-0.1-0.1-0.1-0.1-0.1-0.2c0-0.1-0.1-0.1-0.1-0.2c0-0.1-0.1-0.1-0.1-0.2c0-0.1,0-0.2,0-0.3c0-0.1,0-0.1,0-0.2c0-0.1,0-0.2,0-0.3
		v-4.3c0.1,0.1,0.1,0.1,0.2,0.2c0,0,0.1,0.1,0.1,0.1C7.6,11.8,7.8,12,8,12.1c0,0,0.1,0.1,0.1,0.1c0.2,0.1,0.4,0.2,0.5,0.3
		c0.1,0,0.1,0.1,0.2,0.1c0.2,0.1,0.4,0.2,0.7,0.3c0,0,0.1,0,0.1,0c0.3,0.1,0.6,0.2,0.9,0.3c0.1,0,0.2,0.1,0.3,0.1
		c0.2,0.1,0.5,0.2,0.7,0.2c0.1,0,0.2,0.1,0.3,0.1c0.3,0.1,0.7,0.2,1.1,0.3c0,0,0.1,0,0.2,0c0.3,0.1,0.7,0.1,1,0.2
		c0.1,0,0.2,0,0.4,0.1c0.3,0.1,0.7,0.1,1,0.1c0.1,0,0.2,0,0.3,0c0.4,0.1,0.9,0.1,1.3,0.1c0.1,0,0.2,0,0.3,0c0.4,0,0.7,0,1.1,0.1
		c0.1,0,0.3,0,0.4,0c0.5,0,1,0,1.5,0s1,0,1.5,0c0.1,0,0.3,0,0.4,0c0.4,0,0.8,0,1.1-0.1c0.1,0,0.2,0,0.3,0c0.5,0,0.9-0.1,1.3-0.1
		c0.1,0,0.2,0,0.3,0c0.4,0,0.7-0.1,1-0.1c0.1,0,0.2,0,0.4-0.1c0.3-0.1,0.7-0.1,1-0.2c0.1,0,0.1,0,0.2,0c0.4-0.1,0.7-0.2,1.1-0.3
		c0.1,0,0.2-0.1,0.3-0.1c0.3-0.1,0.5-0.2,0.7-0.2c0.1,0,0.2-0.1,0.3-0.1c0.3-0.1,0.6-0.2,0.9-0.3c0,0,0.1,0,0.1,0
		c0.2-0.1,0.5-0.2,0.7-0.3c0.1,0,0.1-0.1,0.2-0.1c0.2-0.1,0.4-0.2,0.5-0.3c0,0,0.1-0.1,0.1-0.1c0.2-0.1,0.4-0.3,0.6-0.4
		c0,0,0.1-0.1,0.1-0.1c0.1-0.1,0.2-0.1,0.2-0.2v4.3c0,0.1,0,0.2,0,0.3c0,0.1,0,0.1,0,0.2c0,0.1,0,0.2,0,0.3c0,0.1,0,0.1-0.1,0.2
		c0,0.1-0.1,0.1-0.1,0.2c0,0.1-0.1,0.1-0.1,0.2c0,0.1-0.1,0.1-0.1,0.2c-0.1,0.1-0.1,0.2-0.2,0.2c0,0-0.1,0.1-0.2,0.1
		c-0.1,0.1-0.2,0.2-0.3,0.2c0,0-0.1,0.1-0.2,0.1c-0.1,0.1-0.3,0.2-0.4,0.3c0,0-0.1,0-0.1,0.1c-0.2,0.1-0.4,0.2-0.6,0.3
		c0,0-0.1,0-0.1,0c-0.1,0.1-0.3,0.1-0.4,0.2c0.6,0.1,1.2,0.2,1.8,0.4c0.2-0.1,0.4-0.2,0.6-0.4c0.2-0.1,0.3-0.3,0.5-0.4v1.1
		c0.4,0.1,0.8,0.3,1.2,0.5V8.9c0-0.1,0-0.2-0.1-0.3c-0.7-2.5-5.7-5-14.5-5c-8.8,0-13.8,2.5-14.5,5c0,0.1-0.1,0.2-0.1,0.3v21.6
		c0,0.1,0,0.2,0.1,0.3c0.6,2.4,5.1,4.3,11,4.8C16.9,35.1,16.8,34.7,16.7,34.3z M20.5,4.8c7.9,0,13.4,2.3,13.4,4.4
		c0,2.1-5.5,4.4-13.4,4.4S7.1,11.2,7.1,9.2C7.1,7.1,12.6,4.8,20.5,4.8z"/>
</g>
</svg>
