<?xml version="1.0" encoding="utf-8"?>
<svg xmlns="http://www.w3.org/2000/svg" xmlns:xlink="http://www.w3.org/1999/xlink" version="1.1" id="Layer_1" x="0px" y="0px" viewBox="0 0 556.9 172.2" style="enable-background:new 0 0 556.9 172.2;">
<style type="text/css">
	.st0{fill:#379DD5;}
	.st1{fill:#676A6C;}
</style>
<g>
	<path class="st0" d="M112.2,52.7c-12.7,0-24.5,4-34.2,10.8l0.1-0.1c-5.6,2.2-9.5-0.9-11.8-3.2c-2.3-2.3-5.3-6.1-3.1-11.7l0,0   c2.3-4.6,3.6-9.7,3.6-15.1c0-8.9-3.5-17.3-9.8-23.6c-13-13-34.2-13-47.2,0C3.5,16.1,0,24.5,0,33.4C0,42.3,3.5,50.7,9.8,57   c6.5,6.5,15.1,9.8,23.6,9.8c5.5,0,10.9-1.4,15.9-4c5.3-1.8,9,1.1,11.2,3.3c2.2,2.2,5.2,6,3.3,11.5c-7.1,9.8-11.3,21.9-11.3,34.9   c0,33,26.8,59.8,59.8,59.8c33,0,59.8-26.8,59.8-59.8C172,79.4,145.2,52.7,112.2,52.7z M13,53.7C1.8,42.5,1.8,24.3,13,13   c5.6-5.6,13-8.4,20.4-8.4c7.4,0,14.7,2.8,20.4,8.4C65,24.3,65,42.5,53.8,53.7C42.5,65,24.3,65,13,53.7z M132.8,143.3v-63   c0-4.7-3.8-8.5-8.5-8.5c-4.7,0-8.5,3.8-8.5,8.5V151c-1.6,0.3-3.2,0.6-4.8,0.8V97.3c0-4.7-3.8-8.5-8.5-8.5c-4.7,0-8.5,3.8-8.5,8.5   v53.2c-1.6-0.4-3.2-0.9-4.8-1.5l0-34.7c0-4.7-3.8-8.5-8.5-8.5c-4.7,0-8.5,3.8-8.5,8.5v23.2c-7.7-8.3-12.5-19.3-12.5-31.6   c0-25.5,20.7-46.2,46.2-46.2c25.5,0,46.2,20.7,46.2,46.2C151.9,121.3,144.4,134.9,132.8,143.3z"/>
	<circle class="st0" cx="32.9" cy="32.9" r="14.9"/>
</g>
<g>
	<path class="st1" d="M254.4,122.7h-38.5V160h-11.4V75.6h55.8v9h-44.4v29.1h38.5V122.7z"/>
	<path class="st1" d="M283.8,160h-11.4V69.6h11.4V160z"/>
	<path class="st1" d="M339.9,160c-0.4-1.9-0.7-3.6-0.9-5c-0.2-1.4-0.3-2.9-0.4-4.4c-2.1,3-4.9,5.5-8.3,7.6c-3.4,2-7.1,3-11,3   c-6.5,0-11.5-1.7-14.9-5c-3.4-3.3-5.1-8-5.1-13.8c0-6,2.4-10.7,7.3-14.1c4.9-3.4,11.4-5.1,19.7-5.1h12.4V117c0-3.7-1.1-6.6-3.4-8.7   c-2.2-2.1-5.4-3.2-9.5-3.2c-3.7,0-6.7,0.9-9,2.8c-2.3,1.9-3.5,4.1-3.5,6.8h-10.9l-0.1-0.3c-0.2-4.6,1.9-8.7,6.5-12.5   c4.5-3.8,10.4-5.7,17.6-5.7c7.1,0,12.8,1.8,17.2,5.4c4.3,3.6,6.5,8.8,6.5,15.6v30.2c0,2.2,0.1,4.4,0.3,6.5c0.2,2.1,0.7,4.1,1.3,6.1   H339.9z M321,151.6c4.1,0,7.9-1.1,11.2-3.2c3.3-2.1,5.5-4.5,6.5-7.3V131h-12.8c-4.6,0-8.3,1.2-11,3.5s-4.1,5-4.1,8.2   c0,2.8,0.9,5,2.6,6.6S317.6,151.6,321,151.6z"/>
	<path class="st1" d="M379,81.2h-11.4V69.6H379V81.2z M379,160h-11.4V97.3H379V160z"/>
	<path class="st1" d="M426.3,107.4l-5.9-0.3c-3,0-5.6,0.7-7.6,2.1c-2.1,1.4-3.7,3.4-4.8,6V160h-11.4V97.3h10.2l1.1,9.2   c1.8-3.2,4-5.8,6.6-7.6c2.6-1.8,5.6-2.7,9-2.7c0.9,0,1.7,0.1,2.4,0.2c0.8,0.1,1.4,0.3,1.9,0.4L426.3,107.4z"/>
	<path class="st1" d="M469,160V75.6h27.5c8.8,0,15.7,1.9,20.7,5.7c5,3.8,7.5,9.5,7.5,17.1c0,3.7-1.2,7.1-3.6,10.1   c-2.4,3-5.5,5.2-9.5,6.6c5.1,1.1,9.1,3.6,12,7.5c2.9,3.9,4.4,8.4,4.4,13.6c0,7.7-2.5,13.6-7.5,17.7c-5,4.1-11.8,6.1-20.4,6.1H469z    M480.4,111.5h18.5c4.3,0,7.7-1.2,10.4-3.5s4-5.6,4-9.8c0-4.6-1.4-8-4.3-10.2c-2.9-2.3-7-3.4-12.4-3.4h-16.1V111.5z M480.4,120.5   V151h19.8c5.2,0,9.2-1.3,12.1-3.8c2.9-2.6,4.3-6.2,4.3-10.9c0-4.9-1.2-8.8-3.6-11.6c-2.4-2.8-6.1-4.2-11.2-4.2H480.4z"/>
	<path class="st1" d="M556.9,160h-11.5V75.6h11.5V160z"/>
</g>
</svg>
